%FSLAX44Y44*%
%MOMM*%
G71*
G01*
G75*
G04 Layer_Color=32896*
%ADD10R,1.4000X1.0000*%
%ADD11R,1.0000X1.4000*%
%ADD12R,0.6350X2.5400*%
%ADD13O,1.9500X0.3000*%
%ADD14O,0.3000X1.9500*%
%ADD15O,0.6000X1.8000*%
%ADD16O,0.6000X1.5000*%
%ADD17R,0.6000X1.3970*%
%ADD18R,1.3970X0.6000*%
%ADD19R,1.9000X1.1000*%
%ADD20O,0.6000X2.4000*%
%ADD21R,1.3000X1.8000*%
%ADD22R,1.5000X3.0000*%
%ADD23R,1.0500X1.8000*%
%ADD24R,1.8000X1.3000*%
%ADD25R,2.5000X4.0000*%
%ADD26R,1.2000X3.5000*%
%ADD27R,1.8000X1.0500*%
%ADD28R,3.0000X2.8000*%
%ADD29O,1.8000X0.6000*%
%ADD30R,7.4000X5.7500*%
%ADD31R,3.2000X0.8000*%
%ADD32R,0.6500X1.0500*%
%ADD33C,0.8890*%
%ADD34R,1.4000X0.5080*%
%ADD35C,0.2540*%
%ADD36C,0.7620*%
%ADD37C,0.5080*%
%ADD38C,0.1524*%
%ADD39C,1.5000*%
%ADD40R,1.5000X1.5000*%
%ADD41C,1.4000*%
%ADD42R,1.4000X1.4000*%
%ADD43R,1.5240X1.5240*%
%ADD44C,1.5240*%
%ADD45R,1.5240X1.5240*%
%ADD46O,2.0000X2.5000*%
%ADD47C,1.2000*%
%ADD48R,1.3000X1.3000*%
%ADD49C,1.3000*%
%ADD50C,4.8000*%
%ADD51C,1.6510*%
%ADD52R,1.6510X1.6510*%
%ADD53C,2.5400*%
%ADD54O,1.5100X1.5000*%
%ADD55C,0.8128*%
%ADD56C,1.3970*%
%ADD57R,3.5000X1.2000*%
%ADD58C,0.2500*%
%ADD59C,0.5000*%
%ADD60C,0.6000*%
%ADD61C,0.2000*%
%ADD62C,0.1500*%
%ADD63R,0.5500X1.6000*%
%ADD64R,1.6000X0.5500*%
%ADD65R,1.6540X1.2540*%
%ADD66R,1.2540X1.6540*%
%ADD67R,0.8890X2.7940*%
%ADD68O,2.2040X0.5540*%
%ADD69O,0.5540X2.2040*%
%ADD70O,0.8540X2.0540*%
%ADD71O,0.8540X1.7540*%
%ADD72R,0.8540X1.6510*%
%ADD73R,1.6510X0.8540*%
%ADD74R,2.1540X1.3540*%
%ADD75O,0.8540X2.6540*%
%ADD76R,1.5540X2.0540*%
%ADD77R,1.7540X3.2540*%
%ADD78R,1.3040X2.0540*%
%ADD79R,2.0540X1.5540*%
%ADD80R,2.7540X4.2540*%
%ADD81R,1.4540X3.7540*%
%ADD82R,2.0540X1.3040*%
%ADD83R,3.2540X3.0540*%
%ADD84O,2.0540X0.8540*%
%ADD85R,7.6540X6.0040*%
%ADD86R,3.4540X1.0540*%
%ADD87R,0.9040X1.3040*%
%ADD88C,1.1430*%
%ADD89R,1.6540X0.7620*%
%ADD90C,1.7540*%
%ADD91R,1.7540X1.7540*%
%ADD92C,0.2540*%
%ADD93C,1.6540*%
%ADD94R,1.6540X1.6540*%
%ADD95R,1.7780X1.7780*%
%ADD96C,1.7780*%
%ADD97R,1.7780X1.7780*%
%ADD98O,2.2540X2.7540*%
%ADD99C,1.4540*%
%ADD100R,1.5540X1.5540*%
%ADD101C,1.5540*%
%ADD102C,5.0540*%
%ADD103C,1.9050*%
%ADD104R,1.9050X1.9050*%
%ADD105C,2.7940*%
%ADD106O,1.7640X1.7540*%
%ADD107R,3.7540X1.4540*%
D35*
X231140Y716912D02*
Y715219D01*
X227754Y711833D01*
X224369Y715219D01*
Y716912D01*
X227754Y711833D02*
Y706755D01*
X214212D02*
X220983D01*
X214212Y713526D01*
Y715219D01*
X215905Y716912D01*
X219291D01*
X220983Y715219D01*
X314539Y767924D02*
X316232Y769617D01*
X319617D01*
X321310Y767924D01*
Y761153D01*
X319617Y759460D01*
X316232D01*
X314539Y761153D01*
X311153D02*
X309461Y759460D01*
X306075D01*
X304382Y761153D01*
Y767924D01*
X306075Y769617D01*
X309461D01*
X311153Y767924D01*
Y766231D01*
X309461Y764538D01*
X304382D01*
X294225Y769617D02*
X297611Y767924D01*
X300997Y764538D01*
Y761153D01*
X299304Y759460D01*
X295918D01*
X294225Y761153D01*
Y762846D01*
X295918Y764538D01*
X300997D01*
X259929Y767289D02*
X261622Y768982D01*
X265007D01*
X266700Y767289D01*
Y760518D01*
X265007Y758825D01*
X261622D01*
X259929Y760518D01*
X256543D02*
X254851Y758825D01*
X251465D01*
X249772Y760518D01*
Y767289D01*
X251465Y768982D01*
X254851D01*
X256543Y767289D01*
Y765596D01*
X254851Y763903D01*
X249772D01*
X239615Y768982D02*
X246387D01*
Y763903D01*
X243001Y765596D01*
X241308D01*
X239615Y763903D01*
Y760518D01*
X241308Y758825D01*
X244694D01*
X246387Y760518D01*
X1021080Y713105D02*
X1031237D01*
Y718183D01*
X1029544Y719876D01*
X1026158D01*
X1024466Y718183D01*
Y713105D01*
Y716491D02*
X1021080Y719876D01*
Y723262D02*
Y726647D01*
Y724955D01*
X1031237D01*
X1029544Y723262D01*
X1021080Y731726D02*
Y735111D01*
Y733418D01*
X1031237D01*
X1029544Y731726D01*
Y740190D02*
X1031237Y741882D01*
Y745268D01*
X1029544Y746961D01*
X1027851D01*
X1026158Y745268D01*
Y743575D01*
Y745268D01*
X1024466Y746961D01*
X1022773D01*
X1021080Y745268D01*
Y741882D01*
X1022773Y740190D01*
X1072515Y715010D02*
X1082672D01*
Y720088D01*
X1080979Y721781D01*
X1077593D01*
X1075901Y720088D01*
Y715010D01*
Y718396D02*
X1072515Y721781D01*
Y725167D02*
Y728552D01*
Y726860D01*
X1082672D01*
X1080979Y725167D01*
X1072515Y733631D02*
Y737016D01*
Y735323D01*
X1082672D01*
X1080979Y733631D01*
X1072515Y742095D02*
Y745480D01*
Y743787D01*
X1082672D01*
X1080979Y742095D01*
X1121410Y711835D02*
X1131567D01*
Y716913D01*
X1129874Y718606D01*
X1126488D01*
X1124796Y716913D01*
Y711835D01*
Y715221D02*
X1121410Y718606D01*
Y721992D02*
Y725377D01*
Y723684D01*
X1131567D01*
X1129874Y721992D01*
Y730456D02*
X1131567Y732148D01*
Y735534D01*
X1129874Y737227D01*
X1123103D01*
X1121410Y735534D01*
Y732148D01*
X1123103Y730456D01*
X1129874D01*
Y740612D02*
X1131567Y742305D01*
Y745691D01*
X1129874Y747383D01*
X1128181D01*
X1126488Y745691D01*
Y743998D01*
Y745691D01*
X1124796Y747383D01*
X1123103D01*
X1121410Y745691D01*
Y742305D01*
X1123103Y740612D01*
X883285Y817245D02*
Y827402D01*
X878207D01*
X876514Y825709D01*
Y822323D01*
X878207Y820631D01*
X883285D01*
X879899D02*
X876514Y817245D01*
X873128Y827402D02*
X866357D01*
Y825709D01*
X873128Y818938D01*
Y817245D01*
X856200Y827402D02*
X859586Y825709D01*
X862972Y822323D01*
Y818938D01*
X861279Y817245D01*
X857893D01*
X856200Y818938D01*
Y820631D01*
X857893Y822323D01*
X862972D01*
X839261Y600924D02*
X837568Y602617D01*
Y606002D01*
X839261Y607695D01*
X846032D01*
X847725Y606002D01*
Y602617D01*
X846032Y600924D01*
X837568Y597538D02*
Y590767D01*
X839261D01*
X846032Y597538D01*
X847725D01*
Y580610D02*
Y587382D01*
X840954Y580610D01*
X839261D01*
X837568Y582303D01*
Y585689D01*
X839261Y587382D01*
X1075481Y595844D02*
X1073788Y597537D01*
Y600922D01*
X1075481Y602615D01*
X1082252D01*
X1083945Y600922D01*
Y597537D01*
X1082252Y595844D01*
X1073788Y592458D02*
Y585687D01*
X1075481D01*
X1082252Y592458D01*
X1083945D01*
Y582302D02*
Y578916D01*
Y580609D01*
X1073788D01*
X1075481Y582302D01*
X1108924Y675849D02*
X1110617Y677542D01*
X1114002D01*
X1115695Y675849D01*
Y669078D01*
X1114002Y667385D01*
X1110617D01*
X1108924Y669078D01*
X1105538Y677542D02*
X1098767D01*
Y675849D01*
X1105538Y669078D01*
Y667385D01*
X1095382Y675849D02*
X1093689Y677542D01*
X1090303D01*
X1088610Y675849D01*
Y669078D01*
X1090303Y667385D01*
X1093689D01*
X1095382Y669078D01*
Y675849D01*
X1009864D02*
X1011557Y677542D01*
X1014942D01*
X1016635Y675849D01*
Y669078D01*
X1014942Y667385D01*
X1011557D01*
X1009864Y669078D01*
X999707Y677542D02*
X1003093Y675849D01*
X1006478Y672463D01*
Y669078D01*
X1004786Y667385D01*
X1001400D01*
X999707Y669078D01*
Y670771D01*
X1001400Y672463D01*
X1006478D01*
X996322Y669078D02*
X994629Y667385D01*
X991243D01*
X989550Y669078D01*
Y675849D01*
X991243Y677542D01*
X994629D01*
X996322Y675849D01*
Y674156D01*
X994629Y672463D01*
X989550D01*
X410424Y752191D02*
X412117Y750498D01*
Y747113D01*
X410424Y745420D01*
X403653D01*
X401960Y747113D01*
Y750498D01*
X403653Y752191D01*
X412117Y762348D02*
Y755577D01*
X407038D01*
X408731Y758962D01*
Y760655D01*
X407038Y762348D01*
X403653D01*
X401960Y760655D01*
Y757270D01*
X403653Y755577D01*
X410424Y765733D02*
X412117Y767426D01*
Y770812D01*
X410424Y772505D01*
X408731D01*
X407038Y770812D01*
X405346Y772505D01*
X403653D01*
X401960Y770812D01*
Y767426D01*
X403653Y765733D01*
X405346D01*
X407038Y767426D01*
X408731Y765733D01*
X410424D01*
X407038Y767426D02*
Y770812D01*
X337394Y585256D02*
X339087Y583563D01*
Y580178D01*
X337394Y578485D01*
X330623D01*
X328930Y580178D01*
Y583563D01*
X330623Y585256D01*
X339087Y595413D02*
Y588642D01*
X334008D01*
X335701Y592027D01*
Y593720D01*
X334008Y595413D01*
X330623D01*
X328930Y593720D01*
Y590335D01*
X330623Y588642D01*
X339087Y605570D02*
Y598798D01*
X334008D01*
X335701Y602184D01*
Y603877D01*
X334008Y605570D01*
X330623D01*
X328930Y603877D01*
Y600491D01*
X330623Y598798D01*
X379269Y589701D02*
X380962Y588008D01*
Y584623D01*
X379269Y582930D01*
X372498D01*
X370805Y584623D01*
Y588008D01*
X372498Y589701D01*
X380962Y599858D02*
X379269Y596472D01*
X375883Y593087D01*
X372498D01*
X370805Y594780D01*
Y598165D01*
X372498Y599858D01*
X374191D01*
X375883Y598165D01*
Y593087D01*
X370805Y603243D02*
Y606629D01*
Y604936D01*
X380962D01*
X379269Y603243D01*
X357714Y585891D02*
X359407Y584198D01*
Y580813D01*
X357714Y579120D01*
X350943D01*
X349250Y580813D01*
Y584198D01*
X350943Y585891D01*
X359407Y596048D02*
X357714Y592662D01*
X354328Y589277D01*
X350943D01*
X349250Y590970D01*
Y594355D01*
X350943Y596048D01*
X352636D01*
X354328Y594355D01*
Y589277D01*
X349250Y606205D02*
Y599433D01*
X356021Y606205D01*
X357714D01*
X359407Y604512D01*
Y601126D01*
X357714Y599433D01*
X429469Y550966D02*
X431162Y549273D01*
Y545888D01*
X429469Y544195D01*
X422698D01*
X421005Y545888D01*
Y549273D01*
X422698Y550966D01*
X431162Y561123D02*
X429469Y557737D01*
X426083Y554352D01*
X422698D01*
X421005Y556045D01*
Y559430D01*
X422698Y561123D01*
X424391D01*
X426083Y559430D01*
Y554352D01*
X429469Y564508D02*
X431162Y566201D01*
Y569587D01*
X429469Y571280D01*
X427776D01*
X426083Y569587D01*
Y567894D01*
Y569587D01*
X424391Y571280D01*
X422698D01*
X421005Y569587D01*
Y566201D01*
X422698Y564508D01*
X432014Y752191D02*
X433707Y750498D01*
Y747113D01*
X432014Y745420D01*
X425243D01*
X423550Y747113D01*
Y750498D01*
X425243Y752191D01*
X433707Y762348D02*
X432014Y758962D01*
X428628Y755577D01*
X425243D01*
X423550Y757270D01*
Y760655D01*
X425243Y762348D01*
X426936D01*
X428628Y760655D01*
Y755577D01*
X423550Y770812D02*
X433707D01*
X428628Y765733D01*
Y772505D01*
X365334Y752261D02*
X367027Y750568D01*
Y747183D01*
X365334Y745490D01*
X358563D01*
X356870Y747183D01*
Y750568D01*
X358563Y752261D01*
X367027Y762418D02*
X365334Y759032D01*
X361948Y755647D01*
X358563D01*
X356870Y757339D01*
Y760725D01*
X358563Y762418D01*
X360256D01*
X361948Y760725D01*
Y755647D01*
X367027Y772575D02*
Y765803D01*
X361948D01*
X363641Y769189D01*
Y770882D01*
X361948Y772575D01*
X358563D01*
X356870Y770882D01*
Y767496D01*
X358563Y765803D01*
X468844Y637114D02*
X470537Y638807D01*
X473922D01*
X475615Y637114D01*
Y630343D01*
X473922Y628650D01*
X470537D01*
X468844Y630343D01*
X458687Y638807D02*
X465458D01*
Y633728D01*
X462073Y635421D01*
X460380D01*
X458687Y633728D01*
Y630343D01*
X460380Y628650D01*
X463765D01*
X465458Y630343D01*
X455302D02*
X453609Y628650D01*
X450223D01*
X448530Y630343D01*
Y637114D01*
X450223Y638807D01*
X453609D01*
X455302Y637114D01*
Y635421D01*
X453609Y633728D01*
X448530D01*
X387564Y752191D02*
X389257Y750498D01*
Y747113D01*
X387564Y745420D01*
X380793D01*
X379100Y747113D01*
Y750498D01*
X380793Y752191D01*
X389257Y762348D02*
X387564Y758962D01*
X384178Y755577D01*
X380793D01*
X379100Y757270D01*
Y760655D01*
X380793Y762348D01*
X382486D01*
X384178Y760655D01*
Y755577D01*
X387564Y765733D02*
X389257Y767426D01*
Y770812D01*
X387564Y772505D01*
X380793D01*
X379100Y770812D01*
Y767426D01*
X380793Y765733D01*
X387564D01*
X316439Y587161D02*
X318132Y585468D01*
Y582083D01*
X316439Y580390D01*
X309668D01*
X307975Y582083D01*
Y585468D01*
X309668Y587161D01*
X318132Y597318D02*
Y590547D01*
X313053D01*
X314746Y593932D01*
Y595625D01*
X313053Y597318D01*
X309668D01*
X307975Y595625D01*
Y592239D01*
X309668Y590547D01*
X307975Y605782D02*
X318132D01*
X313053Y600703D01*
Y607475D01*
X686649Y417404D02*
X688342Y419097D01*
X691727D01*
X693420Y417404D01*
Y410633D01*
X691727Y408940D01*
X688342D01*
X686649Y410633D01*
X678185Y408940D02*
Y419097D01*
X683263Y414018D01*
X676492D01*
X673107Y410633D02*
X671414Y408940D01*
X668028D01*
X666335Y410633D01*
Y417404D01*
X668028Y419097D01*
X671414D01*
X673107Y417404D01*
Y415711D01*
X671414Y414018D01*
X666335D01*
X750149Y417404D02*
X751842Y419097D01*
X755227D01*
X756920Y417404D01*
Y410633D01*
X755227Y408940D01*
X751842D01*
X750149Y410633D01*
X739992Y419097D02*
X746763D01*
Y414018D01*
X743378Y415711D01*
X741685D01*
X739992Y414018D01*
Y410633D01*
X741685Y408940D01*
X745070D01*
X746763Y410633D01*
X736607Y417404D02*
X734914Y419097D01*
X731528D01*
X729835Y417404D01*
Y410633D01*
X731528Y408940D01*
X734914D01*
X736607Y410633D01*
Y417404D01*
X813014D02*
X814707Y419097D01*
X818092D01*
X819785Y417404D01*
Y410633D01*
X818092Y408940D01*
X814707D01*
X813014Y410633D01*
X802857Y419097D02*
X809628D01*
Y414018D01*
X806243Y415711D01*
X804550D01*
X802857Y414018D01*
Y410633D01*
X804550Y408940D01*
X807935D01*
X809628Y410633D01*
X799472Y408940D02*
X796086D01*
X797779D01*
Y419097D01*
X799472Y417404D01*
X865714Y415711D02*
X867407Y414018D01*
Y410633D01*
X865714Y408940D01*
X858943D01*
X857250Y410633D01*
Y414018D01*
X858943Y415711D01*
X867407Y425868D02*
Y419097D01*
X862328D01*
X864021Y422482D01*
Y424175D01*
X862328Y425868D01*
X858943D01*
X857250Y424175D01*
Y420789D01*
X858943Y419097D01*
X857250Y436025D02*
Y429253D01*
X864021Y436025D01*
X865714D01*
X867407Y434332D01*
Y430946D01*
X865714Y429253D01*
X914614Y419309D02*
X916307Y421002D01*
X919692D01*
X921385Y419309D01*
Y412538D01*
X919692Y410845D01*
X916307D01*
X914614Y412538D01*
X904457Y421002D02*
X911228D01*
Y415923D01*
X907843Y417616D01*
X906150D01*
X904457Y415923D01*
Y412538D01*
X906150Y410845D01*
X909536D01*
X911228Y412538D01*
X901072Y419309D02*
X899379Y421002D01*
X895993D01*
X894300Y419309D01*
Y417616D01*
X895993Y415923D01*
X897686D01*
X895993D01*
X894300Y414231D01*
Y412538D01*
X895993Y410845D01*
X899379D01*
X901072Y412538D01*
X545039Y705906D02*
X546732Y704213D01*
Y700828D01*
X545039Y699135D01*
X538268D01*
X536575Y700828D01*
Y704213D01*
X538268Y705906D01*
X546732Y716063D02*
Y709292D01*
X541653D01*
X543346Y712677D01*
Y714370D01*
X541653Y716063D01*
X538268D01*
X536575Y714370D01*
Y710984D01*
X538268Y709292D01*
X546732Y719448D02*
Y726220D01*
X545039D01*
X538268Y719448D01*
X536575D01*
X406609Y549696D02*
X408302Y548003D01*
Y544618D01*
X406609Y542925D01*
X399838D01*
X398145Y544618D01*
Y548003D01*
X399838Y549696D01*
X408302Y559853D02*
Y553082D01*
X403223D01*
X404916Y556467D01*
Y558160D01*
X403223Y559853D01*
X399838D01*
X398145Y558160D01*
Y554775D01*
X399838Y553082D01*
X408302Y570010D02*
X406609Y566624D01*
X403223Y563238D01*
X399838D01*
X398145Y564931D01*
Y568317D01*
X399838Y570010D01*
X401531D01*
X403223Y568317D01*
Y563238D01*
X1173480Y720725D02*
X1183637D01*
Y725803D01*
X1181944Y727496D01*
X1178558D01*
X1176866Y725803D01*
Y720725D01*
Y724111D02*
X1173480Y727496D01*
Y730882D02*
Y734267D01*
Y732574D01*
X1183637D01*
X1181944Y730882D01*
X1173480Y744424D02*
X1183637D01*
X1178558Y739346D01*
Y746117D01*
X987425Y817880D02*
Y828037D01*
X982347D01*
X980654Y826344D01*
Y822958D01*
X982347Y821266D01*
X987425D01*
X984039D02*
X980654Y817880D01*
X977268Y828037D02*
X970497D01*
Y826344D01*
X977268Y819573D01*
Y817880D01*
X967112Y826344D02*
X965419Y828037D01*
X962033D01*
X960340Y826344D01*
Y819573D01*
X962033Y817880D01*
X965419D01*
X967112Y819573D01*
Y826344D01*
X1088390Y817880D02*
Y828037D01*
X1083312D01*
X1081619Y826344D01*
Y822958D01*
X1083312Y821266D01*
X1088390D01*
X1085004D02*
X1081619Y817880D01*
X1071462Y828037D02*
X1074848Y826344D01*
X1078233Y822958D01*
Y819573D01*
X1076541Y817880D01*
X1073155D01*
X1071462Y819573D01*
Y821266D01*
X1073155Y822958D01*
X1078233D01*
X1068077Y826344D02*
X1066384Y828037D01*
X1062998D01*
X1061305Y826344D01*
Y824651D01*
X1062998Y822958D01*
X1064691D01*
X1062998D01*
X1061305Y821266D01*
Y819573D01*
X1062998Y817880D01*
X1066384D01*
X1068077Y819573D01*
X905724Y675849D02*
X907417Y677542D01*
X910802D01*
X912495Y675849D01*
Y669078D01*
X910802Y667385D01*
X907417D01*
X905724Y669078D01*
X897260Y667385D02*
Y677542D01*
X902338Y672463D01*
X895567D01*
X887103Y667385D02*
Y677542D01*
X892182Y672463D01*
X885410D01*
X807299Y675849D02*
X808992Y677542D01*
X812377D01*
X814070Y675849D01*
Y669078D01*
X812377Y667385D01*
X808992D01*
X807299Y669078D01*
X803913Y675849D02*
X802221Y677542D01*
X798835D01*
X797142Y675849D01*
Y674156D01*
X798835Y672463D01*
X800528D01*
X798835D01*
X797142Y670771D01*
Y669078D01*
X798835Y667385D01*
X802221D01*
X803913Y669078D01*
X786985Y677542D02*
X793757D01*
Y672463D01*
X790371Y674156D01*
X788678D01*
X786985Y672463D01*
Y669078D01*
X788678Y667385D01*
X792064D01*
X793757Y669078D01*
X1247989Y305644D02*
X1249682Y307337D01*
X1253067D01*
X1254760Y305644D01*
Y298873D01*
X1253067Y297180D01*
X1249682D01*
X1247989Y298873D01*
X1239525Y297180D02*
Y307337D01*
X1244603Y302258D01*
X1237832D01*
X1254125Y247650D02*
Y257807D01*
X1249047D01*
X1247354Y256114D01*
Y252728D01*
X1249047Y251036D01*
X1254125D01*
X1250739D02*
X1247354Y247650D01*
X1237197D02*
X1243968D01*
X1237197Y254421D01*
Y256114D01*
X1238890Y257807D01*
X1242275D01*
X1243968Y256114D01*
X1254125Y272415D02*
Y282572D01*
X1249047D01*
X1247354Y280879D01*
Y277493D01*
X1249047Y275801D01*
X1254125D01*
X1250739D02*
X1247354Y272415D01*
X1243968Y280879D02*
X1242275Y282572D01*
X1238890D01*
X1237197Y280879D01*
Y279186D01*
X1238890Y277493D01*
X1240583D01*
X1238890D01*
X1237197Y275801D01*
Y274108D01*
X1238890Y272415D01*
X1242275D01*
X1243968Y274108D01*
X698709Y798616D02*
X700402Y796923D01*
Y793538D01*
X698709Y791845D01*
X691938D01*
X690245Y793538D01*
Y796923D01*
X691938Y798616D01*
X698709Y802002D02*
X700402Y803695D01*
Y807080D01*
X698709Y808773D01*
X697016D01*
X695323Y807080D01*
Y805387D01*
Y807080D01*
X693631Y808773D01*
X691938D01*
X690245Y807080D01*
Y803695D01*
X691938Y802002D01*
X690245Y818930D02*
Y812158D01*
X697016Y818930D01*
X698709D01*
X700402Y817237D01*
Y813851D01*
X698709Y812158D01*
X779994Y821264D02*
X781687Y822957D01*
X785072D01*
X786765Y821264D01*
Y814493D01*
X785072Y812800D01*
X781687D01*
X779994Y814493D01*
X769837Y812800D02*
X776608D01*
X769837Y819571D01*
Y821264D01*
X771530Y822957D01*
X774915D01*
X776608Y821264D01*
X759680Y822957D02*
X763066Y821264D01*
X766452Y817878D01*
Y814493D01*
X764759Y812800D01*
X761373D01*
X759680Y814493D01*
Y816186D01*
X761373Y817878D01*
X766452D01*
X445775Y745420D02*
X455932D01*
Y750498D01*
X454239Y752191D01*
X450853D01*
X449161Y750498D01*
Y745420D01*
Y748806D02*
X445775Y752191D01*
X447468Y755577D02*
X445775Y757270D01*
Y760655D01*
X447468Y762348D01*
X454239D01*
X455932Y760655D01*
Y757270D01*
X454239Y755577D01*
X452546D01*
X450853Y757270D01*
Y762348D01*
X455932Y772505D02*
X454239Y769119D01*
X450853Y765733D01*
X447468D01*
X445775Y767426D01*
Y770812D01*
X447468Y772505D01*
X449161D01*
X450853Y770812D01*
Y765733D01*
X585470Y630555D02*
Y640712D01*
X580392D01*
X578699Y639019D01*
Y635633D01*
X580392Y633941D01*
X585470D01*
X582084D02*
X578699Y630555D01*
X575313Y632248D02*
X573620Y630555D01*
X570235D01*
X568542Y632248D01*
Y639019D01*
X570235Y640712D01*
X573620D01*
X575313Y639019D01*
Y637326D01*
X573620Y635633D01*
X568542D01*
X565157Y640712D02*
X558385D01*
Y639019D01*
X565157Y632248D01*
Y630555D01*
X969645Y713105D02*
X979802D01*
Y718183D01*
X978109Y719876D01*
X974723D01*
X973031Y718183D01*
Y713105D01*
Y716491D02*
X969645Y719876D01*
Y723262D02*
Y726647D01*
Y724955D01*
X979802D01*
X978109Y723262D01*
X969645Y731726D02*
Y735111D01*
Y733418D01*
X979802D01*
X978109Y731726D01*
X979802Y746961D02*
Y740190D01*
X974723D01*
X976416Y743575D01*
Y745268D01*
X974723Y746961D01*
X971338D01*
X969645Y745268D01*
Y741882D01*
X971338Y740190D01*
X918210Y713740D02*
X928367D01*
Y718818D01*
X926674Y720511D01*
X923288D01*
X921596Y718818D01*
Y713740D01*
Y717126D02*
X918210Y720511D01*
Y723897D02*
Y727282D01*
Y725590D01*
X928367D01*
X926674Y723897D01*
X918210Y732361D02*
Y735746D01*
Y734053D01*
X928367D01*
X926674Y732361D01*
X928367Y740825D02*
Y747596D01*
X926674D01*
X919903Y740825D01*
X918210D01*
X868045Y712470D02*
X878202D01*
Y717548D01*
X876509Y719241D01*
X873123D01*
X871431Y717548D01*
Y712470D01*
Y715856D02*
X868045Y719241D01*
Y722627D02*
Y726012D01*
Y724320D01*
X878202D01*
X876509Y722627D01*
X868045Y731091D02*
Y734476D01*
Y732783D01*
X878202D01*
X876509Y731091D01*
X869738Y739555D02*
X868045Y741247D01*
Y744633D01*
X869738Y746326D01*
X876509D01*
X878202Y744633D01*
Y741247D01*
X876509Y739555D01*
X874816D01*
X873123Y741247D01*
Y746326D01*
X817880Y715010D02*
X828037D01*
Y720088D01*
X826344Y721781D01*
X822958D01*
X821266Y720088D01*
Y715010D01*
Y718396D02*
X817880Y721781D01*
Y725167D02*
Y728552D01*
Y726860D01*
X828037D01*
X826344Y725167D01*
X817880Y740402D02*
Y733631D01*
X824651Y740402D01*
X826344D01*
X828037Y738709D01*
Y735323D01*
X826344Y733631D01*
X817880Y743787D02*
Y747173D01*
Y745480D01*
X828037D01*
X826344Y743787D01*
X1195070Y817245D02*
Y827402D01*
X1189992D01*
X1188299Y825709D01*
Y822323D01*
X1189992Y820631D01*
X1195070D01*
X1191684D02*
X1188299Y817245D01*
X1184913D02*
X1181528D01*
X1183221D01*
Y827402D01*
X1184913Y825709D01*
X1176449Y817245D02*
X1173064D01*
X1174757D01*
Y827402D01*
X1176449Y825709D01*
X1167985D02*
X1166293Y827402D01*
X1162907D01*
X1161214Y825709D01*
Y818938D01*
X1162907Y817245D01*
X1166293D01*
X1167985Y818938D01*
Y825709D01*
X1162259Y725591D02*
X1163952Y723898D01*
Y720513D01*
X1162259Y718820D01*
X1155488D01*
X1153795Y720513D01*
Y723898D01*
X1155488Y725591D01*
X1163952Y728977D02*
Y735748D01*
X1162259D01*
X1155488Y728977D01*
X1153795D01*
X1155488Y739133D02*
X1153795Y740826D01*
Y744212D01*
X1155488Y745905D01*
X1162259D01*
X1163952Y744212D01*
Y740826D01*
X1162259Y739133D01*
X1160566D01*
X1158873Y740826D01*
Y745905D01*
X1109554Y726861D02*
X1111247Y725168D01*
Y721783D01*
X1109554Y720090D01*
X1102783D01*
X1101090Y721783D01*
Y725168D01*
X1102783Y726861D01*
X1109554Y730247D02*
X1111247Y731939D01*
Y735325D01*
X1109554Y737018D01*
X1107861D01*
X1106168Y735325D01*
X1104476Y737018D01*
X1102783D01*
X1101090Y735325D01*
Y731939D01*
X1102783Y730247D01*
X1104476D01*
X1106168Y731939D01*
X1107861Y730247D01*
X1109554D01*
X1106168Y731939D02*
Y735325D01*
X1109554Y740403D02*
X1111247Y742096D01*
Y745482D01*
X1109554Y747175D01*
X1102783D01*
X1101090Y745482D01*
Y742096D01*
X1102783Y740403D01*
X1109554D01*
X1058754Y729401D02*
X1060447Y727708D01*
Y724323D01*
X1058754Y722630D01*
X1051983D01*
X1050290Y724323D01*
Y727708D01*
X1051983Y729401D01*
X1058754Y732787D02*
X1060447Y734480D01*
Y737865D01*
X1058754Y739558D01*
X1057061D01*
X1055368Y737865D01*
X1053676Y739558D01*
X1051983D01*
X1050290Y737865D01*
Y734480D01*
X1051983Y732787D01*
X1053676D01*
X1055368Y734480D01*
X1057061Y732787D01*
X1058754D01*
X1055368Y734480D02*
Y737865D01*
X1050290Y742943D02*
Y746329D01*
Y744636D01*
X1060447D01*
X1058754Y742943D01*
X1009224Y727496D02*
X1010917Y725803D01*
Y722418D01*
X1009224Y720725D01*
X1002453D01*
X1000760Y722418D01*
Y725803D01*
X1002453Y727496D01*
X1009224Y730882D02*
X1010917Y732574D01*
Y735960D01*
X1009224Y737653D01*
X1007531D01*
X1005838Y735960D01*
X1004146Y737653D01*
X1002453D01*
X1000760Y735960D01*
Y732574D01*
X1002453Y730882D01*
X1004146D01*
X1005838Y732574D01*
X1007531Y730882D01*
X1009224D01*
X1005838Y732574D02*
Y735960D01*
X1000760Y747810D02*
Y741038D01*
X1007531Y747810D01*
X1009224D01*
X1010917Y746117D01*
Y742731D01*
X1009224Y741038D01*
X957789Y726226D02*
X959482Y724533D01*
Y721148D01*
X957789Y719455D01*
X951018D01*
X949325Y721148D01*
Y724533D01*
X951018Y726226D01*
X957789Y729612D02*
X959482Y731304D01*
Y734690D01*
X957789Y736383D01*
X956096D01*
X954403Y734690D01*
X952711Y736383D01*
X951018D01*
X949325Y734690D01*
Y731304D01*
X951018Y729612D01*
X952711D01*
X954403Y731304D01*
X956096Y729612D01*
X957789D01*
X954403Y731304D02*
Y734690D01*
X957789Y739768D02*
X959482Y741461D01*
Y744847D01*
X957789Y746540D01*
X956096D01*
X954403Y744847D01*
Y743154D01*
Y744847D01*
X952711Y746540D01*
X951018D01*
X949325Y744847D01*
Y741461D01*
X951018Y739768D01*
X906354Y727496D02*
X908047Y725803D01*
Y722418D01*
X906354Y720725D01*
X899583D01*
X897890Y722418D01*
Y725803D01*
X899583Y727496D01*
X906354Y730882D02*
X908047Y732574D01*
Y735960D01*
X906354Y737653D01*
X904661D01*
X902968Y735960D01*
X901276Y737653D01*
X899583D01*
X897890Y735960D01*
Y732574D01*
X899583Y730882D01*
X901276D01*
X902968Y732574D01*
X904661Y730882D01*
X906354D01*
X902968Y732574D02*
Y735960D01*
X897890Y746117D02*
X908047D01*
X902968Y741038D01*
Y747810D01*
X856189Y723051D02*
X857882Y721358D01*
Y717973D01*
X856189Y716280D01*
X849418D01*
X847725Y717973D01*
Y721358D01*
X849418Y723051D01*
X856189Y726437D02*
X857882Y728130D01*
Y731515D01*
X856189Y733208D01*
X854496D01*
X852803Y731515D01*
X851111Y733208D01*
X849418D01*
X847725Y731515D01*
Y728130D01*
X849418Y726437D01*
X851111D01*
X852803Y728130D01*
X854496Y726437D01*
X856189D01*
X852803Y728130D02*
Y731515D01*
X857882Y743365D02*
Y736593D01*
X852803D01*
X854496Y739979D01*
Y741672D01*
X852803Y743365D01*
X849418D01*
X847725Y741672D01*
Y738286D01*
X849418Y736593D01*
X805389Y723686D02*
X807082Y721993D01*
Y718608D01*
X805389Y716915D01*
X798618D01*
X796925Y718608D01*
Y721993D01*
X798618Y723686D01*
X805389Y727072D02*
X807082Y728764D01*
Y732150D01*
X805389Y733843D01*
X803696D01*
X802003Y732150D01*
X800311Y733843D01*
X798618D01*
X796925Y732150D01*
Y728764D01*
X798618Y727072D01*
X800311D01*
X802003Y728764D01*
X803696Y727072D01*
X805389D01*
X802003Y728764D02*
Y732150D01*
X807082Y744000D02*
X805389Y740614D01*
X802003Y737228D01*
X798618D01*
X796925Y738921D01*
Y742307D01*
X798618Y744000D01*
X800311D01*
X802003Y742307D01*
Y737228D01*
X343109Y751626D02*
X344802Y749933D01*
Y746548D01*
X343109Y744855D01*
X336338D01*
X334645Y746548D01*
Y749933D01*
X336338Y751626D01*
X343109Y755012D02*
X344802Y756704D01*
Y760090D01*
X343109Y761783D01*
X341416D01*
X339723Y760090D01*
X338031Y761783D01*
X336338D01*
X334645Y760090D01*
Y756704D01*
X336338Y755012D01*
X338031D01*
X339723Y756704D01*
X341416Y755012D01*
X343109D01*
X339723Y756704D02*
Y760090D01*
X343109Y765168D02*
X344802Y766861D01*
Y770247D01*
X343109Y771940D01*
X341416D01*
X339723Y770247D01*
X338031Y771940D01*
X336338D01*
X334645Y770247D01*
Y766861D01*
X336338Y765168D01*
X338031D01*
X339723Y766861D01*
X341416Y765168D01*
X343109D01*
X339723Y766861D02*
Y770247D01*
X376764Y243626D02*
X378457Y241933D01*
Y238548D01*
X376764Y236855D01*
X369993D01*
X368300Y238548D01*
Y241933D01*
X369993Y243626D01*
Y247012D02*
X368300Y248704D01*
Y252090D01*
X369993Y253783D01*
X376764D01*
X378457Y252090D01*
Y248704D01*
X376764Y247012D01*
X375071D01*
X373378Y248704D01*
Y253783D01*
X368300Y257168D02*
Y260554D01*
Y258861D01*
X378457D01*
X376764Y257168D01*
X781259Y242356D02*
X782952Y240663D01*
Y237278D01*
X781259Y235585D01*
X774488D01*
X772795Y237278D01*
Y240663D01*
X774488Y242356D01*
Y245742D02*
X772795Y247435D01*
Y250820D01*
X774488Y252513D01*
X781259D01*
X782952Y250820D01*
Y247435D01*
X781259Y245742D01*
X779566D01*
X777873Y247435D01*
Y252513D01*
X772795Y262670D02*
Y255898D01*
X779566Y262670D01*
X781259D01*
X782952Y260977D01*
Y257591D01*
X781259Y255898D01*
X577269Y769989D02*
X578962Y771682D01*
X582347D01*
X584040Y769989D01*
Y763218D01*
X582347Y761525D01*
X578962D01*
X577269Y763218D01*
X573883Y769989D02*
X572191Y771682D01*
X568805D01*
X567112Y769989D01*
Y768296D01*
X568805Y766603D01*
X570498D01*
X568805D01*
X567112Y764911D01*
Y763218D01*
X568805Y761525D01*
X572191D01*
X573883Y763218D01*
X558648Y761525D02*
Y771682D01*
X563727Y766603D01*
X556955D01*
X720934Y797981D02*
X722627Y796288D01*
Y792903D01*
X720934Y791210D01*
X714163D01*
X712470Y792903D01*
Y796288D01*
X714163Y797981D01*
X720934Y801367D02*
X722627Y803059D01*
Y806445D01*
X720934Y808138D01*
X719241D01*
X717548Y806445D01*
Y804752D01*
Y806445D01*
X715856Y808138D01*
X714163D01*
X712470Y806445D01*
Y803059D01*
X714163Y801367D01*
X720934Y811523D02*
X722627Y813216D01*
Y816602D01*
X720934Y818295D01*
X719241D01*
X717548Y816602D01*
Y814909D01*
Y816602D01*
X715856Y818295D01*
X714163D01*
X712470Y816602D01*
Y813216D01*
X714163Y811523D01*
X174834Y240451D02*
X176527Y238758D01*
Y235373D01*
X174834Y233680D01*
X168063D01*
X166370Y235373D01*
Y238758D01*
X168063Y240451D01*
X166370Y250608D02*
Y243837D01*
X173141Y250608D01*
X174834D01*
X176527Y248915D01*
Y245529D01*
X174834Y243837D01*
X176527Y260765D02*
Y253993D01*
X171448D01*
X173141Y257379D01*
Y259072D01*
X171448Y260765D01*
X168063D01*
X166370Y259072D01*
Y255686D01*
X168063Y253993D01*
X534089Y769989D02*
X535782Y771682D01*
X539167D01*
X540860Y769989D01*
Y763218D01*
X539167Y761525D01*
X535782D01*
X534089Y763218D01*
X530703Y761525D02*
X527318D01*
X529011D01*
Y771682D01*
X530703Y769989D01*
X517161Y761525D02*
Y771682D01*
X522239Y766603D01*
X515468D01*
X578059Y241721D02*
X579752Y240028D01*
Y236643D01*
X578059Y234950D01*
X571288D01*
X569595Y236643D01*
Y240028D01*
X571288Y241721D01*
X569595Y245107D02*
Y248492D01*
Y246800D01*
X579752D01*
X578059Y245107D01*
Y253571D02*
X579752Y255263D01*
Y258649D01*
X578059Y260342D01*
X576366D01*
X574673Y258649D01*
Y256956D01*
Y258649D01*
X572981Y260342D01*
X571288D01*
X569595Y258649D01*
Y255263D01*
X571288Y253571D01*
X1313279Y432065D02*
Y885190D01*
X1370000Y843810D02*
Y885190D01*
Y882650D02*
X1395400D01*
X1287879D02*
X1313279D01*
X1370000D02*
X1385240Y877570D01*
X1370000Y882650D02*
X1385240Y887730D01*
X1298039D02*
X1313279Y882650D01*
X1298039Y877570D02*
X1313279Y882650D01*
X56670Y432065D02*
Y897890D01*
X0Y843810D02*
Y897890D01*
X28335Y895350D02*
X56670D01*
X0D02*
X28335D01*
X41430Y900430D02*
X56670Y895350D01*
X41430Y890270D02*
X56670Y895350D01*
X0D02*
X15240Y890270D01*
X0Y895350D02*
X15240Y900430D01*
X-163195Y0D02*
X-3810D01*
X-163195Y420000D02*
X44605D01*
X-160655Y0D02*
Y166324D01*
Y245548D02*
Y420000D01*
Y0D02*
X-155575Y15240D01*
X-165735D02*
X-160655Y0D01*
X-165735Y404760D02*
X-160655Y420000D01*
X-155575Y404760D01*
X1325344Y420000D02*
X1601470D01*
X1373810Y0D02*
X1601470D01*
X1598930Y245548D02*
Y420000D01*
Y0D02*
Y166324D01*
X1593850Y404760D02*
X1598930Y420000D01*
X1604010Y404760D01*
X1598930Y0D02*
X1604010Y15240D01*
X1593850D02*
X1598930Y0D01*
X50000Y798810D02*
Y957580D01*
X0Y843810D02*
Y957580D01*
X25000Y955040D02*
X50000D01*
X0D02*
X25000D01*
X34760Y960120D02*
X50000Y955040D01*
X34760Y949960D02*
X50000Y955040D01*
X0D02*
X15240Y949960D01*
X0Y955040D02*
X15240Y960120D01*
X1320000Y798810D02*
Y957580D01*
X50000Y798810D02*
Y957580D01*
X726896Y955040D02*
X1320000D01*
X50000D02*
X634975D01*
X1304760Y960120D02*
X1320000Y955040D01*
X1304760Y949960D02*
X1320000Y955040D01*
X50000D02*
X65240Y949960D01*
X50000Y955040D02*
X65240Y960120D01*
X1370000Y-135890D02*
Y-3810D01*
X0Y-135890D02*
Y0D01*
X726896Y-133350D02*
X1370000D01*
X0D02*
X634976D01*
X1354760Y-128270D02*
X1370000Y-133350D01*
X1354760Y-138430D02*
X1370000Y-133350D01*
X0D02*
X15240Y-138430D01*
X0Y-133350D02*
X15240Y-128270D01*
X-341630Y45000D02*
X46190D01*
X-341630Y0D02*
X-3810D01*
X-339090Y22500D02*
Y45000D01*
Y0D02*
Y22500D01*
X-344170Y29760D02*
X-339090Y45000D01*
X-334010Y29760D01*
X-339090Y0D02*
X-334010Y15240D01*
X-344170D02*
X-339090Y0D01*
X50000Y-71120D02*
Y45000D01*
X0Y-71120D02*
Y0D01*
X25000Y-68580D02*
X50000D01*
X0D02*
X25000D01*
X34760Y-63500D02*
X50000Y-68580D01*
X34760Y-73660D02*
X50000Y-68580D01*
X0D02*
X15240Y-73660D01*
X0Y-68580D02*
X15240Y-63500D01*
X-420370Y0D02*
X-3810D01*
X-420370Y840000D02*
X0D01*
X-417830Y0D02*
Y376324D01*
Y455549D02*
Y840000D01*
Y0D02*
X-412750Y15240D01*
X-422910D02*
X-417830Y0D01*
X-422910Y824760D02*
X-417830Y840000D01*
X-412750Y824760D01*
X-340995Y45000D02*
X32460D01*
X-340995Y795000D02*
X32460D01*
X-338455Y45000D02*
Y376324D01*
Y455549D02*
Y795000D01*
Y45000D02*
X-333375Y60240D01*
X-343535D02*
X-338455Y45000D01*
X-343535Y779760D02*
X-338455Y795000D01*
X-333375Y779760D01*
X1320000Y-71120D02*
Y27460D01*
X50000Y-71120D02*
Y27460D01*
X726896Y-68580D02*
X1320000D01*
X50000D02*
X634976D01*
X1304760Y-63500D02*
X1320000Y-68580D01*
X1304760Y-73660D02*
X1320000Y-68580D01*
X50000D02*
X65240Y-73660D01*
X50000Y-68580D02*
X65240Y-63500D01*
X0Y0D02*
Y840000D01*
X1370000D01*
X1127595Y0D02*
Y45000D01*
X1178395Y0D02*
Y45000D01*
X1025995Y0D02*
Y45000D01*
X1076795Y0D02*
Y45000D01*
X0Y145000D02*
X1370000D01*
X964400Y0D02*
Y45000D01*
X913600Y0D02*
Y45000D01*
X761200Y0D02*
Y45000D01*
X812000Y0D02*
Y45000D01*
X862800Y0D02*
Y45000D01*
X710400Y0D02*
Y45000D01*
X659600Y0D02*
Y45000D01*
X354800Y0D02*
Y45000D01*
X304000Y0D02*
Y45000D01*
X202400Y0D02*
Y45000D01*
X253200Y0D02*
Y45000D01*
X507200Y0D02*
Y45000D01*
X405600Y0D02*
Y45000D01*
X608800Y0D02*
Y45000D01*
X558000Y0D02*
Y45000D01*
X50000D02*
X1320000D01*
X0Y0D02*
X1370000D01*
Y840000D01*
X50000Y795000D02*
X1320000D01*
X913600D02*
Y840000D01*
X964400Y795000D02*
Y840000D01*
X1066000Y795000D02*
Y840000D01*
X1015200Y795000D02*
Y840000D01*
X1167600Y795000D02*
Y840000D01*
X1116800Y795000D02*
Y840000D01*
X0Y695000D02*
X1370000D01*
X862800Y795000D02*
Y840000D01*
X812000Y795000D02*
Y840000D01*
X456400Y0D02*
Y45000D01*
D38*
X1319801Y921246D02*
X1309644D01*
Y913629D01*
X1314723Y916168D01*
X1317262D01*
X1319801Y913629D01*
Y908551D01*
X1317262Y906011D01*
X1312184D01*
X1309644Y908551D01*
X1327419Y903472D02*
X1329958Y906011D01*
Y908551D01*
X1327419D01*
Y906011D01*
X1329958D01*
X1327419Y903472D01*
X1324880Y900933D01*
X1350271Y921246D02*
X1345193Y918707D01*
X1340115Y913629D01*
Y908551D01*
X1342654Y906011D01*
X1347732D01*
X1350271Y908551D01*
Y911090D01*
X1347732Y913629D01*
X1340115D01*
X1355350Y921246D02*
X1365506D01*
Y918707D01*
X1355350Y908551D01*
Y906011D01*
X73022Y904235D02*
X62865D01*
Y896618D01*
X67943Y899157D01*
X70483D01*
X73022Y896618D01*
Y891539D01*
X70483Y889000D01*
X65404D01*
X62865Y891539D01*
X80639Y886461D02*
X83178Y889000D01*
Y891539D01*
X80639D01*
Y889000D01*
X83178D01*
X80639Y886461D01*
X78100Y883922D01*
X103492Y904235D02*
X98413Y901696D01*
X93335Y896618D01*
Y891539D01*
X95874Y889000D01*
X100953D01*
X103492Y891539D01*
Y894078D01*
X100953Y896618D01*
X93335D01*
X108570Y904235D02*
X118727D01*
Y901696D01*
X108570Y891539D01*
Y889000D01*
X-148974Y178005D02*
X-164209D01*
X-156592Y170387D01*
Y180544D01*
X-148974Y195779D02*
Y185623D01*
X-159131Y195779D01*
X-161670D01*
X-164209Y193240D01*
Y188162D01*
X-161670Y185623D01*
X-146435Y203397D02*
X-148974Y205936D01*
X-151514D01*
Y203397D01*
X-148974D01*
Y205936D01*
X-146435Y203397D01*
X-143896Y200858D01*
X-161670Y216093D02*
X-164209Y218632D01*
Y223710D01*
X-161670Y226249D01*
X-151514D01*
X-148974Y223710D01*
Y218632D01*
X-151514Y216093D01*
X-161670D01*
Y231328D02*
X-164209Y233867D01*
Y238945D01*
X-161670Y241485D01*
X-151514D01*
X-148974Y238945D01*
Y233867D01*
X-151514Y231328D01*
X-161670D01*
X1610611Y178005D02*
X1595376D01*
X1602993Y170387D01*
Y180544D01*
X1610611Y195779D02*
Y185623D01*
X1600454Y195779D01*
X1597915D01*
X1595376Y193240D01*
Y188162D01*
X1597915Y185623D01*
X1613150Y203397D02*
X1610611Y205936D01*
X1608071D01*
Y203397D01*
X1610611D01*
Y205936D01*
X1613150Y203397D01*
X1615689Y200858D01*
X1597915Y216093D02*
X1595376Y218632D01*
Y223710D01*
X1597915Y226249D01*
X1608071D01*
X1610611Y223710D01*
Y218632D01*
X1608071Y216093D01*
X1597915D01*
Y231328D02*
X1595376Y233867D01*
Y238945D01*
X1597915Y241485D01*
X1608071D01*
X1610611Y238945D01*
Y233867D01*
X1608071Y231328D01*
X1597915D01*
X7617Y987420D02*
X-2540D01*
Y979802D01*
X2538Y982342D01*
X5077D01*
X7617Y979802D01*
Y974724D01*
X5077Y972185D01*
X-1D01*
X-2540Y974724D01*
X15234Y969646D02*
X17773Y972185D01*
Y974724D01*
X15234D01*
Y972185D01*
X17773D01*
X15234Y969646D01*
X12695Y967107D01*
X27930Y984881D02*
X30469Y987420D01*
X35548D01*
X38087Y984881D01*
Y974724D01*
X35548Y972185D01*
X30469D01*
X27930Y974724D01*
Y984881D01*
X43165D02*
X45704Y987420D01*
X50783D01*
X53322Y984881D01*
Y974724D01*
X50783Y972185D01*
X45704D01*
X43165Y974724D01*
Y984881D01*
X639039Y943359D02*
X644118D01*
X641579D01*
Y958594D01*
X639039Y956055D01*
X661892Y943359D02*
X651735D01*
X661892Y953516D01*
Y956055D01*
X659353Y958594D01*
X654275D01*
X651735Y956055D01*
X666970Y958594D02*
X677127D01*
Y956055D01*
X666970Y945899D01*
Y943359D01*
X684745Y940820D02*
X687284Y943359D01*
Y945899D01*
X684745D01*
Y943359D01*
X687284D01*
X684745Y940820D01*
X682206Y938281D01*
X697440Y956055D02*
X699980Y958594D01*
X705058D01*
X707597Y956055D01*
Y945899D01*
X705058Y943359D01*
X699980D01*
X697440Y945899D01*
Y956055D01*
X712676D02*
X715215Y958594D01*
X720293D01*
X722832Y956055D01*
Y945899D01*
X720293Y943359D01*
X715215D01*
X712676Y945899D01*
Y956055D01*
X639039Y-145031D02*
X644118D01*
X641579D01*
Y-129796D01*
X639039Y-132335D01*
X651735D02*
X654275Y-129796D01*
X659353D01*
X661892Y-132335D01*
Y-134874D01*
X659353Y-137413D01*
X656814D01*
X659353D01*
X661892Y-139952D01*
Y-142492D01*
X659353Y-145031D01*
X654275D01*
X651735Y-142492D01*
X666971Y-129796D02*
X677127D01*
Y-132335D01*
X666971Y-142492D01*
Y-145031D01*
X684745Y-147570D02*
X687284Y-145031D01*
Y-142492D01*
X684745D01*
Y-145031D01*
X687284D01*
X684745Y-147570D01*
X682206Y-150109D01*
X697441Y-132335D02*
X699980Y-129796D01*
X705058D01*
X707597Y-132335D01*
Y-142492D01*
X705058Y-145031D01*
X699980D01*
X697441Y-142492D01*
Y-132335D01*
X712676D02*
X715215Y-129796D01*
X720293D01*
X722832Y-132335D01*
Y-142492D01*
X720293Y-145031D01*
X715215D01*
X712676Y-142492D01*
Y-132335D01*
X-357505Y23493D02*
X-372740D01*
X-365122Y15875D01*
Y26032D01*
X-354966Y33649D02*
X-357505Y36188D01*
X-360044D01*
Y33649D01*
X-357505D01*
Y36188D01*
X-354966Y33649D01*
X-352427Y31110D01*
X-372740Y56502D02*
Y46345D01*
X-365122D01*
X-367662Y51424D01*
Y53963D01*
X-365122Y56502D01*
X-360044D01*
X-357505Y53963D01*
Y48884D01*
X-360044Y46345D01*
X-370201Y61580D02*
X-372740Y64119D01*
Y69198D01*
X-370201Y71737D01*
X-360044D01*
X-357505Y69198D01*
Y64119D01*
X-360044Y61580D01*
X-370201D01*
X23492Y-89540D02*
X13335D01*
Y-97157D01*
X18413Y-94618D01*
X20952D01*
X23492Y-97157D01*
Y-102236D01*
X20952Y-104775D01*
X15874D01*
X13335Y-102236D01*
X31109Y-107314D02*
X33648Y-104775D01*
Y-102236D01*
X31109D01*
Y-104775D01*
X33648D01*
X31109Y-107314D01*
X28570Y-109853D01*
X43805Y-92079D02*
X46344Y-89540D01*
X51423D01*
X53962Y-92079D01*
Y-102236D01*
X51423Y-104775D01*
X46344D01*
X43805Y-102236D01*
Y-92079D01*
X59040D02*
X61579Y-89540D01*
X66658D01*
X69197Y-92079D01*
Y-102236D01*
X66658Y-104775D01*
X61579D01*
X59040Y-102236D01*
Y-92079D01*
X-418845Y380387D02*
X-421384Y382927D01*
Y388005D01*
X-418845Y390544D01*
X-416306D01*
X-413767Y388005D01*
X-411228Y390544D01*
X-408689D01*
X-406149Y388005D01*
Y382927D01*
X-408689Y380387D01*
X-411228D01*
X-413767Y382927D01*
X-416306Y380387D01*
X-418845D01*
X-413767Y382927D02*
Y388005D01*
X-406149Y403240D02*
X-421384D01*
X-413767Y395623D01*
Y405779D01*
X-403610Y413397D02*
X-406149Y415936D01*
X-408689D01*
Y413397D01*
X-406149D01*
Y415936D01*
X-403610Y413397D01*
X-401071Y410858D01*
X-418845Y426093D02*
X-421384Y428632D01*
Y433710D01*
X-418845Y436249D01*
X-408689D01*
X-406149Y433710D01*
Y428632D01*
X-408689Y426093D01*
X-418845D01*
Y441328D02*
X-421384Y443867D01*
Y448945D01*
X-418845Y451484D01*
X-408689D01*
X-406149Y448945D01*
Y443867D01*
X-408689Y441328D01*
X-418845D01*
X-342009Y380387D02*
Y390544D01*
X-339470D01*
X-329314Y380387D01*
X-326774D01*
X-342009Y405779D02*
Y395623D01*
X-334392D01*
X-336931Y400701D01*
Y403240D01*
X-334392Y405779D01*
X-329314D01*
X-326774Y403240D01*
Y398162D01*
X-329314Y395623D01*
X-324235Y413397D02*
X-326774Y415936D01*
X-329314D01*
Y413397D01*
X-326774D01*
Y415936D01*
X-324235Y413397D01*
X-321696Y410858D01*
X-339470Y426093D02*
X-342009Y428632D01*
Y433710D01*
X-339470Y436249D01*
X-329314D01*
X-326774Y433710D01*
Y428632D01*
X-329314Y426093D01*
X-339470D01*
Y441328D02*
X-342009Y443867D01*
Y448945D01*
X-339470Y451484D01*
X-329314D01*
X-326774Y448945D01*
Y443867D01*
X-329314Y441328D01*
X-339470D01*
X639039Y-80261D02*
X644118D01*
X641579D01*
Y-65026D01*
X639039Y-67565D01*
X661892Y-80261D02*
X651735D01*
X661892Y-70104D01*
Y-67565D01*
X659353Y-65026D01*
X654275D01*
X651735Y-67565D01*
X666970Y-65026D02*
X677127D01*
Y-67565D01*
X666970Y-77722D01*
Y-80261D01*
X684745Y-82800D02*
X687284Y-80261D01*
Y-77722D01*
X684745D01*
Y-80261D01*
X687284D01*
X684745Y-82800D01*
X682206Y-85339D01*
X697441Y-67565D02*
X699980Y-65026D01*
X705058D01*
X707597Y-67565D01*
Y-77722D01*
X705058Y-80261D01*
X699980D01*
X697441Y-77722D01*
Y-67565D01*
X712676D02*
X715215Y-65026D01*
X720293D01*
X722832Y-67565D01*
Y-77722D01*
X720293Y-80261D01*
X715215D01*
X712676Y-77722D01*
Y-67565D01*
D58*
X240030Y722630D02*
G03*
X240030Y722630I-1250J0D01*
G01*
D61*
X584225Y244555D02*
Y254555D01*
X603225Y244555D02*
Y254555D01*
X523795Y795155D02*
X533795D01*
X523795Y776155D02*
X533795D01*
X179730Y244555D02*
Y254555D01*
X198730Y244555D02*
Y254555D01*
X709550Y769810D02*
X725550D01*
Y761810D02*
Y769810D01*
X709550Y761810D02*
Y769810D01*
X566340Y795155D02*
X576340D01*
X566340Y776155D02*
X576340D01*
X806425Y244555D02*
Y254555D01*
X787425Y244555D02*
Y254555D01*
X382295Y244555D02*
Y254555D01*
X401295Y244555D02*
Y254555D01*
X329595Y721370D02*
Y731370D01*
X348595Y721370D02*
Y731370D01*
X792109Y760984D02*
Y770984D01*
X811109Y760984D02*
Y770984D01*
X843305Y760810D02*
Y770810D01*
X862305Y760810D02*
Y770810D01*
X893866Y760810D02*
Y770810D01*
X912866Y760810D02*
Y770810D01*
X944905Y760810D02*
Y770810D01*
X963905Y760810D02*
Y770810D01*
X995705Y760810D02*
Y770810D01*
X1014705Y760810D02*
Y770810D01*
X1046505Y760810D02*
Y770810D01*
X1065505Y760810D02*
Y770810D01*
X1096670Y760810D02*
Y770810D01*
X1115670Y760810D02*
Y770810D01*
X1148105Y760810D02*
Y770810D01*
X1167105Y760810D02*
Y770810D01*
X1137365Y808380D02*
X1147365D01*
X1137365Y827380D02*
X1147365D01*
X813064Y760984D02*
Y770984D01*
X832064Y760984D02*
Y770984D01*
X883260Y760810D02*
Y770810D01*
X864260Y760810D02*
Y770810D01*
X914820Y760810D02*
Y770810D01*
X933820Y760810D02*
Y770810D01*
X984860Y760810D02*
Y770810D01*
X965860Y760810D02*
Y770810D01*
X534115Y646405D02*
X544115D01*
X534115Y627405D02*
X544115D01*
X440720Y721370D02*
Y731370D01*
X459720Y721370D02*
Y731370D01*
X765070Y791675D02*
X781070D01*
Y783675D02*
Y791675D01*
X765070Y783675D02*
Y791675D01*
X686690Y769810D02*
X702690D01*
Y761810D02*
Y769810D01*
X686690Y761810D02*
Y769810D01*
X1207215Y268495D02*
X1217215D01*
X1207215Y286245D02*
X1217215D01*
X1207215Y262365D02*
X1217215D01*
X1207215Y244615D02*
X1217215D01*
X1216215Y293625D02*
Y309625D01*
X1208215Y293625D02*
X1216215D01*
X1208215Y309625D02*
X1216215D01*
X789965Y690960D02*
Y700960D01*
X808965Y690960D02*
Y700960D01*
X908660Y690960D02*
Y700960D01*
X889660Y690960D02*
Y700960D01*
X1036400Y808380D02*
X1046400D01*
X1036400Y827380D02*
X1046400D01*
X935435Y808380D02*
X945435D01*
X935435Y827380D02*
X945435D01*
X1188060Y760810D02*
Y770810D01*
X1169060Y760810D02*
Y770810D01*
X412565Y583805D02*
Y593805D01*
X393565Y583805D02*
Y593805D01*
X531470Y708740D02*
Y718740D01*
X512470Y708740D02*
Y718740D01*
X916385Y407645D02*
X926385D01*
X916385Y388645D02*
X926385D01*
X865585Y386740D02*
X875585D01*
X865585Y405740D02*
X875585D01*
X802085D02*
X812085D01*
X802085Y386740D02*
X812085D01*
X738585D02*
X748585D01*
X738585Y405740D02*
X748585D01*
X675085D02*
X685085D01*
X675085Y386740D02*
X685085D01*
X304190Y620475D02*
Y630475D01*
X323190Y620475D02*
Y630475D01*
X374045Y721370D02*
Y731370D01*
X393045Y721370D02*
Y731370D01*
X424260Y626135D02*
X434260D01*
X424260Y645135D02*
X434260D01*
X370815Y721440D02*
Y731440D01*
X351815Y721440D02*
Y731440D01*
X418495Y721370D02*
Y731370D01*
X437495Y721370D02*
Y731370D01*
X415790Y583805D02*
Y593805D01*
X434790Y583805D02*
Y593805D01*
X364465Y620475D02*
Y630475D01*
X345465Y620475D02*
Y630475D01*
X366420Y620475D02*
Y630475D01*
X385420Y620475D02*
Y630475D01*
X324510Y620475D02*
Y630475D01*
X343510Y620475D02*
Y630475D01*
X396270Y721370D02*
Y731370D01*
X415270Y721370D02*
Y731370D01*
X1012165Y690960D02*
Y700960D01*
X993165Y690960D02*
Y700960D01*
X1092860Y690960D02*
Y700960D01*
X1111860Y690960D02*
Y700960D01*
X1099900Y602590D02*
X1109900D01*
X1099900Y583590D02*
X1109900D01*
X863045D02*
X873045D01*
X863045Y602590D02*
X873045D01*
X832565Y808380D02*
X842565D01*
X832565Y827380D02*
X842565D01*
X1117625Y760810D02*
Y770810D01*
X1136625Y760810D02*
Y770810D01*
X1086460Y760810D02*
Y770810D01*
X1067460Y760810D02*
Y770810D01*
X1016660Y760810D02*
Y770810D01*
X1035660Y760810D02*
Y770810D01*
X248365Y736625D02*
X258365D01*
X248365Y755625D02*
X258365D01*
X302340Y755625D02*
X312340D01*
X302340Y736625D02*
X312340D01*
X238760Y688975D02*
X321310D01*
X238760D02*
Y694835D01*
Y728835D02*
Y734060D01*
X321310Y688975D02*
Y694835D01*
X238760Y734060D02*
X321310D01*
Y728835D02*
Y734060D01*
D63*
X1213465Y301625D02*
D03*
D64*
X717550Y767060D02*
D03*
X773070Y788925D02*
D03*
X694690Y767060D02*
D03*
M02*
