M48
;Layer_Color=9474304
;FILE_FORMAT=4:4
METRIC,LZ
;TYPE=PLATED
T1F00S00C0.4064
T2F00S00C0.6500
T3F00S00C0.7000
T4F00S00C0.7620
T6F00S00C0.8100
T7F00S00C0.8128
T8F00S00C0.8890
T9F00S00C0.9000
T10F00S00C1.2700
T11F00S00C1.3000
T12F00S00C2.5400
T13F00S00C3.1800
;TYPE=NON_PLATED
T14F00S00C3.0000
%
T01
X0093218Y00013335
X00127Y00012065
Y0013462
X0013589
X0017653Y0019939
X00201295Y00249555
X0024765Y0018923
X0029337
X00313055Y00155575
Y0024384
X00333375Y001905
X00379095Y0019939
X00404495Y00249555
X00450215Y0018923
X00457835Y00155575
X00495935Y0018923
X0051054Y0013462
X00531495
X00553085
X00581025Y0019939
X0060579Y0024892
X00652145Y0018923
X00697865
X0071739Y00155575
X00716755Y0024384
X00352085Y00133993
X00343195
X0074803Y0013462
X0075692
X00737075Y001905
X00784225Y0019939
X00809625Y00249555
X00855345Y0018923
X00862965Y00155575
X00901065Y0018923
X0093218Y0013462
X00929005Y00415925
Y0042672
X00878205
Y0041529
X0121158Y00287655
X012118Y00270925
X0124714Y0030734
X0128143Y0015367
X012954
X01308735
Y00137795
X01294765
X01280795
Y0012192
X01294765
X01308735
X0120142Y0052324
X01228725Y00645795
X0125603
X01212215Y00713105
X01188085
X0117348Y00743585
X01129665Y00742315
X01104265Y00716915
X01090895Y0075565
X0102743Y00742315
X01002665Y00716915
X00989365Y0075565
X00926465Y00742315
X00901065Y00716915
X00888365Y0075565
X00824865Y00742315
X0078613Y0075057
X00799465Y00716915
X00738505Y0071628
X0077307Y00787675
X00840425Y00665795
X00869
X0084709Y0059309
X0084709Y0055245
X0084709Y0052356
X0082296
X0087122
X00964565Y005234
X01058545Y005234
X01082992
X01106805Y00523875
X0108331Y0055245
Y0059309
X01094105Y00665795
X0106553Y0066548
X00705485Y00645795
X0070993Y00699135
X0069977
X0068961
X0067945
X0066929
X0066675Y00709295
Y00719455
Y00729615
X0066929Y00739775
X0067945
X0068961
X0069977
X0070993
X00714375Y00729615
Y00719455
Y00709295
Y00793115
X00702945
X00690245
X0058134Y0081026
X00550385Y00794545
Y00785973
Y00778035
X00518795Y00810895
X00508635Y00703105
X00498005Y0068176
X00481965Y0069723
X00464204Y00676891
X00462915Y00666115
X00452755Y00687705
X0043561Y0068707
X00422275
X0041148
X00403225Y0067945
X00393065Y0068707
X00387985Y0066802
X00389855Y00635525
X00406365
X00398745Y00611395
X00422915Y006108
X004191Y0055372
Y00542544
Y00531368
X0044704Y00542544
X00441165Y0055388
X0044069Y0051181
X0046482Y00531368
X0049911Y0051181
X00536375Y00562095
X00515785Y0061445
X0051896Y0063731
X00525945Y00667155
X00429895Y00668655
X0046165Y0072129
X00374015Y0070612
X0033909
X00338455Y00647065
X00378425Y00589805
X0037973Y00751205
X0057404Y0061468
X0072771Y00523875
X00285115Y006477
Y00658876
X0023622
Y006477
X00235585Y0077089
X002794
X0012065Y00713105
X00069215
X0006858Y0063373
X00037465Y0062865
X0010668Y0063373
T02
X01039695Y0018161
X01064695
X0106406Y0025654
X0103906
T03
X0021463Y0010668
X0024003
X00417195
X00442595
X0061976
X0064516
X0082169
X0084709
X01061085Y00433705
Y00459105
X0124968
Y00433705
X0123063Y00598805
Y00623805
X00116205Y00730885
X00090805
T04
X0023876Y0058834
T06
X00250825Y0031948
X00276225
X00301625
X00288925Y0033848
X00263525
X00238125Y0033848
X00250825Y0035748
X00276225
X00301625
X00288925Y0037648
X00263525
X00238125
X00365125
X00390525
X00415925
X00441325
X00466725
X00492125
X00517525
X00542925
X00530225Y0035748
X00504825
X00479425
X00454025
X00428625
X00403225
X00377825
X00365125Y0033848
X00390525
X00415925
X00441325
X00466725
X00492125
X00517525
X00542925
X00530225Y0031948
X00504825
X00479425
X00454025
X00428625
X00403225
X00377825
X00555625Y0031948
X00555625Y0035748
X00631825
X00657225
X00682625
X00708025
X00695325Y0033848
X00669925
X00644525Y0033848
X00619125Y0033848
X00631825Y0031948
X00657225
X00682625
X00708025
X00720725Y0033848
Y0037648
X00695325
X00669925
X00644525
X00619125
X00746125
X00771525
X00796925
X00822325
X00847725
X00873125
X00898525
X00923925
X00949325
X00936625Y0035748
X00911225
X00885825
X00860425
X00835025
X00809625
X00784225
X00758825
X00733425
X00746125Y0033848
X00771525
X00796925
X00822325
X00847725
X00873125
X00898525
X00923925
X00949325
X00936625Y0031948
X00911225
X00885825
X00860425
X00835025
X00809625
X00784225
X00758825
X00733425
X00962025
Y0035748
T07
X0111252Y00239395
Y00258445
Y00277495
X011303
X0114808
X0116586
Y00258445
X0114808
X011303
Y00239395
X0114808
X0116586
T08
X0005667Y003369
Y003646
Y003923
Y0042
Y004477
Y004754
X0008507Y0046155
Y0043385
Y0040615
Y0037845
Y0035075
X0008507Y0032305
X01284879
X01284879Y0035075
Y0037845
Y0040615
Y0043385
Y0046155
X01313279Y004754
Y004477
Y0042
Y003923
Y003646
Y003369
Y005031
X01284879Y0048925
X01284879Y0051695
X0008507
X0008507Y0048925
X0005667Y005031
T09
X00135255Y00465455
X00160655
X00186055
X00211455
X00236855
X00262255
X00287655
X00313055
X00338455
X00363855
X00389255
X00414655
X00440055
X00465455
X00490855
X00516255
X00541655
X00567055
X00592455
X00617855
X00694055
X00719455
X0072136Y00291465
X0069596
X0067056
X0064516
X0061976
X0059436
X0056896
X0054356
X0051816
X0049276
X0046736
X0044196
X0041656
X0039116
X0036576
Y00404495
X0039116
X0041656
X0044196
X0046736
X0049276
X0051816
X0054356
X0056896
X00744855Y00465455
X00770255
X00795655
X00821055
X00846455
X00871855
X00897255
X00922655
X00948055
X00973455
X00998855
X01024255
X0102489Y00428625
Y00403225
X0099949
Y00428625
X0097409
Y00403225
X0094869
Y00428625
X0092456Y00291465
X0089916
X0087376
X0084836
X0082296
X0079756
X0077216
X0074676
X00744855Y00490855
X00770255
X00795655
X00821055
X00846455
X00871855
X00897255
X00922655
X00948055
X00973455
X00998855
X01024255
X00719455
X00694055
X00617855
X00592455
X00567055
X00541655
X00516255
X00490855
X00465455
X00440055
X00414655
X00389255
X00363855
X00338455
X00313055
X00287655
X00262255
X00236855
X00211455
X00186055
X00160655
X00135255
T10
X01167765Y0079502
X01116965
X01066165
X01015365
X00964565
X00913765
X00862965
X00812165
T11
X00812165Y00045085
X00862965
X0065913
X0060833
X0045593
X0040513
X00253365
X00202565
T12
X00206425Y0034798
X00993725
T13
X0007087Y002534
X01299079
Y005866
X0007087
T14
X0132Y00045
X0005
X0132Y00795
X0005Y00795
M30
