%FSLAX44Y44*%
%MOMM*%
G71*
G01*
G75*
G04 Layer_Physical_Order=1*
G04 Layer_Color=255*
%ADD10R,1.4000X1.0000*%
%ADD11R,1.0000X1.4000*%
%ADD12R,0.6350X2.5400*%
%ADD13O,1.9500X0.3000*%
%ADD14O,0.3000X1.9500*%
%ADD15O,0.6000X1.8000*%
%ADD16O,0.6000X1.5000*%
%ADD17R,0.6000X1.3970*%
%ADD18R,1.3970X0.6000*%
%ADD19R,1.9000X1.1000*%
%ADD20O,0.6000X2.4000*%
%ADD21R,1.3000X1.8000*%
%ADD22R,1.5000X3.0000*%
%ADD23R,1.0500X1.8000*%
%ADD24R,1.8000X1.3000*%
%ADD25R,2.5000X4.0000*%
%ADD26R,1.2000X3.5000*%
%ADD27R,1.8000X1.0500*%
%ADD28R,3.0000X2.8000*%
%ADD29O,1.8000X0.6000*%
%ADD30R,7.4000X5.7500*%
%ADD31R,3.2000X0.8000*%
%ADD32R,0.6500X1.0500*%
%ADD33C,0.8890*%
%ADD34R,1.4000X0.5080*%
%ADD35C,0.2540*%
%ADD36C,0.7620*%
%ADD37C,0.5080*%
%ADD38C,0.1524*%
%ADD39C,1.5000*%
%ADD40R,1.5000X1.5000*%
%ADD41C,1.4000*%
%ADD42R,1.4000X1.4000*%
%ADD43R,1.5240X1.5240*%
%ADD44C,1.5240*%
%ADD45R,1.5240X1.5240*%
%ADD46O,2.0000X2.5000*%
%ADD47C,1.2000*%
%ADD48R,1.3000X1.3000*%
%ADD49C,1.3000*%
%ADD50C,4.8000*%
%ADD51C,1.6510*%
%ADD52R,1.6510X1.6510*%
%ADD53C,2.5400*%
%ADD54O,1.5100X1.5000*%
%ADD55C,0.8128*%
%ADD56C,1.3970*%
G36*
X495935Y218120D02*
X495935Y218120D01*
X495935Y218120D01*
X495935Y218120D01*
X469900D01*
Y238760D01*
X469900Y238760D01*
X495935D01*
Y218120D01*
D02*
G37*
G36*
X633730Y452120D02*
X617855D01*
Y465455D01*
Y600710D01*
X526255Y692310D01*
Y745490D01*
X525145D01*
X508635Y762000D01*
Y764540D01*
X500201Y772974D01*
Y775281D01*
X497894D01*
X454660Y818515D01*
X234315D01*
X196215Y780415D01*
X99060D01*
Y780255D01*
X96995D01*
X19050Y702310D01*
Y506730D01*
X49530Y476250D01*
X121285D01*
Y476885D01*
X134082Y489682D01*
X135255Y489196D01*
Y476250D01*
X136525Y474980D01*
Y464185D01*
X151130Y449580D01*
X215900D01*
X238760Y426720D01*
Y306070D01*
X231775D01*
X223520Y314325D01*
Y422275D01*
X203200Y442595D01*
X115570D01*
X95564Y462601D01*
X95340Y464302D01*
X94278Y466866D01*
X92588Y469068D01*
X90386Y470758D01*
X87822Y471820D01*
X85070Y472182D01*
X82318Y471820D01*
X79754Y470758D01*
X77552Y469068D01*
X75862Y466866D01*
X74800Y464302D01*
X74701Y463550D01*
X5080D01*
Y502285D01*
Y835025D01*
X633730D01*
Y452120D01*
D02*
G37*
G36*
X777337Y248382D02*
X756920Y227965D01*
Y134620D01*
X748030D01*
Y199045D01*
X746490D01*
X736280Y209255D01*
X736915Y209890D01*
Y231140D01*
X755330Y249555D01*
X776851D01*
X777337Y248382D01*
D02*
G37*
G36*
X437915Y660330D02*
Y633975D01*
X422915Y618975D01*
X406365Y635525D01*
X431805Y660965D01*
X437280D01*
X437915Y660330D01*
D02*
G37*
G36*
X572693Y248208D02*
X553085Y228600D01*
Y134620D01*
X511441D01*
X510546Y135521D01*
X511175Y230505D01*
X530051Y249381D01*
X572207D01*
X572693Y248208D01*
D02*
G37*
G36*
X901065Y218280D02*
X875030D01*
Y238920D01*
X875030Y238920D01*
D01*
D01*
X875030Y238920D01*
D01*
D01*
X901065D01*
Y218280D01*
D02*
G37*
G36*
X94615Y341205D02*
Y328930D01*
Y267299D01*
X93393Y266955D01*
X92202Y268898D01*
X89515Y272045D01*
X86368Y274732D01*
X82840Y276893D01*
X79018Y278477D01*
X74995Y279443D01*
X70870Y279767D01*
X66745Y279443D01*
X62722Y278477D01*
X58899Y276893D01*
X55372Y274732D01*
X52225Y272045D01*
X49538Y268898D01*
X47377Y265371D01*
X45793Y261548D01*
X44827Y257525D01*
X44503Y253400D01*
X44827Y249275D01*
X45793Y245252D01*
X47377Y241430D01*
X49538Y237902D01*
X52225Y234755D01*
X55372Y232068D01*
X58899Y229907D01*
X62722Y228323D01*
X66745Y227357D01*
X70870Y227033D01*
X74995Y227357D01*
X79018Y228323D01*
X82840Y229907D01*
X86368Y232068D01*
X89515Y234755D01*
X92202Y237902D01*
X93393Y239845D01*
X94615Y239501D01*
Y127635D01*
X99060Y123190D01*
X127635Y94615D01*
Y5080D01*
X5080D01*
Y328930D01*
Y336782D01*
Y340995D01*
X68965D01*
X78720Y350750D01*
X81895Y347575D01*
X85070Y350750D01*
X94615Y341205D01*
D02*
G37*
G36*
X697865Y238920D02*
Y218280D01*
X671830D01*
X671830Y238022D01*
X672728Y238920D01*
X697865D01*
X697865Y238920D01*
D02*
G37*
G36*
X1364615Y661035D02*
Y559435D01*
Y365342D01*
X1364398Y365125D01*
X1320535D01*
X1307835Y377825D01*
X1275080D01*
X1250950Y353695D01*
X1111250D01*
X1056005Y298450D01*
X1053465D01*
X1039060Y284045D01*
Y131010D01*
X1038941Y130891D01*
X1038172Y98478D01*
X1039060Y97590D01*
X1043940Y92710D01*
X1127760D01*
X1149350Y71120D01*
Y38735D01*
X944880D01*
Y130810D01*
Y151130D01*
X917575D01*
X916940Y151765D01*
Y281679D01*
X934346D01*
Y301251D01*
X919902D01*
X918796Y302357D01*
X919282Y303530D01*
X1002665D01*
X1038860Y339725D01*
Y438969D01*
X1041168D01*
X1048996Y431141D01*
X1048996Y431141D01*
X1050173Y430355D01*
X1050173Y430355D01*
X1050173Y430355D01*
D01*
X1050173Y430355D01*
X1050173Y430355D01*
X1051560Y430079D01*
X1051560Y430079D01*
X1051865D01*
X1052432Y428709D01*
X1054020Y426640D01*
X1056089Y425052D01*
X1058499Y424054D01*
X1061085Y423713D01*
X1063671Y424054D01*
X1066081Y425052D01*
X1068150Y426640D01*
X1069738Y428709D01*
X1070736Y431119D01*
X1071077Y433705D01*
X1070736Y436291D01*
X1069738Y438701D01*
X1068150Y440770D01*
X1066081Y442358D01*
X1063671Y443356D01*
X1061085Y443697D01*
X1058499Y443356D01*
X1056089Y442358D01*
X1054020Y440770D01*
X1052697Y439046D01*
X1051963Y438998D01*
X1051430Y438963D01*
X1051430Y438963D01*
X1051430Y438963D01*
X1045234Y445159D01*
X1044057Y445945D01*
X1043877Y445981D01*
X1043508Y447196D01*
X1050006Y453693D01*
X1051179Y453207D01*
Y449199D01*
X1070991D01*
Y469011D01*
X1051179D01*
Y467176D01*
X1050290Y462731D01*
X1048903Y462455D01*
X1047726Y461669D01*
X1047726Y461669D01*
X1038812Y452755D01*
X984885D01*
Y503555D01*
X1207135D01*
Y520363D01*
X1207402Y520762D01*
X1207894Y523240D01*
X1207402Y525718D01*
X1207135Y526117D01*
Y561975D01*
X1241425D01*
Y633730D01*
X1283335D01*
Y665320D01*
X1327945D01*
X1327785Y665480D01*
X1250900D01*
Y711090D01*
X1228630Y733360D01*
X1210920D01*
Y784885D01*
X1181003Y814802D01*
X1181489Y815975D01*
X785495D01*
Y775970D01*
X766445D01*
X762000Y780415D01*
Y835025D01*
X1364615D01*
Y661035D01*
D02*
G37*
G36*
X294005Y238125D02*
Y219018D01*
X293107Y218120D01*
X267335Y218120D01*
Y238760D01*
X293370D01*
X294005Y238125D01*
D02*
G37*
G36*
X1250315Y218051D02*
Y45085D01*
X1214755D01*
Y154940D01*
Y156210D01*
X1226185Y167640D01*
Y218440D01*
X1249045D01*
X1249142Y218537D01*
X1250315Y218051D01*
D02*
G37*
G36*
X1196975Y302895D02*
Y207645D01*
X1185545Y196215D01*
Y114300D01*
X1179195Y107950D01*
X1070610D01*
X1064695Y113865D01*
Y276025D01*
X1064060Y276660D01*
X1096645Y309245D01*
X1190625D01*
X1196975Y302895D01*
D02*
G37*
G36*
X1307750Y336900D02*
X1313279D01*
X1313564Y337185D01*
X1364615D01*
Y198120D01*
Y5080D01*
X932180D01*
Y13335D01*
X1326515D01*
X1351280Y38100D01*
Y198120D01*
X1276245D01*
X1266190Y208175D01*
Y336550D01*
X1280390Y350750D01*
X1284605D01*
X1285010Y351155D01*
X1293495D01*
X1307750Y336900D01*
D02*
G37*
G36*
X739775Y825500D02*
Y800735D01*
Y793750D01*
X733425Y787400D01*
X689610D01*
X682625Y794385D01*
Y800636D01*
X683034Y802690D01*
Y820690D01*
X682625Y822744D01*
Y825500D01*
X688975Y831850D01*
X733425D01*
X739775Y825500D01*
D02*
G37*
G36*
X1296035Y162560D02*
X1332865D01*
Y115570D01*
X1267460D01*
Y172720D01*
X1285875D01*
X1296035Y162560D01*
D02*
G37*
G36*
X429895Y679450D02*
Y668655D01*
X407040Y643820D01*
X399420D01*
Y650407D01*
X398745Y651083D01*
X394006Y655822D01*
X394492Y656995D01*
X406805D01*
X422275Y672465D01*
Y685411D01*
X423448Y685897D01*
X429895Y679450D01*
D02*
G37*
G36*
X74795Y431141D02*
X74800Y431098D01*
X75862Y428534D01*
X77552Y426332D01*
X79754Y424643D01*
X82318Y423580D01*
X85070Y423218D01*
X87822Y423580D01*
X88648Y423923D01*
D01*
X90386Y424643D01*
X92588Y426332D01*
X101090Y417830D01*
X186690D01*
X198755Y405765D01*
Y360873D01*
X198059Y360501D01*
X195777Y358628D01*
X193904Y356346D01*
X192513Y353743D01*
X191656Y350918D01*
X191367Y347980D01*
X191656Y345042D01*
X192513Y342217D01*
X193904Y339614D01*
X195777Y337332D01*
X198059Y335459D01*
X198755Y335087D01*
Y308610D01*
Y307975D01*
X223617Y283113D01*
X223131Y281940D01*
X187960D01*
X170815Y264795D01*
Y249555D01*
X135890Y214630D01*
Y134620D01*
X127000D01*
Y342265D01*
X92604Y376661D01*
X89839Y378450D01*
X64170D01*
X50320Y364600D01*
X4555D01*
X4555Y364600D01*
X4555Y364600D01*
X4445Y364646D01*
Y433705D01*
X6420D01*
X6463Y433850D01*
X74438D01*
X74795Y431141D01*
D02*
G37*
G36*
X372502Y247755D02*
X352085Y227338D01*
Y133993D01*
X343195D01*
Y198418D01*
X341655D01*
X331445Y208628D01*
X332080Y209263D01*
Y230513D01*
X350495Y248928D01*
X372016D01*
X372502Y247755D01*
D02*
G37*
G36*
X720725Y738505D02*
Y700405D01*
X714375Y694055D01*
X666750D01*
X660400Y700405D01*
Y738505D01*
X666750Y744855D01*
X714375D01*
X720725Y738505D01*
D02*
G37*
%LPC*%
G36*
X50000Y62370D02*
X46611Y62036D01*
X43353Y61048D01*
X40350Y59442D01*
X37718Y57282D01*
X35558Y54650D01*
X33953Y51647D01*
X32964Y48389D01*
X32630Y45000D01*
X32964Y41611D01*
X33953Y38353D01*
X35558Y35350D01*
X37718Y32718D01*
X40350Y30558D01*
X43353Y28953D01*
X46611Y27964D01*
X50000Y27630D01*
X53389Y27964D01*
X56647Y28953D01*
X59650Y30558D01*
X62282Y32718D01*
X64442Y35350D01*
X66047Y38353D01*
X67036Y41611D01*
X67370Y45000D01*
X67036Y48389D01*
X66047Y51647D01*
X64442Y54650D01*
X62282Y57282D01*
X59650Y59442D01*
X56647Y61048D01*
X53389Y62036D01*
X50000Y62370D01*
D02*
G37*
G36*
X1299079Y279767D02*
X1294954Y279443D01*
X1290931Y278477D01*
X1287108Y276893D01*
X1283581Y274732D01*
X1280435Y272045D01*
X1277747Y268898D01*
X1275586Y265371D01*
X1274002Y261548D01*
X1273036Y257525D01*
X1272712Y253400D01*
X1273036Y249275D01*
X1274002Y245252D01*
X1275586Y241430D01*
X1277747Y237902D01*
X1280435Y234755D01*
X1283581Y232068D01*
X1287108Y229907D01*
X1290931Y228323D01*
X1294954Y227357D01*
X1299079Y227033D01*
X1303204Y227357D01*
X1307227Y228323D01*
X1311049Y229907D01*
X1314577Y232068D01*
X1317724Y234755D01*
X1320411Y237902D01*
X1322572Y241430D01*
X1324156Y245252D01*
X1325122Y249275D01*
X1325446Y253400D01*
X1325122Y257525D01*
X1324156Y261548D01*
X1322572Y265371D01*
X1320411Y268898D01*
X1317724Y272045D01*
X1314577Y274732D01*
X1311049Y276893D01*
X1307227Y278477D01*
X1303204Y279443D01*
X1299079Y279767D01*
D02*
G37*
G36*
X85070Y416782D02*
X82318Y416420D01*
X79754Y415357D01*
X77552Y413668D01*
X75862Y411466D01*
X74800Y408902D01*
X74438Y406150D01*
X74800Y403398D01*
X75862Y400834D01*
X77552Y398632D01*
X79754Y396942D01*
X82318Y395880D01*
X85070Y395518D01*
X87822Y395880D01*
X90386Y396942D01*
X92588Y398632D01*
X94278Y400834D01*
X95340Y403398D01*
X95702Y406150D01*
X95340Y408902D01*
X94278Y411466D01*
X92588Y413668D01*
X90386Y415357D01*
X87822Y416420D01*
X85070Y416782D01*
D02*
G37*
G36*
X537685Y733370D02*
X535622Y732959D01*
X533874Y731791D01*
X532706Y730042D01*
X532295Y727980D01*
Y709980D01*
X532706Y707917D01*
X533874Y706169D01*
X535622Y705001D01*
X537685Y704591D01*
X539748Y705001D01*
X541496Y706169D01*
X542664Y707917D01*
X543074Y709980D01*
Y727980D01*
X542664Y730042D01*
X541496Y731791D01*
X539748Y732959D01*
X537685Y733370D01*
D02*
G37*
G36*
X702785Y733629D02*
X700623Y733199D01*
X698791Y731974D01*
X697566Y730142D01*
X697137Y727980D01*
Y709980D01*
X697566Y707818D01*
X698791Y705986D01*
X700623Y704762D01*
X702785Y704332D01*
X704947Y704762D01*
X706779Y705986D01*
X708003Y707818D01*
X708434Y709980D01*
Y727980D01*
X708003Y730142D01*
X706779Y731974D01*
X704947Y733199D01*
X702785Y733629D01*
D02*
G37*
G36*
X550385Y733370D02*
X548322Y732959D01*
X546574Y731791D01*
X545406Y730042D01*
X544995Y727980D01*
Y709980D01*
X545406Y707917D01*
X545464Y707830D01*
Y705115D01*
X545839Y703232D01*
X546906Y701636D01*
X555199Y693342D01*
Y680229D01*
X572771D01*
Y702801D01*
X559658D01*
X555305Y707153D01*
Y707830D01*
X555364Y707917D01*
X555774Y709980D01*
Y727980D01*
X555364Y730042D01*
X554196Y731791D01*
X552448Y732959D01*
X550385Y733370D01*
D02*
G37*
G36*
Y826080D02*
X548322Y825669D01*
X546574Y824501D01*
X545406Y822753D01*
X544995Y820690D01*
Y802690D01*
X545406Y800628D01*
X545630Y800293D01*
Y798858D01*
X544403Y797023D01*
X543911Y794545D01*
X544403Y792067D01*
X545612Y790259D01*
X544403Y788450D01*
X543911Y785973D01*
X544403Y783495D01*
X545400Y782004D01*
X544403Y780513D01*
X543911Y778035D01*
X544403Y775557D01*
X545807Y773457D01*
X547907Y772053D01*
X550385Y771561D01*
X552863Y772053D01*
X554963Y773457D01*
X556367Y775557D01*
X556859Y778035D01*
X556367Y780513D01*
X555471Y781854D01*
Y782154D01*
X556367Y783495D01*
X556859Y785973D01*
X556367Y788450D01*
X555471Y789791D01*
Y790726D01*
X556367Y792067D01*
X556859Y794545D01*
X556367Y797023D01*
X555471Y798364D01*
Y801162D01*
X555774Y802690D01*
Y820690D01*
X555364Y822753D01*
X554196Y824501D01*
X552448Y825669D01*
X550385Y826080D01*
D02*
G37*
G36*
X563085D02*
X561022Y825669D01*
X559274Y824501D01*
X558106Y822753D01*
X557695Y820690D01*
Y802690D01*
X558106Y800628D01*
X558164Y800540D01*
Y730130D01*
X558106Y730042D01*
X557695Y727980D01*
Y709980D01*
X558106Y707917D01*
X559274Y706169D01*
X561022Y705001D01*
X563085Y704591D01*
X565148Y705001D01*
X566896Y706169D01*
X568064Y707917D01*
X568475Y709980D01*
Y727980D01*
X568064Y730042D01*
X568005Y730130D01*
Y800540D01*
X568064Y800628D01*
X568475Y802690D01*
Y805340D01*
X577274D01*
X578862Y804278D01*
X581340Y803786D01*
X583818Y804278D01*
X585918Y805682D01*
X587322Y807782D01*
X587814Y810260D01*
X587322Y812738D01*
X585918Y814838D01*
X583818Y816242D01*
X581340Y816734D01*
X578862Y816242D01*
X577274Y815181D01*
X568475D01*
Y820690D01*
X568064Y822753D01*
X566896Y824501D01*
X565148Y825669D01*
X563085Y826080D01*
D02*
G37*
G36*
X1320000Y812370D02*
X1316611Y812036D01*
X1313353Y811047D01*
X1310350Y809442D01*
X1307718Y807282D01*
X1305558Y804650D01*
X1303952Y801647D01*
X1302964Y798389D01*
X1302630Y795000D01*
X1302964Y791611D01*
X1303952Y788353D01*
X1305558Y785350D01*
X1307718Y782718D01*
X1310350Y780558D01*
X1313353Y778952D01*
X1316611Y777964D01*
X1320000Y777630D01*
X1323389Y777964D01*
X1326647Y778952D01*
X1329650Y780558D01*
X1332282Y782718D01*
X1334442Y785350D01*
X1336047Y788353D01*
X1337036Y791611D01*
X1337370Y795000D01*
X1337036Y798389D01*
X1336047Y801647D01*
X1334442Y804650D01*
X1332282Y807282D01*
X1329650Y809442D01*
X1326647Y811047D01*
X1323389Y812036D01*
X1320000Y812370D01*
D02*
G37*
G36*
X50000Y812625D02*
X46562Y812286D01*
X43255Y811283D01*
X40208Y809654D01*
X37537Y807463D01*
X35345Y804792D01*
X33717Y801745D01*
X32714Y798438D01*
X32375Y795000D01*
X32714Y791562D01*
X33717Y788255D01*
X35345Y785208D01*
X37537Y782537D01*
X40208Y780346D01*
X43255Y778717D01*
X46562Y777714D01*
X50000Y777375D01*
X53439Y777714D01*
X56745Y778717D01*
X59792Y780346D01*
X62463Y782537D01*
X64654Y785208D01*
X66283Y788255D01*
X67286Y791562D01*
X67625Y795000D01*
X67286Y798438D01*
X66283Y801745D01*
X64654Y804792D01*
X62463Y807463D01*
X59792Y809654D01*
X56745Y811283D01*
X53439Y812286D01*
X50000Y812625D01*
D02*
G37*
G36*
X1299079Y612967D02*
X1294954Y612643D01*
X1290931Y611677D01*
X1287108Y610093D01*
X1283581Y607932D01*
X1280435Y605244D01*
X1277747Y602098D01*
X1275586Y598571D01*
X1274002Y594748D01*
X1273036Y590725D01*
X1272712Y586600D01*
X1273036Y582475D01*
X1274002Y578452D01*
X1275586Y574630D01*
X1277747Y571102D01*
X1280435Y567956D01*
X1283581Y565268D01*
X1287108Y563107D01*
X1289840Y561975D01*
X1290931Y561523D01*
X1294954Y560557D01*
X1299079Y560233D01*
X1303204Y560557D01*
X1303782Y560696D01*
X1307227Y561523D01*
X1311049Y563107D01*
X1314577Y565268D01*
X1317724Y567956D01*
X1320411Y571102D01*
X1322572Y574630D01*
X1324156Y578452D01*
X1325122Y582475D01*
X1325446Y586600D01*
X1325122Y590725D01*
X1324156Y594748D01*
X1322572Y598571D01*
X1320411Y602098D01*
X1317724Y605244D01*
X1314577Y607932D01*
X1311049Y610093D01*
X1307227Y611677D01*
X1303204Y612643D01*
X1299079Y612967D01*
D02*
G37*
G36*
X1313279Y430632D02*
X1310527Y430270D01*
X1307963Y429207D01*
X1305761Y427518D01*
X1304071Y425316D01*
X1303009Y422752D01*
X1302647Y420000D01*
X1303009Y417248D01*
X1304071Y414684D01*
X1305761Y412482D01*
X1307963Y410792D01*
X1310527Y409730D01*
X1313279Y409368D01*
X1316031Y409730D01*
X1318595Y410792D01*
X1320797Y412482D01*
X1322487Y414684D01*
X1323549Y417248D01*
X1323911Y420000D01*
X1323549Y422752D01*
X1322487Y425316D01*
X1320797Y427518D01*
X1318595Y429207D01*
X1316031Y430270D01*
X1313279Y430632D01*
D02*
G37*
G36*
X56670D02*
X53918Y430270D01*
X51354Y429207D01*
X49152Y427518D01*
X47463Y425316D01*
X46400Y422752D01*
X46038Y420000D01*
X46400Y417248D01*
X47463Y414684D01*
X49152Y412482D01*
X51354Y410792D01*
X53918Y409730D01*
X56670Y409368D01*
X59422Y409730D01*
X61986Y410792D01*
X64188Y412482D01*
X65878Y414684D01*
X66940Y417248D01*
X67302Y420000D01*
X66940Y422752D01*
X65878Y425316D01*
X64188Y427518D01*
X61986Y429207D01*
X59422Y430270D01*
X56670Y430632D01*
D02*
G37*
G36*
X1284879Y416782D02*
X1282127Y416420D01*
X1279563Y415357D01*
X1277361Y413668D01*
X1275671Y411466D01*
X1274609Y408902D01*
X1274247Y406150D01*
X1274609Y403398D01*
X1275671Y400834D01*
X1277361Y398632D01*
X1279563Y396942D01*
X1282127Y395880D01*
X1284879Y395518D01*
X1287631Y395880D01*
X1290195Y396942D01*
X1292397Y398632D01*
X1294086Y400834D01*
X1295149Y403398D01*
X1295511Y406150D01*
X1295149Y408902D01*
X1294086Y411466D01*
X1292397Y413668D01*
X1290195Y415357D01*
X1287631Y416420D01*
X1284879Y416782D01*
D02*
G37*
G36*
Y444482D02*
X1282127Y444120D01*
X1279563Y443058D01*
X1277361Y441368D01*
X1275671Y439166D01*
X1274609Y436602D01*
X1274247Y433850D01*
X1274609Y431098D01*
X1275671Y428534D01*
X1277361Y426332D01*
X1279563Y424643D01*
X1282127Y423580D01*
X1284879Y423218D01*
X1287631Y423580D01*
X1290195Y424643D01*
X1292397Y426332D01*
X1294086Y428534D01*
X1295149Y431098D01*
X1295511Y433850D01*
X1295149Y436602D01*
X1294086Y439166D01*
X1292397Y441368D01*
X1290195Y443058D01*
X1287631Y444120D01*
X1284879Y444482D01*
D02*
G37*
G36*
X1295420Y527491D02*
X1274338D01*
Y518101D01*
X1247116Y490879D01*
X1246330Y489702D01*
X1246054Y488315D01*
X1246054Y488315D01*
Y469011D01*
X1239774D01*
Y449199D01*
X1259586D01*
Y469011D01*
X1253306D01*
Y486813D01*
X1273159Y506666D01*
X1274015Y506452D01*
X1274243Y505305D01*
X1266801Y497864D01*
X1266015Y496688D01*
X1265739Y495300D01*
X1265739Y495300D01*
Y442192D01*
X1260878Y437331D01*
X1258900D01*
X1258333Y438701D01*
X1256745Y440770D01*
X1254676Y442358D01*
X1252266Y443356D01*
X1249680Y443697D01*
X1247094Y443356D01*
X1244684Y442358D01*
X1242615Y440770D01*
X1241027Y438701D01*
X1240029Y436291D01*
X1239688Y433705D01*
X1240029Y431119D01*
X1241027Y428709D01*
X1242615Y426640D01*
X1244684Y425052D01*
X1247094Y424054D01*
X1249680Y423713D01*
X1252266Y424054D01*
X1254676Y425052D01*
X1256745Y426640D01*
X1258333Y428709D01*
X1258900Y430079D01*
X1262380D01*
X1262380Y430079D01*
X1263767Y430355D01*
X1264944Y431141D01*
X1271929Y438126D01*
X1271929Y438126D01*
X1272715Y439302D01*
X1272715Y439302D01*
X1272715Y439303D01*
X1272991Y440690D01*
X1272991Y440690D01*
Y461384D01*
X1274258Y461467D01*
X1274258Y461467D01*
D01*
X1274609Y458798D01*
X1275671Y456234D01*
X1277361Y454032D01*
X1279563Y452342D01*
X1282127Y451280D01*
X1284879Y450918D01*
X1287631Y451280D01*
X1290195Y452342D01*
X1292397Y454032D01*
X1294086Y456234D01*
X1295149Y458798D01*
X1295511Y461550D01*
X1295149Y464302D01*
X1294086Y466866D01*
X1292397Y469068D01*
X1290195Y470758D01*
X1287631Y471820D01*
X1284879Y472182D01*
X1282127Y471820D01*
X1279563Y470758D01*
X1277361Y469068D01*
X1275671Y466866D01*
X1274609Y464302D01*
X1274258Y461633D01*
X1272991Y461716D01*
Y488488D01*
X1273675Y489128D01*
X1273918Y489144D01*
X1273918Y489144D01*
X1274258Y489167D01*
X1274258Y489167D01*
D01*
X1274609Y486498D01*
X1275671Y483934D01*
X1277361Y481732D01*
X1279563Y480042D01*
X1282127Y478980D01*
X1284879Y478618D01*
X1287631Y478980D01*
X1290195Y480042D01*
X1292397Y481732D01*
X1294086Y483934D01*
X1295149Y486498D01*
X1295511Y489250D01*
X1295149Y492002D01*
X1294086Y494566D01*
X1292397Y496768D01*
X1290437Y498272D01*
X1290845Y499474D01*
X1303371D01*
X1304071Y497784D01*
X1305761Y495582D01*
X1307963Y493892D01*
X1310527Y492830D01*
X1313279Y492468D01*
X1316031Y492830D01*
X1318595Y493892D01*
X1320797Y495582D01*
X1322487Y497784D01*
X1323549Y500348D01*
X1323911Y503100D01*
X1323549Y505852D01*
X1322487Y508416D01*
X1320797Y510618D01*
X1318595Y512308D01*
X1316031Y513370D01*
X1313279Y513732D01*
X1310527Y513370D01*
X1307963Y512308D01*
X1305761Y510618D01*
X1304071Y508416D01*
X1303371Y506726D01*
X1295420D01*
Y527491D01*
D02*
G37*
G36*
X1313279Y486032D02*
X1310527Y485670D01*
X1307963Y484608D01*
X1305761Y482918D01*
X1304071Y480716D01*
X1303009Y478152D01*
X1302647Y475400D01*
X1303009Y472648D01*
X1304071Y470084D01*
X1305761Y467882D01*
X1307963Y466192D01*
X1310527Y465130D01*
X1313279Y464768D01*
X1316031Y465130D01*
X1318595Y466192D01*
X1320797Y467882D01*
X1322487Y470084D01*
X1323549Y472648D01*
X1323911Y475400D01*
X1323549Y478152D01*
X1322487Y480716D01*
X1320797Y482918D01*
X1318595Y484608D01*
X1316031Y485670D01*
X1313279Y486032D01*
D02*
G37*
G36*
Y458332D02*
X1310527Y457970D01*
X1307963Y456908D01*
X1305761Y455218D01*
X1304071Y453016D01*
X1303009Y450452D01*
X1302647Y447700D01*
X1303009Y444948D01*
X1304071Y442384D01*
X1305761Y440182D01*
X1307963Y438492D01*
X1310527Y437430D01*
X1313279Y437068D01*
X1316031Y437430D01*
X1318595Y438492D01*
X1320797Y440182D01*
X1322487Y442384D01*
X1323549Y444948D01*
X1323911Y447700D01*
X1323549Y450452D01*
X1322487Y453016D01*
X1320797Y455218D01*
X1318595Y456908D01*
X1316031Y457970D01*
X1313279Y458332D01*
D02*
G37*
%LPD*%
D10*
X717550Y645955D02*
D03*
Y665955D02*
D03*
X593725Y155735D02*
D03*
Y175735D02*
D03*
X697865Y259555D02*
D03*
Y239555D02*
D03*
X796925Y155735D02*
D03*
Y175735D02*
D03*
X901065Y259555D02*
D03*
Y239555D02*
D03*
Y155735D02*
D03*
Y175735D02*
D03*
X796925Y219550D02*
D03*
Y199550D02*
D03*
X1165860Y543400D02*
D03*
Y523400D02*
D03*
X391795Y175735D02*
D03*
Y155735D02*
D03*
X495935Y175735D02*
D03*
Y155735D02*
D03*
X391795Y199550D02*
D03*
Y219550D02*
D03*
X1118870Y645955D02*
D03*
Y665955D02*
D03*
X189230Y175735D02*
D03*
Y155735D02*
D03*
X293370Y239555D02*
D03*
Y259555D02*
D03*
Y175735D02*
D03*
Y155735D02*
D03*
X189230Y199550D02*
D03*
Y219550D02*
D03*
X1118870Y543400D02*
D03*
Y523400D02*
D03*
X567690Y219550D02*
D03*
Y199550D02*
D03*
Y36035D02*
D03*
Y16035D02*
D03*
Y70960D02*
D03*
Y50960D02*
D03*
Y105885D02*
D03*
Y85885D02*
D03*
Y175735D02*
D03*
Y155735D02*
D03*
X671830Y219550D02*
D03*
Y199550D02*
D03*
Y259555D02*
D03*
Y239555D02*
D03*
X697865Y36035D02*
D03*
Y16035D02*
D03*
Y70960D02*
D03*
Y50960D02*
D03*
X763905Y604045D02*
D03*
Y624045D02*
D03*
Y543400D02*
D03*
Y523400D02*
D03*
X1228725Y733265D02*
D03*
Y713265D02*
D03*
X697865Y199550D02*
D03*
Y219550D02*
D03*
X875030Y219550D02*
D03*
Y199550D02*
D03*
X901065Y219550D02*
D03*
Y199550D02*
D03*
X365760Y175735D02*
D03*
Y155735D02*
D03*
X495935Y219550D02*
D03*
Y199550D02*
D03*
X163195Y175735D02*
D03*
Y155735D02*
D03*
Y219550D02*
D03*
Y199550D02*
D03*
X1142365Y645955D02*
D03*
Y665955D02*
D03*
X901065Y70960D02*
D03*
Y50960D02*
D03*
X771525Y105885D02*
D03*
Y85885D02*
D03*
X645795Y175735D02*
D03*
Y155735D02*
D03*
X619760Y175735D02*
D03*
Y155735D02*
D03*
X365125Y70960D02*
D03*
Y50960D02*
D03*
X1230630Y577055D02*
D03*
Y557055D02*
D03*
X162560Y36035D02*
D03*
Y16035D02*
D03*
X105410Y760255D02*
D03*
Y780255D02*
D03*
X127635Y760255D02*
D03*
Y780255D02*
D03*
X697865Y105885D02*
D03*
Y85885D02*
D03*
X770890Y36035D02*
D03*
Y16035D02*
D03*
Y70960D02*
D03*
Y50960D02*
D03*
X822960Y175735D02*
D03*
Y155735D02*
D03*
X901065Y36035D02*
D03*
Y16035D02*
D03*
Y105885D02*
D03*
Y85885D02*
D03*
X848995Y175735D02*
D03*
Y155735D02*
D03*
X365125Y36035D02*
D03*
Y16035D02*
D03*
Y105885D02*
D03*
Y85885D02*
D03*
X417830Y175735D02*
D03*
Y155735D02*
D03*
X495300Y70960D02*
D03*
Y50960D02*
D03*
Y105885D02*
D03*
Y85885D02*
D03*
X443865Y175735D02*
D03*
Y155735D02*
D03*
X162560Y105885D02*
D03*
Y85885D02*
D03*
X215265Y175735D02*
D03*
Y155735D02*
D03*
X292735Y70960D02*
D03*
Y50960D02*
D03*
Y105885D02*
D03*
Y85885D02*
D03*
X241300Y175735D02*
D03*
Y155735D02*
D03*
X697865Y155735D02*
D03*
Y175735D02*
D03*
X593725Y219550D02*
D03*
Y199550D02*
D03*
X495935Y239555D02*
D03*
Y259555D02*
D03*
X593725Y259555D02*
D03*
Y239555D02*
D03*
X671830Y175735D02*
D03*
Y155735D02*
D03*
X770890Y175735D02*
D03*
Y155735D02*
D03*
X875030Y259555D02*
D03*
Y239555D02*
D03*
X796925Y259555D02*
D03*
Y239555D02*
D03*
X469900Y175735D02*
D03*
Y155735D02*
D03*
Y259555D02*
D03*
Y239555D02*
D03*
Y219550D02*
D03*
Y199550D02*
D03*
X770890Y219550D02*
D03*
Y199550D02*
D03*
X875030Y175735D02*
D03*
Y155735D02*
D03*
X391795Y259555D02*
D03*
Y239555D02*
D03*
X365760Y219550D02*
D03*
Y199550D02*
D03*
X267335Y175735D02*
D03*
Y155735D02*
D03*
X189230Y259555D02*
D03*
Y239555D02*
D03*
X293370Y199550D02*
D03*
Y219550D02*
D03*
X267335Y199550D02*
D03*
Y219550D02*
D03*
X267335Y259555D02*
D03*
Y239555D02*
D03*
X1165860Y604045D02*
D03*
Y624045D02*
D03*
X1000125Y604045D02*
D03*
Y624045D02*
D03*
Y543400D02*
D03*
Y523400D02*
D03*
X1047115Y645955D02*
D03*
Y665955D02*
D03*
X1047115Y523400D02*
D03*
Y543400D02*
D03*
X929640Y604045D02*
D03*
Y624045D02*
D03*
Y543400D02*
D03*
Y523400D02*
D03*
X882650Y645955D02*
D03*
Y665955D02*
D03*
X882650Y523400D02*
D03*
Y543400D02*
D03*
X810895Y523400D02*
D03*
Y543400D02*
D03*
X1189355Y645955D02*
D03*
Y665955D02*
D03*
X1189355Y604045D02*
D03*
Y624045D02*
D03*
Y563405D02*
D03*
Y583405D02*
D03*
X1165860Y583405D02*
D03*
Y563405D02*
D03*
X1165860Y645955D02*
D03*
Y665955D02*
D03*
X1189355Y523400D02*
D03*
Y543400D02*
D03*
X1095375Y543400D02*
D03*
Y523400D02*
D03*
X1142365Y543400D02*
D03*
Y523400D02*
D03*
X976630Y645955D02*
D03*
Y665955D02*
D03*
Y604045D02*
D03*
Y624045D02*
D03*
Y563405D02*
D03*
Y583405D02*
D03*
X1000125Y583405D02*
D03*
Y563405D02*
D03*
X1000125Y645955D02*
D03*
Y665955D02*
D03*
X1023620Y645955D02*
D03*
Y665955D02*
D03*
X976630Y523400D02*
D03*
Y543400D02*
D03*
X1070610Y543400D02*
D03*
Y523400D02*
D03*
X1023620Y543400D02*
D03*
Y523400D02*
D03*
X953135Y645955D02*
D03*
Y665955D02*
D03*
Y604045D02*
D03*
Y624045D02*
D03*
Y563405D02*
D03*
Y583405D02*
D03*
X929640Y583405D02*
D03*
Y563405D02*
D03*
X929640Y645955D02*
D03*
Y665955D02*
D03*
X906145Y645955D02*
D03*
Y665955D02*
D03*
X953135Y523400D02*
D03*
Y543400D02*
D03*
X859155Y543400D02*
D03*
Y523400D02*
D03*
X906145Y543400D02*
D03*
Y523400D02*
D03*
X740410Y563405D02*
D03*
Y583405D02*
D03*
X763905Y583405D02*
D03*
Y563405D02*
D03*
X740410Y523400D02*
D03*
Y543400D02*
D03*
X834390Y543400D02*
D03*
Y523400D02*
D03*
X787400Y543400D02*
D03*
Y523400D02*
D03*
X810895Y665955D02*
D03*
Y645955D02*
D03*
X740410Y604045D02*
D03*
Y624045D02*
D03*
X763905Y645955D02*
D03*
Y665955D02*
D03*
X787400Y645955D02*
D03*
Y665955D02*
D03*
X1173480Y713265D02*
D03*
Y733265D02*
D03*
X162560Y70960D02*
D03*
Y50960D02*
D03*
X292735Y36035D02*
D03*
Y16035D02*
D03*
X495300Y36035D02*
D03*
Y16035D02*
D03*
X1270635Y665320D02*
D03*
Y645320D02*
D03*
X1212215Y645955D02*
D03*
Y665955D02*
D03*
X740410Y645955D02*
D03*
Y665955D02*
D03*
D11*
X728505Y742315D02*
D03*
X748505D02*
D03*
X736915Y231140D02*
D03*
X716915D02*
D03*
X737550Y169545D02*
D03*
X717550D02*
D03*
X333215D02*
D03*
X313215D02*
D03*
X332707Y231140D02*
D03*
X312707D02*
D03*
X350045Y751205D02*
D03*
X370045D02*
D03*
X492920Y721360D02*
D03*
X512920D02*
D03*
X536215Y549395D02*
D03*
X516215D02*
D03*
X516415Y574675D02*
D03*
X536415D02*
D03*
X37305Y687070D02*
D03*
X17305D02*
D03*
X37305Y664210D02*
D03*
X17305D02*
D03*
X37305Y641985D02*
D03*
X17305D02*
D03*
X904400Y685800D02*
D03*
X924400D02*
D03*
X782480Y684530D02*
D03*
X802480D02*
D03*
X1117760Y685800D02*
D03*
X1137760D02*
D03*
X1004095Y684530D02*
D03*
X1024095D02*
D03*
D12*
X93980Y652145D02*
D03*
X81280D02*
D03*
Y690245D02*
D03*
X68580D02*
D03*
Y652145D02*
D03*
X55880Y690245D02*
D03*
Y652145D02*
D03*
X93980Y690245D02*
D03*
X106680D02*
D03*
Y652145D02*
D03*
D13*
X370915Y686995D02*
D03*
Y681995D02*
D03*
Y676995D02*
D03*
Y671995D02*
D03*
Y666995D02*
D03*
Y661995D02*
D03*
Y656995D02*
D03*
Y651995D02*
D03*
Y646995D02*
D03*
Y641995D02*
D03*
Y636995D02*
D03*
Y631995D02*
D03*
Y626995D02*
D03*
Y621995D02*
D03*
Y616995D02*
D03*
Y611995D02*
D03*
X479915D02*
D03*
Y616995D02*
D03*
Y621995D02*
D03*
Y626995D02*
D03*
Y631995D02*
D03*
Y636995D02*
D03*
Y641995D02*
D03*
Y646995D02*
D03*
Y651995D02*
D03*
Y656995D02*
D03*
Y661995D02*
D03*
Y666995D02*
D03*
Y671995D02*
D03*
Y676995D02*
D03*
Y681995D02*
D03*
Y686995D02*
D03*
D14*
X387915Y594995D02*
D03*
X392915D02*
D03*
X397915D02*
D03*
X402915D02*
D03*
X407915D02*
D03*
X412915D02*
D03*
X417915D02*
D03*
X422915D02*
D03*
X427915D02*
D03*
X432915D02*
D03*
X437915D02*
D03*
X442915D02*
D03*
X447915D02*
D03*
X452915D02*
D03*
X457915D02*
D03*
X462915D02*
D03*
Y703995D02*
D03*
X457915D02*
D03*
X452915D02*
D03*
X447915D02*
D03*
X442915D02*
D03*
X437915D02*
D03*
X432915D02*
D03*
X427915D02*
D03*
X422915D02*
D03*
X417915D02*
D03*
X412915D02*
D03*
X407915D02*
D03*
X402915D02*
D03*
X397915D02*
D03*
X392915D02*
D03*
X387915D02*
D03*
D15*
X412115Y203235D02*
D03*
X424815D02*
D03*
X437515D02*
D03*
X450215D02*
D03*
X412115Y255235D02*
D03*
X424815D02*
D03*
X437515D02*
D03*
X450215D02*
D03*
X209550Y203235D02*
D03*
X222250D02*
D03*
X234950D02*
D03*
X247650D02*
D03*
X209550Y255235D02*
D03*
X222250D02*
D03*
X234950D02*
D03*
X247650D02*
D03*
X817245Y202600D02*
D03*
X829945D02*
D03*
X842645D02*
D03*
X855345D02*
D03*
X817245Y254600D02*
D03*
X829945D02*
D03*
X842645D02*
D03*
X855345D02*
D03*
X614045Y202600D02*
D03*
X626745D02*
D03*
X639445D02*
D03*
X652145D02*
D03*
X614045Y254600D02*
D03*
X626745D02*
D03*
X639445D02*
D03*
X652145D02*
D03*
D16*
X808990Y565717D02*
D03*
X821690D02*
D03*
X834390D02*
D03*
X847090D02*
D03*
X859790D02*
D03*
X872490D02*
D03*
X885190D02*
D03*
X808990Y620717D02*
D03*
X821690D02*
D03*
X834390D02*
D03*
X847090D02*
D03*
X859790D02*
D03*
X872490D02*
D03*
X885190D02*
D03*
X1045210Y565717D02*
D03*
X1057910D02*
D03*
X1070610D02*
D03*
X1083310D02*
D03*
X1096010D02*
D03*
X1108710D02*
D03*
X1121410D02*
D03*
X1045210Y620717D02*
D03*
X1057910D02*
D03*
X1070610D02*
D03*
X1083310D02*
D03*
X1096010D02*
D03*
X1108710D02*
D03*
X1121410D02*
D03*
D17*
X322580Y190660D02*
D03*
X313080Y210660D02*
D03*
X332080D02*
D03*
X726915Y190660D02*
D03*
X717415Y210660D02*
D03*
X736415D02*
D03*
X1241400Y645480D02*
D03*
X1231900Y665480D02*
D03*
X1250900D02*
D03*
X1201420Y711360D02*
D03*
X1191920Y731360D02*
D03*
X1210920D02*
D03*
X738505Y702470D02*
D03*
X729005Y722470D02*
D03*
X748005D02*
D03*
X826795Y129065D02*
D03*
X845795D02*
D03*
X836295Y149065D02*
D03*
X219100Y129065D02*
D03*
X238100D02*
D03*
X228600Y149065D02*
D03*
X421030Y129065D02*
D03*
X440030D02*
D03*
X430530Y149065D02*
D03*
X623595Y129065D02*
D03*
X642595D02*
D03*
X633095Y149065D02*
D03*
D18*
X373220Y725170D02*
D03*
X353220Y715670D02*
D03*
Y734670D02*
D03*
D19*
X491290Y574595D02*
D03*
Y549595D02*
D03*
D20*
X702785Y811690D02*
D03*
X690085D02*
D03*
X677385D02*
D03*
X563085D02*
D03*
X550385D02*
D03*
X537685D02*
D03*
X702785Y718980D02*
D03*
X690085D02*
D03*
X677385D02*
D03*
X563085D02*
D03*
X550385D02*
D03*
X537685D02*
D03*
D21*
X592985Y691515D02*
D03*
X563985D02*
D03*
D22*
X773070Y810260D02*
D03*
X728070D02*
D03*
X439060Y745490D02*
D03*
X394060D02*
D03*
D23*
X1069850Y122555D02*
D03*
X1038350D02*
D03*
X1238125Y191135D02*
D03*
X1206625D02*
D03*
D24*
X1210310Y325860D02*
D03*
Y354860D02*
D03*
D25*
X1168325Y145415D02*
D03*
X1238325D02*
D03*
D26*
X1326515Y144950D02*
D03*
X1326515Y197950D02*
D03*
D27*
X1276985Y167130D02*
D03*
Y198630D02*
D03*
D28*
X1134045Y57785D02*
D03*
X1237045D02*
D03*
D29*
X1041365Y704215D02*
D03*
Y716915D02*
D03*
Y729615D02*
D03*
Y742315D02*
D03*
X989365Y704215D02*
D03*
Y716915D02*
D03*
Y729615D02*
D03*
Y742315D02*
D03*
X939765Y704215D02*
D03*
Y716915D02*
D03*
Y729615D02*
D03*
Y742315D02*
D03*
X887765Y704215D02*
D03*
Y716915D02*
D03*
Y729615D02*
D03*
Y742315D02*
D03*
X838165Y704215D02*
D03*
Y716915D02*
D03*
Y729615D02*
D03*
Y742315D02*
D03*
X786165Y704215D02*
D03*
Y716915D02*
D03*
Y729615D02*
D03*
Y742315D02*
D03*
X1143139Y704215D02*
D03*
Y716915D02*
D03*
Y729615D02*
D03*
Y742315D02*
D03*
X1091139Y704215D02*
D03*
Y716915D02*
D03*
Y729615D02*
D03*
Y742315D02*
D03*
D30*
X1138925Y258225D02*
D03*
D31*
X1237925Y296325D02*
D03*
Y283625D02*
D03*
Y270925D02*
D03*
Y258225D02*
D03*
Y245525D02*
D03*
Y232825D02*
D03*
Y220125D02*
D03*
D32*
X512445Y767745D02*
D03*
Y739745D02*
D03*
X494665Y767745D02*
D03*
Y739745D02*
D03*
D33*
X418513Y566418D02*
D03*
X499275Y608735D02*
D03*
X354495Y604925D02*
D03*
D34*
X740410Y680720D02*
D03*
X953135D02*
D03*
X976630D02*
D03*
X1189355D02*
D03*
D35*
X1091139Y704215D02*
X1099345D01*
X1117760Y685800D01*
X1137760Y698836D02*
X1143139Y704215D01*
X1137760Y685800D02*
Y698836D01*
X1156650Y675005D02*
X1165860Y665795D01*
X1130935Y675005D02*
X1156650D01*
X1127125Y678815D02*
X1130935Y675005D01*
X1127125Y678815D02*
Y712470D01*
X924400Y688850D02*
X939765Y704215D01*
X924400Y685800D02*
Y688850D01*
X887765Y704215D02*
X904400Y687580D01*
Y685800D02*
Y687580D01*
X902970Y729615D02*
X914400Y718185D01*
Y676275D02*
Y718185D01*
Y676275D02*
X924720Y665955D01*
X887765Y704215D02*
X888525D01*
X924720Y665955D02*
X929640D01*
X611980Y105250D02*
X616585Y109855D01*
X567690Y105250D02*
X611980D01*
X1249680Y488315D02*
X1278315Y516950D01*
X1249680Y461645D02*
Y488315D01*
Y461645D02*
X1252220Y459105D01*
X1277165Y503100D02*
X1320010D01*
X1269365Y495300D02*
X1277165Y503100D01*
X1269365Y440690D02*
Y495300D01*
X1262380Y433705D02*
X1269365Y440690D01*
X215820Y647700D02*
X236220D01*
X85070Y516950D02*
X215820Y647700D01*
X78720Y516950D02*
X85070D01*
X56670Y521335D02*
X194211Y658876D01*
X56670Y509450D02*
Y521335D01*
X50320Y503100D02*
X56670Y509450D01*
X391868Y688267D02*
X397915Y694313D01*
X387985Y668020D02*
Y676910D01*
X382900Y681995D02*
X387985Y676910D01*
X370915Y681995D02*
X382900D01*
X360690Y686995D02*
X370915D01*
X353385Y694300D02*
X360690Y686995D01*
X284645Y671995D02*
X370915D01*
X402915Y679760D02*
X403225Y679450D01*
X402915Y679760D02*
Y703995D01*
X407915Y690635D02*
X411480Y687070D01*
X407915Y690635D02*
Y703995D01*
X407040Y643820D02*
X431805Y668585D01*
X422275Y687070D02*
X429895Y679450D01*
Y668655D02*
Y679450D01*
X406805Y656995D02*
X422275Y672465D01*
Y687070D01*
X417915Y691430D02*
X422275Y687070D01*
X398745Y611395D02*
Y651083D01*
X392832Y656995D02*
X398745Y651083D01*
X392832Y656995D02*
X406805D01*
X417915Y691430D02*
Y703995D01*
X370915Y656995D02*
X392832D01*
X397915Y694313D02*
Y703995D01*
X300355Y478155D02*
Y565945D01*
X287655Y560070D02*
X354406Y626821D01*
X274955Y554355D02*
X357421Y636821D01*
X262255Y549275D02*
X354801Y641821D01*
X249555Y543560D02*
X352990Y646995D01*
X287655Y490855D02*
Y560070D01*
X354406Y626821D02*
X370741D01*
X274955Y478155D02*
Y554355D01*
X357421Y636821D02*
X370741D01*
X262255Y490855D02*
Y549275D01*
X354801Y641821D02*
X370849D01*
X249555Y478155D02*
Y543560D01*
X352990Y646995D02*
X370915D01*
X277495Y581660D02*
Y664845D01*
X236855Y541020D02*
X277495Y581660D01*
X236855Y490855D02*
Y541020D01*
X198755Y450850D02*
Y522605D01*
Y445135D02*
Y450850D01*
Y522605D02*
X266065Y589915D01*
X272415Y586740D02*
Y668020D01*
X224155Y538480D02*
X272415Y586740D01*
X224155Y478155D02*
Y538480D01*
X186055Y519430D02*
X259715Y593090D01*
Y702310D01*
X300355Y565945D02*
X356231Y621821D01*
X266065Y589915D02*
Y695325D01*
X321945Y751205D01*
X350045D01*
X259715Y702310D02*
X321451Y764046D01*
X254635Y704850D02*
X318657Y768872D01*
X254635Y621030D02*
Y704850D01*
X173355Y539750D02*
X254635Y621030D01*
X249555Y623570D02*
Y707390D01*
X160655Y534670D02*
X249555Y623570D01*
X244475Y626110D02*
Y709930D01*
X147955Y529590D02*
X244475Y626110D01*
X249555Y707390D02*
X316230Y774065D01*
X244475Y709930D02*
X313690Y779145D01*
X443235Y688961D02*
X447915Y693641D01*
X443235Y631120D02*
Y688961D01*
X448315Y682555D02*
X453395Y687635D01*
X448315Y633725D02*
Y682555D01*
X338455Y647065D02*
X348385Y656995D01*
X389890Y636830D02*
Y647065D01*
X384960Y651995D02*
X389890Y647065D01*
X370915Y651995D02*
X384960D01*
X385055Y631995D02*
X389890Y636830D01*
X374015Y706120D02*
X387915D01*
X348385Y656995D02*
X370915D01*
X449580Y106045D02*
X495300D01*
X443230Y112395D02*
X449580Y106045D01*
X443230Y112395D02*
Y155100D01*
X410210Y106045D02*
X417195Y113030D01*
X417830Y113665D01*
Y152560D01*
X365125Y106045D02*
X410210D01*
X240665Y112395D02*
Y155100D01*
Y112395D02*
X247650Y105410D01*
X292735D01*
X215265Y113665D02*
Y155735D01*
X207485Y105885D02*
X215265Y113665D01*
X162560Y105885D02*
X207485D01*
X847090Y113030D02*
X854870Y105250D01*
X901065D01*
X815180D02*
X822960Y113030D01*
X771525Y105250D02*
X815180D01*
X616585Y109855D02*
X619920D01*
X619760Y110015D02*
X619920Y109855D01*
X619760Y110015D02*
Y155735D01*
X652940Y105250D02*
X697865D01*
X645795Y112395D02*
X652940Y105250D01*
X645795Y112395D02*
Y151925D01*
X923925Y312129D02*
Y322580D01*
X911225Y335280D02*
X923925Y322580D01*
X911225Y335280D02*
Y357480D01*
Y304800D02*
X924560Y291465D01*
X911225Y304800D02*
Y319480D01*
X885825Y304800D02*
X899160Y291465D01*
X885825Y304800D02*
Y319480D01*
X860425Y304800D02*
X873760Y291465D01*
X860425Y304800D02*
Y319480D01*
X733425Y304800D02*
X746760Y291465D01*
X733425Y304800D02*
Y319480D01*
X721360Y291465D02*
Y306145D01*
X708025Y319480D02*
X721360Y306145D01*
X708025Y283845D02*
X714375Y277495D01*
X758825D02*
Y299720D01*
X923925Y312129D02*
X940435Y295619D01*
Y277495D02*
Y295619D01*
X1051560Y433705D02*
X1061085D01*
X1254760D02*
X1262380D01*
X1050290Y459105D02*
X1059180D01*
X1038860Y447675D02*
X1050290Y459105D01*
X942340Y447675D02*
X1038860D01*
X1042670Y442595D02*
X1051560Y433705D01*
X929005Y426720D02*
Y434340D01*
X918210Y404495D02*
Y432435D01*
X948055Y462280D01*
X909955Y409575D02*
Y434975D01*
X902335Y414655D02*
Y439420D01*
X885825Y398145D02*
X902335Y414655D01*
X898525Y398145D02*
X909955Y409575D01*
X895350Y418465D02*
Y442595D01*
X873125Y396240D02*
X895350Y418465D01*
X909955Y434975D02*
X935990Y461010D01*
X937634Y433204D02*
X947024Y442595D01*
X937634Y424554D02*
Y433204D01*
X925990Y579755D02*
X929640Y583405D01*
X875030Y579755D02*
X925990D01*
X929005Y415925D02*
X937634Y424554D01*
X1211580Y471805D02*
X1230630Y490855D01*
X1030605Y471805D02*
X1211580D01*
X1024255Y465455D02*
X1030605Y471805D01*
X1230630Y490855D02*
Y557055D01*
X1024255Y465455D02*
Y490855D01*
X998855Y465455D02*
X1024255D01*
X998855D02*
Y490855D01*
X1024890Y346075D02*
Y403225D01*
X986790Y307975D02*
X1024890Y346075D01*
X948130Y307975D02*
X986790D01*
X1012190Y415925D02*
X1024890Y428625D01*
X1012190Y342980D02*
Y415925D01*
X988690Y319480D02*
X1012190Y342980D01*
X999490Y378460D02*
Y403225D01*
X986790Y415925D02*
X999490Y428625D01*
X986790Y381000D02*
Y415925D01*
X974090Y385445D02*
Y403225D01*
X946125Y357480D02*
X974090Y385445D01*
X961390Y415925D02*
X974090Y428625D01*
X961390Y388545D02*
Y415925D01*
X923925Y378460D02*
X948690Y403225D01*
X923925Y376480D02*
Y378460D01*
X947024Y442595D02*
X1042670D01*
X929005Y434340D02*
X942340Y447675D01*
X1278315Y516950D02*
X1291610D01*
X878205Y415290D02*
X889000Y426085D01*
X862010Y399095D02*
X878205Y415290D01*
X911606Y397891D02*
X918210Y404495D01*
X911606Y374396D02*
Y397891D01*
X948055Y462280D02*
Y465455D01*
X935990Y461010D02*
Y478790D01*
X902335Y439420D02*
X922655Y459740D01*
Y465455D01*
X895350Y442595D02*
X909955Y457200D01*
Y478155D01*
X884555Y454660D02*
Y478155D01*
X878205Y448310D02*
X884555Y454660D01*
X878205Y426720D02*
Y448310D01*
X897255Y455295D02*
Y465455D01*
X889000Y447040D02*
X897255Y455295D01*
X889000Y426085D02*
Y447040D01*
X847725Y396240D02*
X878205Y426720D01*
X935990Y478790D02*
X948055Y490855D01*
X898525Y376480D02*
Y398145D01*
X885825Y373380D02*
Y398145D01*
X909955Y478155D02*
X922655Y490855D01*
X873125Y376480D02*
Y396240D01*
X847725Y376480D02*
Y396240D01*
X587375Y361315D02*
X614045Y387985D01*
X587375Y351230D02*
Y361315D01*
X555625Y319480D02*
X587375Y351230D01*
X610870Y393700D02*
X639445D01*
X614045Y387985D02*
X641350D01*
X862010Y374965D02*
Y399095D01*
X884555Y478155D02*
X897255Y490855D01*
X871855Y452755D02*
Y465455D01*
X858520Y477520D02*
X871855Y490855D01*
X858520Y458470D02*
Y477520D01*
X784225Y384175D02*
X858520Y458470D01*
X846455Y459105D02*
Y465455D01*
X771525Y384175D02*
X846455Y459105D01*
X833755Y478155D02*
X846455Y490855D01*
X833755Y458470D02*
Y478155D01*
X758825Y383540D02*
X833755Y458470D01*
X821055D02*
Y465455D01*
X746125Y383540D02*
X821055Y458470D01*
X807720Y477520D02*
X821055Y490855D01*
X807720Y457835D02*
Y477520D01*
X733425Y383540D02*
X807720Y457835D01*
X795655Y458470D02*
Y465455D01*
X720725Y383540D02*
X795655Y458470D01*
X782320Y477520D02*
X793432Y488633D01*
X797878D01*
X782320Y457835D02*
Y477520D01*
X708025Y383540D02*
X782320Y457835D01*
X770255Y459105D02*
Y465455D01*
X695325Y384175D02*
X770255Y459105D01*
X756920Y477520D02*
X770255Y490855D01*
X756920Y459105D02*
Y477520D01*
X682625Y384810D02*
X756920Y459105D01*
X744855Y455295D02*
Y465455D01*
X677545Y387985D02*
X744855Y455295D01*
X731520Y477520D02*
X744855Y490855D01*
X731520Y449580D02*
Y477520D01*
X675005Y393065D02*
X731520Y449580D01*
X719455Y445135D02*
Y465455D01*
X672465Y398145D02*
X719455Y445135D01*
X708025Y479425D02*
X719455Y490855D01*
X708025Y441960D02*
Y479425D01*
X669290Y403225D02*
X708025Y441960D01*
X784225Y357480D02*
Y384175D01*
X771525Y376480D02*
Y384175D01*
X758825Y357480D02*
Y383540D01*
X746125Y376480D02*
Y383540D01*
X733425Y372745D02*
Y383540D01*
X648970Y403225D02*
X669290D01*
X651510Y398145D02*
X672465D01*
X655320Y393065D02*
X675005D01*
X664210Y387985D02*
X677545D01*
X720725Y376480D02*
Y383540D01*
X708025Y357480D02*
Y383540D01*
X695325Y376480D02*
Y384175D01*
X682625Y357480D02*
Y384810D01*
X639445Y393700D02*
X648970Y403225D01*
X641350Y387985D02*
X651510Y398145D01*
X644525Y382270D02*
X655320Y393065D01*
X657225Y381000D02*
X664210Y387985D01*
X599186Y412115D02*
X658495D01*
X580510Y393439D02*
X599186Y412115D01*
X658495D02*
X674370Y427990D01*
X530860Y417195D02*
X655974D01*
X518160Y404495D02*
X530860Y417195D01*
X655974D02*
X669290Y430511D01*
X835025Y415925D02*
X871855Y452755D01*
X835025Y357480D02*
Y415925D01*
X873125Y360680D02*
X885825Y373380D01*
X898525Y361315D02*
X911606Y374396D01*
X644525Y376480D02*
Y382270D01*
X720725Y360045D02*
X733425Y372745D01*
X720725Y338480D02*
Y360045D01*
X669925Y353409D02*
Y376480D01*
Y353409D02*
X681355Y341978D01*
X657225Y357480D02*
Y381000D01*
X688340Y291465D02*
X695960D01*
X671195Y308610D02*
X688340Y291465D01*
X671195Y308610D02*
Y321945D01*
X654660Y338480D02*
X671195Y321945D01*
X644525Y338480D02*
X654660D01*
X708025Y283845D02*
Y300355D01*
X695960Y312420D02*
X708025Y300355D01*
X662940Y291465D02*
X670560D01*
X644525Y309880D02*
X662940Y291465D01*
X644525Y309880D02*
Y321945D01*
X631825Y334645D02*
X644525Y321945D01*
X631825Y334645D02*
Y357480D01*
Y304800D02*
X645160Y291465D01*
X631825Y304800D02*
Y319480D01*
X619125Y292100D02*
X619760Y291465D01*
X619125Y292100D02*
Y338480D01*
X594360Y291465D02*
Y351715D01*
X619125Y376480D01*
X785495Y341978D02*
X796925Y353409D01*
X785495Y335678D02*
Y341978D01*
X771525Y321708D02*
X785495Y335678D01*
X822325Y353409D02*
X835025Y340709D01*
Y335280D02*
Y340709D01*
Y335280D02*
X847725Y322580D01*
Y293370D02*
Y322580D01*
Y293370D02*
X850900Y290195D01*
X797560Y291465D02*
X809625Y303530D01*
X773430Y290195D02*
X796925Y313690D01*
X887095Y278130D02*
X887730Y277495D01*
X887095Y278130D02*
Y294640D01*
X872490Y309245D02*
X887095Y294640D01*
X872490Y309245D02*
Y322580D01*
X744220Y314325D02*
X758825Y299720D01*
X744220Y314325D02*
Y323614D01*
X758825Y299720D02*
X771525Y312420D01*
X695960D02*
Y321073D01*
X822325Y291465D02*
Y338480D01*
X770890Y311785D02*
Y312033D01*
X771525Y312420D02*
Y321708D01*
X681355Y335678D02*
X695960Y321073D01*
X733425Y334408D02*
X744220Y323614D01*
X809625Y336252D02*
Y357480D01*
X796925Y323551D02*
X809625Y336252D01*
X796925Y313690D02*
Y323551D01*
X822325Y353409D02*
Y376480D01*
X809625Y303530D02*
Y319480D01*
X719455Y487567D02*
Y490855D01*
X962025Y319480D02*
X988690D01*
X959510Y338480D02*
X999490Y378460D01*
X963270Y357480D02*
X986790Y381000D01*
X949325Y376480D02*
X961390Y388545D01*
X1156810Y514350D02*
X1165860Y523400D01*
X998855Y514350D02*
X1156810D01*
X993775Y509270D02*
X998855Y514350D01*
X934085Y509270D02*
X993775D01*
X929005Y504190D02*
X934085Y509270D01*
X687705Y504190D02*
X929005D01*
X674370Y490855D02*
X687705Y504190D01*
X669290Y495300D02*
X683260Y509270D01*
X925195D01*
X664210Y499110D02*
X679450Y514350D01*
X921385D01*
X659130Y503555D02*
X688975Y533400D01*
X753905D01*
X1110615Y551655D02*
X1118870Y543400D01*
X1110615Y551655D02*
Y551815D01*
X1108710Y553720D02*
X1110615Y551815D01*
X1108710Y553720D02*
Y565717D01*
X1057910Y554195D02*
Y565717D01*
X1047115Y543400D02*
X1057910Y554195D01*
X872490Y553560D02*
Y565717D01*
Y553560D02*
X882650Y543400D01*
X810895Y543560D02*
Y544195D01*
X821690Y554990D01*
Y565717D01*
X930275Y514350D02*
X991075D01*
X925195Y509270D02*
X930275Y514350D01*
X991075D02*
X1000125Y523400D01*
X921385Y514350D02*
X929640Y522605D01*
X674370Y427990D02*
Y490855D01*
X669290Y430511D02*
Y495300D01*
X1155700Y718820D02*
Y782955D01*
X1153795Y716915D02*
X1155700Y718820D01*
Y782955D02*
X1167765Y795020D01*
X470045Y611995D02*
X479915D01*
X448315Y633725D02*
X470045Y611995D01*
X474345Y697809D02*
Y700386D01*
X453395Y652075D02*
Y676859D01*
X464204Y666115D02*
X470084Y671995D01*
X462915Y666115D02*
X464204D01*
X474345Y700386D02*
Y704215D01*
X447915Y693641D02*
Y703995D01*
X452755Y687705D02*
X453325D01*
X453395Y687635D01*
Y676859D02*
X474345Y697809D01*
X474350Y700391D02*
Y763265D01*
X474345Y700386D02*
X474350Y700391D01*
X470084Y671995D02*
X479915D01*
X462280Y678815D02*
X464204Y676891D01*
X503160Y671995D02*
X508635Y677470D01*
X492920Y691280D02*
Y718820D01*
X488635Y686995D02*
X492920Y691280D01*
X453395Y652075D02*
X463475Y641995D01*
X443235Y631120D02*
X480630Y593725D01*
X464670Y676995D02*
X479915D01*
X563245Y637540D02*
X592455Y608330D01*
X555560Y637540D02*
X563245D01*
X525945Y667155D02*
X555560Y637540D01*
X604520Y477520D02*
Y603185D01*
X532295Y675410D02*
X604520Y603185D01*
X586740Y507365D02*
Y601980D01*
X574040Y614680D02*
X586740Y601980D01*
X543560Y632460D02*
X580390Y595630D01*
X543560Y632460D02*
Y637136D01*
X574675Y523875D02*
Y593090D01*
X536575Y631190D02*
X574675Y593090D01*
X536575Y631190D02*
Y637296D01*
X569595Y531495D02*
Y591185D01*
X529590Y631190D02*
X569595Y591185D01*
X529590Y631190D02*
Y637456D01*
X515051Y651995D02*
X529590Y637456D01*
X479915Y651995D02*
X515051D01*
X564515Y535305D02*
Y588010D01*
X524105Y628420D02*
X564515Y588010D01*
X523470Y622070D02*
X559435Y586105D01*
X516420Y622070D02*
X523470D01*
X506495Y631995D02*
X516420Y622070D01*
X559435Y538480D02*
Y586105D01*
X554355Y540385D02*
Y584200D01*
X532677Y605877D02*
X554355Y584200D01*
X537845Y593725D02*
X549275Y582295D01*
X480630Y593725D02*
X537845D01*
X119380Y770890D02*
X235585D01*
X108745Y760255D02*
X119380Y770890D01*
X486380Y767745D02*
X494665D01*
X443230Y810895D02*
X486380Y767745D01*
X292100Y810895D02*
X443230D01*
X440125Y805745D02*
X479425Y766445D01*
X295840Y805745D02*
X440125D01*
X274320Y784225D02*
X295840Y805745D01*
X116205Y730885D02*
X226695D01*
X274320Y778510D01*
X278765D01*
X300355Y800100D01*
X437515D01*
X474350Y763265D01*
X479425Y707390D02*
Y766445D01*
Y707390D02*
X481965Y704850D01*
Y697230D02*
Y704850D01*
X480060Y699135D02*
X481965Y697230D01*
X302895Y794385D02*
X434975D01*
X279400Y770890D02*
X302895Y794385D01*
X434975D02*
X469270Y760090D01*
Y710350D02*
Y760090D01*
X231775Y712470D02*
X308610Y789305D01*
X432435D01*
X456565Y765175D01*
X311150Y784225D02*
X428625D01*
X198120Y671195D02*
X311150Y784225D01*
X93980Y671195D02*
X198120D01*
X450850Y728980D02*
Y762000D01*
X428625Y784225D02*
X450850Y762000D01*
X410210Y779145D02*
X427915Y761440D01*
X313690Y779145D02*
X410210D01*
X427915Y703995D02*
Y761440D01*
X422915Y703995D02*
Y758820D01*
X407670Y774065D02*
X422915Y758820D01*
X316230Y774065D02*
X407670D01*
X318657Y768872D02*
X405158D01*
X412915Y761115D01*
Y703995D02*
Y761115D01*
X321451Y764046D02*
X403159D01*
X407035Y760170D01*
X456565Y727790D02*
Y765175D01*
X452760Y723985D02*
X456565Y727790D01*
X452760Y707320D02*
Y723985D01*
X442915Y721045D02*
X450850Y728980D01*
X442915Y703995D02*
Y721045D01*
X407035Y728980D02*
Y760170D01*
X392915Y714860D02*
X407035Y728980D01*
X442557Y747008D02*
X444780Y749230D01*
X392915Y703995D02*
Y714860D01*
X281390Y676995D02*
X370915D01*
X272415Y668020D02*
X281390Y676995D01*
X194211Y658876D02*
X236220D01*
X277495Y664845D02*
X284645Y671995D01*
X483315Y574595D02*
X491290D01*
X462915Y594995D02*
X483315Y574595D01*
X457915Y579675D02*
X482915Y554675D01*
X457915Y579675D02*
Y594995D01*
X452915Y575785D02*
Y594995D01*
Y575785D02*
X464820Y563880D01*
X447915Y571895D02*
Y594995D01*
Y571895D02*
X456565Y563245D01*
X442915Y568005D02*
Y594995D01*
Y568005D02*
X448785Y562135D01*
X437915Y564115D02*
Y594995D01*
Y564115D02*
X441165Y560865D01*
X432915Y542445D02*
Y594995D01*
Y542445D02*
X466090Y509270D01*
X427915Y536650D02*
X452755Y511810D01*
X427915Y536650D02*
Y594995D01*
X356231Y621821D02*
X370741D01*
Y636821D02*
X370915Y636995D01*
X370741Y626821D02*
X370915Y626995D01*
X370741Y621821D02*
X370915Y621995D01*
X313055Y519430D02*
X370805Y577180D01*
Y611885D01*
X370915Y611995D01*
X351790Y477520D02*
Y536246D01*
X397741Y582197D01*
Y594821D01*
X397915Y594995D01*
X363855Y490855D02*
Y541020D01*
X402915Y580080D01*
Y594995D01*
X377190Y544195D02*
X407915Y574920D01*
Y594995D01*
X389255Y490855D02*
Y549275D01*
X412915Y572935D01*
Y594995D01*
X417915Y567016D02*
X418513Y566418D01*
X417915Y567016D02*
Y594995D01*
X377190Y477520D02*
Y544195D01*
X479915Y631995D02*
X506495D01*
X580390Y516255D02*
Y595630D01*
X567055Y502920D02*
X580390Y516255D01*
X579755Y500380D02*
X586740Y507365D01*
X579755Y478155D02*
Y500380D01*
X592455Y490855D02*
Y608330D01*
X525945Y667155D02*
X526561D01*
X515150Y675410D02*
X532295D01*
X506735Y666995D02*
X515150Y675410D01*
X518701Y661995D02*
X543560Y637136D01*
X479915Y661995D02*
X518701D01*
X479915Y656995D02*
X516876D01*
X553720Y502920D02*
X574675Y523875D01*
X541655Y503555D02*
X569595Y531495D01*
X540385Y511175D02*
X564515Y535305D01*
X509275Y646995D02*
X518960Y637310D01*
X479915Y646995D02*
X509275D01*
X479915Y666995D02*
X506735D01*
X479915Y671995D02*
X503160D01*
X508480Y636995D02*
X517055Y628420D01*
X479915Y636995D02*
X508480D01*
X503875Y626995D02*
X515785Y615085D01*
X479915Y626995D02*
X503875D01*
X497445Y621995D02*
X513563Y605877D01*
X479915Y621995D02*
X497445D01*
X517055Y628420D02*
X524105D01*
X515785Y614450D02*
Y615085D01*
X513563Y605877D02*
X532677D01*
X549275Y542925D02*
Y582295D01*
X491015Y616995D02*
X499275Y608735D01*
X541020Y520065D02*
X559435Y538480D01*
X541020Y527050D02*
X554355Y540385D01*
X540385Y534035D02*
X549275Y542925D01*
X447040Y542544D02*
X448785Y544289D01*
X452755Y478155D02*
Y511810D01*
X419100Y515620D02*
Y531368D01*
Y515620D02*
X428625Y506095D01*
X402590Y538480D02*
X417990Y553880D01*
X414655Y490855D02*
Y508000D01*
X410210Y512445D02*
X414655Y508000D01*
X410210Y512445D02*
Y535940D01*
X417830Y543560D01*
X456565Y527685D02*
Y563245D01*
Y527685D02*
X478790Y505460D01*
X464820Y534830D02*
Y563880D01*
X147955Y478155D02*
Y529590D01*
X160655Y490855D02*
Y534670D01*
X173355Y478155D02*
Y539750D01*
X186055Y490855D02*
Y519430D01*
X358945Y616995D02*
X370915D01*
X354495Y612545D02*
X358945Y616995D01*
X354495Y604925D02*
Y612545D01*
X250825Y319480D02*
Y342345D01*
X263525Y355045D01*
X128745Y761365D02*
X248285D01*
X19050Y653415D02*
X19670Y652795D01*
X55230D01*
X55880Y652145D01*
X199550Y229235D02*
X238760D01*
X247650Y238125D01*
X209550Y210820D02*
X218440Y219710D01*
X247650Y238125D02*
Y255235D01*
X671830Y198280D02*
Y198546D01*
X619125Y220345D02*
X650031D01*
X501650Y534035D02*
X540385D01*
X490855Y523240D02*
X501650Y534035D01*
X490855Y490855D02*
Y523240D01*
X777400Y655955D02*
X787400Y665955D01*
X726915Y655955D02*
X777400D01*
X659130Y435610D02*
Y503555D01*
X664210Y433070D02*
Y499110D01*
X653415Y422275D02*
X664210Y433070D01*
X510540Y422275D02*
X653415D01*
X650875Y427355D02*
X659130Y435610D01*
X502920Y427355D02*
X650875D01*
X1133670Y565590D02*
X1142365Y556895D01*
Y542130D02*
Y556895D01*
X1023620Y554990D02*
X1034220Y565590D01*
X897290Y565750D02*
X906145Y556895D01*
Y543400D02*
Y556895D01*
X796290Y565150D02*
X808390D01*
X787400Y556260D02*
X796290Y565150D01*
X787400Y542290D02*
Y556260D01*
X796925Y151925D02*
X802960D01*
X842645Y241300D02*
Y254600D01*
X840265Y238920D02*
X842645Y241300D01*
X855345Y232410D02*
Y254600D01*
X851535Y228600D02*
X855345Y232410D01*
Y254600D02*
X859665Y258920D01*
X875030Y238920D02*
X875030Y238920D01*
X901065D02*
X901065Y238920D01*
X824230Y220345D02*
X852965D01*
X817245Y213360D02*
X824230Y220345D01*
X817245Y202600D02*
Y213360D01*
X901065Y171925D02*
X901065Y171925D01*
X842645Y178275D02*
Y202600D01*
X829945Y178910D02*
Y202600D01*
X817245Y192245D02*
Y202600D01*
X796925Y171925D02*
X796925Y171925D01*
X796925Y151925D02*
X796925Y151925D01*
X524510Y268605D02*
X584040D01*
X614045Y215265D02*
X619125Y220345D01*
X614045Y202600D02*
Y215265D01*
X391795Y198120D02*
X391795Y198120D01*
X593725Y151925D02*
X599760D01*
X626745Y178910D02*
Y202600D01*
X639445Y178275D02*
Y202600D01*
X593725Y171925D02*
X594835D01*
X614045Y191135D02*
Y202600D01*
X652145Y234950D02*
Y254600D01*
X645160Y227965D02*
X652145Y234950D01*
X603410Y227965D02*
X645160D01*
X639445Y241300D02*
Y254600D01*
X637065Y238920D02*
X639445Y241300D01*
X671830Y218280D02*
X671830Y218280D01*
X697865Y238920D02*
X697865Y238920D01*
X645795Y151925D02*
X645795Y151925D01*
X1091139Y742315D02*
Y744459D01*
X989365Y742315D02*
Y755650D01*
X786165Y742315D02*
Y750535D01*
X1202215Y655955D02*
X1211740Y665480D01*
X1152205Y655955D02*
X1202215D01*
X1142365Y665795D02*
X1152205Y655955D01*
X1047430Y665480D02*
X1065530D01*
X250825Y426720D02*
X276860Y452755D01*
X250825Y357480D02*
Y426720D01*
X297180Y447675D02*
X468630D01*
X276225Y426720D02*
X297180Y447675D01*
X276225Y373380D02*
Y426720D01*
X887765Y729615D02*
X902970D01*
X1041365Y694655D02*
Y704215D01*
X1031240Y684530D02*
X1041365Y694655D01*
X1024095Y684530D02*
X1031240D01*
X802480D02*
X828040D01*
X838165Y694655D01*
X782480Y684530D02*
Y700530D01*
X838165Y694655D02*
Y704215D01*
X974725Y726440D02*
X977900Y729615D01*
X989365D01*
X979805Y742315D02*
X989365D01*
X1130935Y729615D02*
X1142965D01*
X1055370Y784225D02*
X1066165Y795020D01*
X1052195Y716915D02*
X1055370Y720090D01*
X1041365Y716915D02*
X1052195D01*
X1028700Y729615D02*
X1041365D01*
X774065Y742315D02*
X786165D01*
X774700Y729615D02*
X786165D01*
X955675Y786130D02*
X964565Y795020D01*
X955675Y721360D02*
Y786130D01*
X951230Y716915D02*
X955675Y721360D01*
X939765Y716915D02*
X951230D01*
X927735Y729615D02*
X939765D01*
X851535Y784860D02*
X861695Y795020D01*
X851535Y718820D02*
Y784860D01*
X849630Y716915D02*
X851535Y718820D01*
X838165Y716915D02*
X849630D01*
X825500Y729615D02*
X838165D01*
X929005Y666590D02*
X929640Y665955D01*
X859790Y629920D02*
X875665Y645795D01*
X1056640D02*
X1070610Y631825D01*
X1156810Y633095D02*
X1165860Y624045D01*
X1110615Y633095D02*
X1156810D01*
X1108710Y631190D02*
X1110615Y633095D01*
X920590D02*
X929640Y624045D01*
X875030Y633095D02*
X920590D01*
X872490Y630555D02*
X875030Y633095D01*
X1056005D02*
X1057910Y631190D01*
X1009175Y633095D02*
X1056005D01*
X1000125Y624045D02*
X1009175Y633095D01*
X818515D02*
X821690Y629920D01*
X772955Y633095D02*
X818515D01*
X763905Y624045D02*
X772955Y633095D01*
X422915Y610800D02*
Y618975D01*
Y594995D02*
Y610800D01*
X457915Y717555D02*
X461650Y721290D01*
X457915Y703995D02*
Y717555D01*
X106680Y690245D02*
Y713105D01*
X431805Y660965D02*
X437280D01*
X406365Y635525D02*
X431805Y660965D01*
X422915Y618975D02*
X437915Y633975D01*
X406365Y635525D02*
X422915Y618975D01*
X399420Y643820D02*
X407040D01*
X40005Y666910D02*
X44290Y671195D01*
X37305Y628810D02*
Y641985D01*
X106680Y633730D02*
Y652145D01*
X387915Y703995D02*
Y737365D01*
X462915Y703995D02*
X469270Y710350D01*
X68580Y633730D02*
Y652145D01*
X81280D01*
X68580Y671830D02*
Y690245D01*
X37305Y687070D02*
X55880D01*
X392915Y605565D02*
X398745Y611395D01*
X392915Y594995D02*
Y605565D01*
X370915Y631995D02*
X385055D01*
X463475Y641995D02*
X479915D01*
X44290Y671195D02*
X93980D01*
X55880Y690245D02*
Y706755D01*
X821690Y620750D02*
Y629920D01*
X740410Y624045D02*
X763905D01*
X740410Y624045D02*
X740410Y624045D01*
X834390Y620750D02*
Y630555D01*
X819150Y645795D02*
X834390Y630555D01*
X740410Y583405D02*
Y604045D01*
X740410Y542130D02*
Y563405D01*
X763905Y542130D02*
Y563405D01*
X740410Y543400D02*
X763905D01*
X821690Y565717D02*
Y577215D01*
X787400Y523560D02*
X797240Y533400D01*
X824230D01*
X929640Y624045D02*
X953135D01*
X872490Y620750D02*
Y630555D01*
X859790Y620750D02*
X859790Y620750D01*
X859790Y620750D02*
Y629920D01*
X953135Y583405D02*
Y604045D01*
X859155Y543560D02*
X859790Y544195D01*
X869315Y533400D02*
X896305D01*
X906145Y523560D01*
X929640Y542290D02*
Y563405D01*
X953135Y542290D02*
Y563405D01*
X441165Y553880D02*
Y560865D01*
X448785Y544289D02*
Y562135D01*
X147955Y478155D02*
X160655Y465455D01*
X224155Y478155D02*
X236855Y465455D01*
X249555Y478155D02*
X262255Y465455D01*
X351790Y477520D02*
X363855Y465455D01*
X377190Y477520D02*
X389255Y465455D01*
X402590Y477520D02*
X414655Y465455D01*
X452755Y478155D02*
X465455Y465455D01*
X592455D02*
X604520Y477520D01*
X567055Y465455D02*
X579755Y478155D01*
X567055Y490855D02*
Y502920D01*
X541655Y465455D02*
X553720Y477520D01*
X516255Y465455D02*
X529590Y478790D01*
X534035Y503555D02*
X541655D01*
X529590Y499110D02*
X534035Y503555D01*
X529590Y478790D02*
Y499110D01*
X490855Y465455D02*
X504190Y478790D01*
X516255Y490855D02*
Y502920D01*
X504190Y478790D02*
Y503555D01*
X516255Y502920D02*
X524510Y511175D01*
X540385D01*
X504190Y503555D02*
X520700Y520065D01*
X541020D01*
X511810Y527050D02*
X541020D01*
X499110Y514350D02*
X511810Y527050D01*
X263525Y360680D02*
X276225Y373380D01*
X263525Y355045D02*
Y360680D01*
X428625Y459740D02*
Y506095D01*
X421640Y452755D02*
X428625Y459740D01*
X468630Y447675D02*
X478790Y457835D01*
X959485Y316940D02*
X962025Y319480D01*
X976630Y624045D02*
X977105D01*
X1000125D01*
X976630Y604045D02*
X1000125D01*
X976630Y583405D02*
Y604045D01*
Y542130D02*
Y563405D01*
X1000125Y542130D02*
Y563405D01*
X976630Y543400D02*
X1000125D01*
X1000125Y604045D02*
X1028665D01*
X1045210Y620590D01*
X1121410D02*
X1137955Y604045D01*
X1189355Y583405D02*
Y604045D01*
X1023620Y542130D02*
Y554990D01*
X1070610Y542130D02*
Y565590D01*
X1095375Y542130D02*
Y564955D01*
X1096010Y565590D01*
X1023620Y523400D02*
X1033620Y533400D01*
X1060610D01*
X1070610Y543400D01*
X1132365Y533400D02*
X1142365Y523400D01*
X1105375Y533400D02*
X1132365D01*
X1095375Y543400D02*
X1105375Y533400D01*
X1162365Y523400D02*
X1165860D01*
X1142365Y543400D02*
X1162365Y523400D01*
X1000125D02*
X1003620D01*
X1023620Y543400D01*
X1165860Y543400D02*
X1189355D01*
X1189355Y542130D02*
Y563405D01*
X1165860Y542130D02*
Y563405D01*
X1096010Y630555D02*
X1114585Y649130D01*
X1114585Y645795D02*
X1118870D01*
X1165860Y624045D02*
X1189355D01*
X173355Y478155D02*
X186055Y465455D01*
X1055370Y720090D02*
Y784225D01*
X553720Y477520D02*
Y502920D01*
X491290Y574595D02*
X516015D01*
X491290Y549595D02*
X516015D01*
X478790Y457835D02*
Y505460D01*
X402590Y477520D02*
Y538480D01*
X690085Y811690D02*
X702785D01*
X726640D01*
X727710Y523875D02*
X739935D01*
X763905Y523400D02*
X763905D01*
X767240D01*
X753905Y533400D02*
X763905Y523400D01*
X763905Y523400D01*
Y583405D02*
X767555Y579755D01*
X819150D01*
X821690Y577215D01*
X872490Y577215D02*
X875030Y579755D01*
X1000125Y583405D02*
X1003775Y579755D01*
X1055370D01*
X1057910Y577215D01*
X1108710D02*
X1111250Y579755D01*
X1162210D01*
X1165860Y583405D01*
X55880Y706755D02*
X62230Y713105D01*
X106680D02*
X116205Y722630D01*
X93980Y652145D02*
Y671195D01*
X62230Y713105D02*
X69215D01*
X78105Y738505D02*
X83185Y743585D01*
X88740D01*
X105410Y760255D01*
X102870Y739140D02*
X107315Y743585D01*
X110965D02*
X127635Y760255D01*
X107315Y743585D02*
X110965D01*
X116205Y722630D02*
Y730885D01*
X78105Y716915D02*
Y738505D01*
Y716915D02*
X81915Y713105D01*
Y690880D02*
Y713105D01*
X93980Y690245D02*
Y713105D01*
X102870Y721995D01*
Y739140D01*
X479915Y686995D02*
X488635D01*
X508635Y677470D02*
Y703105D01*
X479915Y616995D02*
X491015D01*
X274955Y478155D02*
X287655Y465455D01*
X300355Y478155D02*
X313055Y465455D01*
Y490855D02*
Y519430D01*
X163195Y172560D02*
X163195Y172560D01*
X222250Y179545D02*
Y203235D01*
X234950Y178910D02*
Y203235D01*
X247650Y255235D02*
X251810Y259395D01*
X267335Y239395D02*
X267335Y239395D01*
X267335Y218755D02*
X267335Y218755D01*
X232410Y239395D02*
X234950Y241935D01*
Y255235D01*
X222250D02*
Y267970D01*
X198440Y268605D02*
X284160D01*
X417830Y152560D02*
X418465Y151925D01*
X424815Y179545D02*
Y203235D01*
X437515Y178910D02*
Y203235D01*
X495935Y172560D02*
X495935Y172560D01*
X469900Y152560D02*
X469900Y152560D01*
X412115Y192880D02*
Y203235D01*
X386400Y239555D02*
X391795D01*
X434340D01*
X437515Y242730D01*
Y255235D01*
X402275Y229395D02*
X442595D01*
X450215Y237015D01*
Y255235D01*
X454535Y259555D01*
X469900D01*
X424815Y255235D02*
Y267495D01*
X412115Y203235D02*
Y214155D01*
X418465Y220505D01*
X448310D01*
X495935Y218915D02*
X495935Y218915D01*
X495935Y239555D02*
X495935Y239555D01*
X469900Y239555D02*
X495935D01*
X467995Y237650D02*
X469900Y239555D01*
X218440Y219710D02*
X246540D01*
X163195Y175735D02*
X189230D01*
X209550Y192880D02*
Y203235D01*
Y210820D01*
X163195Y155735D02*
X189230D01*
X189230Y155735D01*
X293370Y175735D02*
X293370Y175735D01*
X241300Y175735D02*
X267335D01*
X293370D01*
X394970D02*
X412115Y192880D01*
X365760Y155735D02*
X391795D01*
X411795Y175735D01*
X417830D01*
X495935D02*
X495935Y175735D01*
X443865Y175735D02*
X469900D01*
X495935D01*
X487266Y268224D02*
X492760Y262730D01*
X391795Y259555D02*
X400464Y268224D01*
X487266D01*
X307660Y273050D02*
X448945D01*
X567690Y175735D02*
X593725D01*
X567690Y155735D02*
X593725D01*
X593725Y155735D01*
X613725Y175735D01*
X619760D01*
X697865D02*
X697865Y175735D01*
X645795Y175735D02*
X671830D01*
X697865D01*
X626745Y254600D02*
Y268605D01*
X829945D02*
X891380D01*
X829945Y254600D02*
Y268605D01*
X770890Y175735D02*
X796925D01*
X770890Y175735D02*
X770890Y175735D01*
X770890Y155735D02*
X796925D01*
X796925Y155735D01*
X816607Y175417D01*
X826452D02*
X829945Y178910D01*
X848995Y175735D02*
X848995Y175735D01*
X645795Y155735D02*
X645795Y155735D01*
X645795Y151925D02*
Y155735D01*
X443230Y155100D02*
X443865Y155735D01*
X240665Y155100D02*
X241300Y155735D01*
X215265Y155735D02*
X215265Y155735D01*
X733425Y334408D02*
Y357480D01*
X962025D02*
Y361950D01*
X448945Y273050D02*
X467360Y291465D01*
X492760Y273718D02*
Y291465D01*
X487266Y268224D02*
X492760Y273718D01*
X517525Y275590D02*
X524510Y268605D01*
X543560Y278765D02*
X548640Y273685D01*
X543560Y278765D02*
Y291465D01*
X860425Y334645D02*
Y357480D01*
Y334645D02*
X872490Y322580D01*
X807245Y228600D02*
X851535D01*
X806610Y268605D02*
X829945D01*
X708660Y267970D02*
X787875D01*
X548640Y273685D02*
X702945D01*
X708660Y267970D01*
X797560Y278765D02*
X798830Y277495D01*
X872490Y278765D02*
X873760Y277495D01*
X681355Y335678D02*
Y341978D01*
X936625Y319480D02*
X948130Y307975D01*
X962025Y357480D02*
X963270D01*
X949325Y338480D02*
X959510D01*
X276860Y452755D02*
X421640D01*
X422275D01*
X619760Y171925D02*
X626745Y178910D01*
X594835Y171925D02*
X614045Y191135D01*
X650031Y220345D02*
X671830Y198546D01*
Y218280D02*
Y219550D01*
Y238920D01*
X697865D01*
X671830Y218280D02*
X697865D01*
Y219550D01*
Y238920D01*
X593725Y218280D02*
X603410Y227965D01*
X651510Y258920D02*
X671830D01*
X796925Y218280D02*
X807245Y228600D01*
X859665Y258920D02*
X875030D01*
X391795Y218915D02*
X402275Y229395D01*
X189230Y218915D02*
X199550Y229235D01*
X251810Y259395D02*
X267335D01*
X1108710Y565717D02*
Y577215D01*
X437915Y633975D02*
Y703995D01*
Y745490D01*
X567690Y218280D02*
X588330Y238920D01*
X637065D01*
X639445Y178275D02*
X645795Y171925D01*
X1137955Y604045D02*
X1189355D01*
X822960Y171925D02*
Y175735D01*
Y171925D02*
X826452Y175417D01*
X816607D02*
X826452D01*
X796925Y171925D02*
X817245Y192245D01*
X852965Y220345D02*
X875030Y198280D01*
Y218280D02*
Y219550D01*
Y238920D01*
Y218280D02*
X901065D01*
Y219550D01*
Y238920D01*
X875030Y238920D02*
X901065D01*
X842645Y178275D02*
X848995Y171925D01*
X848995Y175735D02*
X901065D01*
X417830Y172560D02*
X424815Y179545D01*
X391795Y172560D02*
X394970Y175735D01*
X365760D02*
X394970D01*
X448310Y220505D02*
X469900Y198915D01*
X437515Y178910D02*
X443865Y172560D01*
X1096010Y620590D02*
Y620717D01*
Y630555D01*
X1118870Y645795D02*
X1165860D01*
X189230Y152560D02*
X209230Y172560D01*
X215265D01*
X222250Y179545D01*
X189230Y172560D02*
X209550Y192880D01*
X246540Y219710D02*
X267335Y198915D01*
Y218755D02*
X293370D01*
X267335Y218755D02*
Y239395D01*
X293370Y218755D02*
X294005Y219390D01*
X267335Y239395D02*
X293370D01*
X294005Y219390D02*
Y238760D01*
X234950Y178910D02*
X241300Y172560D01*
X901895Y604045D02*
X953135D01*
X885190Y620750D02*
X901895Y604045D01*
X929640Y543560D02*
X953135D01*
X875665Y645795D02*
X929640D01*
X740410Y624045D02*
Y645955D01*
Y649130D01*
Y604045D02*
X792285D01*
X808990Y620750D01*
X469900Y218120D02*
Y238760D01*
X469900Y218915D02*
X495935D01*
X495935Y218915D02*
Y239555D01*
X1142965Y716915D02*
X1143139D01*
X1153795D01*
X822960Y113030D02*
Y155735D01*
X848995Y113030D02*
Y155735D01*
X770890Y218280D02*
X791530Y238920D01*
X840265D01*
X365760Y218915D02*
X386400Y239555D01*
X163195Y218755D02*
X183835Y239395D01*
X232410D01*
X1090965Y729615D02*
X1091139D01*
X859155Y543560D02*
X869315Y533400D01*
X859790Y542925D02*
Y565717D01*
Y565750D01*
X763905Y664845D02*
Y665795D01*
X763905D02*
X763905D01*
X766225D01*
X824230Y533400D02*
X834390Y543560D01*
X834390Y542290D02*
Y565717D01*
Y565750D01*
X1023620Y665795D02*
X1047115D01*
X1094105D02*
X1142365D01*
X479915Y681995D02*
X498005D01*
X440690Y490855D02*
Y511810D01*
X417990Y553880D02*
X422115D01*
X466090Y490855D02*
Y509270D01*
X189230Y259395D02*
X198440Y268605D01*
X284160D02*
X293370Y259395D01*
Y258760D02*
X307660Y273050D01*
X466725Y291465D02*
Y338480D01*
X810895Y523560D02*
X822960D01*
X847090D01*
X871220D01*
X882650D01*
X953135Y523400D02*
X964565D01*
X976630D01*
X1047115Y523400D02*
X1058545D01*
X1082992D01*
X1118870D01*
X378425Y589805D02*
X387990D01*
X536215Y549395D02*
Y574795D01*
X542925Y291465D02*
Y338480D01*
X787875Y267970D02*
X796925Y258920D01*
X806610Y268605D01*
X891380D02*
X901065Y258920D01*
X584040Y268605D02*
X593725Y258920D01*
X517525Y275590D02*
Y338480D01*
X593725Y258920D02*
X603410Y268605D01*
X688180D02*
X697865Y258920D01*
X603410Y268605D02*
X626745D01*
X688180D01*
X492125Y291465D02*
Y338480D01*
X37305Y664210D02*
X40005Y666910D01*
X120650Y712470D02*
X231775D01*
X1108710Y620590D02*
Y620717D01*
Y631190D01*
X1189355Y624045D02*
Y649130D01*
X1121410Y565590D02*
X1133670D01*
X977105Y624045D02*
Y648655D01*
X1057910Y620590D02*
Y620717D01*
Y631190D01*
X1034220Y565590D02*
X1045210D01*
X1000125Y645795D02*
X1056640D01*
X1070610Y620590D02*
Y620717D01*
Y631825D01*
X1057910Y565717D02*
Y577215D01*
X953135Y624045D02*
Y645955D01*
Y649130D01*
X906145Y543560D02*
X926145Y523560D01*
X885190Y565750D02*
X897290D01*
X872490Y565717D02*
Y577215D01*
X767240Y523400D02*
X787400Y543560D01*
X763905Y645795D02*
X819150D01*
X387915Y737365D02*
X399780Y749230D01*
X365125Y291465D02*
Y338480D01*
X390525Y291465D02*
Y338480D01*
X415925Y291465D02*
Y338480D01*
X441325Y288290D02*
Y338480D01*
X716915Y665955D02*
X726915Y655955D01*
X787400Y665795D02*
X840425D01*
X869000D02*
X906145D01*
X847725Y338480D02*
Y360680D01*
X862010Y374965D01*
X822325Y376480D02*
Y381000D01*
X796925Y353409D02*
Y376480D01*
X873125Y338480D02*
Y360680D01*
X365125Y376480D02*
Y403860D01*
X390525Y376480D02*
Y403860D01*
X415925Y376480D02*
Y403860D01*
X441325Y376480D02*
Y403860D01*
X466725D02*
X467360Y404495D01*
X466725Y376480D02*
Y403860D01*
X492125Y376480D02*
Y398305D01*
X517525Y376480D02*
Y399034D01*
X542925Y376480D02*
Y399034D01*
X493395Y417830D02*
X502920Y427355D01*
X480695Y417830D02*
X493395D01*
X467360Y404495D02*
X480695Y417830D01*
X492760Y404495D02*
X510540Y422275D01*
X487934Y402496D02*
X492125Y398305D01*
X543560Y404495D02*
X548931D01*
X559987Y393439D01*
X580510D01*
X936625Y357480D02*
X946125D01*
X898525Y338480D02*
Y361315D01*
X555625Y357480D02*
X574650D01*
X610870Y393700D01*
X240030Y788975D02*
X270180D01*
X292100Y810895D01*
X248285Y761365D02*
X271069Y784149D01*
X272179D01*
X272255Y784225D01*
X274320D01*
X516876Y656995D02*
X536575Y637296D01*
X353385Y694300D02*
Y706755D01*
Y714805D01*
X339090Y706120D02*
X352750D01*
X353385Y706755D01*
X299410Y661995D02*
X370915D01*
X285115Y647700D02*
X299410Y661995D01*
X293234Y666995D02*
X370915D01*
X285115Y658876D02*
X293234Y666995D01*
X1160780Y699135D02*
Y721360D01*
X814070Y741045D02*
X825500Y729615D01*
X814070Y741045D02*
Y793115D01*
X812165Y795020D02*
X814070Y793115D01*
X824865Y742315D02*
X838165D01*
X913765Y743585D02*
X927735Y729615D01*
X913765Y743585D02*
Y795020D01*
X926465Y742315D02*
X939765D01*
X1015365Y742950D02*
X1028700Y729615D01*
X1015365Y742950D02*
Y795020D01*
X1027430Y742315D02*
X1041365D01*
X1116965Y743585D02*
X1130935Y729615D01*
X1116965Y743585D02*
Y795020D01*
X1129665Y742315D02*
X1143139D01*
X887765D02*
Y755050D01*
X888365Y755650D01*
X1160780Y721360D02*
X1172685Y733265D01*
X1090895Y742315D02*
Y755650D01*
X964565Y690245D02*
Y727075D01*
X979805Y742315D01*
X955040Y680720D02*
X964565Y690245D01*
X1091139Y729615D02*
X1109980D01*
X1127125Y712470D01*
X763905Y665795D02*
Y674370D01*
X771525Y681990D01*
Y726440D01*
X774700Y729615D01*
X763270Y688655D02*
Y731520D01*
X774065Y742315D01*
X989365Y694655D02*
Y704215D01*
Y694655D02*
X999490Y684530D01*
X1004095D01*
X974725Y699135D02*
Y726440D01*
X989965Y676115D02*
Y683895D01*
X974725Y699135D02*
X989965Y683895D01*
Y676115D02*
X1000125Y665955D01*
X964565Y690245D02*
X965200D01*
X974725Y680720D01*
X755335D02*
X763270Y688655D01*
X740410Y680720D02*
X755335D01*
X953135D02*
X955040D01*
X974725D02*
X976630D01*
X1160780Y699135D02*
X1179195Y680720D01*
X1187450D01*
X1313279Y432065D02*
Y885190D01*
X1370000Y843810D02*
Y885190D01*
Y882650D02*
X1395400D01*
X1287879D02*
X1313279D01*
X1370000D02*
X1385240Y877570D01*
X1370000Y882650D02*
X1385240Y887730D01*
X1298039D02*
X1313279Y882650D01*
X1298039Y877570D02*
X1313279Y882650D01*
X56670Y432065D02*
Y897890D01*
X0Y843810D02*
Y897890D01*
X28335Y895350D02*
X56670D01*
X0D02*
X28335D01*
X41430Y900430D02*
X56670Y895350D01*
X41430Y890270D02*
X56670Y895350D01*
X0D02*
X15240Y890270D01*
X0Y895350D02*
X15240Y900430D01*
X-163195Y0D02*
X-3810D01*
X-163195Y420000D02*
X44605D01*
X-160655Y0D02*
Y166324D01*
Y245548D02*
Y420000D01*
Y0D02*
X-155575Y15240D01*
X-165735D02*
X-160655Y0D01*
X-165735Y404760D02*
X-160655Y420000D01*
X-155575Y404760D01*
X1325344Y420000D02*
X1601470D01*
X1373810Y0D02*
X1601470D01*
X1598930Y245548D02*
Y420000D01*
Y0D02*
Y166324D01*
X1593850Y404760D02*
X1598930Y420000D01*
X1604010Y404760D01*
X1598930Y0D02*
X1604010Y15240D01*
X1593850D02*
X1598930Y0D01*
X50000Y798810D02*
Y957580D01*
X0Y843810D02*
Y957580D01*
X25000Y955040D02*
X50000D01*
X0D02*
X25000D01*
X34760Y960120D02*
X50000Y955040D01*
X34760Y949960D02*
X50000Y955040D01*
X0D02*
X15240Y949960D01*
X0Y955040D02*
X15240Y960120D01*
X1320000Y798810D02*
Y957580D01*
X50000Y798810D02*
Y957580D01*
X726896Y955040D02*
X1320000D01*
X50000D02*
X634975D01*
X1304760Y960120D02*
X1320000Y955040D01*
X1304760Y949960D02*
X1320000Y955040D01*
X50000D02*
X65240Y949960D01*
X50000Y955040D02*
X65240Y960120D01*
X1370000Y-135890D02*
Y-3810D01*
X0Y-135890D02*
Y0D01*
X726896Y-133350D02*
X1370000D01*
X0D02*
X634976D01*
X1354760Y-128270D02*
X1370000Y-133350D01*
X1354760Y-138430D02*
X1370000Y-133350D01*
X0D02*
X15240Y-138430D01*
X0Y-133350D02*
X15240Y-128270D01*
X-341630Y45000D02*
X46190D01*
X-341630Y0D02*
X-3810D01*
X-339090Y22500D02*
Y45000D01*
Y0D02*
Y22500D01*
X-344170Y29760D02*
X-339090Y45000D01*
X-334010Y29760D01*
X-339090Y0D02*
X-334010Y15240D01*
X-344170D02*
X-339090Y0D01*
X50000Y-71120D02*
Y45000D01*
X0Y-71120D02*
Y0D01*
X25000Y-68580D02*
X50000D01*
X0D02*
X25000D01*
X34760Y-63500D02*
X50000Y-68580D01*
X34760Y-73660D02*
X50000Y-68580D01*
X0D02*
X15240Y-73660D01*
X0Y-68580D02*
X15240Y-63500D01*
X-420370Y0D02*
X-3810D01*
X-420370Y840000D02*
X0D01*
X-417830Y0D02*
Y376324D01*
Y455549D02*
Y840000D01*
Y0D02*
X-412750Y15240D01*
X-422910D02*
X-417830Y0D01*
X-422910Y824760D02*
X-417830Y840000D01*
X-412750Y824760D01*
X-340995Y45000D02*
X32460D01*
X-340995Y795000D02*
X32460D01*
X-338455Y45000D02*
Y376324D01*
Y455549D02*
Y795000D01*
Y45000D02*
X-333375Y60240D01*
X-343535D02*
X-338455Y45000D01*
X-343535Y779760D02*
X-338455Y795000D01*
X-333375Y779760D01*
X1320000Y-71120D02*
Y27460D01*
X50000Y-71120D02*
Y27460D01*
X726896Y-68580D02*
X1320000D01*
X50000D02*
X634976D01*
X1304760Y-63500D02*
X1320000Y-68580D01*
X1304760Y-73660D02*
X1320000Y-68580D01*
X50000D02*
X65240Y-73660D01*
X50000Y-68580D02*
X65240Y-63500D01*
X0Y0D02*
Y840000D01*
X1370000D01*
X1127595Y0D02*
Y45000D01*
X1178395Y0D02*
Y45000D01*
X1025995Y0D02*
Y45000D01*
X1076795Y0D02*
Y45000D01*
X0Y145000D02*
X1370000D01*
X964400Y0D02*
Y45000D01*
X913600Y0D02*
Y45000D01*
X761200Y0D02*
Y45000D01*
X812000Y0D02*
Y45000D01*
X862800Y0D02*
Y45000D01*
X710400Y0D02*
Y45000D01*
X659600Y0D02*
Y45000D01*
X354800Y0D02*
Y45000D01*
X304000Y0D02*
Y45000D01*
X202400Y0D02*
Y45000D01*
X253200Y0D02*
Y45000D01*
X507200Y0D02*
Y45000D01*
X405600Y0D02*
Y45000D01*
X608800Y0D02*
Y45000D01*
X558000Y0D02*
Y45000D01*
X50000D02*
X1320000D01*
X0Y0D02*
X1370000D01*
Y840000D01*
X50000Y795000D02*
X1320000D01*
X913600D02*
Y840000D01*
X964400Y795000D02*
Y840000D01*
X1066000Y795000D02*
Y840000D01*
X1015200Y795000D02*
Y840000D01*
X1167600Y795000D02*
Y840000D01*
X1116800Y795000D02*
Y840000D01*
X0Y695000D02*
X1370000D01*
X862800Y795000D02*
Y840000D01*
X812000Y795000D02*
Y840000D01*
X456400Y0D02*
Y45000D01*
D36*
X1266190Y336550D02*
X1276985Y347345D01*
X1266190Y208175D02*
Y336550D01*
X1276985Y347345D02*
X1289050D01*
X1299495Y336900D02*
X1305460D01*
X1289050Y347345D02*
X1299495Y336900D01*
X1272540Y199390D02*
Y201825D01*
X1266190Y208175D02*
X1272540Y201825D01*
X1284605Y330055D02*
Y350750D01*
X71220Y336900D02*
X78720Y344400D01*
X60040Y336900D02*
X71220D01*
X12700Y289560D02*
X60040Y336900D01*
X12700Y12065D02*
Y289560D01*
X56670Y369090D02*
X66030Y378450D01*
X56670Y364600D02*
Y369090D01*
Y392300D02*
X70520Y378450D01*
X66030D02*
X85070D01*
X90815D01*
X714375Y277495D02*
X758825D01*
X798830D01*
X940435D02*
X1037790D01*
X887730D02*
X940435D01*
X873760D02*
X887730D01*
X1039060Y133350D02*
Y256540D01*
X798830Y277495D02*
X873760D01*
X1039060Y256540D02*
Y278765D01*
X1248940Y353695D02*
X1273705Y378460D01*
X1108710Y353695D02*
X1248940D01*
X1039060Y284045D02*
X1108710Y353695D01*
X1172685Y733265D02*
X1173480D01*
X370045Y751205D02*
X379730D01*
X697865Y190500D02*
Y198280D01*
X12700Y12065D02*
X127000D01*
X1324135Y733265D02*
X1341120Y716280D01*
X1241425Y815975D02*
X1324135Y733265D01*
X1090930Y815975D02*
X1241425D01*
X989965D02*
X1090930D01*
X888365D02*
X989965D01*
X1320010Y392300D02*
X1341120Y413410D01*
X1282690Y378450D02*
X1282700Y378460D01*
X1237925Y232825D02*
X1266190D01*
X1214755Y45085D02*
Y156210D01*
X1226185Y167640D02*
Y218440D01*
X1273705Y378460D02*
X1282700D01*
X1134045Y57785D02*
Y72455D01*
X1117600Y88900D02*
X1134045Y72455D01*
X1047750Y88900D02*
X1117600D01*
X1039060Y97590D02*
X1047750Y88900D01*
X773070Y787675D02*
Y810260D01*
X785495Y815975D02*
X888365D01*
X773070Y810260D02*
X779780D01*
X785495Y815975D01*
X1247140Y296545D02*
Y307340D01*
X1211800Y270925D02*
X1237925D01*
X1341120Y413410D02*
Y550545D01*
Y716280D01*
X162560Y36035D02*
Y50960D01*
Y70960D02*
Y85885D01*
X292735Y36035D02*
Y50960D01*
Y70960D02*
Y85885D01*
X1309380Y378450D02*
X1320010Y367820D01*
Y392300D01*
X202565Y22225D02*
Y45085D01*
X195740Y15400D02*
X202565Y22225D01*
X253365Y22860D02*
Y45085D01*
Y22860D02*
X260825Y15400D01*
X405130Y22860D02*
Y45085D01*
X397670Y15400D02*
X405130Y22860D01*
X455930D02*
Y45085D01*
Y22860D02*
X463390Y15400D01*
X495300D01*
X608330Y22225D02*
Y45085D01*
X601505Y15400D02*
X608330Y22225D01*
X659130D02*
Y45085D01*
Y22225D02*
X665955Y15400D01*
X812165Y22860D02*
Y45085D01*
X804705Y15400D02*
X812165Y22860D01*
X862965D02*
Y45085D01*
Y22860D02*
X870425Y15400D01*
X293370Y189230D02*
Y198280D01*
X495935Y189865D02*
Y199550D01*
X901065Y189865D02*
Y199550D01*
X932180Y13335D02*
X1351280D01*
Y197315D01*
X932180Y134620D02*
X1037790D01*
X1039060Y133350D01*
X90815Y378450D02*
X127000Y342265D01*
Y134620D02*
Y342265D01*
X716915Y231140D02*
X716915Y231140D01*
Y243680D01*
X716755Y243840D02*
X716915Y243680D01*
X1039060Y278765D02*
Y284045D01*
X1037790Y277495D02*
X1039060Y278765D01*
X665955Y15400D02*
X697865D01*
X567690D02*
X601505D01*
X567690Y35400D02*
Y36035D01*
Y50325D01*
Y70325D02*
Y70960D01*
Y85250D01*
X697865Y35400D02*
Y36035D01*
Y50325D01*
Y70325D02*
Y70960D01*
Y85250D01*
X870425Y15400D02*
X901065D01*
X162560D02*
X195740D01*
X770890Y35400D02*
Y36035D01*
Y50325D01*
X901065Y35400D02*
Y36035D01*
Y50325D01*
Y70325D02*
Y70960D01*
Y85250D01*
X365125Y36195D02*
Y50960D01*
Y51120D01*
Y71120D02*
Y85885D01*
Y86045D01*
X495300Y71120D02*
Y85885D01*
Y86045D01*
Y36195D02*
Y50960D01*
Y51120D01*
X260825Y15400D02*
X292735D01*
X365125D02*
X397670D01*
X770890D02*
X804705D01*
X1211740Y665480D02*
X1229995D01*
X1214755Y45085D02*
X1250315D01*
X1214755Y156210D02*
X1226185Y167640D01*
X1250315Y45085D02*
Y145415D01*
Y219710D01*
X770890Y70325D02*
Y70960D01*
Y84615D01*
X710565Y739775D02*
X725330D01*
X1279060Y197315D02*
X1351280D01*
X1039060Y97590D02*
Y133350D01*
X1282690Y378450D02*
X1309380D01*
X64870Y336900D02*
X78720Y323050D01*
X1173480Y733265D02*
X1190625D01*
X1173480Y734060D02*
Y743585D01*
X1172685Y733265D02*
X1173480Y734060D01*
D37*
X198755Y450850D02*
X213995D01*
X149860D02*
X198755D01*
X353385Y734670D02*
Y747865D01*
X1083310Y620717D02*
Y660400D01*
Y593090D02*
Y620717D01*
X847090D02*
Y657225D01*
Y593090D02*
Y620717D01*
X705485Y645795D02*
X716915D01*
X1069975Y716915D02*
Y754380D01*
Y673735D02*
Y716915D01*
X1091139D02*
X1104265D01*
X1069975D02*
X1091139D01*
X1189355Y523400D02*
X1201260D01*
X511175Y818515D02*
X518795Y810895D01*
X196055Y780255D02*
X234315Y818515D01*
X127635Y780255D02*
X196055D01*
X526255Y692310D02*
X617855Y600710D01*
X526255Y692310D02*
Y803435D01*
X370045Y751205D02*
X373385Y747865D01*
Y724305D02*
Y747865D01*
X350045Y751205D02*
X353385Y747865D01*
X350045Y751205D02*
X350045Y751205D01*
X602615Y691515D02*
X617855Y676275D01*
X697865Y198280D02*
X697865Y198280D01*
X738505Y702470D02*
Y716280D01*
X748505Y763110D02*
X773070Y787675D01*
X748505Y742950D02*
Y763110D01*
X716915Y678815D02*
X729005Y690905D01*
Y722470D01*
X855345Y189230D02*
Y202600D01*
X652145Y189230D02*
Y202600D01*
X450215Y189865D02*
Y202440D01*
X407389Y249714D02*
X412115Y254440D01*
X1064695Y113865D02*
X1070610Y107950D01*
X1179195D01*
X1064060Y276660D02*
X1096645Y309245D01*
X1064060Y256540D02*
Y276660D01*
Y256540D02*
X1064695Y255905D01*
Y126460D02*
X1068600Y122555D01*
X1228725Y733265D02*
X1324135D01*
X1270635Y665320D02*
X1340010D01*
X1270635D02*
Y665480D01*
X1270635Y665480D02*
X1270635Y665480D01*
X1250900Y665480D02*
X1270635D01*
X1069975Y673735D02*
X1083310Y660400D01*
X864870Y675005D02*
Y751840D01*
X847090Y657225D02*
X864870Y675005D01*
X1002665Y716915D02*
X1003300D01*
X989365D02*
X1002665D01*
X887765D02*
X901065D01*
X1083310Y552450D02*
Y565590D01*
X1090930Y775335D02*
Y815975D01*
X1069975Y754380D02*
X1090930Y775335D01*
X989965Y771525D02*
Y815975D01*
Y771525D02*
X1009015Y752475D01*
Y722630D02*
Y752475D01*
X1003300Y716915D02*
X1009015Y722630D01*
X786165Y716915D02*
X799465D01*
X865505D02*
X887765D01*
X864870Y751840D02*
X888365Y775335D01*
Y815975D01*
X564515Y810260D02*
X581340D01*
X563085Y718980D02*
Y810420D01*
Y717710D02*
Y718980D01*
X1185545Y114300D02*
Y196215D01*
X1096645Y309245D02*
X1190625D01*
X1196975Y302895D01*
Y258225D02*
X1237925D01*
X1196975D02*
Y302895D01*
Y207645D02*
Y258225D01*
X1185545Y196215D02*
X1196975Y207645D01*
X1179195Y107950D02*
X1185545Y114300D01*
X1216245Y283625D02*
X1237925D01*
X1206605Y198120D02*
Y240135D01*
X1211995Y245525D01*
X1237925D01*
X125310Y475400D02*
X135255Y465455D01*
Y490855D01*
Y465455D02*
X149860Y450850D01*
X213995D02*
X238125Y426720D01*
X19050Y506095D02*
X47625Y477520D01*
X49530D01*
X51650Y475400D02*
X125310D01*
X785495Y775970D02*
Y815975D01*
X1292860Y550545D02*
X1341120D01*
X1233965Y557055D02*
X1286350D01*
X1292860Y550545D01*
X1230630Y577055D02*
Y598805D01*
X19050Y702310D02*
X96995Y780255D01*
X518795Y810895D02*
X526255Y803435D01*
X512920Y721360D02*
X525620D01*
X494665Y739745D02*
X502920D01*
X512445D01*
X502920Y709295D02*
Y739745D01*
X512445Y767745D02*
X526225D01*
X617855Y465455D02*
Y490855D01*
X204505Y249555D02*
X209550Y254600D01*
X495935Y199550D02*
X496095Y199390D01*
X391795Y199550D02*
X391795Y199550D01*
X189230Y199550D02*
X189230Y199550D01*
X293370Y189230D02*
Y190500D01*
X293370Y189230D02*
X293370Y189230D01*
X495935Y199550D02*
X495935Y199550D01*
X901065Y199550D02*
X901065Y199550D01*
X247650Y189230D02*
Y203235D01*
X469900Y155735D02*
X495935D01*
X495935Y155735D01*
X466565Y155735D02*
X469900D01*
X466565D02*
X466725Y155575D01*
X671830Y155735D02*
X697865D01*
X698660Y154940D01*
X872330Y155735D02*
X875030D01*
X875030Y155735D01*
X901065D01*
X862965Y155575D02*
X874870D01*
X875030Y155735D01*
X717230Y155735D02*
X717390Y155575D01*
X697865Y155735D02*
X717230D01*
X717390Y210635D02*
X717415Y210660D01*
X726915Y190660D02*
X736915D01*
X737075Y190500D01*
X737550Y190025D01*
Y169545D02*
Y190025D01*
X748030Y136525D02*
Y199045D01*
X736415Y210660D02*
X748030Y199045D01*
X605790Y248920D02*
X608365D01*
X614045Y254600D01*
X605329Y249381D02*
X605790Y248920D01*
X573866Y249381D02*
X605329D01*
X553085Y228600D02*
X573866Y249381D01*
X553085Y134620D02*
Y228600D01*
X530051Y249381D02*
X573866D01*
X510540Y229870D02*
X530051Y249381D01*
X510540Y134620D02*
Y229870D01*
X457835Y155575D02*
X466725D01*
X469740D01*
X313055Y155735D02*
Y169385D01*
X323215Y190660D02*
X333215D01*
X333375Y169705D02*
Y190500D01*
X333215Y169545D02*
X333375Y169705D01*
X313055Y231488D02*
Y243840D01*
X312707Y231140D02*
X313055Y231488D01*
Y169385D02*
X313080Y169410D01*
X313215Y169545D01*
X332080Y210660D02*
Y230513D01*
X332707Y231140D01*
X337660Y236060D02*
X351155Y249555D01*
X332080Y210660D02*
X343195Y199545D01*
Y133993D02*
Y199545D01*
X352085Y227338D02*
X374302Y249555D01*
X352085Y133993D02*
Y227338D01*
X351155Y249555D02*
X374302D01*
X349322Y247755D02*
X351281Y249714D01*
X201295Y249555D02*
X204505D01*
X170815D02*
X201295D01*
X135890Y134620D02*
Y214630D01*
X170815Y249555D01*
X755330D02*
X778510D01*
X809625D01*
X756920Y134620D02*
Y227965D01*
X778510Y249555D01*
X736915Y231140D02*
X755330Y249555D01*
X592985Y691515D02*
X602615D01*
X550385Y705115D02*
X563985Y691515D01*
X550385Y705115D02*
Y718345D01*
X502920Y709295D02*
X508872Y703343D01*
X267335Y155735D02*
X313055D01*
X313080Y169410D02*
Y210660D01*
X1210205Y289665D02*
X1216245Y283625D01*
X1210205Y289665D02*
Y329565D01*
X163195Y199550D02*
X189230D01*
X365760D02*
X391795D01*
X567690Y199550D02*
X593725D01*
X770255Y199550D02*
X770890D01*
X796290D01*
X847090Y552450D02*
Y565717D01*
Y565750D01*
X1064695Y113865D02*
Y126460D01*
Y181610D01*
Y255905D01*
X1173480Y713265D02*
X1228725D01*
X1212215Y645955D02*
X1270000D01*
X19050Y506095D02*
Y653415D01*
X49530Y477520D02*
X51650Y475400D01*
X19050Y653415D02*
Y702310D01*
X96995Y780255D02*
X105410D01*
X127635D01*
X234315Y818515D02*
X511175D01*
X238125Y341020D02*
Y376480D01*
Y426720D01*
X617855Y490855D02*
Y600710D01*
Y676275D01*
X518795Y810895D02*
X537685D01*
X550550Y777170D02*
Y810825D01*
X337660Y231140D02*
Y236060D01*
X736280Y209255D02*
Y229235D01*
X351281Y249714D02*
X407389D01*
X748005Y722470D02*
Y742450D01*
Y734195D02*
X748505Y734695D01*
X810912Y248267D02*
X817245Y254600D01*
X1210920Y733360D02*
X1228630D01*
X717230Y155735D02*
X717390D01*
Y210635D01*
X716915Y665955D02*
Y678815D01*
X799465Y716915D02*
X802640Y720090D01*
Y758825D01*
X785495Y775970D02*
X802640Y758825D01*
X748505Y763110D02*
X773070Y787675D01*
D38*
X1319801Y921246D02*
X1309644D01*
Y913629D01*
X1314723Y916168D01*
X1317262D01*
X1319801Y913629D01*
Y908551D01*
X1317262Y906011D01*
X1312184D01*
X1309644Y908551D01*
X1327419Y903472D02*
X1329958Y906011D01*
Y908551D01*
X1327419D01*
Y906011D01*
X1329958D01*
X1327419Y903472D01*
X1324880Y900933D01*
X1350271Y921246D02*
X1345193Y918707D01*
X1340115Y913629D01*
Y908551D01*
X1342654Y906011D01*
X1347732D01*
X1350271Y908551D01*
Y911090D01*
X1347732Y913629D01*
X1340115D01*
X1355350Y921246D02*
X1365506D01*
Y918707D01*
X1355350Y908551D01*
Y906011D01*
X73022Y904235D02*
X62865D01*
Y896618D01*
X67943Y899157D01*
X70483D01*
X73022Y896618D01*
Y891539D01*
X70483Y889000D01*
X65404D01*
X62865Y891539D01*
X80639Y886461D02*
X83178Y889000D01*
Y891539D01*
X80639D01*
Y889000D01*
X83178D01*
X80639Y886461D01*
X78100Y883922D01*
X103492Y904235D02*
X98413Y901696D01*
X93335Y896618D01*
Y891539D01*
X95874Y889000D01*
X100953D01*
X103492Y891539D01*
Y894078D01*
X100953Y896618D01*
X93335D01*
X108570Y904235D02*
X118727D01*
Y901696D01*
X108570Y891539D01*
Y889000D01*
X-148974Y178005D02*
X-164209D01*
X-156592Y170387D01*
Y180544D01*
X-148974Y195779D02*
Y185623D01*
X-159131Y195779D01*
X-161670D01*
X-164209Y193240D01*
Y188162D01*
X-161670Y185623D01*
X-146435Y203397D02*
X-148974Y205936D01*
X-151514D01*
Y203397D01*
X-148974D01*
Y205936D01*
X-146435Y203397D01*
X-143896Y200858D01*
X-161670Y216093D02*
X-164209Y218632D01*
Y223710D01*
X-161670Y226249D01*
X-151514D01*
X-148974Y223710D01*
Y218632D01*
X-151514Y216093D01*
X-161670D01*
Y231328D02*
X-164209Y233867D01*
Y238945D01*
X-161670Y241485D01*
X-151514D01*
X-148974Y238945D01*
Y233867D01*
X-151514Y231328D01*
X-161670D01*
X1610611Y178005D02*
X1595376D01*
X1602993Y170387D01*
Y180544D01*
X1610611Y195779D02*
Y185623D01*
X1600454Y195779D01*
X1597915D01*
X1595376Y193240D01*
Y188162D01*
X1597915Y185623D01*
X1613150Y203397D02*
X1610611Y205936D01*
X1608071D01*
Y203397D01*
X1610611D01*
Y205936D01*
X1613150Y203397D01*
X1615689Y200858D01*
X1597915Y216093D02*
X1595376Y218632D01*
Y223710D01*
X1597915Y226249D01*
X1608071D01*
X1610611Y223710D01*
Y218632D01*
X1608071Y216093D01*
X1597915D01*
Y231328D02*
X1595376Y233867D01*
Y238945D01*
X1597915Y241485D01*
X1608071D01*
X1610611Y238945D01*
Y233867D01*
X1608071Y231328D01*
X1597915D01*
X7617Y987420D02*
X-2540D01*
Y979802D01*
X2538Y982342D01*
X5077D01*
X7617Y979802D01*
Y974724D01*
X5077Y972185D01*
X-1D01*
X-2540Y974724D01*
X15234Y969646D02*
X17773Y972185D01*
Y974724D01*
X15234D01*
Y972185D01*
X17773D01*
X15234Y969646D01*
X12695Y967107D01*
X27930Y984881D02*
X30469Y987420D01*
X35548D01*
X38087Y984881D01*
Y974724D01*
X35548Y972185D01*
X30469D01*
X27930Y974724D01*
Y984881D01*
X43165D02*
X45704Y987420D01*
X50783D01*
X53322Y984881D01*
Y974724D01*
X50783Y972185D01*
X45704D01*
X43165Y974724D01*
Y984881D01*
X639039Y943359D02*
X644118D01*
X641579D01*
Y958594D01*
X639039Y956055D01*
X661892Y943359D02*
X651735D01*
X661892Y953516D01*
Y956055D01*
X659353Y958594D01*
X654275D01*
X651735Y956055D01*
X666970Y958594D02*
X677127D01*
Y956055D01*
X666970Y945899D01*
Y943359D01*
X684745Y940820D02*
X687284Y943359D01*
Y945899D01*
X684745D01*
Y943359D01*
X687284D01*
X684745Y940820D01*
X682206Y938281D01*
X697440Y956055D02*
X699980Y958594D01*
X705058D01*
X707597Y956055D01*
Y945899D01*
X705058Y943359D01*
X699980D01*
X697440Y945899D01*
Y956055D01*
X712676D02*
X715215Y958594D01*
X720293D01*
X722832Y956055D01*
Y945899D01*
X720293Y943359D01*
X715215D01*
X712676Y945899D01*
Y956055D01*
X639039Y-145031D02*
X644118D01*
X641579D01*
Y-129796D01*
X639039Y-132335D01*
X651735D02*
X654275Y-129796D01*
X659353D01*
X661892Y-132335D01*
Y-134874D01*
X659353Y-137413D01*
X656814D01*
X659353D01*
X661892Y-139952D01*
Y-142492D01*
X659353Y-145031D01*
X654275D01*
X651735Y-142492D01*
X666971Y-129796D02*
X677127D01*
Y-132335D01*
X666971Y-142492D01*
Y-145031D01*
X684745Y-147570D02*
X687284Y-145031D01*
Y-142492D01*
X684745D01*
Y-145031D01*
X687284D01*
X684745Y-147570D01*
X682206Y-150109D01*
X697441Y-132335D02*
X699980Y-129796D01*
X705058D01*
X707597Y-132335D01*
Y-142492D01*
X705058Y-145031D01*
X699980D01*
X697441Y-142492D01*
Y-132335D01*
X712676D02*
X715215Y-129796D01*
X720293D01*
X722832Y-132335D01*
Y-142492D01*
X720293Y-145031D01*
X715215D01*
X712676Y-142492D01*
Y-132335D01*
X-357505Y23493D02*
X-372740D01*
X-365122Y15875D01*
Y26032D01*
X-354966Y33649D02*
X-357505Y36188D01*
X-360044D01*
Y33649D01*
X-357505D01*
Y36188D01*
X-354966Y33649D01*
X-352427Y31110D01*
X-372740Y56502D02*
Y46345D01*
X-365122D01*
X-367662Y51424D01*
Y53963D01*
X-365122Y56502D01*
X-360044D01*
X-357505Y53963D01*
Y48884D01*
X-360044Y46345D01*
X-370201Y61580D02*
X-372740Y64119D01*
Y69198D01*
X-370201Y71737D01*
X-360044D01*
X-357505Y69198D01*
Y64119D01*
X-360044Y61580D01*
X-370201D01*
X23492Y-89540D02*
X13335D01*
Y-97157D01*
X18413Y-94618D01*
X20952D01*
X23492Y-97157D01*
Y-102236D01*
X20952Y-104775D01*
X15874D01*
X13335Y-102236D01*
X31109Y-107314D02*
X33648Y-104775D01*
Y-102236D01*
X31109D01*
Y-104775D01*
X33648D01*
X31109Y-107314D01*
X28570Y-109853D01*
X43805Y-92079D02*
X46344Y-89540D01*
X51423D01*
X53962Y-92079D01*
Y-102236D01*
X51423Y-104775D01*
X46344D01*
X43805Y-102236D01*
Y-92079D01*
X59040D02*
X61579Y-89540D01*
X66658D01*
X69197Y-92079D01*
Y-102236D01*
X66658Y-104775D01*
X61579D01*
X59040Y-102236D01*
Y-92079D01*
X-418845Y380387D02*
X-421384Y382927D01*
Y388005D01*
X-418845Y390544D01*
X-416306D01*
X-413767Y388005D01*
X-411228Y390544D01*
X-408689D01*
X-406149Y388005D01*
Y382927D01*
X-408689Y380387D01*
X-411228D01*
X-413767Y382927D01*
X-416306Y380387D01*
X-418845D01*
X-413767Y382927D02*
Y388005D01*
X-406149Y403240D02*
X-421384D01*
X-413767Y395623D01*
Y405779D01*
X-403610Y413397D02*
X-406149Y415936D01*
X-408689D01*
Y413397D01*
X-406149D01*
Y415936D01*
X-403610Y413397D01*
X-401071Y410858D01*
X-418845Y426093D02*
X-421384Y428632D01*
Y433710D01*
X-418845Y436249D01*
X-408689D01*
X-406149Y433710D01*
Y428632D01*
X-408689Y426093D01*
X-418845D01*
Y441328D02*
X-421384Y443867D01*
Y448945D01*
X-418845Y451484D01*
X-408689D01*
X-406149Y448945D01*
Y443867D01*
X-408689Y441328D01*
X-418845D01*
X-342009Y380387D02*
Y390544D01*
X-339470D01*
X-329314Y380387D01*
X-326774D01*
X-342009Y405779D02*
Y395623D01*
X-334392D01*
X-336931Y400701D01*
Y403240D01*
X-334392Y405779D01*
X-329314D01*
X-326774Y403240D01*
Y398162D01*
X-329314Y395623D01*
X-324235Y413397D02*
X-326774Y415936D01*
X-329314D01*
Y413397D01*
X-326774D01*
Y415936D01*
X-324235Y413397D01*
X-321696Y410858D01*
X-339470Y426093D02*
X-342009Y428632D01*
Y433710D01*
X-339470Y436249D01*
X-329314D01*
X-326774Y433710D01*
Y428632D01*
X-329314Y426093D01*
X-339470D01*
Y441328D02*
X-342009Y443867D01*
Y448945D01*
X-339470Y451484D01*
X-329314D01*
X-326774Y448945D01*
Y443867D01*
X-329314Y441328D01*
X-339470D01*
X639039Y-80261D02*
X644118D01*
X641579D01*
Y-65026D01*
X639039Y-67565D01*
X661892Y-80261D02*
X651735D01*
X661892Y-70104D01*
Y-67565D01*
X659353Y-65026D01*
X654275D01*
X651735Y-67565D01*
X666970Y-65026D02*
X677127D01*
Y-67565D01*
X666970Y-77722D01*
Y-80261D01*
X684745Y-82800D02*
X687284Y-80261D01*
Y-77722D01*
X684745D01*
Y-80261D01*
X687284D01*
X684745Y-82800D01*
X682206Y-85339D01*
X697441Y-67565D02*
X699980Y-65026D01*
X705058D01*
X707597Y-67565D01*
Y-77722D01*
X705058Y-80261D01*
X699980D01*
X697441Y-77722D01*
Y-67565D01*
X712676D02*
X715215Y-65026D01*
X720293D01*
X722832Y-67565D01*
Y-77722D01*
X720293Y-80261D01*
X715215D01*
X712676Y-77722D01*
Y-67565D01*
D39*
X1024255Y490855D02*
D03*
Y465455D02*
D03*
X998855Y490855D02*
D03*
Y465455D02*
D03*
X973455Y490855D02*
D03*
Y465455D02*
D03*
X948055Y490855D02*
D03*
Y465455D02*
D03*
X922655Y490855D02*
D03*
Y465455D02*
D03*
X897255Y490855D02*
D03*
Y465455D02*
D03*
X871855Y490855D02*
D03*
Y465455D02*
D03*
X846455D02*
D03*
X694055Y490855D02*
D03*
X719455Y465455D02*
D03*
Y490855D02*
D03*
X744855Y465455D02*
D03*
Y490855D02*
D03*
X770255Y465455D02*
D03*
Y490855D02*
D03*
X795655Y465455D02*
D03*
Y490855D02*
D03*
X821055Y465455D02*
D03*
Y490855D02*
D03*
X846455D02*
D03*
X365760Y404495D02*
D03*
X391160D02*
D03*
X441960D02*
D03*
X467360D02*
D03*
X492760D02*
D03*
X518160D02*
D03*
X543560D02*
D03*
X416560D02*
D03*
X516255Y490855D02*
D03*
X490855D02*
D03*
Y465455D02*
D03*
X465455Y490855D02*
D03*
Y465455D02*
D03*
X440055Y490855D02*
D03*
Y465455D02*
D03*
X516255D02*
D03*
X541655D02*
D03*
Y490855D02*
D03*
X567055Y465455D02*
D03*
Y490855D02*
D03*
X592455Y465455D02*
D03*
Y490855D02*
D03*
X617855Y465455D02*
D03*
Y490855D02*
D03*
X414655D02*
D03*
Y465455D02*
D03*
X389255Y490855D02*
D03*
Y465455D02*
D03*
X363855Y490855D02*
D03*
Y465455D02*
D03*
X338455Y490855D02*
D03*
Y465455D02*
D03*
X313055Y490855D02*
D03*
Y465455D02*
D03*
X287655D02*
D03*
X135255Y490855D02*
D03*
X160655Y465455D02*
D03*
Y490855D02*
D03*
X186055Y465455D02*
D03*
Y490855D02*
D03*
X211455Y465455D02*
D03*
Y490855D02*
D03*
X236855Y465455D02*
D03*
Y490855D02*
D03*
X262255Y465455D02*
D03*
Y490855D02*
D03*
X287655D02*
D03*
X1024890Y403225D02*
D03*
X999490Y428625D02*
D03*
Y403225D02*
D03*
X974090Y428625D02*
D03*
Y403225D02*
D03*
X948690Y428625D02*
D03*
Y403225D02*
D03*
X619760Y291465D02*
D03*
X568960D02*
D03*
X518160D02*
D03*
X772160D02*
D03*
X721360D02*
D03*
X670560D02*
D03*
X822960D02*
D03*
X873760D02*
D03*
X416560D02*
D03*
X467360D02*
D03*
D40*
X694055Y465455D02*
D03*
X568960Y404495D02*
D03*
X135255Y465455D02*
D03*
X1024890Y428625D02*
D03*
X924560Y291465D02*
D03*
D41*
X250825Y319480D02*
D03*
Y357480D02*
D03*
X238125Y376480D02*
D03*
X276225Y319480D02*
D03*
X263525Y338480D02*
D03*
X276225Y357480D02*
D03*
X263525Y376480D02*
D03*
X301625Y319480D02*
D03*
X288925Y338480D02*
D03*
X301625Y357480D02*
D03*
X288925Y376480D02*
D03*
X377825Y319480D02*
D03*
X365125Y338480D02*
D03*
X377825Y357480D02*
D03*
X365125Y376480D02*
D03*
X403225Y319480D02*
D03*
X390525Y338480D02*
D03*
X403225Y357480D02*
D03*
X390525Y376480D02*
D03*
X428625Y319480D02*
D03*
X415925Y338480D02*
D03*
X428625Y357480D02*
D03*
X415925Y376480D02*
D03*
X454025Y319480D02*
D03*
X441325Y338480D02*
D03*
X454025Y357480D02*
D03*
X441325Y376480D02*
D03*
X479425Y319480D02*
D03*
X466725Y338480D02*
D03*
X479425Y357480D02*
D03*
X466725Y376480D02*
D03*
X504825Y319480D02*
D03*
X492125Y338480D02*
D03*
X504825Y357480D02*
D03*
X492125Y376480D02*
D03*
X530225Y319480D02*
D03*
X517525Y338480D02*
D03*
X530225Y357480D02*
D03*
X517525Y376480D02*
D03*
X555625Y319480D02*
D03*
X542925Y338480D02*
D03*
X555625Y357480D02*
D03*
X542925Y376480D02*
D03*
X631825Y319480D02*
D03*
X619125Y338480D02*
D03*
X631825Y357480D02*
D03*
X619125Y376480D02*
D03*
X657225Y319480D02*
D03*
X644525Y338480D02*
D03*
X657225Y357480D02*
D03*
X644525Y376480D02*
D03*
X682625Y319480D02*
D03*
X669925Y338480D02*
D03*
X682625Y357480D02*
D03*
X669925Y376480D02*
D03*
X708025Y319480D02*
D03*
X695325Y338480D02*
D03*
X708025Y357480D02*
D03*
X695325Y376480D02*
D03*
X733425Y319480D02*
D03*
X720725Y338480D02*
D03*
X733425Y357480D02*
D03*
X720725Y376480D02*
D03*
X758825Y319480D02*
D03*
X746125Y338480D02*
D03*
X758825Y357480D02*
D03*
X746125Y376480D02*
D03*
X784225Y319480D02*
D03*
X771525Y338480D02*
D03*
X784225Y357480D02*
D03*
X771525Y376480D02*
D03*
X809625Y319480D02*
D03*
X796925Y338480D02*
D03*
X809625Y357480D02*
D03*
X796925Y376480D02*
D03*
X835025Y319480D02*
D03*
X822325Y338480D02*
D03*
X835025Y357480D02*
D03*
X822325Y376480D02*
D03*
X860425Y319480D02*
D03*
X847725Y338480D02*
D03*
X860425Y357480D02*
D03*
X847725Y376480D02*
D03*
X885825Y319480D02*
D03*
X873125Y338480D02*
D03*
X885825Y357480D02*
D03*
X873125Y376480D02*
D03*
X911225Y319480D02*
D03*
X898525Y338480D02*
D03*
X911225Y357480D02*
D03*
X898525Y376480D02*
D03*
X936625Y319480D02*
D03*
X923925Y338480D02*
D03*
X936625Y357480D02*
D03*
X923925Y376480D02*
D03*
X962025Y319480D02*
D03*
X949325Y338480D02*
D03*
X962025Y357480D02*
D03*
X949325Y376480D02*
D03*
D42*
X238125Y338480D02*
D03*
D43*
X238760Y788340D02*
D03*
X1061085Y459105D02*
D03*
X1249680D02*
D03*
D44*
X238760Y588340D02*
D03*
X90805Y730885D02*
D03*
X442595Y106680D02*
D03*
X847090D02*
D03*
X240030D02*
D03*
X645160D02*
D03*
X1061085Y433705D02*
D03*
X1249680D02*
D03*
D45*
X116205Y730885D02*
D03*
X417195Y106680D02*
D03*
X821690D02*
D03*
X214630D02*
D03*
X619760D02*
D03*
D46*
X202565Y45085D02*
D03*
X253365D02*
D03*
X405130D02*
D03*
X455930D02*
D03*
X812165D02*
D03*
X862965D02*
D03*
X608330D02*
D03*
X659130D02*
D03*
D47*
X1230630Y598805D02*
D03*
Y623805D02*
D03*
D48*
X1039695Y181610D02*
D03*
X1039060Y256540D02*
D03*
D49*
X1064695Y181610D02*
D03*
X1064060Y256540D02*
D03*
D50*
X70870Y586600D02*
D03*
Y253400D02*
D03*
X1299079Y586600D02*
D03*
Y253400D02*
D03*
D51*
X85070Y516950D02*
D03*
X56670Y503100D02*
D03*
X85070Y489250D02*
D03*
X56670Y475400D02*
D03*
X85070Y461550D02*
D03*
X56670Y447700D02*
D03*
X85070Y433850D02*
D03*
X56670Y420000D02*
D03*
X85070Y406150D02*
D03*
X56670Y392300D02*
D03*
X85070Y378450D02*
D03*
X56670Y364600D02*
D03*
X85070Y350750D02*
D03*
X56670Y336900D02*
D03*
X1313279Y503100D02*
D03*
X1284879Y489250D02*
D03*
X1313279Y475400D02*
D03*
X1284879Y461550D02*
D03*
X1313279Y447700D02*
D03*
X1284879Y433850D02*
D03*
X1313279Y420000D02*
D03*
X1284879Y406150D02*
D03*
X1313279Y392300D02*
D03*
X1284879Y378450D02*
D03*
X1313279Y364600D02*
D03*
X1284879Y350750D02*
D03*
X1313279Y336900D02*
D03*
X1284879Y323050D02*
D03*
D52*
X85070D02*
D03*
X1284879Y516950D02*
D03*
D53*
X1167765Y795020D02*
D03*
X1066165D02*
D03*
X1015365D02*
D03*
X1116965D02*
D03*
X964565D02*
D03*
X913765D02*
D03*
X812165D02*
D03*
X862965D02*
D03*
D54*
X365760Y291465D02*
D03*
X391160D02*
D03*
X594360D02*
D03*
X543560D02*
D03*
X492760D02*
D03*
X746760D02*
D03*
X695960D02*
D03*
X645160D02*
D03*
X797560D02*
D03*
X848360D02*
D03*
X899160D02*
D03*
X441960D02*
D03*
D55*
X387985Y668020D02*
D03*
X422275Y687070D02*
D03*
X403225Y679450D02*
D03*
X411480Y687070D02*
D03*
X393065D02*
D03*
X435610D02*
D03*
X338455Y647065D02*
D03*
X398745Y611395D02*
D03*
X929005Y426720D02*
D03*
Y415925D02*
D03*
X878205Y426720D02*
D03*
Y415290D02*
D03*
X333375Y190500D02*
D03*
X705485Y645795D02*
D03*
X1094105Y665795D02*
D03*
X1201420Y523240D02*
D03*
X452755Y687705D02*
D03*
X464204Y676891D02*
D03*
X462915Y666115D02*
D03*
X481965Y697230D02*
D03*
X429895Y668655D02*
D03*
X574040Y614680D02*
D03*
X379730Y751205D02*
D03*
X235585Y770890D02*
D03*
X279400D02*
D03*
X236220Y647700D02*
D03*
X518960Y637310D02*
D03*
X525945Y667155D02*
D03*
X515785Y614450D02*
D03*
X440690Y511810D02*
D03*
X236220Y658876D02*
D03*
X285115D02*
D03*
Y647700D02*
D03*
X697865Y189230D02*
D03*
X738505Y716280D02*
D03*
X127000Y12065D02*
D03*
X932180Y13335D02*
D03*
X855345Y189230D02*
D03*
X652145D02*
D03*
X450215D02*
D03*
X247650D02*
D03*
X379095Y199390D02*
D03*
X176530D02*
D03*
X1212215Y713105D02*
D03*
X1090895Y755650D02*
D03*
X989365D02*
D03*
X786130Y750570D02*
D03*
X1228725Y645795D02*
D03*
X1065530Y665480D02*
D03*
X869000Y665795D02*
D03*
X840425D02*
D03*
X1308735Y121920D02*
D03*
X1294765D02*
D03*
X1280795D02*
D03*
X1308735Y137795D02*
D03*
X1294765D02*
D03*
X1280795D02*
D03*
X709930Y699135D02*
D03*
X699770D02*
D03*
X1104265Y716915D02*
D03*
X901065D02*
D03*
X1083310Y552450D02*
D03*
Y593090D02*
D03*
X847090Y552450D02*
D03*
X847090Y593090D02*
D03*
X1002665Y716915D02*
D03*
X799465D02*
D03*
X1027430Y742315D02*
D03*
X824865D02*
D03*
X822960Y523560D02*
D03*
X666750Y729615D02*
D03*
Y719455D02*
D03*
Y709295D02*
D03*
X689610Y699135D02*
D03*
X669290D02*
D03*
X550385Y778035D02*
D03*
Y794545D02*
D03*
X422915Y610800D02*
D03*
X461650Y721290D02*
D03*
X374015Y706120D02*
D03*
X498005Y681760D02*
D03*
X581340Y810260D02*
D03*
X518795Y810895D02*
D03*
X550385Y785973D02*
D03*
X37465Y628650D02*
D03*
X679450Y699135D02*
D03*
X106680Y633730D02*
D03*
X499110Y511810D02*
D03*
X389855Y635525D02*
D03*
X406365D02*
D03*
X441165Y553880D02*
D03*
X419100Y553720D02*
D03*
X447040Y542544D02*
D03*
X419100D02*
D03*
X68580Y633730D02*
D03*
X536375Y562095D02*
D03*
X378425Y589805D02*
D03*
X1281430Y153670D02*
D03*
X419100Y531368D02*
D03*
X464820D02*
D03*
X727710Y523875D02*
D03*
X847090Y523560D02*
D03*
X871220D02*
D03*
X964565Y523400D02*
D03*
X1058545Y523400D02*
D03*
X1082992D02*
D03*
X1106805Y523875D02*
D03*
X1308735Y153670D02*
D03*
X1295400D02*
D03*
X773070Y787675D02*
D03*
X702945Y793115D02*
D03*
X690245D02*
D03*
X669290Y739775D02*
D03*
X679450D02*
D03*
X689610D02*
D03*
X699770D02*
D03*
X709930D02*
D03*
X1247140Y307340D02*
D03*
X1211800Y270925D02*
D03*
X1211580Y287655D02*
D03*
X714375Y709295D02*
D03*
Y719455D02*
D03*
Y729615D02*
D03*
Y793115D02*
D03*
X1188085Y713105D02*
D03*
X1256030Y645795D02*
D03*
X69215Y713105D02*
D03*
X120650D02*
D03*
X508635Y703105D02*
D03*
X581025Y199390D02*
D03*
X293370Y189230D02*
D03*
X495935D02*
D03*
X901065D02*
D03*
X737075Y190500D02*
D03*
X932180Y134620D02*
D03*
X127000D02*
D03*
X862965Y155575D02*
D03*
X717390D02*
D03*
X716755Y243840D02*
D03*
X605790Y248920D02*
D03*
X756920Y134620D02*
D03*
X748030D02*
D03*
X510540D02*
D03*
X553085D02*
D03*
X531495D02*
D03*
X313055Y155575D02*
D03*
X457835D02*
D03*
X313055Y243840D02*
D03*
X343195Y133993D02*
D03*
X352085D02*
D03*
X135890Y134620D02*
D03*
X404495Y249555D02*
D03*
X201295D02*
D03*
X784225Y199390D02*
D03*
X809625Y249555D02*
D03*
X339090Y706120D02*
D03*
X1129665Y742315D02*
D03*
X926465D02*
D03*
X888365Y755650D02*
D03*
X1173480Y743585D02*
D03*
D56*
X1112520Y239395D02*
D03*
X1130300D02*
D03*
X1148080D02*
D03*
X1165860D02*
D03*
X1130300Y258445D02*
D03*
X1148080D02*
D03*
X1165860D02*
D03*
X1130300Y277495D02*
D03*
X1148080D02*
D03*
X1165860D02*
D03*
X1112520D02*
D03*
Y258445D02*
D03*
M02*
