%FSLAX44Y44*%
%MOMM*%
G71*
G01*
G75*
G04 Layer_Color=8388736*
%ADD10R,1.4000X1.0000*%
%ADD11R,1.0000X1.4000*%
%ADD12R,0.6350X2.5400*%
%ADD13O,1.9500X0.3000*%
%ADD14O,0.3000X1.9500*%
%ADD15O,0.6000X1.8000*%
%ADD16O,0.6000X1.5000*%
%ADD17R,0.6000X1.3970*%
%ADD18R,1.3970X0.6000*%
%ADD19R,1.9000X1.1000*%
%ADD20O,0.6000X2.4000*%
%ADD21R,1.3000X1.8000*%
%ADD22R,1.5000X3.0000*%
%ADD23R,1.0500X1.8000*%
%ADD24R,1.8000X1.3000*%
%ADD25R,2.5000X4.0000*%
%ADD26R,1.2000X3.5000*%
%ADD27R,1.8000X1.0500*%
%ADD28R,3.0000X2.8000*%
%ADD29O,1.8000X0.6000*%
%ADD30R,7.4000X5.7500*%
%ADD31R,3.2000X0.8000*%
%ADD32R,0.6500X1.0500*%
%ADD33C,0.8890*%
%ADD34R,1.4000X0.5080*%
%ADD35C,0.2540*%
%ADD36C,0.7620*%
%ADD37C,0.5080*%
%ADD38C,0.1524*%
%ADD39C,1.5000*%
%ADD40R,1.5000X1.5000*%
%ADD41C,1.4000*%
%ADD42R,1.4000X1.4000*%
%ADD43R,1.5240X1.5240*%
%ADD44C,1.5240*%
%ADD45R,1.5240X1.5240*%
%ADD46O,2.0000X2.5000*%
%ADD47C,1.2000*%
%ADD48R,1.3000X1.3000*%
%ADD49C,1.3000*%
%ADD50C,4.8000*%
%ADD51C,1.6510*%
%ADD52R,1.6510X1.6510*%
%ADD53C,2.5400*%
%ADD54O,1.5100X1.5000*%
%ADD55C,0.8128*%
%ADD56C,1.3970*%
%ADD57R,3.5000X1.2000*%
%ADD58C,0.2500*%
%ADD59C,0.5000*%
%ADD60C,0.6000*%
%ADD61C,0.2000*%
%ADD62C,0.1500*%
%ADD63R,0.5500X1.6000*%
%ADD64R,1.6000X0.5500*%
%ADD65R,1.6540X1.2540*%
%ADD66R,1.2540X1.6540*%
%ADD67R,0.8890X2.7940*%
%ADD68O,2.2040X0.5540*%
%ADD69O,0.5540X2.2040*%
%ADD70O,0.8540X2.0540*%
%ADD71O,0.8540X1.7540*%
%ADD72R,0.8540X1.6510*%
%ADD73R,1.6510X0.8540*%
%ADD74R,2.1540X1.3540*%
%ADD75O,0.8540X2.6540*%
%ADD76R,1.5540X2.0540*%
%ADD77R,1.7540X3.2540*%
%ADD78R,1.3040X2.0540*%
%ADD79R,2.0540X1.5540*%
%ADD80R,2.7540X4.2540*%
%ADD81R,1.4540X3.7540*%
%ADD82R,2.0540X1.3040*%
%ADD83R,3.2540X3.0540*%
%ADD84O,2.0540X0.8540*%
%ADD85R,7.6540X6.0040*%
%ADD86R,3.4540X1.0540*%
%ADD87R,0.9040X1.3040*%
%ADD88C,1.1430*%
%ADD89R,1.6540X0.7620*%
%ADD90C,1.7540*%
%ADD91R,1.7540X1.7540*%
%ADD92C,0.2540*%
%ADD93C,1.6540*%
%ADD94R,1.6540X1.6540*%
%ADD95R,1.7780X1.7780*%
%ADD96C,1.7780*%
%ADD97R,1.7780X1.7780*%
%ADD98O,2.2540X2.7540*%
%ADD99C,1.4540*%
%ADD100R,1.5540X1.5540*%
%ADD101C,1.5540*%
%ADD102C,5.0540*%
%ADD103C,1.9050*%
%ADD104R,1.9050X1.9050*%
%ADD105C,2.7940*%
%ADD106O,1.7640X1.7540*%
D35*
X1313279Y432065D02*
Y885190D01*
X1370000Y843810D02*
Y885190D01*
Y882650D02*
X1395400D01*
X1287879D02*
X1313279D01*
X1370000D02*
X1385240Y877570D01*
X1370000Y882650D02*
X1385240Y887730D01*
X1298039D02*
X1313279Y882650D01*
X1298039Y877570D02*
X1313279Y882650D01*
X56670Y432065D02*
Y897890D01*
X0Y843810D02*
Y897890D01*
X28335Y895350D02*
X56670D01*
X0D02*
X28335D01*
X41430Y900430D02*
X56670Y895350D01*
X41430Y890270D02*
X56670Y895350D01*
X0D02*
X15240Y890270D01*
X0Y895350D02*
X15240Y900430D01*
X-163195Y0D02*
X-3810D01*
X-163195Y420000D02*
X44605D01*
X-160655Y0D02*
Y166324D01*
Y245548D02*
Y420000D01*
Y0D02*
X-155575Y15240D01*
X-165735D02*
X-160655Y0D01*
X-165735Y404760D02*
X-160655Y420000D01*
X-155575Y404760D01*
X1325344Y420000D02*
X1601470D01*
X1373810Y0D02*
X1601470D01*
X1598930Y245548D02*
Y420000D01*
Y0D02*
Y166324D01*
X1593850Y404760D02*
X1598930Y420000D01*
X1604010Y404760D01*
X1598930Y0D02*
X1604010Y15240D01*
X1593850D02*
X1598930Y0D01*
X50000Y798810D02*
Y957580D01*
X0Y843810D02*
Y957580D01*
X25000Y955040D02*
X50000D01*
X0D02*
X25000D01*
X34760Y960120D02*
X50000Y955040D01*
X34760Y949960D02*
X50000Y955040D01*
X0D02*
X15240Y949960D01*
X0Y955040D02*
X15240Y960120D01*
X1320000Y798810D02*
Y957580D01*
X50000Y798810D02*
Y957580D01*
X726896Y955040D02*
X1320000D01*
X50000D02*
X634975D01*
X1304760Y960120D02*
X1320000Y955040D01*
X1304760Y949960D02*
X1320000Y955040D01*
X50000D02*
X65240Y949960D01*
X50000Y955040D02*
X65240Y960120D01*
X1370000Y-135890D02*
Y-3810D01*
X0Y-135890D02*
Y0D01*
X726896Y-133350D02*
X1370000D01*
X0D02*
X634976D01*
X1354760Y-128270D02*
X1370000Y-133350D01*
X1354760Y-138430D02*
X1370000Y-133350D01*
X0D02*
X15240Y-138430D01*
X0Y-133350D02*
X15240Y-128270D01*
X-341630Y45000D02*
X46190D01*
X-341630Y0D02*
X-3810D01*
X-339090Y22500D02*
Y45000D01*
Y0D02*
Y22500D01*
X-344170Y29760D02*
X-339090Y45000D01*
X-334010Y29760D01*
X-339090Y0D02*
X-334010Y15240D01*
X-344170D02*
X-339090Y0D01*
X50000Y-71120D02*
Y45000D01*
X0Y-71120D02*
Y0D01*
X25000Y-68580D02*
X50000D01*
X0D02*
X25000D01*
X34760Y-63500D02*
X50000Y-68580D01*
X34760Y-73660D02*
X50000Y-68580D01*
X0D02*
X15240Y-73660D01*
X0Y-68580D02*
X15240Y-63500D01*
X-420370Y0D02*
X-3810D01*
X-420370Y840000D02*
X0D01*
X-417830Y0D02*
Y376324D01*
Y455549D02*
Y840000D01*
Y0D02*
X-412750Y15240D01*
X-422910D02*
X-417830Y0D01*
X-422910Y824760D02*
X-417830Y840000D01*
X-412750Y824760D01*
X-340995Y45000D02*
X32460D01*
X-340995Y795000D02*
X32460D01*
X-338455Y45000D02*
Y376324D01*
Y455549D02*
Y795000D01*
Y45000D02*
X-333375Y60240D01*
X-343535D02*
X-338455Y45000D01*
X-343535Y779760D02*
X-338455Y795000D01*
X-333375Y779760D01*
X1320000Y-71120D02*
Y27460D01*
X50000Y-71120D02*
Y27460D01*
X726896Y-68580D02*
X1320000D01*
X50000D02*
X634976D01*
X1304760Y-63500D02*
X1320000Y-68580D01*
X1304760Y-73660D02*
X1320000Y-68580D01*
X50000D02*
X65240Y-73660D01*
X50000Y-68580D02*
X65240Y-63500D01*
X0Y0D02*
Y840000D01*
X1370000D01*
X1127595Y0D02*
Y45000D01*
X1178395Y0D02*
Y45000D01*
X1025995Y0D02*
Y45000D01*
X1076795Y0D02*
Y45000D01*
X0Y145000D02*
X1370000D01*
X964400Y0D02*
Y45000D01*
X913600Y0D02*
Y45000D01*
X761200Y0D02*
Y45000D01*
X812000Y0D02*
Y45000D01*
X862800Y0D02*
Y45000D01*
X710400Y0D02*
Y45000D01*
X659600Y0D02*
Y45000D01*
X354800Y0D02*
Y45000D01*
X304000Y0D02*
Y45000D01*
X202400Y0D02*
Y45000D01*
X253200Y0D02*
Y45000D01*
X507200Y0D02*
Y45000D01*
X405600Y0D02*
Y45000D01*
X608800Y0D02*
Y45000D01*
X558000Y0D02*
Y45000D01*
X50000D02*
X1320000D01*
X0Y0D02*
X1370000D01*
Y840000D01*
X50000Y795000D02*
X1320000D01*
X913600D02*
Y840000D01*
X964400Y795000D02*
Y840000D01*
X1066000Y795000D02*
Y840000D01*
X1015200Y795000D02*
Y840000D01*
X1167600Y795000D02*
Y840000D01*
X1116800Y795000D02*
Y840000D01*
X0Y695000D02*
X1370000D01*
X862800Y795000D02*
Y840000D01*
X812000Y795000D02*
Y840000D01*
X456400Y0D02*
Y45000D01*
D38*
X1319801Y921246D02*
X1309644D01*
Y913629D01*
X1314723Y916168D01*
X1317262D01*
X1319801Y913629D01*
Y908551D01*
X1317262Y906011D01*
X1312184D01*
X1309644Y908551D01*
X1327419Y903472D02*
X1329958Y906011D01*
Y908551D01*
X1327419D01*
Y906011D01*
X1329958D01*
X1327419Y903472D01*
X1324880Y900933D01*
X1350271Y921246D02*
X1345193Y918707D01*
X1340115Y913629D01*
Y908551D01*
X1342654Y906011D01*
X1347732D01*
X1350271Y908551D01*
Y911090D01*
X1347732Y913629D01*
X1340115D01*
X1355350Y921246D02*
X1365506D01*
Y918707D01*
X1355350Y908551D01*
Y906011D01*
X73022Y904235D02*
X62865D01*
Y896618D01*
X67943Y899157D01*
X70483D01*
X73022Y896618D01*
Y891539D01*
X70483Y889000D01*
X65404D01*
X62865Y891539D01*
X80639Y886461D02*
X83178Y889000D01*
Y891539D01*
X80639D01*
Y889000D01*
X83178D01*
X80639Y886461D01*
X78100Y883922D01*
X103492Y904235D02*
X98413Y901696D01*
X93335Y896618D01*
Y891539D01*
X95874Y889000D01*
X100953D01*
X103492Y891539D01*
Y894078D01*
X100953Y896618D01*
X93335D01*
X108570Y904235D02*
X118727D01*
Y901696D01*
X108570Y891539D01*
Y889000D01*
X-148974Y178005D02*
X-164209D01*
X-156592Y170387D01*
Y180544D01*
X-148974Y195779D02*
Y185623D01*
X-159131Y195779D01*
X-161670D01*
X-164209Y193240D01*
Y188162D01*
X-161670Y185623D01*
X-146435Y203397D02*
X-148974Y205936D01*
X-151514D01*
Y203397D01*
X-148974D01*
Y205936D01*
X-146435Y203397D01*
X-143896Y200858D01*
X-161670Y216093D02*
X-164209Y218632D01*
Y223710D01*
X-161670Y226249D01*
X-151514D01*
X-148974Y223710D01*
Y218632D01*
X-151514Y216093D01*
X-161670D01*
Y231328D02*
X-164209Y233867D01*
Y238945D01*
X-161670Y241485D01*
X-151514D01*
X-148974Y238945D01*
Y233867D01*
X-151514Y231328D01*
X-161670D01*
X1610611Y178005D02*
X1595376D01*
X1602993Y170387D01*
Y180544D01*
X1610611Y195779D02*
Y185623D01*
X1600454Y195779D01*
X1597915D01*
X1595376Y193240D01*
Y188162D01*
X1597915Y185623D01*
X1613150Y203397D02*
X1610611Y205936D01*
X1608071D01*
Y203397D01*
X1610611D01*
Y205936D01*
X1613150Y203397D01*
X1615689Y200858D01*
X1597915Y216093D02*
X1595376Y218632D01*
Y223710D01*
X1597915Y226249D01*
X1608071D01*
X1610611Y223710D01*
Y218632D01*
X1608071Y216093D01*
X1597915D01*
Y231328D02*
X1595376Y233867D01*
Y238945D01*
X1597915Y241485D01*
X1608071D01*
X1610611Y238945D01*
Y233867D01*
X1608071Y231328D01*
X1597915D01*
X7617Y987420D02*
X-2540D01*
Y979802D01*
X2538Y982342D01*
X5077D01*
X7617Y979802D01*
Y974724D01*
X5077Y972185D01*
X-1D01*
X-2540Y974724D01*
X15234Y969646D02*
X17773Y972185D01*
Y974724D01*
X15234D01*
Y972185D01*
X17773D01*
X15234Y969646D01*
X12695Y967107D01*
X27930Y984881D02*
X30469Y987420D01*
X35548D01*
X38087Y984881D01*
Y974724D01*
X35548Y972185D01*
X30469D01*
X27930Y974724D01*
Y984881D01*
X43165D02*
X45704Y987420D01*
X50783D01*
X53322Y984881D01*
Y974724D01*
X50783Y972185D01*
X45704D01*
X43165Y974724D01*
Y984881D01*
X639039Y943359D02*
X644118D01*
X641579D01*
Y958594D01*
X639039Y956055D01*
X661892Y943359D02*
X651735D01*
X661892Y953516D01*
Y956055D01*
X659353Y958594D01*
X654275D01*
X651735Y956055D01*
X666970Y958594D02*
X677127D01*
Y956055D01*
X666970Y945899D01*
Y943359D01*
X684745Y940820D02*
X687284Y943359D01*
Y945899D01*
X684745D01*
Y943359D01*
X687284D01*
X684745Y940820D01*
X682206Y938281D01*
X697440Y956055D02*
X699980Y958594D01*
X705058D01*
X707597Y956055D01*
Y945899D01*
X705058Y943359D01*
X699980D01*
X697440Y945899D01*
Y956055D01*
X712676D02*
X715215Y958594D01*
X720293D01*
X722832Y956055D01*
Y945899D01*
X720293Y943359D01*
X715215D01*
X712676Y945899D01*
Y956055D01*
X639039Y-145031D02*
X644118D01*
X641579D01*
Y-129796D01*
X639039Y-132335D01*
X651735D02*
X654275Y-129796D01*
X659353D01*
X661892Y-132335D01*
Y-134874D01*
X659353Y-137413D01*
X656814D01*
X659353D01*
X661892Y-139952D01*
Y-142492D01*
X659353Y-145031D01*
X654275D01*
X651735Y-142492D01*
X666971Y-129796D02*
X677127D01*
Y-132335D01*
X666971Y-142492D01*
Y-145031D01*
X684745Y-147570D02*
X687284Y-145031D01*
Y-142492D01*
X684745D01*
Y-145031D01*
X687284D01*
X684745Y-147570D01*
X682206Y-150109D01*
X697441Y-132335D02*
X699980Y-129796D01*
X705058D01*
X707597Y-132335D01*
Y-142492D01*
X705058Y-145031D01*
X699980D01*
X697441Y-142492D01*
Y-132335D01*
X712676D02*
X715215Y-129796D01*
X720293D01*
X722832Y-132335D01*
Y-142492D01*
X720293Y-145031D01*
X715215D01*
X712676Y-142492D01*
Y-132335D01*
X-357505Y23493D02*
X-372740D01*
X-365122Y15875D01*
Y26032D01*
X-354966Y33649D02*
X-357505Y36188D01*
X-360044D01*
Y33649D01*
X-357505D01*
Y36188D01*
X-354966Y33649D01*
X-352427Y31110D01*
X-372740Y56502D02*
Y46345D01*
X-365122D01*
X-367662Y51424D01*
Y53963D01*
X-365122Y56502D01*
X-360044D01*
X-357505Y53963D01*
Y48884D01*
X-360044Y46345D01*
X-370201Y61580D02*
X-372740Y64119D01*
Y69198D01*
X-370201Y71737D01*
X-360044D01*
X-357505Y69198D01*
Y64119D01*
X-360044Y61580D01*
X-370201D01*
X23492Y-89540D02*
X13335D01*
Y-97157D01*
X18413Y-94618D01*
X20952D01*
X23492Y-97157D01*
Y-102236D01*
X20952Y-104775D01*
X15874D01*
X13335Y-102236D01*
X31109Y-107314D02*
X33648Y-104775D01*
Y-102236D01*
X31109D01*
Y-104775D01*
X33648D01*
X31109Y-107314D01*
X28570Y-109853D01*
X43805Y-92079D02*
X46344Y-89540D01*
X51423D01*
X53962Y-92079D01*
Y-102236D01*
X51423Y-104775D01*
X46344D01*
X43805Y-102236D01*
Y-92079D01*
X59040D02*
X61579Y-89540D01*
X66658D01*
X69197Y-92079D01*
Y-102236D01*
X66658Y-104775D01*
X61579D01*
X59040Y-102236D01*
Y-92079D01*
X-418845Y380387D02*
X-421384Y382927D01*
Y388005D01*
X-418845Y390544D01*
X-416306D01*
X-413767Y388005D01*
X-411228Y390544D01*
X-408689D01*
X-406149Y388005D01*
Y382927D01*
X-408689Y380387D01*
X-411228D01*
X-413767Y382927D01*
X-416306Y380387D01*
X-418845D01*
X-413767Y382927D02*
Y388005D01*
X-406149Y403240D02*
X-421384D01*
X-413767Y395623D01*
Y405779D01*
X-403610Y413397D02*
X-406149Y415936D01*
X-408689D01*
Y413397D01*
X-406149D01*
Y415936D01*
X-403610Y413397D01*
X-401071Y410858D01*
X-418845Y426093D02*
X-421384Y428632D01*
Y433710D01*
X-418845Y436249D01*
X-408689D01*
X-406149Y433710D01*
Y428632D01*
X-408689Y426093D01*
X-418845D01*
Y441328D02*
X-421384Y443867D01*
Y448945D01*
X-418845Y451484D01*
X-408689D01*
X-406149Y448945D01*
Y443867D01*
X-408689Y441328D01*
X-418845D01*
X-342009Y380387D02*
Y390544D01*
X-339470D01*
X-329314Y380387D01*
X-326774D01*
X-342009Y405779D02*
Y395623D01*
X-334392D01*
X-336931Y400701D01*
Y403240D01*
X-334392Y405779D01*
X-329314D01*
X-326774Y403240D01*
Y398162D01*
X-329314Y395623D01*
X-324235Y413397D02*
X-326774Y415936D01*
X-329314D01*
Y413397D01*
X-326774D01*
Y415936D01*
X-324235Y413397D01*
X-321696Y410858D01*
X-339470Y426093D02*
X-342009Y428632D01*
Y433710D01*
X-339470Y436249D01*
X-329314D01*
X-326774Y433710D01*
Y428632D01*
X-329314Y426093D01*
X-339470D01*
Y441328D02*
X-342009Y443867D01*
Y448945D01*
X-339470Y451484D01*
X-329314D01*
X-326774Y448945D01*
Y443867D01*
X-329314Y441328D01*
X-339470D01*
X639039Y-80261D02*
X644118D01*
X641579D01*
Y-65026D01*
X639039Y-67565D01*
X661892Y-80261D02*
X651735D01*
X661892Y-70104D01*
Y-67565D01*
X659353Y-65026D01*
X654275D01*
X651735Y-67565D01*
X666970Y-65026D02*
X677127D01*
Y-67565D01*
X666970Y-77722D01*
Y-80261D01*
X684745Y-82800D02*
X687284Y-80261D01*
Y-77722D01*
X684745D01*
Y-80261D01*
X687284D01*
X684745Y-82800D01*
X682206Y-85339D01*
X697441Y-67565D02*
X699980Y-65026D01*
X705058D01*
X707597Y-67565D01*
Y-77722D01*
X705058Y-80261D01*
X699980D01*
X697441Y-77722D01*
Y-67565D01*
X712676D02*
X715215Y-65026D01*
X720293D01*
X722832Y-67565D01*
Y-77722D01*
X720293Y-80261D01*
X715215D01*
X712676Y-77722D01*
Y-67565D01*
D51*
X1112520Y239395D02*
D03*
X1130300D02*
D03*
X1148080D02*
D03*
X1165860D02*
D03*
X1130300Y258445D02*
D03*
X1148080D02*
D03*
X1165860D02*
D03*
X1130300Y277495D02*
D03*
X1148080D02*
D03*
X1165860D02*
D03*
X1112520D02*
D03*
Y258445D02*
D03*
D65*
X717550Y645955D02*
D03*
Y665955D02*
D03*
X593725Y155735D02*
D03*
Y175735D02*
D03*
X697865Y259555D02*
D03*
Y239555D02*
D03*
X796925Y155735D02*
D03*
Y175735D02*
D03*
X901065Y259555D02*
D03*
Y239555D02*
D03*
Y155735D02*
D03*
Y175735D02*
D03*
X796925Y219550D02*
D03*
Y199550D02*
D03*
X1165860Y543400D02*
D03*
Y523400D02*
D03*
X391795Y175735D02*
D03*
Y155735D02*
D03*
X495935Y175735D02*
D03*
Y155735D02*
D03*
X391795Y199550D02*
D03*
Y219550D02*
D03*
X1118870Y645955D02*
D03*
Y665955D02*
D03*
X189230Y175735D02*
D03*
Y155735D02*
D03*
X293370Y239555D02*
D03*
Y259555D02*
D03*
Y175735D02*
D03*
Y155735D02*
D03*
X189230Y199550D02*
D03*
Y219550D02*
D03*
X1118870Y543400D02*
D03*
Y523400D02*
D03*
X567690Y219550D02*
D03*
Y199550D02*
D03*
Y36035D02*
D03*
Y16035D02*
D03*
Y70960D02*
D03*
Y50960D02*
D03*
Y105885D02*
D03*
Y85885D02*
D03*
Y175735D02*
D03*
Y155735D02*
D03*
X671830Y219550D02*
D03*
Y199550D02*
D03*
Y259555D02*
D03*
Y239555D02*
D03*
X697865Y36035D02*
D03*
Y16035D02*
D03*
Y70960D02*
D03*
Y50960D02*
D03*
X763905Y604045D02*
D03*
Y624045D02*
D03*
Y543400D02*
D03*
Y523400D02*
D03*
X1228725Y733265D02*
D03*
Y713265D02*
D03*
X697865Y199550D02*
D03*
Y219550D02*
D03*
X875030Y219550D02*
D03*
Y199550D02*
D03*
X901065Y219550D02*
D03*
Y199550D02*
D03*
X365760Y175735D02*
D03*
Y155735D02*
D03*
X495935Y219550D02*
D03*
Y199550D02*
D03*
X163195Y175735D02*
D03*
Y155735D02*
D03*
Y219550D02*
D03*
Y199550D02*
D03*
X1142365Y645955D02*
D03*
Y665955D02*
D03*
X901065Y70960D02*
D03*
Y50960D02*
D03*
X771525Y105885D02*
D03*
Y85885D02*
D03*
X645795Y175735D02*
D03*
Y155735D02*
D03*
X619760Y175735D02*
D03*
Y155735D02*
D03*
X365125Y70960D02*
D03*
Y50960D02*
D03*
X1230630Y577055D02*
D03*
Y557055D02*
D03*
X162560Y36035D02*
D03*
Y16035D02*
D03*
X105410Y760255D02*
D03*
Y780255D02*
D03*
X127635Y760255D02*
D03*
Y780255D02*
D03*
X697865Y105885D02*
D03*
Y85885D02*
D03*
X770890Y36035D02*
D03*
Y16035D02*
D03*
Y70960D02*
D03*
Y50960D02*
D03*
X822960Y175735D02*
D03*
Y155735D02*
D03*
X901065Y36035D02*
D03*
Y16035D02*
D03*
Y105885D02*
D03*
Y85885D02*
D03*
X848995Y175735D02*
D03*
Y155735D02*
D03*
X365125Y36035D02*
D03*
Y16035D02*
D03*
Y105885D02*
D03*
Y85885D02*
D03*
X417830Y175735D02*
D03*
Y155735D02*
D03*
X495300Y70960D02*
D03*
Y50960D02*
D03*
Y105885D02*
D03*
Y85885D02*
D03*
X443865Y175735D02*
D03*
Y155735D02*
D03*
X162560Y105885D02*
D03*
Y85885D02*
D03*
X215265Y175735D02*
D03*
Y155735D02*
D03*
X292735Y70960D02*
D03*
Y50960D02*
D03*
Y105885D02*
D03*
Y85885D02*
D03*
X241300Y175735D02*
D03*
Y155735D02*
D03*
X697865Y155735D02*
D03*
Y175735D02*
D03*
X593725Y219550D02*
D03*
Y199550D02*
D03*
X495935Y239555D02*
D03*
Y259555D02*
D03*
X593725Y259555D02*
D03*
Y239555D02*
D03*
X671830Y175735D02*
D03*
Y155735D02*
D03*
X770890Y175735D02*
D03*
Y155735D02*
D03*
X875030Y259555D02*
D03*
Y239555D02*
D03*
X796925Y259555D02*
D03*
Y239555D02*
D03*
X469900Y175735D02*
D03*
Y155735D02*
D03*
Y259555D02*
D03*
Y239555D02*
D03*
Y219550D02*
D03*
Y199550D02*
D03*
X770890Y219550D02*
D03*
Y199550D02*
D03*
X875030Y175735D02*
D03*
Y155735D02*
D03*
X391795Y259555D02*
D03*
Y239555D02*
D03*
X365760Y219550D02*
D03*
Y199550D02*
D03*
X267335Y175735D02*
D03*
Y155735D02*
D03*
X189230Y259555D02*
D03*
Y239555D02*
D03*
X293370Y199550D02*
D03*
Y219550D02*
D03*
X267335Y199550D02*
D03*
Y219550D02*
D03*
X267335Y259555D02*
D03*
Y239555D02*
D03*
X1165860Y604045D02*
D03*
Y624045D02*
D03*
X1000125Y604045D02*
D03*
Y624045D02*
D03*
Y543400D02*
D03*
Y523400D02*
D03*
X1047115Y645955D02*
D03*
Y665955D02*
D03*
X1047115Y523400D02*
D03*
Y543400D02*
D03*
X929640Y604045D02*
D03*
Y624045D02*
D03*
Y543400D02*
D03*
Y523400D02*
D03*
X882650Y645955D02*
D03*
Y665955D02*
D03*
X882650Y523400D02*
D03*
Y543400D02*
D03*
X810895Y523400D02*
D03*
Y543400D02*
D03*
X1189355Y645955D02*
D03*
Y665955D02*
D03*
X1189355Y604045D02*
D03*
Y624045D02*
D03*
Y563405D02*
D03*
Y583405D02*
D03*
X1165860Y583405D02*
D03*
Y563405D02*
D03*
X1165860Y645955D02*
D03*
Y665955D02*
D03*
X1189355Y523400D02*
D03*
Y543400D02*
D03*
X1095375Y543400D02*
D03*
Y523400D02*
D03*
X1142365Y543400D02*
D03*
Y523400D02*
D03*
X976630Y645955D02*
D03*
Y665955D02*
D03*
Y604045D02*
D03*
Y624045D02*
D03*
Y563405D02*
D03*
Y583405D02*
D03*
X1000125Y583405D02*
D03*
Y563405D02*
D03*
X1000125Y645955D02*
D03*
Y665955D02*
D03*
X1023620Y645955D02*
D03*
Y665955D02*
D03*
X976630Y523400D02*
D03*
Y543400D02*
D03*
X1070610Y543400D02*
D03*
Y523400D02*
D03*
X1023620Y543400D02*
D03*
Y523400D02*
D03*
X953135Y645955D02*
D03*
Y665955D02*
D03*
Y604045D02*
D03*
Y624045D02*
D03*
Y563405D02*
D03*
Y583405D02*
D03*
X929640Y583405D02*
D03*
Y563405D02*
D03*
X929640Y645955D02*
D03*
Y665955D02*
D03*
X906145Y645955D02*
D03*
Y665955D02*
D03*
X953135Y523400D02*
D03*
Y543400D02*
D03*
X859155Y543400D02*
D03*
Y523400D02*
D03*
X906145Y543400D02*
D03*
Y523400D02*
D03*
X740410Y563405D02*
D03*
Y583405D02*
D03*
X763905Y583405D02*
D03*
Y563405D02*
D03*
X740410Y523400D02*
D03*
Y543400D02*
D03*
X834390Y543400D02*
D03*
Y523400D02*
D03*
X787400Y543400D02*
D03*
Y523400D02*
D03*
X810895Y665955D02*
D03*
Y645955D02*
D03*
X740410Y604045D02*
D03*
Y624045D02*
D03*
X763905Y645955D02*
D03*
Y665955D02*
D03*
X787400Y645955D02*
D03*
Y665955D02*
D03*
X1173480Y713265D02*
D03*
Y733265D02*
D03*
X162560Y70960D02*
D03*
Y50960D02*
D03*
X292735Y36035D02*
D03*
Y16035D02*
D03*
X495300Y36035D02*
D03*
Y16035D02*
D03*
X1270635Y665320D02*
D03*
Y645320D02*
D03*
X1212215Y645955D02*
D03*
Y665955D02*
D03*
X740410Y645955D02*
D03*
Y665955D02*
D03*
D66*
X728505Y742315D02*
D03*
X748505D02*
D03*
X736915Y231140D02*
D03*
X716915D02*
D03*
X737550Y169545D02*
D03*
X717550D02*
D03*
X333215D02*
D03*
X313215D02*
D03*
X332707Y231140D02*
D03*
X312707D02*
D03*
X350045Y751205D02*
D03*
X370045D02*
D03*
X492920Y721360D02*
D03*
X512920D02*
D03*
X536215Y549395D02*
D03*
X516215D02*
D03*
X516415Y574675D02*
D03*
X536415D02*
D03*
X37305Y687070D02*
D03*
X17305D02*
D03*
X37305Y664210D02*
D03*
X17305D02*
D03*
X37305Y641985D02*
D03*
X17305D02*
D03*
X904400Y685800D02*
D03*
X924400D02*
D03*
X782480Y684530D02*
D03*
X802480D02*
D03*
X1117760Y685800D02*
D03*
X1137760D02*
D03*
X1004095Y684530D02*
D03*
X1024095D02*
D03*
D67*
X93980Y652145D02*
D03*
X81280D02*
D03*
Y690245D02*
D03*
X68580D02*
D03*
Y652145D02*
D03*
X55880Y690245D02*
D03*
Y652145D02*
D03*
X93980Y690245D02*
D03*
X106680D02*
D03*
Y652145D02*
D03*
D68*
X370915Y686995D02*
D03*
Y681995D02*
D03*
Y676995D02*
D03*
Y671995D02*
D03*
Y666995D02*
D03*
Y661995D02*
D03*
Y656995D02*
D03*
Y651995D02*
D03*
Y646995D02*
D03*
Y641995D02*
D03*
Y636995D02*
D03*
Y631995D02*
D03*
Y626995D02*
D03*
Y621995D02*
D03*
Y616995D02*
D03*
Y611995D02*
D03*
X479915D02*
D03*
Y616995D02*
D03*
Y621995D02*
D03*
Y626995D02*
D03*
Y631995D02*
D03*
Y636995D02*
D03*
Y641995D02*
D03*
Y646995D02*
D03*
Y651995D02*
D03*
Y656995D02*
D03*
Y661995D02*
D03*
Y666995D02*
D03*
Y671995D02*
D03*
Y676995D02*
D03*
Y681995D02*
D03*
Y686995D02*
D03*
D69*
X387915Y594995D02*
D03*
X392915D02*
D03*
X397915D02*
D03*
X402915D02*
D03*
X407915D02*
D03*
X412915D02*
D03*
X417915D02*
D03*
X422915D02*
D03*
X427915D02*
D03*
X432915D02*
D03*
X437915D02*
D03*
X442915D02*
D03*
X447915D02*
D03*
X452915D02*
D03*
X457915D02*
D03*
X462915D02*
D03*
Y703995D02*
D03*
X457915D02*
D03*
X452915D02*
D03*
X447915D02*
D03*
X442915D02*
D03*
X437915D02*
D03*
X432915D02*
D03*
X427915D02*
D03*
X422915D02*
D03*
X417915D02*
D03*
X412915D02*
D03*
X407915D02*
D03*
X402915D02*
D03*
X397915D02*
D03*
X392915D02*
D03*
X387915D02*
D03*
D70*
X412115Y203235D02*
D03*
X424815D02*
D03*
X437515D02*
D03*
X450215D02*
D03*
X412115Y255235D02*
D03*
X424815D02*
D03*
X437515D02*
D03*
X450215D02*
D03*
X209550Y203235D02*
D03*
X222250D02*
D03*
X234950D02*
D03*
X247650D02*
D03*
X209550Y255235D02*
D03*
X222250D02*
D03*
X234950D02*
D03*
X247650D02*
D03*
X817245Y202600D02*
D03*
X829945D02*
D03*
X842645D02*
D03*
X855345D02*
D03*
X817245Y254600D02*
D03*
X829945D02*
D03*
X842645D02*
D03*
X855345D02*
D03*
X614045Y202600D02*
D03*
X626745D02*
D03*
X639445D02*
D03*
X652145D02*
D03*
X614045Y254600D02*
D03*
X626745D02*
D03*
X639445D02*
D03*
X652145D02*
D03*
D71*
X808990Y565717D02*
D03*
X821690D02*
D03*
X834390D02*
D03*
X847090D02*
D03*
X859790D02*
D03*
X872490D02*
D03*
X885190D02*
D03*
X808990Y620717D02*
D03*
X821690D02*
D03*
X834390D02*
D03*
X847090D02*
D03*
X859790D02*
D03*
X872490D02*
D03*
X885190D02*
D03*
X1045210Y565717D02*
D03*
X1057910D02*
D03*
X1070610D02*
D03*
X1083310D02*
D03*
X1096010D02*
D03*
X1108710D02*
D03*
X1121410D02*
D03*
X1045210Y620717D02*
D03*
X1057910D02*
D03*
X1070610D02*
D03*
X1083310D02*
D03*
X1096010D02*
D03*
X1108710D02*
D03*
X1121410D02*
D03*
D72*
X322580Y190660D02*
D03*
X313080Y210660D02*
D03*
X332080D02*
D03*
X726915Y190660D02*
D03*
X717415Y210660D02*
D03*
X736415D02*
D03*
X1241400Y645480D02*
D03*
X1231900Y665480D02*
D03*
X1250900D02*
D03*
X1201420Y711360D02*
D03*
X1191920Y731360D02*
D03*
X1210920D02*
D03*
X738505Y702470D02*
D03*
X729005Y722470D02*
D03*
X748005D02*
D03*
X826795Y129065D02*
D03*
X845795D02*
D03*
X836295Y149065D02*
D03*
X219100Y129065D02*
D03*
X238100D02*
D03*
X228600Y149065D02*
D03*
X421030Y129065D02*
D03*
X440030D02*
D03*
X430530Y149065D02*
D03*
X623595Y129065D02*
D03*
X642595D02*
D03*
X633095Y149065D02*
D03*
D73*
X373220Y725170D02*
D03*
X353220Y715670D02*
D03*
Y734670D02*
D03*
D74*
X491290Y574595D02*
D03*
Y549595D02*
D03*
D75*
X702785Y811690D02*
D03*
X690085D02*
D03*
X677385D02*
D03*
X563085D02*
D03*
X550385D02*
D03*
X537685D02*
D03*
X702785Y718980D02*
D03*
X690085D02*
D03*
X677385D02*
D03*
X563085D02*
D03*
X550385D02*
D03*
X537685D02*
D03*
D76*
X592985Y691515D02*
D03*
X563985D02*
D03*
D77*
X773070Y810260D02*
D03*
X728070D02*
D03*
X439060Y745490D02*
D03*
X394060D02*
D03*
D78*
X1069850Y122555D02*
D03*
X1038350D02*
D03*
X1238125Y191135D02*
D03*
X1206625D02*
D03*
D79*
X1210310Y325860D02*
D03*
Y354860D02*
D03*
D80*
X1168325Y145415D02*
D03*
X1238325D02*
D03*
D81*
X1326515Y144950D02*
D03*
X1326515Y197950D02*
D03*
D82*
X1276985Y167130D02*
D03*
Y198630D02*
D03*
D83*
X1134045Y57785D02*
D03*
X1237045D02*
D03*
D84*
X1041365Y704215D02*
D03*
Y716915D02*
D03*
Y729615D02*
D03*
Y742315D02*
D03*
X989365Y704215D02*
D03*
Y716915D02*
D03*
Y729615D02*
D03*
Y742315D02*
D03*
X939765Y704215D02*
D03*
Y716915D02*
D03*
Y729615D02*
D03*
Y742315D02*
D03*
X887765Y704215D02*
D03*
Y716915D02*
D03*
Y729615D02*
D03*
Y742315D02*
D03*
X838165Y704215D02*
D03*
Y716915D02*
D03*
Y729615D02*
D03*
Y742315D02*
D03*
X786165Y704215D02*
D03*
Y716915D02*
D03*
Y729615D02*
D03*
Y742315D02*
D03*
X1143139Y704215D02*
D03*
Y716915D02*
D03*
Y729615D02*
D03*
Y742315D02*
D03*
X1091139Y704215D02*
D03*
Y716915D02*
D03*
Y729615D02*
D03*
Y742315D02*
D03*
D85*
X1138925Y258225D02*
D03*
D86*
X1237925Y296325D02*
D03*
Y283625D02*
D03*
Y270925D02*
D03*
Y258225D02*
D03*
Y245525D02*
D03*
Y232825D02*
D03*
Y220125D02*
D03*
D87*
X512445Y767745D02*
D03*
Y739745D02*
D03*
X494665Y767745D02*
D03*
Y739745D02*
D03*
D88*
X418513Y566418D02*
D03*
X499275Y608735D02*
D03*
X354495Y604925D02*
D03*
D89*
X740410Y680720D02*
D03*
X953135D02*
D03*
X976630D02*
D03*
X1189355D02*
D03*
D90*
X1024255Y490855D02*
D03*
Y465455D02*
D03*
X998855Y490855D02*
D03*
Y465455D02*
D03*
X973455Y490855D02*
D03*
Y465455D02*
D03*
X948055Y490855D02*
D03*
Y465455D02*
D03*
X922655Y490855D02*
D03*
Y465455D02*
D03*
X897255Y490855D02*
D03*
Y465455D02*
D03*
X871855Y490855D02*
D03*
Y465455D02*
D03*
X846455D02*
D03*
X694055Y490855D02*
D03*
X719455Y465455D02*
D03*
Y490855D02*
D03*
X744855Y465455D02*
D03*
Y490855D02*
D03*
X770255Y465455D02*
D03*
Y490855D02*
D03*
X795655Y465455D02*
D03*
Y490855D02*
D03*
X821055Y465455D02*
D03*
Y490855D02*
D03*
X846455D02*
D03*
X365760Y404495D02*
D03*
X391160D02*
D03*
X441960D02*
D03*
X467360D02*
D03*
X492760D02*
D03*
X518160D02*
D03*
X543560D02*
D03*
X416560D02*
D03*
X516255Y490855D02*
D03*
X490855D02*
D03*
Y465455D02*
D03*
X465455Y490855D02*
D03*
Y465455D02*
D03*
X440055Y490855D02*
D03*
Y465455D02*
D03*
X516255D02*
D03*
X541655D02*
D03*
Y490855D02*
D03*
X567055Y465455D02*
D03*
Y490855D02*
D03*
X592455Y465455D02*
D03*
Y490855D02*
D03*
X617855Y465455D02*
D03*
Y490855D02*
D03*
X414655D02*
D03*
Y465455D02*
D03*
X389255Y490855D02*
D03*
Y465455D02*
D03*
X363855Y490855D02*
D03*
Y465455D02*
D03*
X338455Y490855D02*
D03*
Y465455D02*
D03*
X313055Y490855D02*
D03*
Y465455D02*
D03*
X287655D02*
D03*
X135255Y490855D02*
D03*
X160655Y465455D02*
D03*
Y490855D02*
D03*
X186055Y465455D02*
D03*
Y490855D02*
D03*
X211455Y465455D02*
D03*
Y490855D02*
D03*
X236855Y465455D02*
D03*
Y490855D02*
D03*
X262255Y465455D02*
D03*
Y490855D02*
D03*
X287655D02*
D03*
X1024890Y403225D02*
D03*
X999490Y428625D02*
D03*
Y403225D02*
D03*
X974090Y428625D02*
D03*
Y403225D02*
D03*
X948690Y428625D02*
D03*
Y403225D02*
D03*
X619760Y291465D02*
D03*
X568960D02*
D03*
X518160D02*
D03*
X772160D02*
D03*
X721360D02*
D03*
X670560D02*
D03*
X822960D02*
D03*
X873760D02*
D03*
X416560D02*
D03*
X467360D02*
D03*
D91*
X694055Y465455D02*
D03*
X568960Y404495D02*
D03*
X135255Y465455D02*
D03*
X1024890Y428625D02*
D03*
X924560Y291465D02*
D03*
D92*
X993725Y347980D02*
D03*
X206425D02*
D03*
X50000Y45000D02*
D03*
Y795000D02*
D03*
X1320000Y45000D02*
D03*
Y795000D02*
D03*
D93*
X250825Y319480D02*
D03*
Y357480D02*
D03*
X238125Y376480D02*
D03*
X276225Y319480D02*
D03*
X263525Y338480D02*
D03*
X276225Y357480D02*
D03*
X263525Y376480D02*
D03*
X301625Y319480D02*
D03*
X288925Y338480D02*
D03*
X301625Y357480D02*
D03*
X288925Y376480D02*
D03*
X377825Y319480D02*
D03*
X365125Y338480D02*
D03*
X377825Y357480D02*
D03*
X365125Y376480D02*
D03*
X403225Y319480D02*
D03*
X390525Y338480D02*
D03*
X403225Y357480D02*
D03*
X390525Y376480D02*
D03*
X428625Y319480D02*
D03*
X415925Y338480D02*
D03*
X428625Y357480D02*
D03*
X415925Y376480D02*
D03*
X454025Y319480D02*
D03*
X441325Y338480D02*
D03*
X454025Y357480D02*
D03*
X441325Y376480D02*
D03*
X479425Y319480D02*
D03*
X466725Y338480D02*
D03*
X479425Y357480D02*
D03*
X466725Y376480D02*
D03*
X504825Y319480D02*
D03*
X492125Y338480D02*
D03*
X504825Y357480D02*
D03*
X492125Y376480D02*
D03*
X530225Y319480D02*
D03*
X517525Y338480D02*
D03*
X530225Y357480D02*
D03*
X517525Y376480D02*
D03*
X555625Y319480D02*
D03*
X542925Y338480D02*
D03*
X555625Y357480D02*
D03*
X542925Y376480D02*
D03*
X631825Y319480D02*
D03*
X619125Y338480D02*
D03*
X631825Y357480D02*
D03*
X619125Y376480D02*
D03*
X657225Y319480D02*
D03*
X644525Y338480D02*
D03*
X657225Y357480D02*
D03*
X644525Y376480D02*
D03*
X682625Y319480D02*
D03*
X669925Y338480D02*
D03*
X682625Y357480D02*
D03*
X669925Y376480D02*
D03*
X708025Y319480D02*
D03*
X695325Y338480D02*
D03*
X708025Y357480D02*
D03*
X695325Y376480D02*
D03*
X733425Y319480D02*
D03*
X720725Y338480D02*
D03*
X733425Y357480D02*
D03*
X720725Y376480D02*
D03*
X758825Y319480D02*
D03*
X746125Y338480D02*
D03*
X758825Y357480D02*
D03*
X746125Y376480D02*
D03*
X784225Y319480D02*
D03*
X771525Y338480D02*
D03*
X784225Y357480D02*
D03*
X771525Y376480D02*
D03*
X809625Y319480D02*
D03*
X796925Y338480D02*
D03*
X809625Y357480D02*
D03*
X796925Y376480D02*
D03*
X835025Y319480D02*
D03*
X822325Y338480D02*
D03*
X835025Y357480D02*
D03*
X822325Y376480D02*
D03*
X860425Y319480D02*
D03*
X847725Y338480D02*
D03*
X860425Y357480D02*
D03*
X847725Y376480D02*
D03*
X885825Y319480D02*
D03*
X873125Y338480D02*
D03*
X885825Y357480D02*
D03*
X873125Y376480D02*
D03*
X911225Y319480D02*
D03*
X898525Y338480D02*
D03*
X911225Y357480D02*
D03*
X898525Y376480D02*
D03*
X936625Y319480D02*
D03*
X923925Y338480D02*
D03*
X936625Y357480D02*
D03*
X923925Y376480D02*
D03*
X962025Y319480D02*
D03*
X949325Y338480D02*
D03*
X962025Y357480D02*
D03*
X949325Y376480D02*
D03*
D94*
X238125Y338480D02*
D03*
D95*
X238760Y788340D02*
D03*
X1061085Y459105D02*
D03*
X1249680D02*
D03*
D96*
X238760Y588340D02*
D03*
X90805Y730885D02*
D03*
X442595Y106680D02*
D03*
X847090D02*
D03*
X240030D02*
D03*
X645160D02*
D03*
X1061085Y433705D02*
D03*
X1249680D02*
D03*
D97*
X116205Y730885D02*
D03*
X417195Y106680D02*
D03*
X821690D02*
D03*
X214630D02*
D03*
X619760D02*
D03*
D98*
X202565Y45085D02*
D03*
X253365D02*
D03*
X405130D02*
D03*
X455930D02*
D03*
X812165D02*
D03*
X862965D02*
D03*
X608330D02*
D03*
X659130D02*
D03*
D99*
X1230630Y598805D02*
D03*
Y623805D02*
D03*
D100*
X1039695Y181610D02*
D03*
X1039060Y256540D02*
D03*
D101*
X1064695Y181610D02*
D03*
X1064060Y256540D02*
D03*
D102*
X70870Y586600D02*
D03*
Y253400D02*
D03*
X1299079Y586600D02*
D03*
Y253400D02*
D03*
D103*
X85070Y516950D02*
D03*
X56670Y503100D02*
D03*
X85070Y489250D02*
D03*
X56670Y475400D02*
D03*
X85070Y461550D02*
D03*
X56670Y447700D02*
D03*
X85070Y433850D02*
D03*
X56670Y420000D02*
D03*
X85070Y406150D02*
D03*
X56670Y392300D02*
D03*
X85070Y378450D02*
D03*
X56670Y364600D02*
D03*
X85070Y350750D02*
D03*
X56670Y336900D02*
D03*
X1313279Y503100D02*
D03*
X1284879Y489250D02*
D03*
X1313279Y475400D02*
D03*
X1284879Y461550D02*
D03*
X1313279Y447700D02*
D03*
X1284879Y433850D02*
D03*
X1313279Y420000D02*
D03*
X1284879Y406150D02*
D03*
X1313279Y392300D02*
D03*
X1284879Y378450D02*
D03*
X1313279Y364600D02*
D03*
X1284879Y350750D02*
D03*
X1313279Y336900D02*
D03*
X1284879Y323050D02*
D03*
D104*
X85070D02*
D03*
X1284879Y516950D02*
D03*
D105*
X1167765Y795020D02*
D03*
X1066165D02*
D03*
X1015365D02*
D03*
X1116965D02*
D03*
X964565D02*
D03*
X913765D02*
D03*
X812165D02*
D03*
X862965D02*
D03*
D106*
X365760Y291465D02*
D03*
X391160D02*
D03*
X594360D02*
D03*
X543560D02*
D03*
X492760D02*
D03*
X746760D02*
D03*
X695960D02*
D03*
X645160D02*
D03*
X797560D02*
D03*
X848360D02*
D03*
X899160D02*
D03*
X441960D02*
D03*
M02*
