%FSLAX44Y44*%
%MOMM*%
G71*
G01*
G75*
G04 Layer_Color=65535*
%ADD10R,1.4000X1.0000*%
%ADD11R,1.0000X1.4000*%
%ADD12R,0.6350X2.5400*%
%ADD13O,1.9500X0.3000*%
%ADD14O,0.3000X1.9500*%
%ADD15O,0.6000X1.8000*%
%ADD16O,0.6000X1.5000*%
%ADD17R,0.6000X1.3970*%
%ADD18R,1.3970X0.6000*%
%ADD19R,1.9000X1.1000*%
%ADD20O,0.6000X2.4000*%
%ADD21R,1.3000X1.8000*%
%ADD22R,1.5000X3.0000*%
%ADD23R,1.0500X1.8000*%
%ADD24R,1.8000X1.3000*%
%ADD25R,2.5000X4.0000*%
%ADD26R,1.2000X3.5000*%
%ADD27R,1.8000X1.0500*%
%ADD28R,3.0000X2.8000*%
%ADD29O,1.8000X0.6000*%
%ADD30R,7.4000X5.7500*%
%ADD31R,3.2000X0.8000*%
%ADD32R,0.6500X1.0500*%
%ADD33C,0.8890*%
%ADD34R,1.4000X0.5080*%
%ADD35C,0.2540*%
%ADD36C,0.7620*%
%ADD37C,0.5080*%
%ADD38C,0.1524*%
%ADD39C,1.5000*%
%ADD40R,1.5000X1.5000*%
%ADD41C,1.4000*%
%ADD42R,1.4000X1.4000*%
%ADD43R,1.5240X1.5240*%
%ADD44C,1.5240*%
%ADD45R,1.5240X1.5240*%
%ADD46O,2.0000X2.5000*%
%ADD47C,1.2000*%
%ADD48R,1.3000X1.3000*%
%ADD49C,1.3000*%
%ADD50C,4.8000*%
%ADD51C,1.6510*%
%ADD52R,1.6510X1.6510*%
%ADD53C,2.5400*%
%ADD54O,1.5100X1.5000*%
%ADD55C,0.8128*%
%ADD56C,1.3970*%
%ADD57R,3.5000X1.2000*%
%ADD58C,0.2500*%
%ADD59C,0.5000*%
%ADD60C,0.6000*%
%ADD61C,0.2000*%
%ADD62C,0.1500*%
%ADD63R,0.5500X1.6000*%
%ADD64R,1.6000X0.5500*%
G36*
X502665Y732245D02*
X486665D01*
Y744745D01*
X490165D01*
Y733245D01*
X499165D01*
Y744745D01*
X502665D01*
Y732245D01*
D02*
G37*
G36*
X520445D02*
X504445D01*
Y744745D01*
X507945D01*
Y733245D01*
X516945D01*
Y744745D01*
X520445D01*
Y732245D01*
D02*
G37*
D35*
X200991Y774731D02*
G03*
X276726Y774662I37769J-108621D01*
G01*
X237495Y771167D02*
G03*
X238127Y771173I1265J-104992D01*
G01*
X1253130Y611305D02*
G03*
X1253130Y611305I-22500J0D01*
G01*
X85000Y795000D02*
G03*
X85000Y795000I-35000J0D01*
G01*
Y45000D02*
G03*
X85000Y45000I-35000J0D01*
G01*
X1355000D02*
G03*
X1355000Y45000I-35000J0D01*
G01*
X1355000Y795000D02*
G03*
X1355000Y795000I-35000J0D01*
G01*
X854075Y144780D02*
X942975D01*
X652145D02*
X818515D01*
X448945D02*
X615315D01*
X246380D02*
X412750D01*
X107950D02*
X210820D01*
X200760Y775395D02*
Y801175D01*
X276760Y774760D02*
Y801175D01*
X200760D02*
X276760D01*
X1240130Y620305D02*
X1249630D01*
X1211380D02*
X1221130D01*
X1211880Y601805D02*
X1225226Y614706D01*
X1236267Y614945D02*
X1249628Y601807D01*
X1211880Y601805D02*
X1220880D01*
X1240130D02*
X1249630D01*
X92075Y426720D02*
X100965Y417830D01*
X852805Y514350D02*
X1076960D01*
X198755Y307975D02*
Y334645D01*
Y307975D02*
X225425Y281305D01*
X198755Y361315D02*
Y405765D01*
X95564Y462601D02*
X111125Y446755D01*
X5080Y463455D02*
X74701D01*
X6512Y433850D02*
X74457D01*
X1076325Y433070D02*
X1233170D01*
X1076325Y459105D02*
X1231900D01*
X942975Y5080D02*
Y144780D01*
X658495Y647700D02*
Y833120D01*
X186690Y417830D02*
X198755Y405765D01*
X100965Y417830D02*
X186690D01*
X319405Y314325D02*
Y417830D01*
X311150Y306070D02*
X319405Y314325D01*
X231775Y306070D02*
X311150D01*
X223520Y314325D02*
X231775Y306070D01*
X223520Y314325D02*
Y422275D01*
X203200Y442595D02*
X223520Y422275D01*
X115285Y442595D02*
X203200D01*
X111125Y446755D02*
X115285Y442595D01*
X354965Y417830D02*
X493395D01*
X344170Y407035D02*
X354965Y417830D01*
X344170Y307975D02*
Y407035D01*
X317500Y281305D02*
X344170Y307975D01*
X225425Y281305D02*
X317500D01*
X5080Y835025D02*
X1364615D01*
X5080Y5080D02*
Y835025D01*
X1364615Y5080D02*
Y835025D01*
X5080Y5080D02*
X1364615D01*
X493395Y417830D02*
X502920Y427355D01*
X650240D01*
X633730Y452120D02*
Y834390D01*
X485140Y452120D02*
X633730D01*
X475615Y442595D02*
X485140Y452120D01*
X344170Y442595D02*
X475615D01*
X650240Y427355D02*
X658495Y435610D01*
Y648335D01*
X319405Y417830D02*
X344170Y442595D01*
X319405Y417830D02*
X323215Y421640D01*
X107950Y5080D02*
Y144780D01*
X928370Y5080D02*
X942975D01*
X953135Y673100D02*
Y676275D01*
X976630Y673100D02*
Y676275D01*
X740410Y673100D02*
Y676275D01*
X1189355Y673100D02*
Y676275D01*
X184785Y139697D02*
Y131233D01*
X186478Y129540D01*
X189863D01*
X191556Y131233D01*
Y139697D01*
X201713Y129540D02*
X194942D01*
X201713Y136311D01*
Y138004D01*
X200020Y139697D01*
X196635D01*
X194942Y138004D01*
X205098D02*
X206791Y139697D01*
X210177D01*
X211870Y138004D01*
Y136311D01*
X210177Y134618D01*
X208484D01*
X210177D01*
X211870Y132926D01*
Y131233D01*
X210177Y129540D01*
X206791D01*
X205098Y131233D01*
X386080Y139697D02*
Y131233D01*
X387773Y129540D01*
X391158D01*
X392851Y131233D01*
Y139697D01*
X403008Y129540D02*
X396237D01*
X403008Y136311D01*
Y138004D01*
X401315Y139697D01*
X397929D01*
X396237Y138004D01*
X413165Y129540D02*
X406393D01*
X413165Y136311D01*
Y138004D01*
X411472Y139697D01*
X408086D01*
X406393Y138004D01*
X592455Y140332D02*
Y131868D01*
X594148Y130175D01*
X597533D01*
X599226Y131868D01*
Y140332D01*
X609383Y130175D02*
X602612D01*
X609383Y136946D01*
Y138639D01*
X607690Y140332D01*
X604305D01*
X602612Y138639D01*
X612768Y130175D02*
X616154D01*
X614461D01*
Y140332D01*
X612768Y138639D01*
X790575Y139697D02*
Y131233D01*
X792268Y129540D01*
X795653D01*
X797346Y131233D01*
Y139697D01*
X807503Y129540D02*
X800732D01*
X807503Y136311D01*
Y138004D01*
X805810Y139697D01*
X802424D01*
X800732Y138004D01*
X810888D02*
X812581Y139697D01*
X815967D01*
X817660Y138004D01*
Y131233D01*
X815967Y129540D01*
X812581D01*
X810888Y131233D01*
Y138004D01*
X1227876Y421637D02*
X1224491D01*
X1226183D01*
Y413173D01*
X1224491Y411480D01*
X1222798D01*
X1221105Y413173D01*
X1238033Y411480D02*
X1231262D01*
X1238033Y418251D01*
Y419944D01*
X1236340Y421637D01*
X1232954D01*
X1231262Y419944D01*
X1241418Y411480D02*
X1244804D01*
X1243111D01*
Y421637D01*
X1241418Y419944D01*
X1076746Y427352D02*
X1073361D01*
X1075053D01*
Y418888D01*
X1073361Y417195D01*
X1071668D01*
X1069975Y418888D01*
X1086903Y417195D02*
X1080132D01*
X1086903Y423966D01*
Y425659D01*
X1085210Y427352D01*
X1081824D01*
X1080132Y425659D01*
X1097060Y417195D02*
X1090288D01*
X1097060Y423966D01*
Y425659D01*
X1095367Y427352D01*
X1091981D01*
X1090288Y425659D01*
X1319570Y634997D02*
X1316185D01*
X1317877D01*
Y626533D01*
X1316185Y624840D01*
X1314492D01*
X1312799Y626533D01*
X1322956Y624840D02*
X1326341D01*
X1324648D01*
Y634997D01*
X1322956Y633304D01*
X589701Y100962D02*
X586316D01*
X588008D01*
Y92498D01*
X586316Y90805D01*
X584623D01*
X582930Y92498D01*
X593087Y100962D02*
X599858D01*
Y99269D01*
X593087Y92498D01*
Y90805D01*
X705485Y700402D02*
Y691938D01*
X707178Y690245D01*
X710563D01*
X712256Y691938D01*
Y700402D01*
X715642Y690245D02*
X719027D01*
X717335D01*
Y700402D01*
X715642Y698709D01*
X724106Y691938D02*
X725798Y690245D01*
X729184D01*
X730877Y691938D01*
Y698709D01*
X729184Y700402D01*
X725798D01*
X724106Y698709D01*
Y697016D01*
X725798Y695323D01*
X730877D01*
X1213911Y681141D02*
X1212218Y679448D01*
Y676063D01*
X1213911Y674370D01*
X1220682D01*
X1222375Y676063D01*
Y679448D01*
X1220682Y681141D01*
X1212218Y684527D02*
Y691298D01*
X1213911D01*
X1220682Y684527D01*
X1222375D01*
X1213911Y694683D02*
X1212218Y696376D01*
Y699762D01*
X1213911Y701455D01*
X1215604D01*
X1217297Y699762D01*
X1218989Y701455D01*
X1220682D01*
X1222375Y699762D01*
Y696376D01*
X1220682Y694683D01*
X1218989D01*
X1217297Y696376D01*
X1215604Y694683D01*
X1213911D01*
X1217297Y696376D02*
Y699762D01*
X1267251Y679236D02*
X1265558Y677543D01*
Y674158D01*
X1267251Y672465D01*
X1274022D01*
X1275715Y674158D01*
Y677543D01*
X1274022Y679236D01*
X1265558Y682622D02*
Y689393D01*
X1267251D01*
X1274022Y682622D01*
X1275715D01*
X1265558Y699550D02*
Y692778D01*
X1270637D01*
X1268944Y696164D01*
Y697857D01*
X1270637Y699550D01*
X1274022D01*
X1275715Y697857D01*
Y694471D01*
X1274022Y692778D01*
X948476Y297177D02*
X945091D01*
X946783D01*
Y288713D01*
X945091Y287020D01*
X943398D01*
X941705Y288713D01*
X951862Y287020D02*
X955247D01*
X953555D01*
Y297177D01*
X951862Y295484D01*
X960326D02*
X962018Y297177D01*
X965404D01*
X967097Y295484D01*
Y293791D01*
X965404Y292098D01*
X967097Y290406D01*
Y288713D01*
X965404Y287020D01*
X962018D01*
X960326Y288713D01*
Y290406D01*
X962018Y292098D01*
X960326Y293791D01*
Y295484D01*
X962018Y292098D02*
X965404D01*
X507365Y11430D02*
Y21587D01*
X512443D01*
X514136Y19894D01*
Y16508D01*
X512443Y14816D01*
X507365D01*
X510751D02*
X514136Y11430D01*
X517522D02*
X520907D01*
X519215D01*
Y21587D01*
X517522Y19894D01*
X525986Y11430D02*
X529371D01*
X527678D01*
Y21587D01*
X525986Y19894D01*
X534450D02*
X536142Y21587D01*
X539528D01*
X541221Y19894D01*
Y18201D01*
X539528Y16508D01*
X541221Y14816D01*
Y13123D01*
X539528Y11430D01*
X536142D01*
X534450Y13123D01*
Y14816D01*
X536142Y16508D01*
X534450Y18201D01*
Y19894D01*
X536142Y16508D02*
X539528D01*
X305435Y11430D02*
Y21587D01*
X310513D01*
X312206Y19894D01*
Y16508D01*
X310513Y14816D01*
X305435D01*
X308821D02*
X312206Y11430D01*
X315592D02*
X318977D01*
X317285D01*
Y21587D01*
X315592Y19894D01*
X324056Y11430D02*
X327441D01*
X325748D01*
Y21587D01*
X324056Y19894D01*
X337598Y11430D02*
Y21587D01*
X332520Y16508D01*
X339291D01*
X116205Y56515D02*
Y66672D01*
X121283D01*
X122976Y64979D01*
Y61593D01*
X121283Y59901D01*
X116205D01*
X119591D02*
X122976Y56515D01*
X126362D02*
X129747D01*
X128055D01*
Y66672D01*
X126362Y64979D01*
X134826Y56515D02*
X138211D01*
X136518D01*
Y66672D01*
X134826Y64979D01*
X150061Y56515D02*
X143290D01*
X150061Y63286D01*
Y64979D01*
X148368Y66672D01*
X144982D01*
X143290Y64979D01*
X1257303Y710565D02*
X1265767D01*
X1267460Y712258D01*
Y715643D01*
X1265767Y717336D01*
X1257303D01*
X1267460Y720722D02*
Y724107D01*
Y722414D01*
X1257303D01*
X1258996Y720722D01*
X1267460Y734264D02*
X1257303D01*
X1262382Y729186D01*
Y735957D01*
X1245026Y716701D02*
X1243333Y715008D01*
Y711623D01*
X1245026Y709930D01*
X1251797D01*
X1253490Y711623D01*
Y715008D01*
X1251797Y716701D01*
X1243333Y720087D02*
Y726858D01*
X1245026D01*
X1251797Y720087D01*
X1253490D01*
X1243333Y730243D02*
Y737015D01*
X1245026D01*
X1251797Y730243D01*
X1253490D01*
X1235713Y673735D02*
X1244177D01*
X1245870Y675428D01*
Y678813D01*
X1244177Y680506D01*
X1235713D01*
X1245870Y683892D02*
Y687277D01*
Y685584D01*
X1235713D01*
X1237406Y683892D01*
Y692356D02*
X1235713Y694048D01*
Y697434D01*
X1237406Y699127D01*
X1239099D01*
X1240792Y697434D01*
Y695741D01*
Y697434D01*
X1242484Y699127D01*
X1244177D01*
X1245870Y697434D01*
Y694048D01*
X1244177Y692356D01*
X746128Y181610D02*
X754592D01*
X756285Y183303D01*
Y186688D01*
X754592Y188381D01*
X746128D01*
X756285Y191767D02*
Y195152D01*
Y193459D01*
X746128D01*
X747821Y191767D01*
X756285Y207002D02*
Y200231D01*
X749514Y207002D01*
X747821D01*
X746128Y205309D01*
Y201923D01*
X747821Y200231D01*
X1153798Y733425D02*
X1162262D01*
X1163955Y735118D01*
Y738503D01*
X1162262Y740196D01*
X1153798D01*
Y743582D02*
Y750353D01*
X1155491D01*
X1162262Y743582D01*
X1163955D01*
X1206921Y786127D02*
X1203536D01*
X1205228D01*
Y777663D01*
X1203536Y775970D01*
X1201843D01*
X1200150Y777663D01*
X1210307Y775970D02*
X1213692D01*
X1212000D01*
Y786127D01*
X1210307Y784434D01*
X1218771D02*
X1220463Y786127D01*
X1223849D01*
X1225542Y784434D01*
Y782741D01*
X1223849Y781048D01*
X1222156D01*
X1223849D01*
X1225542Y779356D01*
Y777663D01*
X1223849Y775970D01*
X1220463D01*
X1218771Y777663D01*
X706120Y641985D02*
X695963D01*
Y647063D01*
X697656Y648756D01*
X701042D01*
X702734Y647063D01*
Y641985D01*
Y645371D02*
X706120Y648756D01*
Y652142D02*
Y655527D01*
Y653835D01*
X695963D01*
X697656Y652142D01*
Y660606D02*
X695963Y662298D01*
Y665684D01*
X697656Y667377D01*
X704427D01*
X706120Y665684D01*
Y662298D01*
X704427Y660606D01*
X697656D01*
X695963Y677533D02*
Y670762D01*
X701042D01*
X699349Y674148D01*
Y675841D01*
X701042Y677533D01*
X704427D01*
X706120Y675841D01*
Y672455D01*
X704427Y670762D01*
X694055Y641985D02*
X683898D01*
Y647063D01*
X685591Y648756D01*
X688977D01*
X690669Y647063D01*
Y641985D01*
Y645371D02*
X694055Y648756D01*
Y652142D02*
Y655527D01*
Y653835D01*
X683898D01*
X685591Y652142D01*
Y660606D02*
X683898Y662298D01*
Y665684D01*
X685591Y667377D01*
X692362D01*
X694055Y665684D01*
Y662298D01*
X692362Y660606D01*
X685591D01*
X694055Y675841D02*
X683898D01*
X688977Y670762D01*
Y677533D01*
X715645Y601345D02*
X705488D01*
Y606423D01*
X707181Y608116D01*
X710567D01*
X712259Y606423D01*
Y601345D01*
Y604731D02*
X715645Y608116D01*
X713952Y611502D02*
X715645Y613195D01*
Y616580D01*
X713952Y618273D01*
X707181D01*
X705488Y616580D01*
Y613195D01*
X707181Y611502D01*
X708874D01*
X710567Y613195D01*
Y618273D01*
X713952Y621658D02*
X715645Y623351D01*
Y626737D01*
X713952Y628430D01*
X707181D01*
X705488Y626737D01*
Y623351D01*
X707181Y621658D01*
X708874D01*
X710567Y623351D01*
Y628430D01*
X824021Y648756D02*
X822328Y647063D01*
Y643678D01*
X824021Y641985D01*
X830792D01*
X832485Y643678D01*
Y647063D01*
X830792Y648756D01*
X832485Y657220D02*
X822328D01*
X827407Y652142D01*
Y658913D01*
X822328Y662298D02*
Y669070D01*
X824021D01*
X830792Y662298D01*
X832485D01*
X406560Y778347D02*
Y768190D01*
X413331D01*
X416717Y776654D02*
X418410Y778347D01*
X421795D01*
X423488Y776654D01*
Y774961D01*
X421795Y773268D01*
X420102D01*
X421795D01*
X423488Y771575D01*
Y769883D01*
X421795Y768190D01*
X418410D01*
X416717Y769883D01*
X489588Y778510D02*
X499745D01*
Y783588D01*
X498052Y785281D01*
X491281D01*
X489588Y783588D01*
Y778510D01*
X491281Y788667D02*
X489588Y790359D01*
Y793745D01*
X491281Y795438D01*
X492974D01*
X494667Y793745D01*
Y792052D01*
Y793745D01*
X496359Y795438D01*
X498052D01*
X499745Y793745D01*
Y790359D01*
X498052Y788667D01*
X507368Y778510D02*
X517525D01*
Y783588D01*
X515832Y785281D01*
X509061D01*
X507368Y783588D01*
Y778510D01*
X517525Y795438D02*
Y788667D01*
X510754Y795438D01*
X509061D01*
X507368Y793745D01*
Y790359D01*
X509061Y788667D01*
X1110615Y201292D02*
Y192828D01*
X1112308Y191135D01*
X1115693D01*
X1117386Y192828D01*
Y201292D01*
X1120772Y191135D02*
X1124157D01*
X1122465D01*
Y201292D01*
X1120772Y199599D01*
X850903Y721995D02*
X859367D01*
X861060Y723688D01*
Y727073D01*
X859367Y728766D01*
X850903D01*
X861060Y732152D02*
Y735537D01*
Y733845D01*
X850903D01*
X852596Y732152D01*
Y740616D02*
X850903Y742308D01*
Y745694D01*
X852596Y747387D01*
X859367D01*
X861060Y745694D01*
Y742308D01*
X859367Y740616D01*
X852596D01*
X951868Y731520D02*
X960332D01*
X962025Y733213D01*
Y736598D01*
X960332Y738291D01*
X951868D01*
X960332Y741677D02*
X962025Y743370D01*
Y746755D01*
X960332Y748448D01*
X953561D01*
X951868Y746755D01*
Y743370D01*
X953561Y741677D01*
X955254D01*
X956947Y743370D01*
Y748448D01*
X1053468Y733425D02*
X1061932D01*
X1063625Y735118D01*
Y738503D01*
X1061932Y740196D01*
X1053468D01*
X1055161Y743582D02*
X1053468Y745275D01*
Y748660D01*
X1055161Y750353D01*
X1056854D01*
X1058547Y748660D01*
X1060239Y750353D01*
X1061932D01*
X1063625Y748660D01*
Y745275D01*
X1061932Y743582D01*
X1060239D01*
X1058547Y745275D01*
X1056854Y743582D01*
X1055161D01*
X1058547Y745275D02*
Y748660D01*
X1031875Y678815D02*
Y688972D01*
X1036953D01*
X1038646Y687279D01*
Y683893D01*
X1036953Y682201D01*
X1031875D01*
X1035261D02*
X1038646Y678815D01*
X1048803Y688972D02*
X1045417Y687279D01*
X1042032Y683893D01*
Y680508D01*
X1043725Y678815D01*
X1047110D01*
X1048803Y680508D01*
Y682201D01*
X1047110Y683893D01*
X1042032D01*
X1057267Y678815D02*
Y688972D01*
X1052188Y683893D01*
X1058960D01*
X1084580Y680085D02*
Y690242D01*
X1089658D01*
X1091351Y688549D01*
Y685163D01*
X1089658Y683471D01*
X1084580D01*
X1087966D02*
X1091351Y680085D01*
X1094737D02*
X1098122D01*
X1096430D01*
Y690242D01*
X1094737Y688549D01*
X1103201D02*
X1104893Y690242D01*
X1108279D01*
X1109972Y688549D01*
Y686856D01*
X1108279Y685163D01*
X1109972Y683471D01*
Y681778D01*
X1108279Y680085D01*
X1104893D01*
X1103201Y681778D01*
Y683471D01*
X1104893Y685163D01*
X1103201Y686856D01*
Y688549D01*
X1104893Y685163D02*
X1108279D01*
X775335Y678815D02*
X765178D01*
Y683893D01*
X766871Y685586D01*
X770257D01*
X771949Y683893D01*
Y678815D01*
Y682201D02*
X775335Y685586D01*
X765178Y688972D02*
Y695743D01*
X766871D01*
X773642Y688972D01*
X775335D01*
X765178Y699128D02*
Y705900D01*
X766871D01*
X773642Y699128D01*
X775335D01*
X873125Y680720D02*
Y690877D01*
X878203D01*
X879896Y689184D01*
Y685798D01*
X878203Y684106D01*
X873125D01*
X876511D02*
X879896Y680720D01*
X883282Y690877D02*
X890053D01*
Y689184D01*
X883282Y682413D01*
Y680720D01*
X893438D02*
X896824D01*
X895131D01*
Y690877D01*
X893438Y689184D01*
X1058545Y640077D02*
Y631613D01*
X1060238Y629920D01*
X1063623D01*
X1065316Y631613D01*
Y640077D01*
X1075473D02*
X1068702D01*
Y634998D01*
X1072087Y636691D01*
X1073780D01*
X1075473Y634998D01*
Y631613D01*
X1073780Y629920D01*
X1070395D01*
X1068702Y631613D01*
X697865Y516890D02*
X687708D01*
Y521968D01*
X689401Y523661D01*
X692787D01*
X694479Y521968D01*
Y516890D01*
Y520276D02*
X697865Y523661D01*
Y527047D02*
Y530432D01*
Y528740D01*
X687708D01*
X689401Y527047D01*
Y535511D02*
X687708Y537203D01*
Y540589D01*
X689401Y542282D01*
X696172D01*
X697865Y540589D01*
Y537203D01*
X696172Y535511D01*
X689401D01*
Y545667D02*
X687708Y547360D01*
Y550746D01*
X689401Y552439D01*
X691094D01*
X692787Y550746D01*
X694479Y552439D01*
X696172D01*
X697865Y550746D01*
Y547360D01*
X696172Y545667D01*
X694479D01*
X692787Y547360D01*
X691094Y545667D01*
X689401D01*
X692787Y547360D02*
Y550746D01*
X722630Y516255D02*
X712473D01*
Y521333D01*
X714166Y523026D01*
X717552D01*
X719244Y521333D01*
Y516255D01*
Y519641D02*
X722630Y523026D01*
Y526412D02*
Y529797D01*
Y528105D01*
X712473D01*
X714166Y526412D01*
Y534876D02*
X712473Y536568D01*
Y539954D01*
X714166Y541647D01*
X720937D01*
X722630Y539954D01*
Y536568D01*
X720937Y534876D01*
X714166D01*
X712473Y545032D02*
Y551804D01*
X714166D01*
X720937Y545032D01*
X722630D01*
X673735Y516890D02*
X663578D01*
Y521968D01*
X665271Y523661D01*
X668657D01*
X670349Y521968D01*
Y516890D01*
Y520276D02*
X673735Y523661D01*
Y527047D02*
Y530432D01*
Y528740D01*
X663578D01*
X665271Y527047D01*
Y535511D02*
X663578Y537203D01*
Y540589D01*
X665271Y542282D01*
X672042D01*
X673735Y540589D01*
Y537203D01*
X672042Y535511D01*
X665271D01*
X663578Y552439D02*
X665271Y549053D01*
X668657Y545667D01*
X672042D01*
X673735Y547360D01*
Y550746D01*
X672042Y552439D01*
X670349D01*
X668657Y550746D01*
Y545667D01*
X728980Y557530D02*
X718823D01*
Y562608D01*
X720516Y564301D01*
X723902D01*
X725594Y562608D01*
Y557530D01*
Y560916D02*
X728980Y564301D01*
Y567687D02*
Y571072D01*
Y569380D01*
X718823D01*
X720516Y567687D01*
Y576151D02*
X718823Y577843D01*
Y581229D01*
X720516Y582922D01*
X727287D01*
X728980Y581229D01*
Y577843D01*
X727287Y576151D01*
X720516D01*
X728980Y586307D02*
Y589693D01*
Y588000D01*
X718823D01*
X720516Y586307D01*
X715645Y557530D02*
X705488D01*
Y562608D01*
X707181Y564301D01*
X710567D01*
X712259Y562608D01*
Y557530D01*
Y560916D02*
X715645Y564301D01*
Y567687D02*
Y571072D01*
Y569380D01*
X705488D01*
X707181Y567687D01*
Y576151D02*
X705488Y577843D01*
Y581229D01*
X707181Y582922D01*
X713952D01*
X715645Y581229D01*
Y577843D01*
X713952Y576151D01*
X707181D01*
Y586307D02*
X705488Y588000D01*
Y591386D01*
X707181Y593078D01*
X713952D01*
X715645Y591386D01*
Y588000D01*
X713952Y586307D01*
X707181D01*
X1077595Y476885D02*
X1067438D01*
Y481963D01*
X1069131Y483656D01*
X1072517D01*
X1074209Y481963D01*
Y476885D01*
Y480271D02*
X1077595Y483656D01*
X1075902Y487042D02*
X1077595Y488735D01*
Y492120D01*
X1075902Y493813D01*
X1069131D01*
X1067438Y492120D01*
Y488735D01*
X1069131Y487042D01*
X1070824D01*
X1072517Y488735D01*
Y493813D01*
X1067438Y503970D02*
Y497198D01*
X1072517D01*
X1070824Y500584D01*
Y502277D01*
X1072517Y503970D01*
X1075902D01*
X1077595Y502277D01*
Y498891D01*
X1075902Y497198D01*
X1052830Y476885D02*
X1042673D01*
Y481963D01*
X1044366Y483656D01*
X1047752D01*
X1049444Y481963D01*
Y476885D01*
Y480271D02*
X1052830Y483656D01*
X1051137Y487042D02*
X1052830Y488735D01*
Y492120D01*
X1051137Y493813D01*
X1044366D01*
X1042673Y492120D01*
Y488735D01*
X1044366Y487042D01*
X1046059D01*
X1047752Y488735D01*
Y493813D01*
X1052830Y502277D02*
X1042673D01*
X1047752Y497198D01*
Y503970D01*
X1102360Y476885D02*
X1092203D01*
Y481963D01*
X1093896Y483656D01*
X1097282D01*
X1098974Y481963D01*
Y476885D01*
Y480271D02*
X1102360Y483656D01*
X1100667Y487042D02*
X1102360Y488735D01*
Y492120D01*
X1100667Y493813D01*
X1093896D01*
X1092203Y492120D01*
Y488735D01*
X1093896Y487042D01*
X1095589D01*
X1097282Y488735D01*
Y493813D01*
X1093896Y497198D02*
X1092203Y498891D01*
Y502277D01*
X1093896Y503970D01*
X1095589D01*
X1097282Y502277D01*
Y500584D01*
Y502277D01*
X1098974Y503970D01*
X1100667D01*
X1102360Y502277D01*
Y498891D01*
X1100667Y497198D01*
X869950Y642780D02*
X859793D01*
Y647858D01*
X861486Y649551D01*
X864872D01*
X866564Y647858D01*
Y642780D01*
Y646166D02*
X869950Y649551D01*
X868257Y652937D02*
X869950Y654630D01*
Y658015D01*
X868257Y659708D01*
X861486D01*
X859793Y658015D01*
Y654630D01*
X861486Y652937D01*
X863179D01*
X864872Y654630D01*
Y659708D01*
X869950Y669865D02*
Y663093D01*
X863179Y669865D01*
X861486D01*
X859793Y668172D01*
Y664786D01*
X861486Y663093D01*
X943610Y673100D02*
X933453D01*
Y678178D01*
X935146Y679871D01*
X938532D01*
X940224Y678178D01*
Y673100D01*
Y676486D02*
X943610Y679871D01*
X941917Y683257D02*
X943610Y684949D01*
Y688335D01*
X941917Y690028D01*
X935146D01*
X933453Y688335D01*
Y684949D01*
X935146Y683257D01*
X936839D01*
X938532Y684949D01*
Y690028D01*
X943610Y693413D02*
Y696799D01*
Y695106D01*
X933453D01*
X935146Y693413D01*
X904240Y560705D02*
X894083D01*
Y565783D01*
X895776Y567476D01*
X899162D01*
X900854Y565783D01*
Y560705D01*
Y564091D02*
X904240Y567476D01*
X895776Y570862D02*
X894083Y572555D01*
Y575940D01*
X895776Y577633D01*
X897469D01*
X899162Y575940D01*
X900854Y577633D01*
X902547D01*
X904240Y575940D01*
Y572555D01*
X902547Y570862D01*
X900854D01*
X899162Y572555D01*
X897469Y570862D01*
X895776D01*
X899162Y572555D02*
Y575940D01*
X895776Y581018D02*
X894083Y582711D01*
Y586097D01*
X895776Y587790D01*
X897469D01*
X899162Y586097D01*
X900854Y587790D01*
X902547D01*
X904240Y586097D01*
Y582711D01*
X902547Y581018D01*
X900854D01*
X899162Y582711D01*
X897469Y581018D01*
X895776D01*
X899162Y582711D02*
Y586097D01*
X917575Y560705D02*
X907418D01*
Y565783D01*
X909111Y567476D01*
X912497D01*
X914189Y565783D01*
Y560705D01*
Y564091D02*
X917575Y567476D01*
X909111Y570862D02*
X907418Y572555D01*
Y575940D01*
X909111Y577633D01*
X910804D01*
X912497Y575940D01*
X914189Y577633D01*
X915882D01*
X917575Y575940D01*
Y572555D01*
X915882Y570862D01*
X914189D01*
X912497Y572555D01*
X910804Y570862D01*
X909111D01*
X912497Y572555D02*
Y575940D01*
X907418Y581018D02*
Y587790D01*
X909111D01*
X915882Y581018D01*
X917575D01*
X918210Y601345D02*
X908053D01*
Y606423D01*
X909746Y608116D01*
X913132D01*
X914824Y606423D01*
Y601345D01*
Y604731D02*
X918210Y608116D01*
X909746Y611502D02*
X908053Y613195D01*
Y616580D01*
X909746Y618273D01*
X911439D01*
X913132Y616580D01*
X914824Y618273D01*
X916517D01*
X918210Y616580D01*
Y613195D01*
X916517Y611502D01*
X914824D01*
X913132Y613195D01*
X911439Y611502D01*
X909746D01*
X913132Y613195D02*
Y616580D01*
X908053Y628430D02*
X909746Y625044D01*
X913132Y621658D01*
X916517D01*
X918210Y623351D01*
Y626737D01*
X916517Y628430D01*
X914824D01*
X913132Y626737D01*
Y621658D01*
X960755Y687705D02*
X950598D01*
Y692783D01*
X952291Y694476D01*
X955677D01*
X957369Y692783D01*
Y687705D01*
Y691091D02*
X960755Y694476D01*
X952291Y697862D02*
X950598Y699555D01*
Y702940D01*
X952291Y704633D01*
X953984D01*
X955677Y702940D01*
X957369Y704633D01*
X959062D01*
X960755Y702940D01*
Y699555D01*
X959062Y697862D01*
X957369D01*
X955677Y699555D01*
X953984Y697862D01*
X952291D01*
X955677Y699555D02*
Y702940D01*
X950598Y714790D02*
Y708018D01*
X955677D01*
X953984Y711404D01*
Y713097D01*
X955677Y714790D01*
X959062D01*
X960755Y713097D01*
Y709711D01*
X959062Y708018D01*
X1139825Y476885D02*
X1129668D01*
Y481963D01*
X1131361Y483656D01*
X1134747D01*
X1136439Y481963D01*
Y476885D01*
Y480271D02*
X1139825Y483656D01*
X1131361Y487042D02*
X1129668Y488735D01*
Y492120D01*
X1131361Y493813D01*
X1133054D01*
X1134747Y492120D01*
X1136439Y493813D01*
X1138132D01*
X1139825Y492120D01*
Y488735D01*
X1138132Y487042D01*
X1136439D01*
X1134747Y488735D01*
X1133054Y487042D01*
X1131361D01*
X1134747Y488735D02*
Y492120D01*
X1139825Y503970D02*
Y497198D01*
X1133054Y503970D01*
X1131361D01*
X1129668Y502277D01*
Y498891D01*
X1131361Y497198D01*
X1164590Y476250D02*
X1154433D01*
Y481328D01*
X1156126Y483021D01*
X1159512D01*
X1161204Y481328D01*
Y476250D01*
Y479636D02*
X1164590Y483021D01*
X1156126Y486407D02*
X1154433Y488100D01*
Y491485D01*
X1156126Y493178D01*
X1157819D01*
X1159512Y491485D01*
X1161204Y493178D01*
X1162897D01*
X1164590Y491485D01*
Y488100D01*
X1162897Y486407D01*
X1161204D01*
X1159512Y488100D01*
X1157819Y486407D01*
X1156126D01*
X1159512Y488100D02*
Y491485D01*
X1164590Y496563D02*
Y499949D01*
Y498256D01*
X1154433D01*
X1156126Y496563D01*
X1115060Y476885D02*
X1104903D01*
Y481963D01*
X1106596Y483656D01*
X1109982D01*
X1111674Y481963D01*
Y476885D01*
Y480271D02*
X1115060Y483656D01*
X1106596Y487042D02*
X1104903Y488735D01*
Y492120D01*
X1106596Y493813D01*
X1108289D01*
X1109982Y492120D01*
X1111674Y493813D01*
X1113367D01*
X1115060Y492120D01*
Y488735D01*
X1113367Y487042D01*
X1111674D01*
X1109982Y488735D01*
X1108289Y487042D01*
X1106596D01*
X1109982Y488735D02*
Y492120D01*
X1106596Y497198D02*
X1104903Y498891D01*
Y502277D01*
X1106596Y503970D01*
X1113367D01*
X1115060Y502277D01*
Y498891D01*
X1113367Y497198D01*
X1106596D01*
X1071245Y642780D02*
X1061088D01*
Y647858D01*
X1062781Y649551D01*
X1066167D01*
X1067859Y647858D01*
Y642780D01*
Y646166D02*
X1071245Y649551D01*
X1061088Y652937D02*
Y659708D01*
X1062781D01*
X1069552Y652937D01*
X1071245D01*
X1069552Y663093D02*
X1071245Y664786D01*
Y668172D01*
X1069552Y669865D01*
X1062781D01*
X1061088Y668172D01*
Y664786D01*
X1062781Y663093D01*
X1064474D01*
X1066167Y664786D01*
Y669865D01*
X996315Y672465D02*
X986158D01*
Y677543D01*
X987851Y679236D01*
X991237D01*
X992929Y677543D01*
Y672465D01*
Y675851D02*
X996315Y679236D01*
X986158Y682622D02*
Y689393D01*
X987851D01*
X994622Y682622D01*
X996315D01*
X987851Y692778D02*
X986158Y694471D01*
Y697857D01*
X987851Y699550D01*
X989544D01*
X991237Y697857D01*
X992929Y699550D01*
X994622D01*
X996315Y697857D01*
Y694471D01*
X994622Y692778D01*
X992929D01*
X991237Y694471D01*
X989544Y692778D01*
X987851D01*
X991237Y694471D02*
Y697857D01*
X1033780Y561340D02*
X1023623D01*
Y566418D01*
X1025316Y568111D01*
X1028702D01*
X1030394Y566418D01*
Y561340D01*
Y564726D02*
X1033780Y568111D01*
X1023623Y571497D02*
Y578268D01*
X1025316D01*
X1032087Y571497D01*
X1033780D01*
X1023623Y588425D02*
Y581653D01*
X1028702D01*
X1027009Y585039D01*
Y586732D01*
X1028702Y588425D01*
X1032087D01*
X1033780Y586732D01*
Y583346D01*
X1032087Y581653D01*
X1021715Y561340D02*
X1011558D01*
Y566418D01*
X1013251Y568111D01*
X1016637D01*
X1018329Y566418D01*
Y561340D01*
Y564726D02*
X1021715Y568111D01*
X1011558Y571497D02*
Y578268D01*
X1013251D01*
X1020022Y571497D01*
X1021715D01*
Y586732D02*
X1011558D01*
X1016637Y581653D01*
Y588425D01*
X1021715Y601345D02*
X1011558D01*
Y606423D01*
X1013251Y608116D01*
X1016637D01*
X1018329Y606423D01*
Y601345D01*
Y604731D02*
X1021715Y608116D01*
X1011558Y611502D02*
Y618273D01*
X1013251D01*
X1020022Y611502D01*
X1021715D01*
X1013251Y621658D02*
X1011558Y623351D01*
Y626737D01*
X1013251Y628430D01*
X1014944D01*
X1016637Y626737D01*
Y625044D01*
Y626737D01*
X1018329Y628430D01*
X1020022D01*
X1021715Y626737D01*
Y623351D01*
X1020022Y621658D01*
X977265Y687705D02*
X967108D01*
Y692783D01*
X968801Y694476D01*
X972187D01*
X973879Y692783D01*
Y687705D01*
Y691091D02*
X977265Y694476D01*
X967108Y697862D02*
Y704633D01*
X968801D01*
X975572Y697862D01*
X977265D01*
Y714790D02*
Y708018D01*
X970494Y714790D01*
X968801D01*
X967108Y713097D01*
Y709711D01*
X968801Y708018D01*
X1236345Y520065D02*
X1226188D01*
Y525143D01*
X1227881Y526836D01*
X1231267D01*
X1232959Y525143D01*
Y520065D01*
Y523451D02*
X1236345Y526836D01*
X1226188Y536993D02*
X1227881Y533607D01*
X1231267Y530222D01*
X1234652D01*
X1236345Y531914D01*
Y535300D01*
X1234652Y536993D01*
X1232959D01*
X1231267Y535300D01*
Y530222D01*
X1234652Y540378D02*
X1236345Y542071D01*
Y545457D01*
X1234652Y547150D01*
X1227881D01*
X1226188Y545457D01*
Y542071D01*
X1227881Y540378D01*
X1229574D01*
X1231267Y542071D01*
Y547150D01*
X1211580Y520065D02*
X1201423D01*
Y525143D01*
X1203116Y526836D01*
X1206502D01*
X1208194Y525143D01*
Y520065D01*
Y523451D02*
X1211580Y526836D01*
X1201423Y536993D02*
X1203116Y533607D01*
X1206502Y530222D01*
X1209887D01*
X1211580Y531914D01*
Y535300D01*
X1209887Y536993D01*
X1208194D01*
X1206502Y535300D01*
Y530222D01*
X1203116Y540378D02*
X1201423Y542071D01*
Y545457D01*
X1203116Y547150D01*
X1204809D01*
X1206502Y545457D01*
X1208194Y547150D01*
X1209887D01*
X1211580Y545457D01*
Y542071D01*
X1209887Y540378D01*
X1208194D01*
X1206502Y542071D01*
X1204809Y540378D01*
X1203116D01*
X1206502Y542071D02*
Y545457D01*
X1261110Y519430D02*
X1250953D01*
Y524508D01*
X1252646Y526201D01*
X1256032D01*
X1257724Y524508D01*
Y519430D01*
Y522816D02*
X1261110Y526201D01*
X1250953Y536358D02*
X1252646Y532972D01*
X1256032Y529587D01*
X1259417D01*
X1261110Y531279D01*
Y534665D01*
X1259417Y536358D01*
X1257724D01*
X1256032Y534665D01*
Y529587D01*
X1250953Y539743D02*
Y546515D01*
X1252646D01*
X1259417Y539743D01*
X1261110D01*
X1170940Y673735D02*
X1160783D01*
Y678813D01*
X1162476Y680506D01*
X1165862D01*
X1167554Y678813D01*
Y673735D01*
Y677121D02*
X1170940Y680506D01*
X1160783Y690663D02*
X1162476Y687277D01*
X1165862Y683892D01*
X1169247D01*
X1170940Y685584D01*
Y688970D01*
X1169247Y690663D01*
X1167554D01*
X1165862Y688970D01*
Y683892D01*
X1160783Y700820D02*
Y694048D01*
X1165862D01*
X1164169Y697434D01*
Y699127D01*
X1165862Y700820D01*
X1169247D01*
X1170940Y699127D01*
Y695741D01*
X1169247Y694048D01*
X1140460Y557530D02*
X1130303D01*
Y562608D01*
X1131996Y564301D01*
X1135382D01*
X1137074Y562608D01*
Y557530D01*
Y560916D02*
X1140460Y564301D01*
X1130303Y574458D02*
X1131996Y571072D01*
X1135382Y567687D01*
X1138767D01*
X1140460Y569380D01*
Y572765D01*
X1138767Y574458D01*
X1137074D01*
X1135382Y572765D01*
Y567687D01*
X1140460Y584615D02*
Y577843D01*
X1133689Y584615D01*
X1131996D01*
X1130303Y582922D01*
Y579536D01*
X1131996Y577843D01*
X1153795Y557530D02*
X1143638D01*
Y562608D01*
X1145331Y564301D01*
X1148717D01*
X1150409Y562608D01*
Y557530D01*
Y560916D02*
X1153795Y564301D01*
X1143638Y574458D02*
X1145331Y571072D01*
X1148717Y567687D01*
X1152102D01*
X1153795Y569380D01*
Y572765D01*
X1152102Y574458D01*
X1150409D01*
X1148717Y572765D01*
Y567687D01*
X1153795Y577843D02*
Y581229D01*
Y579536D01*
X1143638D01*
X1145331Y577843D01*
X1153795Y589280D02*
X1143638D01*
Y594358D01*
X1145331Y596051D01*
X1148717D01*
X1150409Y594358D01*
Y589280D01*
Y592666D02*
X1153795Y596051D01*
Y604515D02*
X1143638D01*
X1148717Y599437D01*
Y606208D01*
X1143638Y616365D02*
X1145331Y612979D01*
X1148717Y609593D01*
X1152102D01*
X1153795Y611286D01*
Y614672D01*
X1152102Y616365D01*
X1150409D01*
X1148717Y614672D01*
Y609593D01*
X1209040Y674370D02*
X1198883D01*
Y679448D01*
X1200576Y681141D01*
X1203962D01*
X1205654Y679448D01*
Y674370D01*
Y677756D02*
X1209040Y681141D01*
X1200576Y684527D02*
X1198883Y686219D01*
Y689605D01*
X1200576Y691298D01*
X1202269D01*
X1203962Y689605D01*
Y687912D01*
Y689605D01*
X1205654Y691298D01*
X1207347D01*
X1209040Y689605D01*
Y686219D01*
X1207347Y684527D01*
X1209040Y701455D02*
Y694683D01*
X1202269Y701455D01*
X1200576D01*
X1198883Y699762D01*
Y696376D01*
X1200576Y694683D01*
X701466Y523026D02*
X699773Y521333D01*
Y517948D01*
X701466Y516255D01*
X708237D01*
X709930Y517948D01*
Y521333D01*
X708237Y523026D01*
X709930Y531490D02*
X699773D01*
X704852Y526412D01*
Y533183D01*
X701466Y536568D02*
X699773Y538261D01*
Y541647D01*
X701466Y543340D01*
X703159D01*
X704852Y541647D01*
X706544Y543340D01*
X708237D01*
X709930Y541647D01*
Y538261D01*
X708237Y536568D01*
X706544D01*
X704852Y538261D01*
X703159Y536568D01*
X701466D01*
X704852Y538261D02*
Y541647D01*
X1056431Y483656D02*
X1054738Y481963D01*
Y478578D01*
X1056431Y476885D01*
X1063202D01*
X1064895Y478578D01*
Y481963D01*
X1063202Y483656D01*
X1064895Y492120D02*
X1054738D01*
X1059817Y487042D01*
Y493813D01*
X1056431Y497198D02*
X1054738Y498891D01*
Y502277D01*
X1056431Y503970D01*
X1058124D01*
X1059817Y502277D01*
Y500584D01*
Y502277D01*
X1061509Y503970D01*
X1063202D01*
X1064895Y502277D01*
Y498891D01*
X1063202Y497198D01*
X848786Y649551D02*
X847093Y647858D01*
Y644473D01*
X848786Y642780D01*
X855557D01*
X857250Y644473D01*
Y647858D01*
X855557Y649551D01*
X857250Y658015D02*
X847093D01*
X852172Y652937D01*
Y659708D01*
X857250Y669865D02*
Y663093D01*
X850479Y669865D01*
X848786D01*
X847093Y668172D01*
Y664786D01*
X848786Y663093D01*
X1081196Y483656D02*
X1079503Y481963D01*
Y478578D01*
X1081196Y476885D01*
X1087967D01*
X1089660Y478578D01*
Y481963D01*
X1087967Y483656D01*
X1089660Y492120D02*
X1079503D01*
X1084582Y487042D01*
Y493813D01*
X1089660Y497198D02*
Y500584D01*
Y498891D01*
X1079503D01*
X1081196Y497198D01*
X897046Y608116D02*
X895353Y606423D01*
Y603038D01*
X897046Y601345D01*
X903817D01*
X905510Y603038D01*
Y606423D01*
X903817Y608116D01*
X905510Y616580D02*
X895353D01*
X900432Y611502D01*
Y618273D01*
X897046Y621658D02*
X895353Y623351D01*
Y626737D01*
X897046Y628430D01*
X903817D01*
X905510Y626737D01*
Y623351D01*
X903817Y621658D01*
X897046D01*
X1143426Y483656D02*
X1141733Y481963D01*
Y478578D01*
X1143426Y476885D01*
X1150197D01*
X1151890Y478578D01*
Y481963D01*
X1150197Y483656D01*
X1143426Y487042D02*
X1141733Y488735D01*
Y492120D01*
X1143426Y493813D01*
X1145119D01*
X1146812Y492120D01*
Y490427D01*
Y492120D01*
X1148504Y493813D01*
X1150197D01*
X1151890Y492120D01*
Y488735D01*
X1150197Y487042D01*
Y497198D02*
X1151890Y498891D01*
Y502277D01*
X1150197Y503970D01*
X1143426D01*
X1141733Y502277D01*
Y498891D01*
X1143426Y497198D01*
X1145119D01*
X1146812Y498891D01*
Y503970D01*
X1075481Y649551D02*
X1073788Y647858D01*
Y644473D01*
X1075481Y642780D01*
X1082252D01*
X1083945Y644473D01*
Y647858D01*
X1082252Y649551D01*
X1075481Y652937D02*
X1073788Y654630D01*
Y658015D01*
X1075481Y659708D01*
X1077174D01*
X1078867Y658015D01*
Y656322D01*
Y658015D01*
X1080559Y659708D01*
X1082252D01*
X1083945Y658015D01*
Y654630D01*
X1082252Y652937D01*
X1075481Y663093D02*
X1073788Y664786D01*
Y668172D01*
X1075481Y669865D01*
X1077174D01*
X1078867Y668172D01*
X1080559Y669865D01*
X1082252D01*
X1083945Y668172D01*
Y664786D01*
X1082252Y663093D01*
X1080559D01*
X1078867Y664786D01*
X1077174Y663093D01*
X1075481D01*
X1078867Y664786D02*
Y668172D01*
X1118661Y483656D02*
X1116968Y481963D01*
Y478578D01*
X1118661Y476885D01*
X1125432D01*
X1127125Y478578D01*
Y481963D01*
X1125432Y483656D01*
X1118661Y487042D02*
X1116968Y488735D01*
Y492120D01*
X1118661Y493813D01*
X1120354D01*
X1122047Y492120D01*
Y490427D01*
Y492120D01*
X1123739Y493813D01*
X1125432D01*
X1127125Y492120D01*
Y488735D01*
X1125432Y487042D01*
X1116968Y497198D02*
Y503970D01*
X1118661D01*
X1125432Y497198D01*
X1127125D01*
X1025316Y607481D02*
X1023623Y605788D01*
Y602403D01*
X1025316Y600710D01*
X1032087D01*
X1033780Y602403D01*
Y605788D01*
X1032087Y607481D01*
X1025316Y610867D02*
X1023623Y612560D01*
Y615945D01*
X1025316Y617638D01*
X1027009D01*
X1028702Y615945D01*
Y614252D01*
Y615945D01*
X1030394Y617638D01*
X1032087D01*
X1033780Y615945D01*
Y612560D01*
X1032087Y610867D01*
X1023623Y627795D02*
X1025316Y624409D01*
X1028702Y621023D01*
X1032087D01*
X1033780Y622716D01*
Y626102D01*
X1032087Y627795D01*
X1030394D01*
X1028702Y626102D01*
Y621023D01*
X1131996Y596686D02*
X1130303Y594993D01*
Y591608D01*
X1131996Y589915D01*
X1138767D01*
X1140460Y591608D01*
Y594993D01*
X1138767Y596686D01*
X1140460Y600072D02*
Y603457D01*
Y601764D01*
X1130303D01*
X1131996Y600072D01*
X1140460Y615307D02*
Y608536D01*
X1133689Y615307D01*
X1131996D01*
X1130303Y613614D01*
Y610228D01*
X1131996Y608536D01*
X1114425Y23492D02*
Y13335D01*
X1121196D01*
X1124582D02*
X1127967D01*
X1126274D01*
Y23492D01*
X1124582Y21799D01*
X1041403Y401741D02*
Y398356D01*
Y400048D01*
X1049867D01*
X1051560Y398356D01*
Y396663D01*
X1049867Y394970D01*
X1051560Y410205D02*
X1041403D01*
X1046482Y405127D01*
Y411898D01*
X248285Y267335D02*
Y277492D01*
X253363D01*
X255056Y275799D01*
Y272413D01*
X253363Y270721D01*
X248285D01*
X251671D02*
X255056Y267335D01*
X265213Y277492D02*
X258442D01*
Y272413D01*
X261827Y274106D01*
X263520D01*
X265213Y272413D01*
Y269028D01*
X263520Y267335D01*
X260135D01*
X258442Y269028D01*
X275370Y267335D02*
X268598D01*
X275370Y274106D01*
Y275799D01*
X273677Y277492D01*
X270291D01*
X268598Y275799D01*
X247015Y182245D02*
Y192402D01*
X252093D01*
X253786Y190709D01*
Y187323D01*
X252093Y185631D01*
X247015D01*
X250401D02*
X253786Y182245D01*
X263943Y192402D02*
X257172D01*
Y187323D01*
X260557Y189016D01*
X262250D01*
X263943Y187323D01*
Y183938D01*
X262250Y182245D01*
X258864D01*
X257172Y183938D01*
X267328Y182245D02*
X270714D01*
X269021D01*
Y192402D01*
X267328Y190709D01*
X278765Y182245D02*
Y192402D01*
X283843D01*
X285536Y190709D01*
Y187323D01*
X283843Y185631D01*
X278765D01*
X282151D02*
X285536Y182245D01*
X295693Y192402D02*
X288922D01*
Y187323D01*
X292307Y189016D01*
X294000D01*
X295693Y187323D01*
Y183938D01*
X294000Y182245D01*
X290614D01*
X288922Y183938D01*
X299078Y190709D02*
X300771Y192402D01*
X304157D01*
X305850Y190709D01*
Y189016D01*
X304157Y187323D01*
X305850Y185631D01*
Y183938D01*
X304157Y182245D01*
X300771D01*
X299078Y183938D01*
Y185631D01*
X300771Y187323D01*
X299078Y189016D01*
Y190709D01*
X300771Y187323D02*
X304157D01*
X177165Y240665D02*
X167008D01*
Y245743D01*
X168701Y247436D01*
X172087D01*
X173779Y245743D01*
Y240665D01*
Y244051D02*
X177165Y247436D01*
X167008Y257593D02*
Y250822D01*
X172087D01*
X170394Y254207D01*
Y255900D01*
X172087Y257593D01*
X175472D01*
X177165Y255900D01*
Y252514D01*
X175472Y250822D01*
X167008Y267750D02*
X168701Y264364D01*
X172087Y260978D01*
X175472D01*
X177165Y262671D01*
Y266057D01*
X175472Y267750D01*
X173779D01*
X172087Y266057D01*
Y260978D01*
X310515Y113665D02*
X300358D01*
Y118743D01*
X302051Y120436D01*
X305437D01*
X307129Y118743D01*
Y113665D01*
Y117051D02*
X310515Y120436D01*
X300358Y130593D02*
Y123822D01*
X305437D01*
X303744Y127207D01*
Y128900D01*
X305437Y130593D01*
X308822D01*
X310515Y128900D01*
Y125514D01*
X308822Y123822D01*
X300358Y133978D02*
Y140750D01*
X302051D01*
X308822Y133978D01*
X310515D01*
X355600Y227330D02*
Y237487D01*
X360678D01*
X362371Y235794D01*
Y232408D01*
X360678Y230716D01*
X355600D01*
X358986D02*
X362371Y227330D01*
X370835D02*
Y237487D01*
X365757Y232408D01*
X372528D01*
X382685Y237487D02*
X375913D01*
Y232408D01*
X379299Y234101D01*
X380992D01*
X382685Y232408D01*
Y229023D01*
X380992Y227330D01*
X377606D01*
X375913Y229023D01*
X379730Y241935D02*
X369573D01*
Y247013D01*
X371266Y248706D01*
X374652D01*
X376344Y247013D01*
Y241935D01*
Y245321D02*
X379730Y248706D01*
Y257170D02*
X369573D01*
X374652Y252092D01*
Y258863D01*
X379730Y269020D02*
Y262248D01*
X372959Y269020D01*
X371266D01*
X369573Y267327D01*
Y263941D01*
X371266Y262248D01*
X917575Y113665D02*
X907418D01*
Y118743D01*
X909111Y120436D01*
X912497D01*
X914189Y118743D01*
Y113665D01*
Y117051D02*
X917575Y120436D01*
Y130593D02*
Y123822D01*
X910804Y130593D01*
X909111D01*
X907418Y128900D01*
Y125514D01*
X909111Y123822D01*
X915882Y133978D02*
X917575Y135671D01*
Y139057D01*
X915882Y140750D01*
X909111D01*
X907418Y139057D01*
Y135671D01*
X909111Y133978D01*
X910804D01*
X912497Y135671D01*
Y140750D01*
X762635Y227330D02*
Y237487D01*
X767713D01*
X769406Y235794D01*
Y232408D01*
X767713Y230716D01*
X762635D01*
X766021D02*
X769406Y227330D01*
X772792Y235794D02*
X774484Y237487D01*
X777870D01*
X779563Y235794D01*
Y234101D01*
X777870Y232408D01*
X776177D01*
X777870D01*
X779563Y230716D01*
Y229023D01*
X777870Y227330D01*
X774484D01*
X772792Y229023D01*
X782948Y227330D02*
X786334D01*
X784641D01*
Y237487D01*
X782948Y235794D01*
X450215Y182245D02*
Y192402D01*
X455293D01*
X456986Y190709D01*
Y187323D01*
X455293Y185631D01*
X450215D01*
X453601D02*
X456986Y182245D01*
X460372Y190709D02*
X462065Y192402D01*
X465450D01*
X467143Y190709D01*
Y189016D01*
X465450Y187323D01*
X463757D01*
X465450D01*
X467143Y185631D01*
Y183938D01*
X465450Y182245D01*
X462065D01*
X460372Y183938D01*
X470528Y192402D02*
X477300D01*
Y190709D01*
X470528Y183938D01*
Y182245D01*
X448945Y266065D02*
Y276222D01*
X454023D01*
X455716Y274529D01*
Y271143D01*
X454023Y269451D01*
X448945D01*
X452331D02*
X455716Y266065D01*
X459102Y274529D02*
X460794Y276222D01*
X464180D01*
X465873Y274529D01*
Y272836D01*
X464180Y271143D01*
X462487D01*
X464180D01*
X465873Y269451D01*
Y267758D01*
X464180Y266065D01*
X460794D01*
X459102Y267758D01*
X469258Y274529D02*
X470951Y276222D01*
X474337D01*
X476030Y274529D01*
Y272836D01*
X474337Y271143D01*
X476030Y269451D01*
Y267758D01*
X474337Y266065D01*
X470951D01*
X469258Y267758D01*
Y269451D01*
X470951Y271143D01*
X469258Y272836D01*
Y274529D01*
X470951Y271143D02*
X474337D01*
X513080Y113665D02*
X502923D01*
Y118743D01*
X504616Y120436D01*
X508002D01*
X509694Y118743D01*
Y113665D01*
Y117051D02*
X513080Y120436D01*
Y128900D02*
X502923D01*
X508002Y123822D01*
Y130593D01*
X504616Y133978D02*
X502923Y135671D01*
Y139057D01*
X504616Y140750D01*
X506309D01*
X508002Y139057D01*
Y137364D01*
Y139057D01*
X509694Y140750D01*
X511387D01*
X513080Y139057D01*
Y135671D01*
X511387Y133978D01*
X784225Y240030D02*
X774068D01*
Y245108D01*
X775761Y246801D01*
X779147D01*
X780839Y245108D01*
Y240030D01*
Y243416D02*
X784225Y246801D01*
Y256958D02*
Y250187D01*
X777454Y256958D01*
X775761D01*
X774068Y255265D01*
Y251880D01*
X775761Y250187D01*
Y260343D02*
X774068Y262036D01*
Y265422D01*
X775761Y267115D01*
X777454D01*
X779147Y265422D01*
X780839Y267115D01*
X782532D01*
X784225Y265422D01*
Y262036D01*
X782532Y260343D01*
X780839D01*
X779147Y262036D01*
X777454Y260343D01*
X775761D01*
X779147Y262036D02*
Y265422D01*
X857250Y266700D02*
Y276857D01*
X862328D01*
X864021Y275164D01*
Y271778D01*
X862328Y270086D01*
X857250D01*
X860636D02*
X864021Y266700D01*
X874178D02*
X867407D01*
X874178Y273471D01*
Y275164D01*
X872485Y276857D01*
X869100D01*
X867407Y275164D01*
X882642Y266700D02*
Y276857D01*
X877563Y271778D01*
X884335D01*
X750570Y113665D02*
X740413D01*
Y118743D01*
X742106Y120436D01*
X745492D01*
X747184Y118743D01*
Y113665D01*
Y117051D02*
X750570Y120436D01*
Y130593D02*
Y123822D01*
X743799Y130593D01*
X742106D01*
X740413Y128900D01*
Y125514D01*
X742106Y123822D01*
X750570Y140750D02*
Y133978D01*
X743799Y140750D01*
X742106D01*
X740413Y139057D01*
Y135671D01*
X742106Y133978D01*
X714375Y113030D02*
X704218D01*
Y118108D01*
X705911Y119801D01*
X709297D01*
X710989Y118108D01*
Y113030D01*
Y116416D02*
X714375Y119801D01*
Y123187D02*
Y126572D01*
Y124880D01*
X704218D01*
X705911Y123187D01*
X704218Y138422D02*
Y131651D01*
X709297D01*
X707604Y135036D01*
Y136729D01*
X709297Y138422D01*
X712682D01*
X714375Y136729D01*
Y133343D01*
X712682Y131651D01*
X581025Y241935D02*
X570868D01*
Y247013D01*
X572561Y248706D01*
X575947D01*
X577639Y247013D01*
Y241935D01*
Y245321D02*
X581025Y248706D01*
Y252092D02*
Y255477D01*
Y253785D01*
X570868D01*
X572561Y252092D01*
X570868Y260556D02*
Y267327D01*
X572561D01*
X579332Y260556D01*
X581025D01*
X611505Y276222D02*
Y267758D01*
X613198Y266065D01*
X616583D01*
X618276Y267758D01*
Y276222D01*
X621662Y274529D02*
X623354Y276222D01*
X626740D01*
X628433Y274529D01*
Y272836D01*
X626740Y271143D01*
X625047D01*
X626740D01*
X628433Y269451D01*
Y267758D01*
X626740Y266065D01*
X623354D01*
X621662Y267758D01*
X1188506Y194519D02*
X1186813Y196212D01*
X1183428D01*
X1181735Y194519D01*
Y187748D01*
X1183428Y186055D01*
X1186813D01*
X1188506Y187748D01*
X1191892Y186055D02*
X1195277D01*
X1193585D01*
Y196212D01*
X1191892Y194519D01*
X1276771Y147529D02*
X1275078Y149222D01*
X1271693D01*
X1270000Y147529D01*
Y140758D01*
X1271693Y139065D01*
X1275078D01*
X1276771Y140758D01*
X1280157Y147529D02*
X1281850Y149222D01*
X1285235D01*
X1286928Y147529D01*
Y145836D01*
X1285235Y144143D01*
X1283542D01*
X1285235D01*
X1286928Y142451D01*
Y140758D01*
X1285235Y139065D01*
X1281850D01*
X1280157Y140758D01*
X1016421Y297389D02*
X1014728Y299082D01*
X1011343D01*
X1009650Y297389D01*
Y290618D01*
X1011343Y288925D01*
X1014728D01*
X1016421Y290618D01*
X1026578Y299082D02*
X1023192Y297389D01*
X1019807Y294003D01*
Y290618D01*
X1021499Y288925D01*
X1024885D01*
X1026578Y290618D01*
Y292311D01*
X1024885Y294003D01*
X1019807D01*
X495721Y275004D02*
X494028Y276697D01*
X490643D01*
X488950Y275004D01*
Y268233D01*
X490643Y266540D01*
X494028D01*
X495721Y268233D01*
X499107Y276697D02*
X505878D01*
Y275004D01*
X499107Y268233D01*
Y266540D01*
X514342D02*
Y276697D01*
X509263Y271618D01*
X516035D01*
X589701Y191344D02*
X588008Y193037D01*
X584623D01*
X582930Y191344D01*
Y184573D01*
X584623Y182880D01*
X588008D01*
X589701Y184573D01*
X593087Y182880D02*
X596472D01*
X594780D01*
Y193037D01*
X593087Y191344D01*
X601551Y182880D02*
X604936D01*
X603243D01*
Y193037D01*
X601551Y191344D01*
X718611Y119801D02*
X716918Y118108D01*
Y114723D01*
X718611Y113030D01*
X725382D01*
X727075Y114723D01*
Y118108D01*
X725382Y119801D01*
X727075Y123187D02*
Y126572D01*
Y124880D01*
X716918D01*
X718611Y123187D01*
Y131651D02*
X716918Y133343D01*
Y136729D01*
X718611Y138422D01*
X725382D01*
X727075Y136729D01*
Y133343D01*
X725382Y131651D01*
X718611D01*
X79161Y215897D02*
X75776D01*
X77468D01*
Y207433D01*
X75776Y205740D01*
X74083D01*
X72390Y207433D01*
X89318Y205740D02*
X82547D01*
X89318Y212511D01*
Y214204D01*
X87625Y215897D01*
X84240D01*
X82547Y214204D01*
X297815Y113665D02*
X287658D01*
Y118743D01*
X289351Y120436D01*
X292737D01*
X294429Y118743D01*
Y113665D01*
Y117051D02*
X297815Y120436D01*
X287658Y130593D02*
Y123822D01*
X292737D01*
X291044Y127207D01*
Y128900D01*
X292737Y130593D01*
X296122D01*
X297815Y128900D01*
Y125514D01*
X296122Y123822D01*
X287658Y140750D02*
Y133978D01*
X292737D01*
X291044Y137364D01*
Y139057D01*
X292737Y140750D01*
X296122D01*
X297815Y139057D01*
Y135671D01*
X296122Y133978D01*
X302895Y46355D02*
Y56512D01*
X307973D01*
X309666Y54819D01*
Y51433D01*
X307973Y49741D01*
X302895D01*
X306281D02*
X309666Y46355D01*
X319823Y56512D02*
X313052D01*
Y51433D01*
X316437Y53126D01*
X318130D01*
X319823Y51433D01*
Y48048D01*
X318130Y46355D01*
X314744D01*
X313052Y48048D01*
X328287Y46355D02*
Y56512D01*
X323208Y51433D01*
X329980D01*
X305435Y80645D02*
Y90802D01*
X310513D01*
X312206Y89109D01*
Y85723D01*
X310513Y84031D01*
X305435D01*
X308821D02*
X312206Y80645D01*
X322363Y90802D02*
X315592D01*
Y85723D01*
X318977Y87416D01*
X320670D01*
X322363Y85723D01*
Y82338D01*
X320670Y80645D01*
X317285D01*
X315592Y82338D01*
X325748Y89109D02*
X327441Y90802D01*
X330827D01*
X332520Y89109D01*
Y87416D01*
X330827Y85723D01*
X329134D01*
X330827D01*
X332520Y84031D01*
Y82338D01*
X330827Y80645D01*
X327441D01*
X325748Y82338D01*
X167640Y113665D02*
X157483D01*
Y118743D01*
X159176Y120436D01*
X162562D01*
X164254Y118743D01*
Y113665D01*
Y117051D02*
X167640Y120436D01*
Y128900D02*
X157483D01*
X162562Y123822D01*
Y130593D01*
X165947Y133978D02*
X167640Y135671D01*
Y139057D01*
X165947Y140750D01*
X159176D01*
X157483Y139057D01*
Y135671D01*
X159176Y133978D01*
X160869D01*
X162562Y135671D01*
Y140750D01*
X121920Y91440D02*
Y101597D01*
X126998D01*
X128691Y99904D01*
Y96518D01*
X126998Y94826D01*
X121920D01*
X125306D02*
X128691Y91440D01*
X137155D02*
Y101597D01*
X132077Y96518D01*
X138848D01*
X142233Y99904D02*
X143926Y101597D01*
X147312D01*
X149005Y99904D01*
Y98211D01*
X147312Y96518D01*
X149005Y94826D01*
Y93133D01*
X147312Y91440D01*
X143926D01*
X142233Y93133D01*
Y94826D01*
X143926Y96518D01*
X142233Y98211D01*
Y99904D01*
X143926Y96518D02*
X147312D01*
X500380Y113665D02*
X490223D01*
Y118743D01*
X491916Y120436D01*
X495302D01*
X496994Y118743D01*
Y113665D01*
Y117051D02*
X500380Y120436D01*
Y128900D02*
X490223D01*
X495302Y123822D01*
Y130593D01*
X500380Y133978D02*
Y137364D01*
Y135671D01*
X490223D01*
X491916Y133978D01*
X508000Y80645D02*
Y90802D01*
X513078D01*
X514771Y89109D01*
Y85723D01*
X513078Y84031D01*
X508000D01*
X511386D02*
X514771Y80645D01*
X523235D02*
Y90802D01*
X518157Y85723D01*
X524928D01*
X528313Y89109D02*
X530006Y90802D01*
X533392D01*
X535085Y89109D01*
Y82338D01*
X533392Y80645D01*
X530006D01*
X528313Y82338D01*
Y89109D01*
X508000Y45720D02*
Y55877D01*
X513078D01*
X514771Y54184D01*
Y50798D01*
X513078Y49106D01*
X508000D01*
X511386D02*
X514771Y45720D01*
X518157Y54184D02*
X519850Y55877D01*
X523235D01*
X524928Y54184D01*
Y52491D01*
X523235Y50798D01*
X521542D01*
X523235D01*
X524928Y49106D01*
Y47413D01*
X523235Y45720D01*
X519850D01*
X518157Y47413D01*
X528313D02*
X530006Y45720D01*
X533392D01*
X535085Y47413D01*
Y54184D01*
X533392Y55877D01*
X530006D01*
X528313Y54184D01*
Y52491D01*
X530006Y50798D01*
X535085D01*
X369570Y113665D02*
X359413D01*
Y118743D01*
X361106Y120436D01*
X364492D01*
X366184Y118743D01*
Y113665D01*
Y117051D02*
X369570Y120436D01*
X361106Y123822D02*
X359413Y125514D01*
Y128900D01*
X361106Y130593D01*
X362799D01*
X364492Y128900D01*
Y127207D01*
Y128900D01*
X366184Y130593D01*
X367877D01*
X369570Y128900D01*
Y125514D01*
X367877Y123822D01*
X359413Y140750D02*
Y133978D01*
X364492D01*
X362799Y137364D01*
Y139057D01*
X364492Y140750D01*
X367877D01*
X369570Y139057D01*
Y135671D01*
X367877Y133978D01*
X326390Y97790D02*
Y107947D01*
X331468D01*
X333161Y106254D01*
Y102868D01*
X331468Y101176D01*
X326390D01*
X329776D02*
X333161Y97790D01*
X336547Y106254D02*
X338240Y107947D01*
X341625D01*
X343318Y106254D01*
Y104561D01*
X341625Y102868D01*
X339932D01*
X341625D01*
X343318Y101176D01*
Y99483D01*
X341625Y97790D01*
X338240D01*
X336547Y99483D01*
X351782Y97790D02*
Y107947D01*
X346703Y102868D01*
X353475D01*
X325120Y31750D02*
Y41907D01*
X330198D01*
X331891Y40214D01*
Y36828D01*
X330198Y35136D01*
X325120D01*
X328506D02*
X331891Y31750D01*
X335277Y40214D02*
X336969Y41907D01*
X340355D01*
X342048Y40214D01*
Y38521D01*
X340355Y36828D01*
X338662D01*
X340355D01*
X342048Y35136D01*
Y33443D01*
X340355Y31750D01*
X336969D01*
X335277Y33443D01*
X345434Y40214D02*
X347126Y41907D01*
X350512D01*
X352205Y40214D01*
Y38521D01*
X350512Y36828D01*
X348819D01*
X350512D01*
X352205Y35136D01*
Y33443D01*
X350512Y31750D01*
X347126D01*
X345434Y33443D01*
X904875Y113665D02*
X894718D01*
Y118743D01*
X896411Y120436D01*
X899797D01*
X901489Y118743D01*
Y113665D01*
Y117051D02*
X904875Y120436D01*
Y130593D02*
Y123822D01*
X898104Y130593D01*
X896411D01*
X894718Y128900D01*
Y125514D01*
X896411Y123822D01*
X894718Y133978D02*
Y140750D01*
X896411D01*
X903182Y133978D01*
X904875D01*
X913765Y90805D02*
Y100962D01*
X918843D01*
X920536Y99269D01*
Y95883D01*
X918843Y94191D01*
X913765D01*
X917151D02*
X920536Y90805D01*
X930693D02*
X923922D01*
X930693Y97576D01*
Y99269D01*
X929000Y100962D01*
X925614D01*
X923922Y99269D01*
X940850Y100962D02*
X937464Y99269D01*
X934078Y95883D01*
Y92498D01*
X935771Y90805D01*
X939157D01*
X940850Y92498D01*
Y94191D01*
X939157Y95883D01*
X934078D01*
X913765Y20320D02*
Y30477D01*
X918843D01*
X920536Y28784D01*
Y25398D01*
X918843Y23706D01*
X913765D01*
X917151D02*
X920536Y20320D01*
X930693D02*
X923922D01*
X930693Y27091D01*
Y28784D01*
X929000Y30477D01*
X925614D01*
X923922Y28784D01*
X940850Y30477D02*
X934078D01*
Y25398D01*
X937464Y27091D01*
X939157D01*
X940850Y25398D01*
Y22013D01*
X939157Y20320D01*
X935771D01*
X934078Y22013D01*
X775970Y113665D02*
X765813D01*
Y118743D01*
X767506Y120436D01*
X770892D01*
X772584Y118743D01*
Y113665D01*
Y117051D02*
X775970Y120436D01*
Y130593D02*
Y123822D01*
X769199Y130593D01*
X767506D01*
X765813Y128900D01*
Y125514D01*
X767506Y123822D01*
X775970Y133978D02*
Y137364D01*
Y135671D01*
X765813D01*
X767506Y133978D01*
X730885Y66675D02*
Y76832D01*
X735963D01*
X737656Y75139D01*
Y71753D01*
X735963Y70061D01*
X730885D01*
X734271D02*
X737656Y66675D01*
X747813D02*
X741042D01*
X747813Y73446D01*
Y75139D01*
X746120Y76832D01*
X742735D01*
X741042Y75139D01*
X751198D02*
X752891Y76832D01*
X756277D01*
X757970Y75139D01*
Y68368D01*
X756277Y66675D01*
X752891D01*
X751198Y68368D01*
Y75139D01*
X732790Y32385D02*
Y42542D01*
X737868D01*
X739561Y40849D01*
Y37463D01*
X737868Y35771D01*
X732790D01*
X736176D02*
X739561Y32385D01*
X742947D02*
X746332D01*
X744640D01*
Y42542D01*
X742947Y40849D01*
X751411Y34078D02*
X753103Y32385D01*
X756489D01*
X758182Y34078D01*
Y40849D01*
X756489Y42542D01*
X753103D01*
X751411Y40849D01*
Y39156D01*
X753103Y37463D01*
X758182D01*
X710565Y79375D02*
Y89532D01*
X715643D01*
X717336Y87839D01*
Y84453D01*
X715643Y82761D01*
X710565D01*
X713951D02*
X717336Y79375D01*
X720722D02*
X724107D01*
X722414D01*
Y89532D01*
X720722Y87839D01*
X729186D02*
X730878Y89532D01*
X734264D01*
X735957Y87839D01*
Y86146D01*
X734264Y84453D01*
X732571D01*
X734264D01*
X735957Y82761D01*
Y81068D01*
X734264Y79375D01*
X730878D01*
X729186Y81068D01*
X1052616Y109429D02*
X1050923Y111122D01*
X1047538D01*
X1045845Y109429D01*
Y102658D01*
X1047538Y100965D01*
X1050923D01*
X1052616Y102658D01*
X1062773Y111122D02*
X1056002D01*
Y106043D01*
X1059387Y107736D01*
X1061080D01*
X1062773Y106043D01*
Y102658D01*
X1061080Y100965D01*
X1057694D01*
X1056002Y102658D01*
X1352336Y130384D02*
X1350643Y132077D01*
X1347258D01*
X1345565Y130384D01*
Y123613D01*
X1347258Y121920D01*
X1350643D01*
X1352336Y123613D01*
X1362493Y121920D02*
X1355722D01*
X1362493Y128691D01*
Y130384D01*
X1360800Y132077D01*
X1357415D01*
X1355722Y130384D01*
X1148715Y122552D02*
Y112395D01*
X1153793D01*
X1155486Y114088D01*
Y120859D01*
X1153793Y122552D01*
X1148715D01*
X1158872Y112395D02*
X1162257D01*
X1160564D01*
Y122552D01*
X1158872Y120859D01*
X1196340Y334010D02*
X1186183D01*
Y339088D01*
X1187876Y340781D01*
X1191262D01*
X1192954Y339088D01*
Y334010D01*
Y337396D02*
X1196340Y340781D01*
Y344167D02*
Y347552D01*
Y345859D01*
X1186183D01*
X1187876Y344167D01*
X1018961Y221189D02*
X1017268Y222882D01*
X1013883D01*
X1012190Y221189D01*
Y214418D01*
X1013883Y212725D01*
X1017268D01*
X1018961Y214418D01*
X1022347Y222882D02*
X1029118D01*
Y221189D01*
X1022347Y214418D01*
Y212725D01*
X742315Y786762D02*
Y776605D01*
X749086D01*
X759243D02*
X752472D01*
X759243Y783376D01*
Y785069D01*
X757550Y786762D01*
X754165D01*
X752472Y785069D01*
X565205Y667860D02*
Y678017D01*
X570283D01*
X571976Y676324D01*
Y672938D01*
X570283Y671245D01*
X565205D01*
X568591D02*
X571976Y667860D01*
X582133Y678017D02*
X578747Y676324D01*
X575362Y672938D01*
Y669553D01*
X577054Y667860D01*
X580440D01*
X582133Y669553D01*
Y671245D01*
X580440Y672938D01*
X575362D01*
X585518Y676324D02*
X587211Y678017D01*
X590597D01*
X592290Y676324D01*
Y669553D01*
X590597Y667860D01*
X587211D01*
X585518Y669553D01*
Y676324D01*
X592295Y820577D02*
Y812113D01*
X593988Y810420D01*
X597373D01*
X599066Y812113D01*
Y820577D01*
X609223Y810420D02*
X602452D01*
X609223Y817191D01*
Y818884D01*
X607530Y820577D01*
X604145D01*
X602452Y818884D01*
X15026Y707599D02*
X13333Y709292D01*
X9948D01*
X8255Y707599D01*
Y700828D01*
X9948Y699135D01*
X13333D01*
X15026Y700828D01*
X25183Y709292D02*
X21797Y707599D01*
X18412Y704213D01*
Y700828D01*
X20104Y699135D01*
X23490D01*
X25183Y700828D01*
Y702521D01*
X23490Y704213D01*
X18412D01*
X35340Y709292D02*
X31954Y707599D01*
X28568Y704213D01*
Y700828D01*
X30261Y699135D01*
X33647D01*
X35340Y700828D01*
Y702521D01*
X33647Y704213D01*
X28568D01*
X662308Y103291D02*
Y99906D01*
Y101598D01*
X670772D01*
X672465Y99906D01*
Y98213D01*
X670772Y96520D01*
X664001Y106677D02*
X662308Y108370D01*
Y111755D01*
X664001Y113448D01*
X665694D01*
X667387Y111755D01*
X669079Y113448D01*
X670772D01*
X672465Y111755D01*
Y108370D01*
X670772Y106677D01*
X669079D01*
X667387Y108370D01*
X665694Y106677D01*
X664001D01*
X667387Y108370D02*
Y111755D01*
X135890Y791210D02*
X125733D01*
Y796288D01*
X127426Y797981D01*
X130812D01*
X132504Y796288D01*
Y791210D01*
Y794596D02*
X135890Y797981D01*
X127426Y801367D02*
X125733Y803059D01*
Y806445D01*
X127426Y808138D01*
X129119D01*
X130812Y806445D01*
X132504Y808138D01*
X134197D01*
X135890Y806445D01*
Y803059D01*
X134197Y801367D01*
X132504D01*
X130812Y803059D01*
X129119Y801367D01*
X127426D01*
X130812Y803059D02*
Y806445D01*
X127426Y811523D02*
X125733Y813216D01*
Y816602D01*
X127426Y818295D01*
X129119D01*
X130812Y816602D01*
Y814909D01*
Y816602D01*
X132504Y818295D01*
X134197D01*
X135890Y816602D01*
Y813216D01*
X134197Y811523D01*
X114300Y792480D02*
X104143D01*
Y797558D01*
X105836Y799251D01*
X109222D01*
X110914Y797558D01*
Y792480D01*
Y795866D02*
X114300Y799251D01*
X105836Y802637D02*
X104143Y804330D01*
Y807715D01*
X105836Y809408D01*
X107529D01*
X109222Y807715D01*
X110914Y809408D01*
X112607D01*
X114300Y807715D01*
Y804330D01*
X112607Y802637D01*
X110914D01*
X109222Y804330D01*
X107529Y802637D01*
X105836D01*
X109222Y804330D02*
Y807715D01*
X114300Y817872D02*
X104143D01*
X109222Y812793D01*
Y819565D01*
X8255Y712470D02*
Y722627D01*
X13333D01*
X15026Y720934D01*
Y717548D01*
X13333Y715856D01*
X8255D01*
X11641D02*
X15026Y712470D01*
X18412Y720934D02*
X20104Y722627D01*
X23490D01*
X25183Y720934D01*
Y719241D01*
X23490Y717548D01*
X25183Y715856D01*
Y714163D01*
X23490Y712470D01*
X20104D01*
X18412Y714163D01*
Y715856D01*
X20104Y717548D01*
X18412Y719241D01*
Y720934D01*
X20104Y717548D02*
X23490D01*
X28568Y714163D02*
X30261Y712470D01*
X33647D01*
X35340Y714163D01*
Y720934D01*
X33647Y722627D01*
X30261D01*
X28568Y720934D01*
Y719241D01*
X30261Y717548D01*
X35340D01*
X8255Y725805D02*
Y735962D01*
X13333D01*
X15026Y734269D01*
Y730883D01*
X13333Y729191D01*
X8255D01*
X11641D02*
X15026Y725805D01*
X18412Y727498D02*
X20104Y725805D01*
X23490D01*
X25183Y727498D01*
Y734269D01*
X23490Y735962D01*
X20104D01*
X18412Y734269D01*
Y732576D01*
X20104Y730883D01*
X25183D01*
X28568Y734269D02*
X30261Y735962D01*
X33647D01*
X35340Y734269D01*
Y727498D01*
X33647Y725805D01*
X30261D01*
X28568Y727498D01*
Y734269D01*
X556086Y576829D02*
X554393Y578522D01*
X551008D01*
X549315Y576829D01*
Y570058D01*
X551008Y568365D01*
X554393D01*
X556086Y570058D01*
X566243Y578522D02*
X562857Y576829D01*
X559472Y573443D01*
Y570058D01*
X561165Y568365D01*
X564550D01*
X566243Y570058D01*
Y571751D01*
X564550Y573443D01*
X559472D01*
X569628Y578522D02*
X576400D01*
Y576829D01*
X569628Y570058D01*
Y568365D01*
X552711Y552819D02*
X551018Y554512D01*
X547633D01*
X545940Y552819D01*
Y546048D01*
X547633Y544355D01*
X551018D01*
X552711Y546048D01*
X562868Y554512D02*
X559482Y552819D01*
X556097Y549433D01*
Y546048D01*
X557789Y544355D01*
X561175D01*
X562868Y546048D01*
Y547741D01*
X561175Y549433D01*
X556097D01*
X566253Y552819D02*
X567946Y554512D01*
X571332D01*
X573025Y552819D01*
Y551126D01*
X571332Y549433D01*
X573025Y547741D01*
Y546048D01*
X571332Y544355D01*
X567946D01*
X566253Y546048D01*
Y547741D01*
X567946Y549433D01*
X566253Y551126D01*
Y552819D01*
X567946Y549433D02*
X571332D01*
X464663Y553880D02*
X466356D01*
X469742Y557266D01*
X466356Y560651D01*
X464663D01*
X469742Y557266D02*
X474820D01*
Y564037D02*
Y567422D01*
Y565729D01*
X464663D01*
X466356Y564037D01*
X122555Y20955D02*
Y31112D01*
X127633D01*
X129326Y29419D01*
Y26033D01*
X127633Y24341D01*
X122555D01*
X125941D02*
X129326Y20955D01*
X137790D02*
Y31112D01*
X132712Y26033D01*
X139483D01*
X142868Y31112D02*
X149640D01*
Y29419D01*
X142868Y22648D01*
Y20955D01*
X1257303Y603885D02*
X1267460D01*
Y608963D01*
X1265767Y610656D01*
X1258996D01*
X1257303Y608963D01*
Y603885D01*
X1258996Y614042D02*
X1257303Y615734D01*
Y619120D01*
X1258996Y620813D01*
X1260689D01*
X1262382Y619120D01*
X1264074Y620813D01*
X1265767D01*
X1267460Y619120D01*
Y615734D01*
X1265767Y614042D01*
X1264074D01*
X1262382Y615734D01*
X1260689Y614042D01*
X1258996D01*
X1262382Y615734D02*
Y619120D01*
X1252855Y554990D02*
X1242698D01*
Y560068D01*
X1244391Y561761D01*
X1247777D01*
X1249469Y560068D01*
Y554990D01*
Y558376D02*
X1252855Y561761D01*
Y565147D02*
Y568532D01*
Y566839D01*
X1242698D01*
X1244391Y565147D01*
Y573611D02*
X1242698Y575303D01*
Y578689D01*
X1244391Y580382D01*
X1251162D01*
X1252855Y578689D01*
Y575303D01*
X1251162Y573611D01*
X1244391D01*
X1252855Y590538D02*
Y583767D01*
X1246084Y590538D01*
X1244391D01*
X1242698Y588846D01*
Y585460D01*
X1244391Y583767D01*
X131866Y553082D02*
X128481D01*
X130173D01*
Y544618D01*
X128481Y542925D01*
X126788D01*
X125095Y544618D01*
X135252Y542925D02*
X138637D01*
X136945D01*
Y553082D01*
X135252Y551389D01*
X148794Y542925D02*
Y553082D01*
X143716Y548003D01*
X150487D01*
X483870Y716280D02*
X473713D01*
Y721358D01*
X475406Y723051D01*
X478792D01*
X480484Y721358D01*
Y716280D01*
Y719666D02*
X483870Y723051D01*
Y726437D02*
Y729822D01*
Y728130D01*
X473713D01*
X475406Y726437D01*
Y734901D02*
X473713Y736593D01*
Y739979D01*
X475406Y741672D01*
X482177D01*
X483870Y739979D01*
Y736593D01*
X482177Y734901D01*
X475406D01*
X482177Y745057D02*
X483870Y746750D01*
Y750136D01*
X482177Y751829D01*
X475406D01*
X473713Y750136D01*
Y746750D01*
X475406Y745057D01*
X477099D01*
X478792Y746750D01*
Y751829D01*
X354116Y773004D02*
X352423Y774697D01*
X349038D01*
X347345Y773004D01*
Y766233D01*
X349038Y764540D01*
X352423D01*
X354116Y766233D01*
X357502Y773004D02*
X359194Y774697D01*
X362580D01*
X364273Y773004D01*
Y771311D01*
X362580Y769618D01*
X364273Y767926D01*
Y766233D01*
X362580Y764540D01*
X359194D01*
X357502Y766233D01*
Y767926D01*
X359194Y769618D01*
X357502Y771311D01*
Y773004D01*
X359194Y769618D02*
X362580D01*
X367658Y774697D02*
X374430D01*
Y773004D01*
X367658Y766233D01*
Y764540D01*
X333378Y730250D02*
X341842D01*
X343535Y731943D01*
Y735328D01*
X341842Y737021D01*
X333378D01*
X343535Y740407D02*
Y743792D01*
Y742100D01*
X333378D01*
X335071Y740407D01*
X333378Y755642D02*
Y748871D01*
X338457D01*
X336764Y752256D01*
Y753949D01*
X338457Y755642D01*
X341842D01*
X343535Y753949D01*
Y750563D01*
X341842Y748871D01*
X792266Y101597D02*
X788881D01*
X790573D01*
Y93133D01*
X788881Y91440D01*
X787188D01*
X785495Y93133D01*
X802423Y101597D02*
X795652D01*
Y96518D01*
X799037Y98211D01*
X800730D01*
X802423Y96518D01*
Y93133D01*
X800730Y91440D01*
X797345D01*
X795652Y93133D01*
X387136Y100962D02*
X383751D01*
X385443D01*
Y92498D01*
X383751Y90805D01*
X382058D01*
X380365Y92498D01*
X390522D02*
X392215Y90805D01*
X395600D01*
X397293Y92498D01*
Y99269D01*
X395600Y100962D01*
X392215D01*
X390522Y99269D01*
Y97576D01*
X392215Y95883D01*
X397293D01*
X182666Y100962D02*
X179281D01*
X180973D01*
Y92498D01*
X179281Y90805D01*
X177588D01*
X175895Y92498D01*
X186052Y90805D02*
X189437D01*
X187745D01*
Y100962D01*
X186052Y99269D01*
X194516Y90805D02*
X197901D01*
X196208D01*
Y100962D01*
X194516Y99269D01*
X257178Y98846D02*
Y95461D01*
Y97153D01*
X265642D01*
X267335Y95461D01*
Y93768D01*
X265642Y92075D01*
X267335Y102232D02*
Y105617D01*
Y103925D01*
X257178D01*
X258871Y102232D01*
X267335Y117467D02*
Y110696D01*
X260564Y117467D01*
X258871D01*
X257178Y115774D01*
Y112388D01*
X258871Y110696D01*
X318135Y64770D02*
Y74927D01*
X323213D01*
X324906Y73234D01*
Y69848D01*
X323213Y68156D01*
X318135D01*
X321521D02*
X324906Y64770D01*
X328292D02*
X331677D01*
X329985D01*
Y74927D01*
X328292Y73234D01*
X336756Y64770D02*
X340141D01*
X338448D01*
Y74927D01*
X336756Y73234D01*
X351991Y74927D02*
X348605Y73234D01*
X345220Y69848D01*
Y66463D01*
X346912Y64770D01*
X350298D01*
X351991Y66463D01*
Y68156D01*
X350298Y69848D01*
X345220D01*
X316651Y252939D02*
X314958Y254632D01*
X311573D01*
X309880Y252939D01*
Y246168D01*
X311573Y244475D01*
X314958D01*
X316651Y246168D01*
X320037Y252939D02*
X321730Y254632D01*
X325115D01*
X326808Y252939D01*
Y251246D01*
X325115Y249553D01*
X326808Y247861D01*
Y246168D01*
X325115Y244475D01*
X321730D01*
X320037Y246168D01*
Y247861D01*
X321730Y249553D01*
X320037Y251246D01*
Y252939D01*
X321730Y249553D02*
X325115D01*
X330193Y246168D02*
X331886Y244475D01*
X335272D01*
X336965Y246168D01*
Y252939D01*
X335272Y254632D01*
X331886D01*
X330193Y252939D01*
Y251246D01*
X331886Y249553D01*
X336965D01*
X317286Y157054D02*
X315593Y158747D01*
X312208D01*
X310515Y157054D01*
Y150283D01*
X312208Y148590D01*
X315593D01*
X317286Y150283D01*
X320672D02*
X322365Y148590D01*
X325750D01*
X327443Y150283D01*
Y157054D01*
X325750Y158747D01*
X322365D01*
X320672Y157054D01*
Y155361D01*
X322365Y153668D01*
X327443D01*
X330828Y157054D02*
X332521Y158747D01*
X335907D01*
X337600Y157054D01*
Y150283D01*
X335907Y148590D01*
X332521D01*
X330828Y150283D01*
Y157054D01*
X864238Y104561D02*
Y101176D01*
Y102868D01*
X872702D01*
X874395Y101176D01*
Y99483D01*
X872702Y97790D01*
X864238Y114718D02*
X865931Y111332D01*
X869317Y107947D01*
X872702D01*
X874395Y109640D01*
Y113025D01*
X872702Y114718D01*
X871009D01*
X869317Y113025D01*
Y107947D01*
X572770Y113665D02*
X562613D01*
Y118743D01*
X564306Y120436D01*
X567692D01*
X569384Y118743D01*
Y113665D01*
Y117051D02*
X572770Y120436D01*
Y123822D02*
Y127207D01*
Y125514D01*
X562613D01*
X564306Y123822D01*
X572770Y139057D02*
Y132286D01*
X565999Y139057D01*
X564306D01*
X562613Y137364D01*
Y133978D01*
X564306Y132286D01*
Y142442D02*
X562613Y144135D01*
Y147521D01*
X564306Y149213D01*
X571077D01*
X572770Y147521D01*
Y144135D01*
X571077Y142442D01*
X564306D01*
X701675Y113030D02*
X691518D01*
Y118108D01*
X693211Y119801D01*
X696597D01*
X698289Y118108D01*
Y113030D01*
Y116416D02*
X701675Y119801D01*
Y123187D02*
Y126572D01*
Y124880D01*
X691518D01*
X693211Y123187D01*
X701675Y138422D02*
Y131651D01*
X694904Y138422D01*
X693211D01*
X691518Y136729D01*
Y133343D01*
X693211Y131651D01*
X701675Y148579D02*
Y141807D01*
X694904Y148579D01*
X693211D01*
X691518Y146886D01*
Y143500D01*
X693211Y141807D01*
X724535Y99695D02*
Y109852D01*
X729613D01*
X731306Y108159D01*
Y104773D01*
X729613Y103081D01*
X724535D01*
X727921D02*
X731306Y99695D01*
X734692D02*
X738077D01*
X736385D01*
Y109852D01*
X734692Y108159D01*
X749927Y99695D02*
X743156D01*
X749927Y106466D01*
Y108159D01*
X748234Y109852D01*
X744848D01*
X743156Y108159D01*
X753312D02*
X755005Y109852D01*
X758391D01*
X760083Y108159D01*
Y106466D01*
X758391Y104773D01*
X756698D01*
X758391D01*
X760083Y103081D01*
Y101388D01*
X758391Y99695D01*
X755005D01*
X753312Y101388D01*
X914400Y55880D02*
Y66037D01*
X919478D01*
X921171Y64344D01*
Y60958D01*
X919478Y59266D01*
X914400D01*
X917786D02*
X921171Y55880D01*
X924557D02*
X927942D01*
X926249D01*
Y66037D01*
X924557Y64344D01*
X939792Y55880D02*
X933021D01*
X939792Y62651D01*
Y64344D01*
X938099Y66037D01*
X934713D01*
X933021Y64344D01*
X948256Y55880D02*
Y66037D01*
X943177Y60958D01*
X949949D01*
X340363Y182880D02*
X348827D01*
X350520Y184573D01*
Y187958D01*
X348827Y189651D01*
X340363D01*
X350520Y193037D02*
Y196422D01*
Y194729D01*
X340363D01*
X342056Y193037D01*
Y201501D02*
X340363Y203193D01*
Y206579D01*
X342056Y208272D01*
X343749D01*
X345442Y206579D01*
X347134Y208272D01*
X348827D01*
X350520Y206579D01*
Y203193D01*
X348827Y201501D01*
X347134D01*
X345442Y203193D01*
X343749Y201501D01*
X342056D01*
X345442Y203193D02*
Y206579D01*
X814705Y276857D02*
Y268393D01*
X816398Y266700D01*
X819783D01*
X821476Y268393D01*
Y276857D01*
X824862Y266700D02*
X828247D01*
X826554D01*
Y276857D01*
X824862Y275164D01*
X833326Y276857D02*
X840097D01*
Y275164D01*
X833326Y268393D01*
Y266700D01*
X205105Y276857D02*
Y268393D01*
X206798Y266700D01*
X210183D01*
X211876Y268393D01*
Y276857D01*
X215262Y266700D02*
X218647D01*
X216954D01*
Y276857D01*
X215262Y275164D01*
X230497Y276857D02*
X227111Y275164D01*
X223726Y271778D01*
Y268393D01*
X225418Y266700D01*
X228804D01*
X230497Y268393D01*
Y270086D01*
X228804Y271778D01*
X223726D01*
X821690Y640077D02*
Y631613D01*
X823383Y629920D01*
X826768D01*
X828461Y631613D01*
Y640077D01*
X838618D02*
X835232Y638384D01*
X831847Y634998D01*
Y631613D01*
X833540Y629920D01*
X836925D01*
X838618Y631613D01*
Y633306D01*
X836925Y634998D01*
X831847D01*
X411480Y276222D02*
Y267758D01*
X413173Y266065D01*
X416558D01*
X418251Y267758D01*
Y276222D01*
X426715Y266065D02*
Y276222D01*
X421637Y271143D01*
X428408D01*
X1127760Y628650D02*
Y638807D01*
X1132838D01*
X1134531Y637114D01*
Y633728D01*
X1132838Y632036D01*
X1127760D01*
X1131146D02*
X1134531Y628650D01*
X1144688Y638807D02*
X1141302Y637114D01*
X1137917Y633728D01*
Y630343D01*
X1139610Y628650D01*
X1142995D01*
X1144688Y630343D01*
Y632036D01*
X1142995Y633728D01*
X1137917D01*
X1154845Y638807D02*
X1151459Y637114D01*
X1148073Y633728D01*
Y630343D01*
X1149766Y628650D01*
X1153152D01*
X1154845Y630343D01*
Y632036D01*
X1153152Y633728D01*
X1148073D01*
X151765Y227330D02*
Y237487D01*
X156843D01*
X158536Y235794D01*
Y232408D01*
X156843Y230716D01*
X151765D01*
X155151D02*
X158536Y227330D01*
X168693Y237487D02*
X161922D01*
Y232408D01*
X165307Y234101D01*
X167000D01*
X168693Y232408D01*
Y229023D01*
X167000Y227330D01*
X163615D01*
X161922Y229023D01*
X172078D02*
X173771Y227330D01*
X177157D01*
X178850Y229023D01*
Y235794D01*
X177157Y237487D01*
X173771D01*
X172078Y235794D01*
Y234101D01*
X173771Y232408D01*
X178850D01*
X142875Y113665D02*
X132718D01*
Y118743D01*
X134411Y120436D01*
X137797D01*
X139489Y118743D01*
Y113665D01*
Y117051D02*
X142875Y120436D01*
X132718Y130593D02*
Y123822D01*
X137797D01*
X136104Y127207D01*
Y128900D01*
X137797Y130593D01*
X141182D01*
X142875Y128900D01*
Y125514D01*
X141182Y123822D01*
X134411Y133978D02*
X132718Y135671D01*
Y139057D01*
X134411Y140750D01*
X141182D01*
X142875Y139057D01*
Y135671D01*
X141182Y133978D01*
X134411D01*
X485140Y182245D02*
Y192402D01*
X490218D01*
X491911Y190709D01*
Y187323D01*
X490218Y185631D01*
X485140D01*
X488526D02*
X491911Y182245D01*
X500375D02*
Y192402D01*
X495297Y187323D01*
X502068D01*
X510532Y182245D02*
Y192402D01*
X505453Y187323D01*
X512225D01*
X344170Y113665D02*
X334013D01*
Y118743D01*
X335706Y120436D01*
X339092D01*
X340784Y118743D01*
Y113665D01*
Y117051D02*
X344170Y120436D01*
X335706Y123822D02*
X334013Y125514D01*
Y128900D01*
X335706Y130593D01*
X337399D01*
X339092Y128900D01*
Y127207D01*
Y128900D01*
X340784Y130593D01*
X342477D01*
X344170Y128900D01*
Y125514D01*
X342477Y123822D01*
X334013Y140750D02*
X335706Y137364D01*
X339092Y133978D01*
X342477D01*
X344170Y135671D01*
Y139057D01*
X342477Y140750D01*
X340784D01*
X339092Y139057D01*
Y133978D01*
X894080Y182880D02*
Y193037D01*
X899158D01*
X900851Y191344D01*
Y187958D01*
X899158Y186266D01*
X894080D01*
X897466D02*
X900851Y182880D01*
X904237Y191344D02*
X905929Y193037D01*
X909315D01*
X911008Y191344D01*
Y189651D01*
X909315Y187958D01*
X907622D01*
X909315D01*
X911008Y186266D01*
Y184573D01*
X909315Y182880D01*
X905929D01*
X904237Y184573D01*
X914393Y191344D02*
X916086Y193037D01*
X919472D01*
X921165Y191344D01*
Y184573D01*
X919472Y182880D01*
X916086D01*
X914393Y184573D01*
Y191344D01*
X861695Y182880D02*
Y193037D01*
X866773D01*
X868466Y191344D01*
Y187958D01*
X866773Y186266D01*
X861695D01*
X865081D02*
X868466Y182880D01*
X878623D02*
X871852D01*
X878623Y189651D01*
Y191344D01*
X876930Y193037D01*
X873544D01*
X871852Y191344D01*
X882008D02*
X883701Y193037D01*
X887087D01*
X888780Y191344D01*
Y189651D01*
X887087Y187958D01*
X885394D01*
X887087D01*
X888780Y186266D01*
Y184573D01*
X887087Y182880D01*
X883701D01*
X882008Y184573D01*
X684530Y182880D02*
Y193037D01*
X689608D01*
X691301Y191344D01*
Y187958D01*
X689608Y186266D01*
X684530D01*
X687916D02*
X691301Y182880D01*
X694687D02*
X698072D01*
X696379D01*
Y193037D01*
X694687Y191344D01*
X709922Y193037D02*
X706536Y191344D01*
X703151Y187958D01*
Y184573D01*
X704843Y182880D01*
X708229D01*
X709922Y184573D01*
Y186266D01*
X708229Y187958D01*
X703151D01*
X1273601Y716701D02*
X1271908Y715008D01*
Y711623D01*
X1273601Y709930D01*
X1280372D01*
X1282065Y711623D01*
Y715008D01*
X1280372Y716701D01*
X1271908Y720087D02*
Y726858D01*
X1273601D01*
X1280372Y720087D01*
X1282065D01*
X1271908Y737015D02*
X1273601Y733629D01*
X1276987Y730243D01*
X1280372D01*
X1282065Y731936D01*
Y735322D01*
X1280372Y737015D01*
X1278679D01*
X1276987Y735322D01*
Y730243D01*
X720511Y155784D02*
X718818Y157477D01*
X715433D01*
X713740Y155784D01*
Y149013D01*
X715433Y147320D01*
X718818D01*
X720511Y149013D01*
X723897Y157477D02*
X730668D01*
Y155784D01*
X723897Y149013D01*
Y147320D01*
X734053Y155784D02*
X735746Y157477D01*
X739132D01*
X740825Y155784D01*
Y154091D01*
X739132Y152398D01*
X737439D01*
X739132D01*
X740825Y150706D01*
Y149013D01*
X739132Y147320D01*
X735746D01*
X734053Y149013D01*
X677336Y523661D02*
X675643Y521968D01*
Y518583D01*
X677336Y516890D01*
X684107D01*
X685800Y518583D01*
Y521968D01*
X684107Y523661D01*
X685800Y532125D02*
X675643D01*
X680722Y527047D01*
Y533818D01*
X675643Y543975D02*
X677336Y540589D01*
X680722Y537203D01*
X684107D01*
X685800Y538896D01*
Y542282D01*
X684107Y543975D01*
X682414D01*
X680722Y542282D01*
Y537203D01*
X719881Y607481D02*
X718188Y605788D01*
Y602403D01*
X719881Y600710D01*
X726652D01*
X728345Y602403D01*
Y605788D01*
X726652Y607481D01*
X728345Y615945D02*
X718188D01*
X723267Y610867D01*
Y617638D01*
X718188Y627795D02*
Y621023D01*
X723267D01*
X721574Y624409D01*
Y626102D01*
X723267Y627795D01*
X726652D01*
X728345Y626102D01*
Y622716D01*
X726652Y621023D01*
X361955Y580317D02*
Y571853D01*
X363648Y570160D01*
X367033D01*
X368726Y571853D01*
Y580317D01*
X372112Y570160D02*
X375497D01*
X373805D01*
Y580317D01*
X372112Y578624D01*
X380576Y570160D02*
X383961D01*
X382268D01*
Y580317D01*
X380576Y578624D01*
X710565Y45085D02*
Y55242D01*
X715643D01*
X717336Y53549D01*
Y50163D01*
X715643Y48471D01*
X710565D01*
X713951D02*
X717336Y45085D01*
X720722D02*
X724107D01*
X722414D01*
Y55242D01*
X720722Y53549D01*
X735957Y45085D02*
X729186D01*
X735957Y51856D01*
Y53549D01*
X734264Y55242D01*
X730878D01*
X729186Y53549D01*
X710565Y10795D02*
Y20952D01*
X715643D01*
X717336Y19259D01*
Y15873D01*
X715643Y14181D01*
X710565D01*
X713951D02*
X717336Y10795D01*
X720722D02*
X724107D01*
X722414D01*
Y20952D01*
X720722Y19259D01*
X729186Y10795D02*
X732571D01*
X730878D01*
Y20952D01*
X729186Y19259D01*
X654050Y267335D02*
Y277492D01*
X659128D01*
X660821Y275799D01*
Y272413D01*
X659128Y270721D01*
X654050D01*
X657436D02*
X660821Y267335D01*
X664207D02*
X667592D01*
X665900D01*
Y277492D01*
X664207Y275799D01*
X672671D02*
X674363Y277492D01*
X677749D01*
X679442Y275799D01*
Y269028D01*
X677749Y267335D01*
X674363D01*
X672671Y269028D01*
Y275799D01*
X659765Y182245D02*
Y192402D01*
X664843D01*
X666536Y190709D01*
Y187323D01*
X664843Y185631D01*
X659765D01*
X663151D02*
X666536Y182245D01*
X669922Y183938D02*
X671615Y182245D01*
X675000D01*
X676693Y183938D01*
Y190709D01*
X675000Y192402D01*
X671615D01*
X669922Y190709D01*
Y189016D01*
X671615Y187323D01*
X676693D01*
X548005Y113665D02*
X537848D01*
Y118743D01*
X539541Y120436D01*
X542927D01*
X544619Y118743D01*
Y113665D01*
Y117051D02*
X548005Y120436D01*
X539541Y123822D02*
X537848Y125514D01*
Y128900D01*
X539541Y130593D01*
X541234D01*
X542927Y128900D01*
X544619Y130593D01*
X546312D01*
X548005Y128900D01*
Y125514D01*
X546312Y123822D01*
X544619D01*
X542927Y125514D01*
X541234Y123822D01*
X539541D01*
X542927Y125514D02*
Y128900D01*
X538480Y98425D02*
Y108582D01*
X543558D01*
X545251Y106889D01*
Y103503D01*
X543558Y101811D01*
X538480D01*
X541866D02*
X545251Y98425D01*
X548637Y108582D02*
X555408D01*
Y106889D01*
X548637Y100118D01*
Y98425D01*
X537210Y62230D02*
Y72387D01*
X542288D01*
X543981Y70694D01*
Y67308D01*
X542288Y65616D01*
X537210D01*
X540596D02*
X543981Y62230D01*
X554138Y72387D02*
X550752Y70694D01*
X547367Y67308D01*
Y63923D01*
X549059Y62230D01*
X552445D01*
X554138Y63923D01*
Y65616D01*
X552445Y67308D01*
X547367D01*
X537845Y26670D02*
Y36827D01*
X542923D01*
X544616Y35134D01*
Y31748D01*
X542923Y30056D01*
X537845D01*
X541231D02*
X544616Y26670D01*
X554773Y36827D02*
X548002D01*
Y31748D01*
X551387Y33441D01*
X553080D01*
X554773Y31748D01*
Y28363D01*
X553080Y26670D01*
X549695D01*
X548002Y28363D01*
X561975Y229235D02*
Y239392D01*
X567053D01*
X568746Y237699D01*
Y234313D01*
X567053Y232621D01*
X561975D01*
X565361D02*
X568746Y229235D01*
X577210D02*
Y239392D01*
X572132Y234313D01*
X578903D01*
X1215181Y526836D02*
X1213488Y525143D01*
Y521758D01*
X1215181Y520065D01*
X1221952D01*
X1223645Y521758D01*
Y525143D01*
X1221952Y526836D01*
X1215181Y530222D02*
X1213488Y531914D01*
Y535300D01*
X1215181Y536993D01*
X1216874D01*
X1218567Y535300D01*
Y533607D01*
Y535300D01*
X1220259Y536993D01*
X1221952D01*
X1223645Y535300D01*
Y531914D01*
X1221952Y530222D01*
X1223645Y540378D02*
Y543764D01*
Y542071D01*
X1213488D01*
X1215181Y540378D01*
X182666Y191344D02*
X180973Y193037D01*
X177588D01*
X175895Y191344D01*
Y184573D01*
X177588Y182880D01*
X180973D01*
X182666Y184573D01*
X186052Y191344D02*
X187745Y193037D01*
X191130D01*
X192823Y191344D01*
Y189651D01*
X191130Y187958D01*
X189437D01*
X191130D01*
X192823Y186266D01*
Y184573D01*
X191130Y182880D01*
X187745D01*
X186052Y184573D01*
X196208Y191344D02*
X197901Y193037D01*
X201287D01*
X202980Y191344D01*
Y184573D01*
X201287Y182880D01*
X197901D01*
X196208Y184573D01*
Y191344D01*
X314116Y120436D02*
X312423Y118743D01*
Y115358D01*
X314116Y113665D01*
X320887D01*
X322580Y115358D01*
Y118743D01*
X320887Y120436D01*
X322580Y130593D02*
Y123822D01*
X315809Y130593D01*
X314116D01*
X312423Y128900D01*
Y125514D01*
X314116Y123822D01*
X320887Y133978D02*
X322580Y135671D01*
Y139057D01*
X320887Y140750D01*
X314116D01*
X312423Y139057D01*
Y135671D01*
X314116Y133978D01*
X315809D01*
X317502Y135671D01*
Y140750D01*
X294426Y275799D02*
X292733Y277492D01*
X289348D01*
X287655Y275799D01*
Y269028D01*
X289348Y267335D01*
X292733D01*
X294426Y269028D01*
X304583Y267335D02*
X297812D01*
X304583Y274106D01*
Y275799D01*
X302890Y277492D01*
X299505D01*
X297812Y275799D01*
X307968D02*
X309661Y277492D01*
X313047D01*
X314740Y275799D01*
Y274106D01*
X313047Y272413D01*
X314740Y270721D01*
Y269028D01*
X313047Y267335D01*
X309661D01*
X307968Y269028D01*
Y270721D01*
X309661Y272413D01*
X307968Y274106D01*
Y275799D01*
X309661Y272413D02*
X313047D01*
X146476Y120436D02*
X144783Y118743D01*
Y115358D01*
X146476Y113665D01*
X153247D01*
X154940Y115358D01*
Y118743D01*
X153247Y120436D01*
X154940Y130593D02*
Y123822D01*
X148169Y130593D01*
X146476D01*
X144783Y128900D01*
Y125514D01*
X146476Y123822D01*
X144783Y133978D02*
Y140750D01*
X146476D01*
X153247Y133978D01*
X154940D01*
X1099611Y649551D02*
X1097918Y647858D01*
Y644473D01*
X1099611Y642780D01*
X1106382D01*
X1108075Y644473D01*
Y647858D01*
X1106382Y649551D01*
X1108075Y659708D02*
Y652937D01*
X1101304Y659708D01*
X1099611D01*
X1097918Y658015D01*
Y654630D01*
X1099611Y652937D01*
X1108075Y668172D02*
X1097918D01*
X1102997Y663093D01*
Y669865D01*
X385231Y190709D02*
X383538Y192402D01*
X380153D01*
X378460Y190709D01*
Y183938D01*
X380153Y182245D01*
X383538D01*
X385231Y183938D01*
X395388Y182245D02*
X388617D01*
X395388Y189016D01*
Y190709D01*
X393695Y192402D01*
X390309D01*
X388617Y190709D01*
X398773D02*
X400466Y192402D01*
X403852D01*
X405545Y190709D01*
Y189016D01*
X403852Y187323D01*
X402159D01*
X403852D01*
X405545Y185631D01*
Y183938D01*
X403852Y182245D01*
X400466D01*
X398773Y183938D01*
X516681Y120436D02*
X514988Y118743D01*
Y115358D01*
X516681Y113665D01*
X523452D01*
X525145Y115358D01*
Y118743D01*
X523452Y120436D01*
X525145Y130593D02*
Y123822D01*
X518374Y130593D01*
X516681D01*
X514988Y128900D01*
Y125514D01*
X516681Y123822D01*
X525145Y140750D02*
Y133978D01*
X518374Y140750D01*
X516681D01*
X514988Y139057D01*
Y135671D01*
X516681Y133978D01*
X721146Y252304D02*
X719453Y253997D01*
X716068D01*
X714375Y252304D01*
Y245533D01*
X716068Y243840D01*
X719453D01*
X721146Y245533D01*
X731303Y243840D02*
X724532D01*
X731303Y250611D01*
Y252304D01*
X729610Y253997D01*
X726225D01*
X724532Y252304D01*
X734688Y243840D02*
X738074D01*
X736381D01*
Y253997D01*
X734688Y252304D01*
X347771Y120436D02*
X346078Y118743D01*
Y115358D01*
X347771Y113665D01*
X354542D01*
X356235Y115358D01*
Y118743D01*
X354542Y120436D01*
X356235Y130593D02*
Y123822D01*
X349464Y130593D01*
X347771D01*
X346078Y128900D01*
Y125514D01*
X347771Y123822D01*
Y133978D02*
X346078Y135671D01*
Y139057D01*
X347771Y140750D01*
X354542D01*
X356235Y139057D01*
Y135671D01*
X354542Y133978D01*
X347771D01*
X1239946Y526836D02*
X1238253Y525143D01*
Y521758D01*
X1239946Y520065D01*
X1246717D01*
X1248410Y521758D01*
Y525143D01*
X1246717Y526836D01*
X1248410Y530222D02*
Y533607D01*
Y531914D01*
X1238253D01*
X1239946Y530222D01*
X1246717Y538686D02*
X1248410Y540378D01*
Y543764D01*
X1246717Y545457D01*
X1239946D01*
X1238253Y543764D01*
Y540378D01*
X1239946Y538686D01*
X1241639D01*
X1243332Y540378D01*
Y545457D01*
X791631Y191344D02*
X789938Y193037D01*
X786553D01*
X784860Y191344D01*
Y184573D01*
X786553Y182880D01*
X789938D01*
X791631Y184573D01*
X795017Y182880D02*
X798402D01*
X796710D01*
Y193037D01*
X795017Y191344D01*
X803481D02*
X805173Y193037D01*
X808559D01*
X810252Y191344D01*
Y189651D01*
X808559Y187958D01*
X810252Y186266D01*
Y184573D01*
X808559Y182880D01*
X805173D01*
X803481Y184573D01*
Y186266D01*
X805173Y187958D01*
X803481Y189651D01*
Y191344D01*
X805173Y187958D02*
X808559D01*
X921811Y120436D02*
X920118Y118743D01*
Y115358D01*
X921811Y113665D01*
X928582D01*
X930275Y115358D01*
Y118743D01*
X928582Y120436D01*
X930275Y123822D02*
Y127207D01*
Y125514D01*
X920118D01*
X921811Y123822D01*
X920118Y132286D02*
Y139057D01*
X921811D01*
X928582Y132286D01*
X930275D01*
X911646Y275799D02*
X909953Y277492D01*
X906568D01*
X904875Y275799D01*
Y269028D01*
X906568Y267335D01*
X909953D01*
X911646Y269028D01*
X915032Y267335D02*
X918417D01*
X916724D01*
Y277492D01*
X915032Y275799D01*
X930267Y277492D02*
X926881Y275799D01*
X923496Y272413D01*
Y269028D01*
X925188Y267335D01*
X928574D01*
X930267Y269028D01*
Y270721D01*
X928574Y272413D01*
X923496D01*
X754806Y120436D02*
X753113Y118743D01*
Y115358D01*
X754806Y113665D01*
X761577D01*
X763270Y115358D01*
Y118743D01*
X761577Y120436D01*
X763270Y123822D02*
Y127207D01*
Y125514D01*
X753113D01*
X754806Y123822D01*
X753113Y139057D02*
Y132286D01*
X758192D01*
X756499Y135671D01*
Y137364D01*
X758192Y139057D01*
X761577D01*
X763270Y137364D01*
Y133978D01*
X761577Y132286D01*
X697016Y275799D02*
X695323Y277492D01*
X691938D01*
X690245Y275799D01*
Y269028D01*
X691938Y267335D01*
X695323D01*
X697016Y269028D01*
X700402D02*
X702094Y267335D01*
X705480D01*
X707173Y269028D01*
Y275799D01*
X705480Y277492D01*
X702094D01*
X700402Y275799D01*
Y274106D01*
X702094Y272413D01*
X707173D01*
X551606Y120436D02*
X549913Y118743D01*
Y115358D01*
X551606Y113665D01*
X558377D01*
X560070Y115358D01*
Y118743D01*
X558377Y120436D01*
X551606Y123822D02*
X549913Y125514D01*
Y128900D01*
X551606Y130593D01*
X553299D01*
X554992Y128900D01*
X556684Y130593D01*
X558377D01*
X560070Y128900D01*
Y125514D01*
X558377Y123822D01*
X556684D01*
X554992Y125514D01*
X553299Y123822D01*
X551606D01*
X554992Y125514D02*
Y128900D01*
X592241Y409572D02*
X588856D01*
X590548D01*
Y401108D01*
X588856Y399415D01*
X587163D01*
X585470Y401108D01*
X595627Y399415D02*
X599012D01*
X597319D01*
Y409572D01*
X595627Y407879D01*
X604091Y409572D02*
X610862D01*
Y407879D01*
X604091Y401108D01*
Y399415D01*
X459108Y100116D02*
Y96731D01*
Y98423D01*
X467572D01*
X469265Y96731D01*
Y95038D01*
X467572Y93345D01*
X469265Y103502D02*
Y106887D01*
Y105195D01*
X459108D01*
X460801Y103502D01*
Y111966D02*
X459108Y113658D01*
Y117044D01*
X460801Y118737D01*
X467572D01*
X469265Y117044D01*
Y113658D01*
X467572Y111966D01*
X460801D01*
X103926Y628012D02*
X100541D01*
X102233D01*
Y619548D01*
X100541Y617855D01*
X98848D01*
X97155Y619548D01*
X107312Y617855D02*
X110697D01*
X109004D01*
Y628012D01*
X107312Y626319D01*
X122547Y628012D02*
X115776D01*
Y622933D01*
X119161Y624626D01*
X120854D01*
X122547Y622933D01*
Y619548D01*
X120854Y617855D01*
X117468D01*
X115776Y619548D01*
X59439Y726607D02*
Y723222D01*
Y724914D01*
X67903D01*
X69596Y723222D01*
Y721529D01*
X67903Y719836D01*
X69596Y729993D02*
Y733378D01*
Y731685D01*
X59439D01*
X61132Y729993D01*
X59439Y745228D02*
X61132Y741842D01*
X64518Y738457D01*
X67903D01*
X69596Y740149D01*
Y743535D01*
X67903Y745228D01*
X66210D01*
X64518Y743535D01*
Y738457D01*
X175681Y788032D02*
X172296D01*
X173988D01*
Y779568D01*
X172296Y777875D01*
X170603D01*
X168910Y779568D01*
X179067Y777875D02*
X182452D01*
X180760D01*
Y788032D01*
X179067Y786339D01*
X187531Y779568D02*
X189223Y777875D01*
X192609D01*
X194302Y779568D01*
Y786339D01*
X192609Y788032D01*
X189223D01*
X187531Y786339D01*
Y784646D01*
X189223Y782953D01*
X194302D01*
X730036Y763479D02*
X728343Y765172D01*
X724958D01*
X723265Y763479D01*
Y756708D01*
X724958Y755015D01*
X728343D01*
X730036Y756708D01*
X733422D02*
X735115Y755015D01*
X738500D01*
X740193Y756708D01*
Y763479D01*
X738500Y765172D01*
X735115D01*
X733422Y763479D01*
Y761786D01*
X735115Y760093D01*
X740193D01*
X743578Y763479D02*
X745271Y765172D01*
X748657D01*
X750350Y763479D01*
Y761786D01*
X748657Y760093D01*
X746964D01*
X748657D01*
X750350Y758401D01*
Y756708D01*
X748657Y755015D01*
X745271D01*
X743578Y756708D01*
X660191Y648756D02*
X658498Y647063D01*
Y643678D01*
X660191Y641985D01*
X666962D01*
X668655Y643678D01*
Y647063D01*
X666962Y648756D01*
Y652142D02*
X668655Y653835D01*
Y657220D01*
X666962Y658913D01*
X660191D01*
X658498Y657220D01*
Y653835D01*
X660191Y652142D01*
X661884D01*
X663577Y653835D01*
Y658913D01*
X668655Y667377D02*
X658498D01*
X663577Y662298D01*
Y669070D01*
X122976Y302257D02*
X119591D01*
X121283D01*
Y293793D01*
X119591Y292100D01*
X117898D01*
X116205Y293793D01*
X126362Y300564D02*
X128055Y302257D01*
X131440D01*
X133133Y300564D01*
Y298871D01*
X131440Y297178D01*
X129747D01*
X131440D01*
X133133Y295486D01*
Y293793D01*
X131440Y292100D01*
X128055D01*
X126362Y293793D01*
X666118Y471591D02*
Y468206D01*
Y469898D01*
X674582D01*
X676275Y468206D01*
Y466513D01*
X674582Y464820D01*
X676275Y481748D02*
Y474977D01*
X669504Y481748D01*
X667811D01*
X666118Y480055D01*
Y476670D01*
X667811Y474977D01*
Y485133D02*
X666118Y486826D01*
Y490212D01*
X667811Y491905D01*
X674582D01*
X676275Y490212D01*
Y486826D01*
X674582Y485133D01*
X667811D01*
X681355Y641985D02*
X671198D01*
Y647063D01*
X672891Y648756D01*
X676277D01*
X677969Y647063D01*
Y641985D01*
Y645371D02*
X681355Y648756D01*
X679662Y652142D02*
X681355Y653835D01*
Y657220D01*
X679662Y658913D01*
X672891D01*
X671198Y657220D01*
Y653835D01*
X672891Y652142D01*
X674584D01*
X676277Y653835D01*
Y658913D01*
X672891Y662298D02*
X671198Y663991D01*
Y667377D01*
X672891Y669070D01*
X674584D01*
X676277Y667377D01*
X677969Y669070D01*
X679662D01*
X681355Y667377D01*
Y663991D01*
X679662Y662298D01*
X677969D01*
X676277Y663991D01*
X674584Y662298D01*
X672891D01*
X676277Y663991D02*
Y667377D01*
X131236Y507365D02*
X129543Y509058D01*
Y512443D01*
X131236Y514136D01*
X132929D01*
X134622Y512443D01*
Y510751D01*
Y512443D01*
X136314Y514136D01*
X138007D01*
X139700Y512443D01*
Y509058D01*
X138007Y507365D01*
X129543Y517522D02*
X136314D01*
X139700Y520907D01*
X136314Y524293D01*
X129543D01*
X131236Y527678D02*
X129543Y529371D01*
Y532757D01*
X131236Y534450D01*
X132929D01*
X134622Y532757D01*
Y531064D01*
Y532757D01*
X136314Y534450D01*
X138007D01*
X139700Y532757D01*
Y529371D01*
X138007Y527678D01*
X154943Y507365D02*
X163407D01*
X165100Y509058D01*
Y512443D01*
X163407Y514136D01*
X154943D01*
X156636Y524293D02*
X154943Y522600D01*
Y519215D01*
X156636Y517522D01*
X158329D01*
X160022Y519215D01*
Y522600D01*
X161714Y524293D01*
X163407D01*
X165100Y522600D01*
Y519215D01*
X163407Y517522D01*
X154943Y527678D02*
X165100D01*
Y532757D01*
X163407Y534450D01*
X161714D01*
X160022Y532757D01*
Y527678D01*
Y532757D01*
X158329Y534450D01*
X156636D01*
X154943Y532757D01*
Y527678D01*
X180343Y507365D02*
X190500D01*
Y512443D01*
X188807Y514136D01*
X182036D01*
X180343Y512443D01*
Y507365D01*
X190500Y517522D02*
X183729D01*
X180343Y520907D01*
X183729Y524293D01*
X190500D01*
X185422D01*
Y517522D01*
X182036Y534450D02*
X180343Y532757D01*
Y529371D01*
X182036Y527678D01*
X188807D01*
X190500Y529371D01*
Y532757D01*
X188807Y534450D01*
X207436Y514136D02*
X205743Y512443D01*
Y509058D01*
X207436Y507365D01*
X214207D01*
X215900Y509058D01*
Y512443D01*
X214207Y514136D01*
X210822D01*
Y510751D01*
X215900Y517522D02*
X205743D01*
X215900Y524293D01*
X205743D01*
Y527678D02*
X215900D01*
Y532757D01*
X214207Y534450D01*
X207436D01*
X205743Y532757D01*
Y527678D01*
X262255Y516255D02*
Y523026D01*
X265641Y526412D01*
X269026Y523026D01*
Y516255D01*
Y521333D01*
X262255D01*
X272412Y526412D02*
Y516255D01*
X277490D01*
X279183Y517948D01*
Y524719D01*
X277490Y526412D01*
X272412D01*
X289340Y524719D02*
X287647Y526412D01*
X284261D01*
X282568Y524719D01*
Y517948D01*
X284261Y516255D01*
X287647D01*
X289340Y517948D01*
X335071Y513501D02*
X333378Y511808D01*
Y508423D01*
X335071Y506730D01*
X341842D01*
X343535Y508423D01*
Y511808D01*
X341842Y513501D01*
X338457D01*
Y510116D01*
X343535Y516887D02*
X333378D01*
X343535Y523658D01*
X333378D01*
Y527043D02*
X343535D01*
Y532122D01*
X341842Y533815D01*
X335071D01*
X333378Y532122D01*
Y527043D01*
X357508Y512445D02*
Y515831D01*
Y514138D01*
X367665D01*
Y512445D01*
Y515831D01*
X357508Y525987D02*
Y522602D01*
X359201Y520909D01*
X365972D01*
X367665Y522602D01*
Y525987D01*
X365972Y527680D01*
X359201D01*
X357508Y525987D01*
X409361Y524084D02*
X407668Y525777D01*
X404283D01*
X402590Y524084D01*
Y522391D01*
X404283Y520698D01*
X407668D01*
X409361Y519006D01*
Y517313D01*
X407668Y515620D01*
X404283D01*
X402590Y517313D01*
X412747Y515620D02*
Y525777D01*
X417825D01*
X419518Y524084D01*
Y520698D01*
X417825Y519006D01*
X412747D01*
X422903Y525777D02*
X426289D01*
X424596D01*
Y515620D01*
X422903D01*
X426289D01*
X483870Y526412D02*
Y516255D01*
Y521333D01*
X490641D01*
Y526412D01*
Y516255D01*
X500798Y524719D02*
X499105Y526412D01*
X495719D01*
X494027Y524719D01*
Y523026D01*
X495719Y521333D01*
X499105D01*
X500798Y519641D01*
Y517948D01*
X499105Y516255D01*
X495719D01*
X494027Y517948D01*
X504183Y516255D02*
Y526412D01*
X507569Y523026D01*
X510955Y526412D01*
Y516255D01*
X521111Y524719D02*
X519418Y526412D01*
X516033D01*
X514340Y524719D01*
Y517948D01*
X516033Y516255D01*
X519418D01*
X521111Y517948D01*
X524497Y526412D02*
X527882D01*
X526190D01*
Y516255D01*
X524497D01*
X527882D01*
X561978Y507365D02*
Y510751D01*
Y509058D01*
X572135D01*
Y507365D01*
Y510751D01*
Y522600D02*
Y515829D01*
X565364Y522600D01*
X563671D01*
X561978Y520907D01*
Y517522D01*
X563671Y515829D01*
Y532757D02*
X561978Y531064D01*
Y527678D01*
X563671Y525986D01*
X570442D01*
X572135Y527678D01*
Y531064D01*
X570442Y532757D01*
X587378Y512445D02*
Y515831D01*
Y514138D01*
X597535D01*
Y512445D01*
Y515831D01*
X587378Y525987D02*
Y522602D01*
X589071Y520909D01*
X595842D01*
X597535Y522602D01*
Y525987D01*
X595842Y527680D01*
X589071D01*
X587378Y525987D01*
X614471Y506730D02*
X612778Y508423D01*
Y511808D01*
X614471Y513501D01*
X616164D01*
X617857Y511808D01*
Y510116D01*
Y511808D01*
X619549Y513501D01*
X621242D01*
X622935Y511808D01*
Y508423D01*
X621242Y506730D01*
X612778Y516887D02*
X619549D01*
X622935Y520272D01*
X619549Y523658D01*
X612778D01*
X614471Y527043D02*
X612778Y528736D01*
Y532122D01*
X614471Y533815D01*
X616164D01*
X617857Y532122D01*
Y530429D01*
Y532122D01*
X619549Y533815D01*
X621242D01*
X622935Y532122D01*
Y528736D01*
X621242Y527043D01*
X1313279Y432065D02*
Y885190D01*
X1370000Y843810D02*
Y885190D01*
Y882650D02*
X1395400D01*
X1287879D02*
X1313279D01*
X1370000D02*
X1385240Y877570D01*
X1370000Y882650D02*
X1385240Y887730D01*
X1298039D02*
X1313279Y882650D01*
X1298039Y877570D02*
X1313279Y882650D01*
X56670Y432065D02*
Y897890D01*
X0Y843810D02*
Y897890D01*
X28335Y895350D02*
X56670D01*
X0D02*
X28335D01*
X41430Y900430D02*
X56670Y895350D01*
X41430Y890270D02*
X56670Y895350D01*
X0D02*
X15240Y890270D01*
X0Y895350D02*
X15240Y900430D01*
X-163195Y0D02*
X-3810D01*
X-163195Y420000D02*
X44605D01*
X-160655Y0D02*
Y166324D01*
Y245548D02*
Y420000D01*
Y0D02*
X-155575Y15240D01*
X-165735D02*
X-160655Y0D01*
X-165735Y404760D02*
X-160655Y420000D01*
X-155575Y404760D01*
X1325344Y420000D02*
X1601470D01*
X1373810Y0D02*
X1601470D01*
X1598930Y245548D02*
Y420000D01*
Y0D02*
Y166324D01*
X1593850Y404760D02*
X1598930Y420000D01*
X1604010Y404760D01*
X1598930Y0D02*
X1604010Y15240D01*
X1593850D02*
X1598930Y0D01*
X50000Y798810D02*
Y957580D01*
X0Y843810D02*
Y957580D01*
X25000Y955040D02*
X50000D01*
X0D02*
X25000D01*
X34760Y960120D02*
X50000Y955040D01*
X34760Y949960D02*
X50000Y955040D01*
X0D02*
X15240Y949960D01*
X0Y955040D02*
X15240Y960120D01*
X1320000Y798810D02*
Y957580D01*
X50000Y798810D02*
Y957580D01*
X726896Y955040D02*
X1320000D01*
X50000D02*
X634975D01*
X1304760Y960120D02*
X1320000Y955040D01*
X1304760Y949960D02*
X1320000Y955040D01*
X50000D02*
X65240Y949960D01*
X50000Y955040D02*
X65240Y960120D01*
X1370000Y-135890D02*
Y-3810D01*
X0Y-135890D02*
Y0D01*
X726896Y-133350D02*
X1370000D01*
X0D02*
X634976D01*
X1354760Y-128270D02*
X1370000Y-133350D01*
X1354760Y-138430D02*
X1370000Y-133350D01*
X0D02*
X15240Y-138430D01*
X0Y-133350D02*
X15240Y-128270D01*
X-341630Y45000D02*
X46190D01*
X-341630Y0D02*
X-3810D01*
X-339090Y22500D02*
Y45000D01*
Y0D02*
Y22500D01*
X-344170Y29760D02*
X-339090Y45000D01*
X-334010Y29760D01*
X-339090Y0D02*
X-334010Y15240D01*
X-344170D02*
X-339090Y0D01*
X50000Y-71120D02*
Y45000D01*
X0Y-71120D02*
Y0D01*
X25000Y-68580D02*
X50000D01*
X0D02*
X25000D01*
X34760Y-63500D02*
X50000Y-68580D01*
X34760Y-73660D02*
X50000Y-68580D01*
X0D02*
X15240Y-73660D01*
X0Y-68580D02*
X15240Y-63500D01*
X-420370Y0D02*
X-3810D01*
X-420370Y840000D02*
X0D01*
X-417830Y0D02*
Y376324D01*
Y455549D02*
Y840000D01*
Y0D02*
X-412750Y15240D01*
X-422910D02*
X-417830Y0D01*
X-422910Y824760D02*
X-417830Y840000D01*
X-412750Y824760D01*
X-340995Y45000D02*
X32460D01*
X-340995Y795000D02*
X32460D01*
X-338455Y45000D02*
Y376324D01*
Y455549D02*
Y795000D01*
Y45000D02*
X-333375Y60240D01*
X-343535D02*
X-338455Y45000D01*
X-343535Y779760D02*
X-338455Y795000D01*
X-333375Y779760D01*
X1320000Y-71120D02*
Y27460D01*
X50000Y-71120D02*
Y27460D01*
X726896Y-68580D02*
X1320000D01*
X50000D02*
X634976D01*
X1304760Y-63500D02*
X1320000Y-68580D01*
X1304760Y-73660D02*
X1320000Y-68580D01*
X50000D02*
X65240Y-73660D01*
X50000Y-68580D02*
X65240Y-63500D01*
X0Y0D02*
Y840000D01*
X1370000D01*
X1127595Y0D02*
Y45000D01*
X1178395Y0D02*
Y45000D01*
X1025995Y0D02*
Y45000D01*
X1076795Y0D02*
Y45000D01*
X0Y145000D02*
X1370000D01*
X964400Y0D02*
Y45000D01*
X913600Y0D02*
Y45000D01*
X761200Y0D02*
Y45000D01*
X812000Y0D02*
Y45000D01*
X862800Y0D02*
Y45000D01*
X710400Y0D02*
Y45000D01*
X659600Y0D02*
Y45000D01*
X354800Y0D02*
Y45000D01*
X304000Y0D02*
Y45000D01*
X202400Y0D02*
Y45000D01*
X253200Y0D02*
Y45000D01*
X507200Y0D02*
Y45000D01*
X405600Y0D02*
Y45000D01*
X608800Y0D02*
Y45000D01*
X558000Y0D02*
Y45000D01*
X50000D02*
X1320000D01*
X0Y0D02*
X1370000D01*
Y840000D01*
X50000Y795000D02*
X1320000D01*
X913600D02*
Y840000D01*
X964400Y795000D02*
Y840000D01*
X1066000Y795000D02*
Y840000D01*
X1015200Y795000D02*
Y840000D01*
X1167600Y795000D02*
Y840000D01*
X1116800Y795000D02*
Y840000D01*
X0Y695000D02*
X1370000D01*
X862800Y795000D02*
Y840000D01*
X812000Y795000D02*
Y840000D01*
X456400Y0D02*
Y45000D01*
D38*
X1319801Y921246D02*
X1309644D01*
Y913629D01*
X1314723Y916168D01*
X1317262D01*
X1319801Y913629D01*
Y908551D01*
X1317262Y906011D01*
X1312184D01*
X1309644Y908551D01*
X1327419Y903472D02*
X1329958Y906011D01*
Y908551D01*
X1327419D01*
Y906011D01*
X1329958D01*
X1327419Y903472D01*
X1324880Y900933D01*
X1350271Y921246D02*
X1345193Y918707D01*
X1340115Y913629D01*
Y908551D01*
X1342654Y906011D01*
X1347732D01*
X1350271Y908551D01*
Y911090D01*
X1347732Y913629D01*
X1340115D01*
X1355350Y921246D02*
X1365506D01*
Y918707D01*
X1355350Y908551D01*
Y906011D01*
X73022Y904235D02*
X62865D01*
Y896618D01*
X67943Y899157D01*
X70483D01*
X73022Y896618D01*
Y891539D01*
X70483Y889000D01*
X65404D01*
X62865Y891539D01*
X80639Y886461D02*
X83178Y889000D01*
Y891539D01*
X80639D01*
Y889000D01*
X83178D01*
X80639Y886461D01*
X78100Y883922D01*
X103492Y904235D02*
X98413Y901696D01*
X93335Y896618D01*
Y891539D01*
X95874Y889000D01*
X100953D01*
X103492Y891539D01*
Y894078D01*
X100953Y896618D01*
X93335D01*
X108570Y904235D02*
X118727D01*
Y901696D01*
X108570Y891539D01*
Y889000D01*
X-148974Y178005D02*
X-164209D01*
X-156592Y170387D01*
Y180544D01*
X-148974Y195779D02*
Y185623D01*
X-159131Y195779D01*
X-161670D01*
X-164209Y193240D01*
Y188162D01*
X-161670Y185623D01*
X-146435Y203397D02*
X-148974Y205936D01*
X-151514D01*
Y203397D01*
X-148974D01*
Y205936D01*
X-146435Y203397D01*
X-143896Y200858D01*
X-161670Y216093D02*
X-164209Y218632D01*
Y223710D01*
X-161670Y226249D01*
X-151514D01*
X-148974Y223710D01*
Y218632D01*
X-151514Y216093D01*
X-161670D01*
Y231328D02*
X-164209Y233867D01*
Y238945D01*
X-161670Y241485D01*
X-151514D01*
X-148974Y238945D01*
Y233867D01*
X-151514Y231328D01*
X-161670D01*
X1610611Y178005D02*
X1595376D01*
X1602993Y170387D01*
Y180544D01*
X1610611Y195779D02*
Y185623D01*
X1600454Y195779D01*
X1597915D01*
X1595376Y193240D01*
Y188162D01*
X1597915Y185623D01*
X1613150Y203397D02*
X1610611Y205936D01*
X1608071D01*
Y203397D01*
X1610611D01*
Y205936D01*
X1613150Y203397D01*
X1615689Y200858D01*
X1597915Y216093D02*
X1595376Y218632D01*
Y223710D01*
X1597915Y226249D01*
X1608071D01*
X1610611Y223710D01*
Y218632D01*
X1608071Y216093D01*
X1597915D01*
Y231328D02*
X1595376Y233867D01*
Y238945D01*
X1597915Y241485D01*
X1608071D01*
X1610611Y238945D01*
Y233867D01*
X1608071Y231328D01*
X1597915D01*
X7617Y987420D02*
X-2540D01*
Y979802D01*
X2538Y982342D01*
X5077D01*
X7617Y979802D01*
Y974724D01*
X5077Y972185D01*
X-1D01*
X-2540Y974724D01*
X15234Y969646D02*
X17773Y972185D01*
Y974724D01*
X15234D01*
Y972185D01*
X17773D01*
X15234Y969646D01*
X12695Y967107D01*
X27930Y984881D02*
X30469Y987420D01*
X35548D01*
X38087Y984881D01*
Y974724D01*
X35548Y972185D01*
X30469D01*
X27930Y974724D01*
Y984881D01*
X43165D02*
X45704Y987420D01*
X50783D01*
X53322Y984881D01*
Y974724D01*
X50783Y972185D01*
X45704D01*
X43165Y974724D01*
Y984881D01*
X639039Y943359D02*
X644118D01*
X641579D01*
Y958594D01*
X639039Y956055D01*
X661892Y943359D02*
X651735D01*
X661892Y953516D01*
Y956055D01*
X659353Y958594D01*
X654275D01*
X651735Y956055D01*
X666970Y958594D02*
X677127D01*
Y956055D01*
X666970Y945899D01*
Y943359D01*
X684745Y940820D02*
X687284Y943359D01*
Y945899D01*
X684745D01*
Y943359D01*
X687284D01*
X684745Y940820D01*
X682206Y938281D01*
X697440Y956055D02*
X699980Y958594D01*
X705058D01*
X707597Y956055D01*
Y945899D01*
X705058Y943359D01*
X699980D01*
X697440Y945899D01*
Y956055D01*
X712676D02*
X715215Y958594D01*
X720293D01*
X722832Y956055D01*
Y945899D01*
X720293Y943359D01*
X715215D01*
X712676Y945899D01*
Y956055D01*
X639039Y-145031D02*
X644118D01*
X641579D01*
Y-129796D01*
X639039Y-132335D01*
X651735D02*
X654275Y-129796D01*
X659353D01*
X661892Y-132335D01*
Y-134874D01*
X659353Y-137413D01*
X656814D01*
X659353D01*
X661892Y-139952D01*
Y-142492D01*
X659353Y-145031D01*
X654275D01*
X651735Y-142492D01*
X666971Y-129796D02*
X677127D01*
Y-132335D01*
X666971Y-142492D01*
Y-145031D01*
X684745Y-147570D02*
X687284Y-145031D01*
Y-142492D01*
X684745D01*
Y-145031D01*
X687284D01*
X684745Y-147570D01*
X682206Y-150109D01*
X697441Y-132335D02*
X699980Y-129796D01*
X705058D01*
X707597Y-132335D01*
Y-142492D01*
X705058Y-145031D01*
X699980D01*
X697441Y-142492D01*
Y-132335D01*
X712676D02*
X715215Y-129796D01*
X720293D01*
X722832Y-132335D01*
Y-142492D01*
X720293Y-145031D01*
X715215D01*
X712676Y-142492D01*
Y-132335D01*
X-357505Y23493D02*
X-372740D01*
X-365122Y15875D01*
Y26032D01*
X-354966Y33649D02*
X-357505Y36188D01*
X-360044D01*
Y33649D01*
X-357505D01*
Y36188D01*
X-354966Y33649D01*
X-352427Y31110D01*
X-372740Y56502D02*
Y46345D01*
X-365122D01*
X-367662Y51424D01*
Y53963D01*
X-365122Y56502D01*
X-360044D01*
X-357505Y53963D01*
Y48884D01*
X-360044Y46345D01*
X-370201Y61580D02*
X-372740Y64119D01*
Y69198D01*
X-370201Y71737D01*
X-360044D01*
X-357505Y69198D01*
Y64119D01*
X-360044Y61580D01*
X-370201D01*
X23492Y-89540D02*
X13335D01*
Y-97157D01*
X18413Y-94618D01*
X20952D01*
X23492Y-97157D01*
Y-102236D01*
X20952Y-104775D01*
X15874D01*
X13335Y-102236D01*
X31109Y-107314D02*
X33648Y-104775D01*
Y-102236D01*
X31109D01*
Y-104775D01*
X33648D01*
X31109Y-107314D01*
X28570Y-109853D01*
X43805Y-92079D02*
X46344Y-89540D01*
X51423D01*
X53962Y-92079D01*
Y-102236D01*
X51423Y-104775D01*
X46344D01*
X43805Y-102236D01*
Y-92079D01*
X59040D02*
X61579Y-89540D01*
X66658D01*
X69197Y-92079D01*
Y-102236D01*
X66658Y-104775D01*
X61579D01*
X59040Y-102236D01*
Y-92079D01*
X-418845Y380387D02*
X-421384Y382927D01*
Y388005D01*
X-418845Y390544D01*
X-416306D01*
X-413767Y388005D01*
X-411228Y390544D01*
X-408689D01*
X-406149Y388005D01*
Y382927D01*
X-408689Y380387D01*
X-411228D01*
X-413767Y382927D01*
X-416306Y380387D01*
X-418845D01*
X-413767Y382927D02*
Y388005D01*
X-406149Y403240D02*
X-421384D01*
X-413767Y395623D01*
Y405779D01*
X-403610Y413397D02*
X-406149Y415936D01*
X-408689D01*
Y413397D01*
X-406149D01*
Y415936D01*
X-403610Y413397D01*
X-401071Y410858D01*
X-418845Y426093D02*
X-421384Y428632D01*
Y433710D01*
X-418845Y436249D01*
X-408689D01*
X-406149Y433710D01*
Y428632D01*
X-408689Y426093D01*
X-418845D01*
Y441328D02*
X-421384Y443867D01*
Y448945D01*
X-418845Y451484D01*
X-408689D01*
X-406149Y448945D01*
Y443867D01*
X-408689Y441328D01*
X-418845D01*
X-342009Y380387D02*
Y390544D01*
X-339470D01*
X-329314Y380387D01*
X-326774D01*
X-342009Y405779D02*
Y395623D01*
X-334392D01*
X-336931Y400701D01*
Y403240D01*
X-334392Y405779D01*
X-329314D01*
X-326774Y403240D01*
Y398162D01*
X-329314Y395623D01*
X-324235Y413397D02*
X-326774Y415936D01*
X-329314D01*
Y413397D01*
X-326774D01*
Y415936D01*
X-324235Y413397D01*
X-321696Y410858D01*
X-339470Y426093D02*
X-342009Y428632D01*
Y433710D01*
X-339470Y436249D01*
X-329314D01*
X-326774Y433710D01*
Y428632D01*
X-329314Y426093D01*
X-339470D01*
Y441328D02*
X-342009Y443867D01*
Y448945D01*
X-339470Y451484D01*
X-329314D01*
X-326774Y448945D01*
Y443867D01*
X-329314Y441328D01*
X-339470D01*
X639039Y-80261D02*
X644118D01*
X641579D01*
Y-65026D01*
X639039Y-67565D01*
X661892Y-80261D02*
X651735D01*
X661892Y-70104D01*
Y-67565D01*
X659353Y-65026D01*
X654275D01*
X651735Y-67565D01*
X666970Y-65026D02*
X677127D01*
Y-67565D01*
X666970Y-77722D01*
Y-80261D01*
X684745Y-82800D02*
X687284Y-80261D01*
Y-77722D01*
X684745D01*
Y-80261D01*
X687284D01*
X684745Y-82800D01*
X682206Y-85339D01*
X697441Y-67565D02*
X699980Y-65026D01*
X705058D01*
X707597Y-67565D01*
Y-77722D01*
X705058Y-80261D01*
X699980D01*
X697441Y-77722D01*
Y-67565D01*
X712676D02*
X715215Y-65026D01*
X720293D01*
X722832Y-67565D01*
Y-77722D01*
X720293Y-80261D01*
X715215D01*
X712676Y-77722D01*
Y-67565D01*
D58*
X695325Y448945D02*
G03*
X695325Y448945I-1250J0D01*
G01*
X117435Y747395D02*
G03*
X117435Y747395I-1250J0D01*
G01*
X418465Y90170D02*
G03*
X418465Y90170I-1250J0D01*
G01*
X372165Y693995D02*
G03*
X372165Y693995I-1250J0D01*
G01*
X404865Y203235D02*
G03*
X404865Y203235I-1250J0D01*
G01*
X894940Y620717D02*
G03*
X894940Y620717I-1250J0D01*
G01*
X202300Y203235D02*
G03*
X202300Y203235I-1250J0D01*
G01*
X809995Y202600D02*
G03*
X809995Y202600I-1250J0D01*
G01*
X340340Y214610D02*
G03*
X340340Y214610I-1250J0D01*
G01*
X822960Y90170D02*
G03*
X822960Y90170I-1250J0D01*
G01*
X215900D02*
G03*
X215900Y90170I-1250J0D01*
G01*
X350520Y741680D02*
G03*
X350520Y741680I-1250J0D01*
G01*
X136525Y448945D02*
G03*
X136525Y448945I-1250J0D01*
G01*
X621030Y90170D02*
G03*
X621030Y90170I-1250J0D01*
G01*
X712535Y823240D02*
G03*
X712535Y823240I-1250J0D01*
G01*
X106025Y321595D02*
G03*
X106025Y321595I-1250J0D01*
G01*
X606795Y202600D02*
G03*
X606795Y202600I-1250J0D01*
G01*
X1026120Y445135D02*
G03*
X1026120Y445135I-1250J0D01*
G01*
X1131160Y620717D02*
G03*
X1131160Y620717I-1250J0D01*
G01*
X1042615Y695715D02*
G03*
X1042615Y695715I-1250J0D01*
G01*
X941015D02*
G03*
X941015Y695715I-1250J0D01*
G01*
X839415D02*
G03*
X839415Y695715I-1250J0D01*
G01*
X1239675Y210075D02*
G03*
X1239675Y210075I-1250J0D01*
G01*
X1144389Y695715D02*
G03*
X1144389Y695715I-1250J0D01*
G01*
X744675Y214610D02*
G03*
X744675Y214610I-1250J0D01*
G01*
X1259160Y669430D02*
G03*
X1259160Y669430I-1250J0D01*
G01*
X1219180Y735310D02*
G03*
X1219180Y735310I-1250J0D01*
G01*
X925790Y274955D02*
G03*
X925790Y274955I-1250J0D01*
G01*
X756265Y726420D02*
G03*
X756265Y726420I-1250J0D01*
G01*
X1266424Y518405D02*
G03*
X1266424Y518405I-1250J0D01*
G01*
X821035Y125115D02*
G03*
X821035Y125115I-1250J0D01*
G01*
X213340D02*
G03*
X213340Y125115I-1250J0D01*
G01*
X415270D02*
G03*
X415270Y125115I-1250J0D01*
G01*
X617835D02*
G03*
X617835Y125115I-1250J0D01*
G01*
D59*
X55780Y630195D02*
G03*
X55780Y630195I-500J0D01*
G01*
D60*
X397665Y680245D02*
G03*
X397665Y680245I-3000J0D01*
G01*
X884090Y599217D02*
G03*
X884090Y599217I-3000J0D01*
G01*
X709595Y786750D02*
G03*
X709595Y786750I-3000J0D01*
G01*
X1120310Y599217D02*
G03*
X1120310Y599217I-3000J0D01*
G01*
D61*
X1088695Y181610D02*
G03*
X1088695Y181610I-36500J0D01*
G01*
X-84130Y302000D02*
G03*
X-77180Y295050I6950J0D01*
G01*
Y544950D02*
G03*
X-84130Y538000I0J-6950D01*
G01*
X-24180Y288050D02*
G03*
X-31130Y295000I-6950J0D01*
G01*
Y545000D02*
G03*
X-24180Y551950I0J6950D01*
G01*
X1088060Y256540D02*
G03*
X1088060Y256540I-36500J0D01*
G01*
X1401079Y295000D02*
G03*
X1394129Y288050I0J-6950D01*
G01*
Y551950D02*
G03*
X1401079Y545000I6950J0D01*
G01*
X1447129Y295050D02*
G03*
X1454079Y302000I0J6950D01*
G01*
Y538000D02*
G03*
X1447129Y544950I-6950J0D01*
G01*
X1038225Y452755D02*
Y503555D01*
X681355D02*
X1038225D01*
X681355Y452755D02*
Y503555D01*
Y452755D02*
X1038225D01*
X111075Y307980D02*
Y387980D01*
X1089075D01*
Y307980D02*
Y387980D01*
X111075Y307980D02*
X1089075D01*
X708050Y650955D02*
Y660955D01*
X727050Y650955D02*
Y660955D01*
X733505Y751815D02*
X743505D01*
X733505Y732815D02*
X743505D01*
X78105Y718185D02*
X128905D01*
Y743585D01*
X78105D02*
X128905D01*
X78105Y718185D02*
Y743585D01*
X47430Y636195D02*
X115130D01*
X47430D02*
Y706195D01*
X115130D01*
Y636195D02*
Y706195D01*
X455295Y93980D02*
Y119380D01*
X404495Y93980D02*
X455295D01*
X404495D02*
Y119380D01*
X455295D01*
X353060Y417195D02*
X581660D01*
X353060Y391795D02*
X581660D01*
Y417195D01*
X353060Y391795D02*
Y417195D01*
X584225Y160735D02*
Y170735D01*
X603225Y160735D02*
Y170735D01*
X707365Y244555D02*
Y254555D01*
X688365Y244555D02*
Y254555D01*
X787425Y160735D02*
Y170735D01*
X806425Y160735D02*
Y170735D01*
X910565Y244555D02*
Y254555D01*
X891565Y244555D02*
Y254555D01*
Y160735D02*
Y170735D01*
X910565Y160735D02*
Y170735D01*
X806425Y204550D02*
Y214550D01*
X787425Y204550D02*
Y214550D01*
X1175360Y528400D02*
Y538400D01*
X1156360Y528400D02*
Y538400D01*
X401295Y160735D02*
Y170735D01*
X382295Y160735D02*
Y170735D01*
X721915Y221640D02*
X731915D01*
X721915Y240640D02*
X731915D01*
X505435Y160735D02*
Y170735D01*
X486435Y160735D02*
Y170735D01*
X382295Y204550D02*
Y214550D01*
X401295Y204550D02*
Y214550D01*
X1109370Y650955D02*
Y660955D01*
X1128370Y650955D02*
Y660955D01*
X198730Y160735D02*
Y170735D01*
X179730Y160735D02*
Y170735D01*
X283870Y244555D02*
Y254555D01*
X302870Y244555D02*
Y254555D01*
Y160735D02*
Y170735D01*
X283870Y160735D02*
Y170735D01*
X179730Y204550D02*
Y214550D01*
X198730Y204550D02*
Y214550D01*
X1128370Y528400D02*
Y538400D01*
X1109370Y528400D02*
Y538400D01*
X577190Y204550D02*
Y214550D01*
X558190Y204550D02*
Y214550D01*
X577190Y21035D02*
Y31035D01*
X558190Y21035D02*
Y31035D01*
X577190Y55960D02*
Y65960D01*
X558190Y55960D02*
Y65960D01*
X577190Y90885D02*
Y100885D01*
X558190Y90885D02*
Y100885D01*
X577190Y160735D02*
Y170735D01*
X558190Y160735D02*
Y170735D01*
X681330Y204550D02*
Y214550D01*
X662330Y204550D02*
Y214550D01*
X681330Y244555D02*
Y254555D01*
X662330Y244555D02*
Y254555D01*
X707365Y21035D02*
Y31035D01*
X688365Y21035D02*
Y31035D01*
X707365Y55960D02*
Y65960D01*
X688365Y55960D02*
Y65960D01*
X384665Y608745D02*
Y690245D01*
X466165Y608745D02*
Y690245D01*
X384665D02*
X466165D01*
X384665Y608745D02*
X466165D01*
X754405Y609045D02*
Y619045D01*
X773405Y609045D02*
Y619045D01*
Y528400D02*
Y538400D01*
X754405Y528400D02*
Y538400D01*
X722550Y160045D02*
X732550D01*
X722550Y179045D02*
X732550D01*
X1238225Y718265D02*
Y728265D01*
X1219225Y718265D02*
Y728265D01*
X688365Y204550D02*
Y214550D01*
X707365Y204550D02*
Y214550D01*
X884530Y204550D02*
Y214550D01*
X865530Y204550D02*
Y214550D01*
X910565Y204550D02*
Y214550D01*
X891565Y204550D02*
Y214550D01*
X375260Y160735D02*
Y170735D01*
X356260Y160735D02*
Y170735D01*
X505435Y204550D02*
Y214550D01*
X486435Y204550D02*
Y214550D01*
X172695Y160735D02*
Y170735D01*
X153695Y160735D02*
Y170735D01*
X172695Y204550D02*
Y214550D01*
X153695Y204550D02*
Y214550D01*
X1132865Y650955D02*
Y660955D01*
X1151865Y650955D02*
Y660955D01*
X406165Y216235D02*
X456165D01*
X406165Y242235D02*
X456165D01*
X406165Y216235D02*
Y242235D01*
X456165Y216235D02*
Y242235D01*
X803090Y577217D02*
Y609217D01*
X891090Y577217D02*
Y609217D01*
X803090Y577217D02*
X891090D01*
X803090Y609217D02*
X891090D01*
X203600Y216235D02*
X253600D01*
X203600Y242235D02*
X253600D01*
X203600Y216235D02*
Y242235D01*
X253600Y216235D02*
Y242235D01*
X811295Y215600D02*
X861295D01*
X811295Y241600D02*
X861295D01*
X811295Y215600D02*
Y241600D01*
X861295Y215600D02*
Y241600D01*
X307580Y193660D02*
X315580D01*
X307580D02*
Y197660D01*
X329580Y193660D02*
X337580D01*
Y197660D01*
X910565Y55960D02*
Y65960D01*
X891565Y55960D02*
Y65960D01*
X781025Y90885D02*
Y100885D01*
X762025Y90885D02*
Y100885D01*
X655295Y160735D02*
Y170735D01*
X636295Y160735D02*
Y170735D01*
X629260Y160735D02*
Y170735D01*
X610260Y160735D02*
Y170735D01*
X808990Y119380D02*
X859790D01*
X808990Y93980D02*
Y119380D01*
Y93980D02*
X859790D01*
Y119380D01*
X318215Y160045D02*
X328215D01*
X318215Y179045D02*
X328215D01*
X317707Y221640D02*
X327707D01*
X317707Y240640D02*
X327707D01*
X374625Y55960D02*
Y65960D01*
X355625Y55960D02*
Y65960D01*
X252730Y93980D02*
Y119380D01*
X201930Y93980D02*
X252730D01*
X201930D02*
Y119380D01*
X252730D01*
X175965Y86585D02*
X279465D01*
X279965Y3585D02*
Y86585D01*
X175965Y3585D02*
X279465D01*
X175965D02*
Y86585D01*
X187965Y3585D02*
Y11085D01*
X216965D01*
Y3585D02*
Y11085D01*
X238965Y3585D02*
Y11085D01*
X267965D01*
Y3585D02*
Y11085D01*
X378530Y86585D02*
X482030D01*
X482530Y3585D02*
Y86585D01*
X378530Y3585D02*
X482030D01*
X378530D02*
Y86585D01*
X390530Y3585D02*
Y11085D01*
X419530D01*
Y3585D02*
Y11085D01*
X441530Y3585D02*
Y11085D01*
X470530D01*
Y3585D02*
Y11085D01*
X785565Y86585D02*
X889065D01*
X889565Y3585D02*
Y86585D01*
X785565Y3585D02*
X889065D01*
X785565D02*
Y86585D01*
X797565Y3585D02*
Y11085D01*
X826565D01*
Y3585D02*
Y11085D01*
X848565Y3585D02*
Y11085D01*
X877565D01*
Y3585D02*
Y11085D01*
X370220Y710170D02*
Y718170D01*
X366220Y710170D02*
X370220D01*
Y732170D02*
Y740170D01*
X366220D02*
X370220D01*
X355045Y760705D02*
X365045D01*
X355045Y741705D02*
X365045D01*
X497920Y730860D02*
X507920D01*
X497920Y711860D02*
X507920D01*
X122555Y503555D02*
X630555D01*
X147955Y452755D02*
Y539115D01*
X173355Y452755D02*
Y539115D01*
X198755Y452755D02*
Y539115D01*
X224790Y452755D02*
Y539115D01*
X325755Y452755D02*
Y539115D01*
X122555D02*
X630555D01*
X122555Y452755D02*
Y503555D01*
X351155Y452755D02*
Y539115D01*
X376555Y452755D02*
Y539115D01*
X453390Y452755D02*
Y539115D01*
X553720Y452755D02*
Y539115D01*
X579755Y452755D02*
Y539115D01*
X605155Y452755D02*
Y539115D01*
X630555Y452755D02*
Y539115D01*
X122555Y452755D02*
X630555D01*
X122555Y503555D02*
Y539115D01*
X1240130Y562055D02*
Y572055D01*
X1221130Y562055D02*
Y572055D01*
X172060Y21035D02*
Y31035D01*
X153060Y21035D02*
Y31035D01*
X478290Y584595D02*
X504790D01*
X478290Y539095D02*
Y584595D01*
X504790Y539095D02*
Y584595D01*
X478290Y539095D02*
X504790D01*
X521215Y539895D02*
X531215D01*
X521215Y558895D02*
X531215D01*
X521415Y584175D02*
X531415D01*
X521415Y565175D02*
X531415D01*
X22305Y677570D02*
X32305D01*
X22305Y696570D02*
X32305D01*
X22305Y654710D02*
X32305D01*
X22305Y673710D02*
X32305D01*
X95910Y765255D02*
Y775255D01*
X114910Y765255D02*
Y775255D01*
X118135Y765255D02*
Y775255D01*
X137135Y765255D02*
Y775255D01*
X607060Y119380D02*
X657860D01*
X607060Y93980D02*
Y119380D01*
Y93980D02*
X657860D01*
Y119380D01*
X22305Y632485D02*
X32305D01*
X22305Y651485D02*
X32305D01*
X715735Y735490D02*
Y795180D01*
X524985Y795335D02*
X715485D01*
X524735Y735335D02*
X715735D01*
X524735Y735490D02*
Y795180D01*
X573485Y682515D02*
X583485D01*
X573485Y700265D02*
X583485D01*
X740570Y791760D02*
X760570D01*
X740570Y828760D02*
X760570D01*
X1050100Y114555D02*
Y130555D01*
Y114555D02*
X1058100D01*
X1050100Y130555D02*
X1058100D01*
X1201310Y335360D02*
Y345360D01*
X1219060Y335360D02*
Y345360D01*
X1255825Y126415D02*
Y164415D01*
X1239325Y168915D02*
Y176915D01*
X1167325D02*
X1239325D01*
X1167325Y168915D02*
Y176915D01*
X1239325Y113915D02*
Y121915D01*
X1167325Y113915D02*
X1239325D01*
X1167325D02*
Y121915D01*
X1214325Y113915D02*
Y176915D01*
X1335015Y135950D02*
X1361515D01*
X1291515D02*
X1318015D01*
X1334515Y206950D02*
X1350515D01*
X1302015D02*
X1318015D01*
X1361515Y135950D02*
Y195950D01*
X1350515Y206950D02*
X1361515Y195950D01*
X1291515Y135950D02*
Y196450D01*
X1302015Y206950D01*
X1351515Y210450D02*
X1361515D01*
X1356515Y205450D02*
Y215450D01*
X1001195Y181610D02*
X1011195D01*
X1006195Y176610D02*
Y186610D01*
X707365Y90885D02*
Y100885D01*
X688365Y90885D02*
Y100885D01*
X780390Y21035D02*
Y31035D01*
X761390Y21035D02*
Y31035D01*
X780390Y55960D02*
Y65960D01*
X761390Y55960D02*
Y65960D01*
X832460Y160735D02*
Y170735D01*
X813460Y160735D02*
Y170735D01*
X910565Y21035D02*
Y31035D01*
X891565Y21035D02*
Y31035D01*
X910565Y90885D02*
Y100885D01*
X891565Y90885D02*
Y100885D01*
X858495Y160735D02*
Y170735D01*
X839495Y160735D02*
Y170735D01*
X374625Y21035D02*
Y31035D01*
X355625Y21035D02*
Y31035D01*
X374625Y90885D02*
Y100885D01*
X355625Y90885D02*
Y100885D01*
X427330Y160735D02*
Y170735D01*
X408330Y160735D02*
Y170735D01*
X504800Y55960D02*
Y65960D01*
X485800Y55960D02*
Y65960D01*
X504800Y90885D02*
Y100885D01*
X485800Y90885D02*
Y100885D01*
X453365Y160735D02*
Y170735D01*
X434365Y160735D02*
Y170735D01*
X172060Y90885D02*
Y100885D01*
X153060Y90885D02*
Y100885D01*
X224765Y160735D02*
Y170735D01*
X205765Y160735D02*
Y170735D01*
X302235Y55960D02*
Y65960D01*
X283235Y55960D02*
Y65960D01*
X302235Y90885D02*
Y100885D01*
X283235Y90885D02*
Y100885D01*
X250800Y160735D02*
Y170735D01*
X231800Y160735D02*
Y170735D01*
X-24130Y620000D02*
X100870D01*
X-24130Y220000D02*
X100870D01*
X-77130Y545000D02*
X-31130D01*
X-77130Y295000D02*
X-31130D01*
X-84130Y302000D02*
Y538000D01*
X100870Y220000D02*
Y620000D01*
X5870Y531400D02*
X100870D01*
X-24130Y220000D02*
Y620000D01*
X5870Y308600D02*
X100870D01*
X5870Y220000D02*
Y620000D01*
X688365Y160735D02*
Y170735D01*
X707365Y160735D02*
Y170735D01*
X603225Y204550D02*
Y214550D01*
X584225Y204550D02*
Y214550D01*
X486435Y244555D02*
Y254555D01*
X505435Y244555D02*
Y254555D01*
X1000560Y256540D02*
X1010560D01*
X1005560Y251540D02*
Y261540D01*
X1268985Y186880D02*
X1284985D01*
X1268985Y178880D02*
Y186880D01*
X1284985Y178880D02*
Y186880D01*
X1218375Y183135D02*
Y199135D01*
Y183135D02*
X1226375D01*
X1218375Y199135D02*
X1226375D01*
X608095Y215600D02*
X658095D01*
X608095Y241600D02*
X658095D01*
X608095Y215600D02*
Y241600D01*
X658095Y215600D02*
Y241600D01*
X603225Y244555D02*
Y254555D01*
X584225Y244555D02*
Y254555D01*
X681330Y160735D02*
Y170735D01*
X662330Y160735D02*
Y170735D01*
X780390Y160735D02*
Y170735D01*
X761390Y160735D02*
Y170735D01*
X884530Y244555D02*
Y254555D01*
X865530Y244555D02*
Y254555D01*
X806425Y244555D02*
Y254555D01*
X787425Y244555D02*
Y254555D01*
X479400Y160735D02*
Y170735D01*
X460400Y160735D02*
Y170735D01*
X479400Y244555D02*
Y254555D01*
X460400Y244555D02*
Y254555D01*
X479400Y204550D02*
Y214550D01*
X460400Y204550D02*
Y214550D01*
X780390Y204550D02*
Y214550D01*
X761390Y204550D02*
Y214550D01*
X884530Y160735D02*
Y170735D01*
X865530Y160735D02*
Y170735D01*
X401295Y244555D02*
Y254555D01*
X382295Y244555D02*
Y254555D01*
X375260Y204550D02*
Y214550D01*
X356260Y204550D02*
Y214550D01*
X276835Y160735D02*
Y170735D01*
X257835Y160735D02*
Y170735D01*
X198730Y244555D02*
Y254555D01*
X179730Y244555D02*
Y254555D01*
X283870Y204550D02*
Y214550D01*
X302870Y204550D02*
Y214550D01*
X257835Y204550D02*
Y214550D01*
X276835Y204550D02*
Y214550D01*
X276835Y244555D02*
Y254555D01*
X257835Y244555D02*
Y254555D01*
X1037590Y390525D02*
Y441325D01*
X935990Y390525D02*
X1037590D01*
X936625Y441325D02*
X1037590D01*
X935990Y390525D02*
Y441325D01*
X1148545Y108785D02*
X1222795D01*
X1121045Y81285D02*
X1148545Y108785D01*
X1121045Y75785D02*
Y81285D01*
X1222795Y108785D02*
X1250045Y81535D01*
Y75785D02*
Y81535D01*
Y34785D02*
Y39785D01*
X1222045Y6785D02*
X1250045Y34785D01*
X1149045Y6785D02*
X1222045D01*
X1121045Y34785D02*
Y39785D01*
Y34785D02*
X1149045Y6785D01*
X1156360Y609045D02*
Y619045D01*
X1175360Y609045D02*
Y619045D01*
X990625Y609045D02*
Y619045D01*
X1009625Y609045D02*
Y619045D01*
Y528400D02*
Y538400D01*
X990625Y528400D02*
Y538400D01*
X1037615Y650955D02*
Y660955D01*
X1056615Y650955D02*
Y660955D01*
X1037615Y528400D02*
Y538400D01*
X1056615Y528400D02*
Y538400D01*
X920140Y609045D02*
Y619045D01*
X939140Y609045D02*
Y619045D01*
Y528400D02*
Y538400D01*
X920140Y528400D02*
Y538400D01*
X873150Y650955D02*
Y660955D01*
X892150Y650955D02*
Y660955D01*
X873150Y528400D02*
Y538400D01*
X892150Y528400D02*
Y538400D01*
X801395Y528400D02*
Y538400D01*
X820395Y528400D02*
Y538400D01*
X1179855Y650955D02*
Y660955D01*
X1198855Y650955D02*
Y660955D01*
X1179855Y609045D02*
Y619045D01*
X1198855Y609045D02*
Y619045D01*
X1179855Y568405D02*
Y578405D01*
X1198855Y568405D02*
Y578405D01*
X1175360Y568405D02*
Y578405D01*
X1156360Y568405D02*
Y578405D01*
X1156360Y650955D02*
Y660955D01*
X1175360Y650955D02*
Y660955D01*
X1179855Y528400D02*
Y538400D01*
X1198855Y528400D02*
Y538400D01*
X1104875Y528400D02*
Y538400D01*
X1085875Y528400D02*
Y538400D01*
X1151865Y528400D02*
Y538400D01*
X1132865Y528400D02*
Y538400D01*
X967130Y650955D02*
Y660955D01*
X986130Y650955D02*
Y660955D01*
X967130Y609045D02*
Y619045D01*
X986130Y609045D02*
Y619045D01*
X967130Y568405D02*
Y578405D01*
X986130Y568405D02*
Y578405D01*
X1009625Y568405D02*
Y578405D01*
X990625Y568405D02*
Y578405D01*
X990625Y650955D02*
Y660955D01*
X1009625Y650955D02*
Y660955D01*
X1014120Y650955D02*
Y660955D01*
X1033120Y650955D02*
Y660955D01*
X967130Y528400D02*
Y538400D01*
X986130Y528400D02*
Y538400D01*
X1080110Y528400D02*
Y538400D01*
X1061110Y528400D02*
Y538400D01*
X1033120Y528400D02*
Y538400D01*
X1014120Y528400D02*
Y538400D01*
X943635Y650955D02*
Y660955D01*
X962635Y650955D02*
Y660955D01*
X943635Y609045D02*
Y619045D01*
X962635Y609045D02*
Y619045D01*
X943635Y568405D02*
Y578405D01*
X962635Y568405D02*
Y578405D01*
X939140Y568405D02*
Y578405D01*
X920140Y568405D02*
Y578405D01*
X920140Y650955D02*
Y660955D01*
X939140Y650955D02*
Y660955D01*
X896645Y650955D02*
Y660955D01*
X915645Y650955D02*
Y660955D01*
X943635Y528400D02*
Y538400D01*
X962635Y528400D02*
Y538400D01*
X868655Y528400D02*
Y538400D01*
X849655Y528400D02*
Y538400D01*
X915645Y528400D02*
Y538400D01*
X896645Y528400D02*
Y538400D01*
X730910Y568405D02*
Y578405D01*
X749910Y568405D02*
Y578405D01*
X773405Y568405D02*
Y578405D01*
X754405Y568405D02*
Y578405D01*
X730910Y528400D02*
Y538400D01*
X749910Y528400D02*
Y538400D01*
X843890Y528400D02*
Y538400D01*
X824890Y528400D02*
Y538400D01*
X796900Y528400D02*
Y538400D01*
X777900Y528400D02*
Y538400D01*
X1039310Y577217D02*
Y609217D01*
X1127310Y577217D02*
Y609217D01*
X1039310Y577217D02*
X1127310D01*
X1039310Y609217D02*
X1127310D01*
X909400Y695300D02*
X919400D01*
X909400Y676300D02*
X919400D01*
X787480Y694030D02*
X797480D01*
X787480Y675030D02*
X797480D01*
X1122760Y695300D02*
X1132760D01*
X1122760Y676300D02*
X1132760D01*
X1009095Y694030D02*
X1019095D01*
X1009095Y675030D02*
X1019095D01*
X1028365Y698265D02*
Y748265D01*
X1002365Y698265D02*
Y748265D01*
Y698265D02*
X1028365D01*
X1002365Y748265D02*
X1028365D01*
X926765Y698265D02*
Y748265D01*
X900765Y698265D02*
Y748265D01*
Y698265D02*
X926765D01*
X900765Y748265D02*
X926765D01*
X825165Y698265D02*
Y748265D01*
X799165Y698265D02*
Y748265D01*
Y698265D02*
X825165D01*
X799165Y748265D02*
X825165D01*
X1179925Y206225D02*
X1197425D01*
Y310225D01*
X1179925D02*
X1197425D01*
X520445Y732245D02*
Y775495D01*
X504445D02*
X520445D01*
X504445Y732245D02*
Y775495D01*
Y732245D02*
X520445D01*
X502665D02*
Y775495D01*
X486665D02*
X502665D01*
X486665Y732245D02*
Y775495D01*
Y732245D02*
X502665D01*
X406560Y726990D02*
X426560D01*
X406560Y763990D02*
X426560D01*
X820395Y650955D02*
Y660955D01*
X801395Y650955D02*
Y660955D01*
X730910Y609045D02*
Y619045D01*
X749910Y609045D02*
Y619045D01*
X754405Y650955D02*
Y660955D01*
X773405Y650955D02*
Y660955D01*
X777900Y650955D02*
Y660955D01*
X796900Y650955D02*
Y660955D01*
X888295Y753520D02*
Y836520D01*
X989895Y753520D02*
Y836520D01*
X1091495Y753520D02*
Y836520D01*
X1091790Y753520D02*
X1194365D01*
X1091565Y753745D02*
X1091790Y753520D01*
X1090865Y836520D02*
X1194365D01*
Y753520D02*
Y836520D01*
X1182365Y829020D02*
Y836520D01*
X1153365Y829020D02*
X1182365D01*
X1153365D02*
Y836520D01*
X1131365Y829020D02*
Y836520D01*
X1102365Y829020D02*
X1131365D01*
X1102365D02*
Y836520D01*
X989965Y753520D02*
X1092765D01*
X989965Y836520D02*
X1092765D01*
X1080765Y829020D02*
Y836520D01*
X1051765Y829020D02*
X1080765D01*
X1051765D02*
Y836520D01*
X1029765Y829020D02*
Y836520D01*
X1000765Y829020D02*
X1029765D01*
X1000765D02*
Y836520D01*
X888365Y753520D02*
X991165D01*
X888365Y836520D02*
X991165D01*
X979165Y829020D02*
Y836520D01*
X950165Y829020D02*
X979165D01*
X950165D02*
Y836520D01*
X928165Y829020D02*
Y836520D01*
X899165Y829020D02*
X928165D01*
X899165D02*
Y836520D01*
X797565Y829020D02*
Y836520D01*
Y829020D02*
X826565D01*
Y836520D01*
X848565Y829020D02*
Y836520D01*
Y829020D02*
X877565D01*
Y836520D01*
X786065D02*
X889565D01*
X785565Y753520D02*
Y836520D01*
X786065Y753520D02*
X889565D01*
X1130139Y698265D02*
Y748265D01*
X1104139Y698265D02*
Y748265D01*
Y698265D02*
X1130139D01*
X1104139Y748265D02*
X1130139D01*
X711915Y193660D02*
X719915D01*
X711915D02*
Y197660D01*
X733915Y193660D02*
X741915D01*
Y197660D01*
X1226400Y648480D02*
X1234400D01*
X1226400D02*
Y652480D01*
X1248400Y648480D02*
X1256400D01*
Y652480D01*
X1163980Y718265D02*
Y728265D01*
X1182980Y718265D02*
Y728265D01*
X1186420Y714360D02*
X1194420D01*
X1186420D02*
Y718360D01*
X1208420Y714360D02*
X1216420D01*
Y718360D01*
X172060Y55960D02*
Y65960D01*
X153060Y55960D02*
Y65960D01*
X302235Y21035D02*
Y31035D01*
X283235Y21035D02*
Y31035D01*
X504800Y21035D02*
Y31035D01*
X485800Y21035D02*
Y31035D01*
X351760Y278765D02*
Y304165D01*
X938560Y278765D02*
Y304165D01*
X351790D02*
X938560D01*
X351790Y278765D02*
X938560D01*
X1280135Y650320D02*
Y660320D01*
X1261135Y650320D02*
Y660320D01*
X1202715Y650955D02*
Y660955D01*
X1221715Y650955D02*
Y660955D01*
X723505Y705470D02*
X731505D01*
X723505D02*
Y709470D01*
X745505Y705470D02*
X753505D01*
Y709470D01*
X581730Y86585D02*
X685230D01*
X685730Y3585D02*
Y86585D01*
X581730Y3585D02*
X685230D01*
X581730D02*
Y86585D01*
X593730Y3585D02*
Y11085D01*
X622730D01*
Y3585D02*
Y11085D01*
X644730Y3585D02*
Y11085D01*
X673730D01*
Y3585D02*
Y11085D01*
X1364079Y220000D02*
Y620000D01*
X1269079Y531400D02*
X1364079D01*
X1394079Y220000D02*
Y620000D01*
X1269079Y308600D02*
X1364079D01*
X1269079Y220000D02*
Y620000D01*
X1454079Y302000D02*
Y538000D01*
X1401079Y545000D02*
X1447079D01*
X1401079Y295000D02*
X1447079D01*
X1269079Y620000D02*
X1394079D01*
X1269079Y220000D02*
X1394079D01*
X821295Y142065D02*
Y146065D01*
X829295D01*
X851295Y142065D02*
Y146065D01*
X843295D02*
X851295D01*
X213600Y142065D02*
Y146065D01*
X221600D01*
X243600Y142065D02*
Y146065D01*
X235600D02*
X243600D01*
X415530Y142065D02*
Y146065D01*
X423530D01*
X445530Y142065D02*
Y146065D01*
X437530D02*
X445530D01*
X618095Y142065D02*
Y146065D01*
X626095D01*
X648095Y142065D02*
Y146065D01*
X640095D02*
X648095D01*
X730910Y650955D02*
Y660955D01*
X749910Y650955D02*
Y660955D01*
D62*
X224790Y325755D02*
X228176D01*
X226483D01*
Y335912D01*
X224790Y334219D01*
X221401Y382267D02*
X214630D01*
Y377188D01*
X218016Y378881D01*
X219708D01*
X221401Y377188D01*
Y373803D01*
X219708Y372110D01*
X216323D01*
X214630Y373803D01*
X224787Y372110D02*
X228172D01*
X226479D01*
Y382267D01*
X224787Y380574D01*
X319191Y324482D02*
X315806Y322789D01*
X312420Y319403D01*
Y316018D01*
X314113Y314325D01*
X317498D01*
X319191Y316018D01*
Y317711D01*
X317498Y319403D01*
X312420D01*
X305856Y382902D02*
X299085D01*
Y377823D01*
X302471Y379516D01*
X304163D01*
X305856Y377823D01*
Y374438D01*
X304163Y372745D01*
X300778D01*
X299085Y374438D01*
X316013Y382902D02*
X309242D01*
Y377823D01*
X312627Y379516D01*
X314320D01*
X316013Y377823D01*
Y374438D01*
X314320Y372745D01*
X310935D01*
X309242Y374438D01*
X347980Y342262D02*
X354751D01*
Y340569D01*
X347980Y333798D01*
Y332105D01*
X345226Y381632D02*
X338455D01*
Y376553D01*
X341841Y378246D01*
X343533D01*
X345226Y376553D01*
Y373168D01*
X343533Y371475D01*
X340148D01*
X338455Y373168D01*
X348612Y381632D02*
X355383D01*
Y379939D01*
X348612Y373168D01*
Y371475D01*
X572556Y313690D02*
X565785D01*
X572556Y320461D01*
Y322154D01*
X570863Y323847D01*
X567478D01*
X565785Y322154D01*
X582713Y313690D02*
X575942D01*
X582713Y320461D01*
Y322154D01*
X581020Y323847D01*
X577635D01*
X575942Y322154D01*
X554355Y381632D02*
X561126D01*
Y379939D01*
X554355Y373168D01*
Y371475D01*
X564512D02*
X567897D01*
X566204D01*
Y381632D01*
X564512Y379939D01*
X610021Y314960D02*
X603250D01*
X610021Y321731D01*
Y323424D01*
X608328Y325117D01*
X604943D01*
X603250Y323424D01*
X618485Y314960D02*
Y325117D01*
X613407Y320038D01*
X620178D01*
X591185Y382267D02*
X597956D01*
Y380574D01*
X591185Y373803D01*
Y372110D01*
X601342Y380574D02*
X603035Y382267D01*
X606420D01*
X608113Y380574D01*
Y378881D01*
X606420Y377188D01*
X604727D01*
X606420D01*
X608113Y375496D01*
Y373803D01*
X606420Y372110D01*
X603035D01*
X601342Y373803D01*
X964565Y370840D02*
X967951D01*
X966258D01*
Y380997D01*
X964565Y379304D01*
X973029D02*
X974722Y380997D01*
X978107D01*
X979800Y379304D01*
Y372533D01*
X978107Y370840D01*
X974722D01*
X973029Y372533D01*
Y379304D01*
X983186D02*
X984878Y380997D01*
X988264D01*
X989957Y379304D01*
Y372533D01*
X988264Y370840D01*
X984878D01*
X983186Y372533D01*
Y379304D01*
X979591Y323847D02*
X972820D01*
Y318768D01*
X976206Y320461D01*
X977898D01*
X979591Y318768D01*
Y315383D01*
X977898Y313690D01*
X974513D01*
X972820Y315383D01*
X982977Y322154D02*
X984669Y323847D01*
X988055D01*
X989748Y322154D01*
Y315383D01*
X988055Y313690D01*
X984669D01*
X982977Y315383D01*
Y322154D01*
X93345Y298715D02*
Y302101D01*
Y300408D01*
X83188D01*
X84881Y298715D01*
Y536840D02*
X83188Y538533D01*
Y541918D01*
X84881Y543611D01*
X86574D01*
X88267Y541918D01*
X89959Y543611D01*
X91652D01*
X93345Y541918D01*
Y538533D01*
X91652Y536840D01*
X89959D01*
X88267Y538533D01*
X86574Y536840D01*
X84881D01*
X88267Y538533D02*
Y541918D01*
X64135Y534300D02*
Y537686D01*
Y535993D01*
X53978D01*
X55671Y534300D01*
X53978Y549535D02*
Y542764D01*
X59057D01*
X57364Y546149D01*
Y547842D01*
X59057Y549535D01*
X62442D01*
X64135Y547842D01*
Y544457D01*
X62442Y542764D01*
X61172Y294270D02*
X62865Y295963D01*
Y299348D01*
X61172Y301041D01*
X54401D01*
X52708Y299348D01*
Y295963D01*
X54401Y294270D01*
X56094D01*
X57787Y295963D01*
Y301041D01*
X1308777Y545730D02*
X1307084Y544037D01*
Y540652D01*
X1308777Y538959D01*
X1315548D01*
X1317241Y540652D01*
Y544037D01*
X1315548Y545730D01*
X1313855D01*
X1312162Y544037D01*
Y538959D01*
X1305814Y305700D02*
Y302314D01*
Y304007D01*
X1315971D01*
X1314278Y305700D01*
X1315971Y290465D02*
Y297236D01*
X1310892D01*
X1312585Y293850D01*
Y292158D01*
X1310892Y290465D01*
X1307507D01*
X1305814Y292158D01*
Y295543D01*
X1307507Y297236D01*
X1285068Y303160D02*
X1286761Y301467D01*
Y298082D01*
X1285068Y296389D01*
X1283375D01*
X1281682Y298082D01*
X1279990Y296389D01*
X1278297D01*
X1276604Y298082D01*
Y301467D01*
X1278297Y303160D01*
X1279990D01*
X1281682Y301467D01*
X1283375Y303160D01*
X1285068D01*
X1281682Y301467D02*
Y298082D01*
X1276604Y541285D02*
Y537899D01*
Y539592D01*
X1286761D01*
X1285068Y541285D01*
D63*
X1052850Y122555D02*
D03*
X1221125Y191135D02*
D03*
D64*
X1276985Y184130D02*
D03*
M02*
